<svg xmlns="http://www.w3.org/2000/svg" version="1.1" id="ludo-svg-node-iy4wkpvt" width="45" height="45"
     viewBox="0 0 45 45" style="-webkit-tap-highlight-color: rgba(0, 0, 0, 0); width: 45px; height: 45px;">
    <g id="ludo-svg-node-iy4wkpvu" style="-webkit-tap-highlight-color: rgba(0, 0, 0, 0);">

        <path id="ludo-svg-node-iy4wkpxq"
              d="M 11.0302734375 19.072265625 L 9.8876953125 19.09423828125 L 9.31640625 20.50048828125 L 10.83251953125 20.9619140625 L 11.84326171875 19.75341796875 L 11.0302734375 19.072265625 Z"
              fill="#e5e0bf" style="-webkit-tap-highlight-color: rgba(0, 0, 0, 0);"></path>
        <path id="ludo-svg-node-iy4wkpxr"
              d="M 22.8076171875 14.96337890625 Q 23.5546875 14.9853515625 22.4560546875 13.46923828125 Q 21.357421875 11.953125 20.6982421875 12.54638671875 L 18.1494140625 14.94140625 L 22.8076171875 14.96337890625 Z"
              fill="#e5e0bf" style="-webkit-tap-highlight-color: rgba(0, 0, 0, 0);"></path>
        <path id="ludo-svg-node-iy4wkpxs"
              d="M 15.380859375 12.81005859375 Q 15.5126953125 11.953125 17.918701171875 10.447998046875 Q 20.32470703125 8.94287109375 22.763671875 7.294921875 L 25.29052734375 3.9111328125 L 27.39990234375 8.67919921875 Q 34.91455078125 12.45849609375 36.903076171875 17.852783203125 Q 38.8916015625 23.2470703125 37.94677734375 31.11328125 Q 37.55126953125 33.92578125 38.045654296875 36.298828125 Q 38.5400390625 38.671875 39.30908203125 40.4736328125 L 12.01904296875 40.49560546875 Q 11.8212890625 36.58447265625 12.8759765625 33.870849609375 Q 13.9306640625 31.1572265625 16.89697265625 28.65234375 Q 17.99560546875 28.41064453125 18.709716796875 27.784423828125 Q 19.423828125 27.158203125 19.88525390625 26.4990234375 Q 19.88525390625 26.4990234375 21.258544921875 26.47705078125 Q 22.6318359375 26.455078125 24.290771484375 25.83984375 Q 25.94970703125 25.224609375 27.344970703125 23.70849609375 Q 28.740234375 22.1923828125 28.80615234375 19.16015625 Q 28.80615234375 18.78662109375 28.619384765625 18.4130859375 Q 28.4326171875 18.03955078125 28.36669921875 17.60009765625 Q 27.00439453125 22.60986328125 24.8291015625 23.939208984375 Q 22.65380859375 25.2685546875 20.63232421875 25.224609375 Q 15.44677734375 24.3017578125 14.21630859375 26.54296875 Q 12.98583984375 28.7841796875 12.98583984375 28.7841796875 L 8.2177734375 26.12548828125 L 10.74462890625 24.32373046875 L 9.6240234375 23.22509765625 L 6.943359375 25.11474609375 L 6.6796875 18.5888671875 L 15.380859375 12.81005859375 Z"
              fill="#e5e0bf" style="-webkit-tap-highlight-color: rgba(0, 0, 0, 0);"></path>
        <path id="ludo-svg-node-iy4wkpxt"
              d="M 11.0302734375 19.072265625 L 9.8876953125 19.09423828125 L 9.31640625 20.50048828125 L 10.83251953125 20.9619140625 L 11.84326171875 19.75341796875 L 11.0302734375 19.072265625 M 22.8076171875 14.96337890625 Q 23.5546875 14.9853515625 22.4560546875 13.46923828125 Q 21.357421875 11.953125 20.6982421875 12.54638671875 L 18.1494140625 14.94140625 L 22.8076171875 14.96337890625 M 15.380859375 12.81005859375 Q 15.5126953125 11.953125 17.918701171875 10.447998046875 Q 20.32470703125 8.94287109375 22.763671875 7.294921875 L 25.29052734375 3.9111328125 L 27.39990234375 8.67919921875 Q 34.91455078125 12.45849609375 36.903076171875 17.852783203125 Q 38.8916015625 23.2470703125 37.94677734375 31.11328125 Q 37.55126953125 33.92578125 38.045654296875 36.298828125 Q 38.5400390625 38.671875 39.30908203125 40.4736328125 L 12.01904296875 40.49560546875 Q 11.8212890625 36.58447265625 12.8759765625 33.870849609375 Q 13.9306640625 31.1572265625 16.89697265625 28.65234375 Q 17.99560546875 28.41064453125 18.709716796875 27.784423828125 Q 19.423828125 27.158203125 19.88525390625 26.4990234375 Q 19.88525390625 26.4990234375 21.258544921875 26.47705078125 Q 22.6318359375 26.455078125 24.290771484375 25.83984375 Q 25.94970703125 25.224609375 27.344970703125 23.70849609375 Q 28.740234375 22.1923828125 28.80615234375 19.16015625 Q 28.80615234375 18.78662109375 28.619384765625 18.4130859375 Q 28.4326171875 18.03955078125 28.36669921875 17.60009765625 Q 27.00439453125 22.60986328125 24.8291015625 23.939208984375 Q 22.65380859375 25.2685546875 20.63232421875 25.224609375 Q 15.44677734375 24.3017578125 14.21630859375 26.54296875 Q 12.98583984375 28.7841796875 12.98583984375 28.7841796875 L 8.2177734375 26.12548828125 L 10.74462890625 24.32373046875 L 9.6240234375 23.22509765625 L 6.943359375 25.11474609375 L 6.6796875 18.5888671875 L 15.380859375 12.81005859375 M 36.93603515625 39.00146484375 Q 34.69482421875 36.14501953125 35.068359375 32.222900390625 Q 35.44189453125 28.30078125 35.66162109375 24.2578125 Q 35.88134765625 20.21484375 34.56298828125 16.534423828125 Q 33.24462890625 12.85400390625 27.61962890625 10.48095703125 Q 32.45361328125 14.08447265625 33.167724609375 17.99560546875 Q 33.8818359375 21.90673828125 33.5302734375 25.697021484375 Q 33.1787109375 29.4873046875 33.2666015625 32.926025390625 Q 33.3544921875 36.36474609375 36.93603515625 39.00146484375 Z Z"
              style="-webkit-tap-highlight-color: rgba(0, 0, 0, 0);"></path>
        <path id="ludo-svg-node-iy4wkpvv"
              d="M 11.0302734375 19.072265625 L 9.8876953125 19.09423828125 L 9.31640625 20.50048828125 L 10.83251953125 20.9619140625 L 11.84326171875 19.75341796875 L 11.0302734375 19.072265625 M 22.8076171875 14.96337890625 Q 23.5546875 14.9853515625 22.4560546875 13.46923828125 Q 21.357421875 11.953125 20.6982421875 12.54638671875 L 18.1494140625 14.94140625 L 22.8076171875 14.96337890625 M 15.380859375 12.81005859375 Q 15.5126953125 11.953125 17.918701171875 10.447998046875 Q 20.32470703125 8.94287109375 22.763671875 7.294921875 L 25.29052734375 3.9111328125 L 27.39990234375 8.67919921875 Q 34.91455078125 12.45849609375 36.903076171875 17.852783203125 Q 38.8916015625 23.2470703125 37.94677734375 31.11328125 Q 37.55126953125 33.92578125 38.045654296875 36.298828125 Q 38.5400390625 38.671875 39.30908203125 40.4736328125 L 12.01904296875 40.49560546875 Q 11.8212890625 36.58447265625 12.8759765625 33.870849609375 Q 13.9306640625 31.1572265625 16.89697265625 28.65234375 Q 17.99560546875 28.41064453125 18.709716796875 27.784423828125 Q 19.423828125 27.158203125 19.88525390625 26.4990234375 Q 19.88525390625 26.4990234375 21.258544921875 26.47705078125 Q 22.6318359375 26.455078125 24.290771484375 25.83984375 Q 25.94970703125 25.224609375 27.344970703125 23.70849609375 Q 28.740234375 22.1923828125 28.80615234375 19.16015625 Q 28.80615234375 18.78662109375 28.619384765625 18.4130859375 Q 28.4326171875 18.03955078125 28.36669921875 17.60009765625 Q 27.00439453125 22.60986328125 24.8291015625 23.939208984375 Q 22.65380859375 25.2685546875 20.63232421875 25.224609375 Q 15.44677734375 24.3017578125 14.21630859375 26.54296875 Q 12.98583984375 28.7841796875 12.98583984375 28.7841796875 L 8.2177734375 26.12548828125 L 10.74462890625 24.32373046875 L 9.6240234375 23.22509765625 L 6.943359375 25.11474609375 L 6.6796875 18.5888671875 L 15.380859375 12.81005859375 M 36.93603515625 39.00146484375 Q 34.69482421875 36.14501953125 35.068359375 32.222900390625 Q 35.44189453125 28.30078125 35.66162109375 24.2578125 Q 35.88134765625 20.21484375 34.56298828125 16.534423828125 Q 33.24462890625 12.85400390625 27.61962890625 10.48095703125 Q 32.45361328125 14.08447265625 33.167724609375 17.99560546875 Q 33.8818359375 21.90673828125 33.5302734375 25.697021484375 Q 33.1787109375 29.4873046875 33.2666015625 32.926025390625 Q 33.3544921875 36.36474609375 36.93603515625 39.00146484375 Z Z"
              fill-rule="even-odd"
              style="-webkit-tap-highlight-color: rgba(0, 0, 0, 0); fill: rgb(0, 0, 0); stroke-width: 0;"></path>
    </g>
</svg>