<svg xmlns="http://www.w3.org/2000/svg" version="1.1" id="ludo-svg-node-iy518zs6" width="45" height="45" viewBox="0 0 45 45" style="-webkit-tap-highlight-color: rgba(0, 0, 0, 0); width: 45px; height: 45px;"><g id="ludo-svg-node-iy518zs7" style="-webkit-tap-highlight-color: rgba(0, 0, 0, 0);"><path id="ludo-svg-node-iy518zuf" d="M 2.933349609375 10.39306640625 Q 2.933349609375 11.2939453125 3.746337890625 12.052001953125 Q 4.559326171875 12.81005859375 5.504150390625 12.81005859375 Q 6.492919921875 12.81005859375 7.294921875 12.052001953125 Q 8.096923828125 11.2939453125 8.096923828125 10.39306640625 Q 8.096923828125 9.4921875 7.294921875 8.701171875 Q 6.492919921875 7.91015625 5.504150390625 7.91015625 Q 4.559326171875 7.91015625 3.746337890625 8.701171875 Q 2.933349609375 9.4921875 2.933349609375 10.39306640625 Z" fill="#fff" style="-webkit-tap-highlight-color: rgba(0, 0, 0, 0);"></path><path id="ludo-svg-node-iy518zug" d="M 4.010009765625 10.39306640625 Q 4.010009765625 9.84375 4.482421875 9.393310546875 Q 4.954833984375 8.94287109375 5.504150390625 8.94287109375 Q 6.097412109375 8.94287109375 6.558837890625 9.393310546875 Q 7.020263671875 9.84375 7.020263671875 10.39306640625 Q 7.020263671875 10.9423828125 6.5478515625 11.3818359375 Q 6.075439453125 11.8212890625 5.504150390625 11.8212890625 Q 4.954833984375 11.8212890625 4.482421875 11.3818359375 Q 4.010009765625 10.9423828125 4.010009765625 10.39306640625 Z" fill="#fff" style="-webkit-tap-highlight-color: rgba(0, 0, 0, 0);"></path><path id="ludo-svg-node-iy518zuh" d="M 5.767822265625 12.85400390625 L 8.514404296875 26.455078125 L 11.876220703125 30.2783203125 L 12.733154296875 34.27734375 L 10.997314453125 38.056640625 Q 11.634521484375 39.00146484375 14.820556640625 39.7265625 Q 16.798095703125 39.990234375 18.665771484375 40.089111328125 Q 20.533447265625 40.18798828125 23.367919921875 40.18798828125 Q 26.246337890625 40.18798828125 28.092041015625 40.089111328125 Q 29.937744140625 39.990234375 31.915283203125 39.7265625 Q 35.101318359375 39.00146484375 35.738525390625 38.056640625 L 35.057373046875 36.62841796875 L 33.980712890625 34.27734375 L 34.881591796875 30.2783203125 L 38.221435546875 26.455078125 L 40.946044921875 12.919921875 L 40.418701171875 12.72216796875 L 33.299560546875 24.9609375 L 32.398681640625 9.6240234375 L 31.827392578125 9.4482421875 L 26.553955078125 24.2138671875 L 23.587646484375 7.8662109375 L 23.126220703125 7.8662109375 L 20.159912109375 24.2138671875 L 14.908447265625 9.4482421875 L 14.315185546875 9.580078125 L 13.414306640625 24.9609375 L 6.317138671875 12.72216796875 L 5.767822265625 12.85400390625 Z" fill="#fff" style="-webkit-tap-highlight-color: rgba(0, 0, 0, 0);"></path><path id="ludo-svg-node-iy518zui" d="M 7.789306640625 17.314453125 L 12.601318359375 25.64208984375 Q 11.876220703125 25.59814453125 10.843505859375 25.20263671875 Q 10.623779296875 25.7080078125 10.21728515625 25.927734375 Q 9.810791015625 26.1474609375 9.547119140625 26.1474609375 L 7.789306640625 17.314453125 Z" fill="#fff" style="-webkit-tap-highlight-color: rgba(0, 0, 0, 0);"></path><path id="ludo-svg-node-iy518zuj" d="M 10.316162109375 26.96044921875 Q 10.755615234375 26.82861328125 11.260986328125 26.279296875 Q 12.030029296875 26.5869140625 13.062744140625 26.5869140625 Q 14.095458984375 26.5869140625 15.106201171875 26.246337890625 Q 16.116943359375 25.90576171875 16.929931640625 25.20263671875 Q 18.226318359375 25.7958984375 19.764404296875 25.77392578125 Q 21.785888671875 25.77392578125 23.367919921875 24.78515625 Q 24.949951171875 25.77392578125 26.971435546875 25.77392578125 Q 28.509521484375 25.77392578125 29.805908203125 25.20263671875 Q 30.618896484375 25.927734375 31.651611328125 26.25732421875 Q 32.684326171875 26.5869140625 33.673095703125 26.5869140625 Q 34.705810546875 26.5869140625 35.474853515625 26.279296875 Q 35.980224609375 26.87255859375 36.507568359375 26.96044921875 L 34.156494140625 29.64111328125 Q 32.003173828125 28.6962890625 28.9599609375 28.048095703125 Q 25.916748046875 27.39990234375 23.367919921875 27.39990234375 Q 20.797119140625 27.39990234375 17.73193359375 28.048095703125 Q 14.666748046875 28.6962890625 12.557373046875 29.64111328125 L 10.316162109375 26.96044921875 Z" fill="#fff" style="-webkit-tap-highlight-color: rgba(0, 0, 0, 0);"></path><path id="ludo-svg-node-iy518zuk" d="M 11.436767578125 7.14111328125 Q 11.436767578125 8.0419921875 12.227783203125 8.81103515625 Q 13.018798828125 9.580078125 14.007568359375 9.580078125 Q 14.996337890625 9.580078125 15.809326171875 8.81103515625 Q 16.622314453125 8.0419921875 16.622314453125 7.14111328125 Q 16.622314453125 6.1962890625 15.809326171875 5.438232421875 Q 14.996337890625 4.68017578125 14.007568359375 4.68017578125 Q 13.018798828125 4.68017578125 12.227783203125 5.438232421875 Q 11.436767578125 6.1962890625 11.436767578125 7.14111328125 Z" fill="#fff" style="-webkit-tap-highlight-color: rgba(0, 0, 0, 0);"></path><path id="ludo-svg-node-iy518zul" d="M 12.513427734375 37.265625 L 13.677978515625 34.60693359375 Q 14.490966796875 34.21142578125 15.7763671875 33.7939453125 Q 17.061767578125 33.37646484375 18.45703125 33.06884765625 Q 19.852294921875 32.76123046875 21.1376953125 32.596435546875 Q 22.423095703125 32.431640625 23.367919921875 32.431640625 Q 24.312744140625 32.431640625 25.565185546875 32.596435546875 Q 26.817626953125 32.76123046875 28.2568359375 33.06884765625 Q 29.696044921875 33.37646484375 30.95947265625 33.760986328125 Q 32.222900390625 34.1455078125 33.035888671875 34.56298828125 L 34.288330078125 37.265625 Q 33.431396484375 36.9580078125 31.97021484375 36.58447265625 Q 30.509033203125 36.2109375 28.80615234375 35.9033203125 Q 27.103271484375 35.595703125 25.68603515625 35.408935546875 Q 24.268798828125 35.22216796875 23.367919921875 35.22216796875 Q 22.467041015625 35.22216796875 21.07177734375 35.408935546875 Q 19.676513671875 35.595703125 18.006591796875 35.9033203125 Q 16.336669921875 36.2109375 14.853515625 36.58447265625 Q 13.370361328125 36.9580078125 12.513427734375 37.265625 Z" fill="#fff" style="-webkit-tap-highlight-color: rgba(0, 0, 0, 0);"></path><path id="ludo-svg-node-iy518zum" d="M 12.513427734375 7.14111328125 Q 12.513427734375 6.591796875 12.9638671875 6.15234375 Q 13.414306640625 5.712890625 14.007568359375 5.712890625 Q 14.600830078125 5.712890625 15.062255859375 6.163330078125 Q 15.523681640625 6.61376953125 15.523681640625 7.14111328125 Q 15.523681640625 7.646484375 15.05126953125 8.096923828125 Q 14.578857421875 8.54736328125 14.007568359375 8.54736328125 Q 13.414306640625 8.54736328125 12.9638671875 8.096923828125 Q 12.513427734375 7.646484375 12.513427734375 7.14111328125 Z" fill="#fff" style="-webkit-tap-highlight-color: rgba(0, 0, 0, 0);"></path><path id="ludo-svg-node-iy518zun" d="M 12.930908203125 38.14453125 Q 14.051513671875 37.79296875 15.4248046875 37.474365234375 Q 16.798095703125 37.15576171875 18.34716796875 36.8701171875 Q 19.896240234375 36.58447265625 21.20361328125 36.419677734375 Q 22.510986328125 36.2548828125 23.367919921875 36.2548828125 Q 24.224853515625 36.2548828125 25.59814453125 36.441650390625 Q 26.971435546875 36.62841796875 28.4765625 36.89208984375 Q 29.981689453125 37.15576171875 31.39892578125 37.518310546875 Q 32.816162109375 37.880859375 33.848876953125 38.21044921875 Q 32.947998046875 38.51806640625 31.915283203125 38.69384765625 Q 29.937744140625 39.00146484375 28.114013671875 39.100341796875 Q 26.290283203125 39.19921875 23.367919921875 39.19921875 Q 20.489501953125 39.19921875 18.643798828125 39.100341796875 Q 16.798095703125 39.00146484375 14.820556640625 38.69384765625 Q 13.743896484375 38.4521484375 12.930908203125 38.14453125 Z" fill="#fff" style="-webkit-tap-highlight-color: rgba(0, 0, 0, 0);"></path><path id="ludo-svg-node-iy518zuo" d="M 12.974853515625 30.498046875 Q 15.084228515625 29.59716796875 17.962646484375 29.014892578125 Q 20.841064453125 28.4326171875 23.367919921875 28.4326171875 Q 25.894775390625 28.4326171875 28.740234375 29.014892578125 Q 31.585693359375 29.59716796875 33.760986328125 30.498046875 L 33.079833984375 33.57421875 Q 32.222900390625 33.1787109375 31.014404296875 32.783203125 Q 29.805908203125 32.3876953125 28.311767578125 32.080078125 Q 26.817626953125 31.7724609375 25.543212890625 31.585693359375 Q 24.268798828125 31.39892578125 23.367919921875 31.39892578125 Q 22.510986328125 31.39892578125 21.15966796875 31.585693359375 Q 19.808349609375 31.7724609375 18.4130859375 32.05810546875 Q 17.017822265625 32.34375 15.75439453125 32.750244140625 Q 14.490966796875 33.15673828125 13.634033203125 33.57421875 L 12.974853515625 30.498046875 Z" fill="#fff" style="-webkit-tap-highlight-color: rgba(0, 0, 0, 0);"></path><path id="ludo-svg-node-iy518zup" d="M 14.447021484375 25.42236328125 L 15.128173828125 13.0517578125 L 19.390869140625 24.78515625 Q 17.896728515625 24.6533203125 16.754150390625 24.169921875 Q 15.655517578125 25.11474609375 14.447021484375 25.42236328125 Z" fill="#fff" style="-webkit-tap-highlight-color: rgba(0, 0, 0, 0);"></path><path id="ludo-svg-node-iy518zuq" d="M 20.753173828125 5.4052734375 Q 20.753173828125 6.30615234375 21.566162109375 7.064208984375 Q 22.379150390625 7.822265625 23.367919921875 7.822265625 Q 24.356689453125 7.822265625 25.15869140625 7.05322265625 Q 25.960693359375 6.2841796875 25.960693359375 5.4052734375 Q 25.960693359375 4.50439453125 25.15869140625 3.7353515625 Q 24.356689453125 2.96630859375 23.367919921875 2.96630859375 Q 22.379150390625 2.96630859375 21.566162109375 3.7353515625 Q 20.753173828125 4.50439453125 20.753173828125 5.4052734375 Z" fill="#fff" style="-webkit-tap-highlight-color: rgba(0, 0, 0, 0);"></path><path id="ludo-svg-node-iy518zur" d="M 21.148681640625 24.697265625 L 23.367919921875 12.54638671875 L 25.565185546875 24.697265625 Q 24.488525390625 24.521484375 23.367919921875 23.79638671875 Q 22.225341796875 24.521484375 21.148681640625 24.697265625 Z" fill="#fff" style="-webkit-tap-highlight-color: rgba(0, 0, 0, 0);"></path><path id="ludo-svg-node-iy518zus" d="M 21.829833984375 5.4052734375 Q 21.829833984375 4.85595703125 22.30224609375 4.405517578125 Q 22.774658203125 3.955078125 23.367919921875 3.955078125 Q 23.961181640625 3.955078125 24.422607421875 4.405517578125 Q 24.884033203125 4.85595703125 24.884033203125 5.4052734375 Q 24.884033203125 5.95458984375 24.41162109375 6.39404296875 Q 23.939208984375 6.83349609375 23.367919921875 6.83349609375 Q 22.774658203125 6.83349609375 22.30224609375 6.39404296875 Q 21.829833984375 5.95458984375 21.829833984375 5.4052734375 Z" fill="#fff" style="-webkit-tap-highlight-color: rgba(0, 0, 0, 0);"></path><path id="ludo-svg-node-iy518zut" d="M 27.366943359375 24.78515625 L 31.585693359375 13.0517578125 L 32.266845703125 25.42236328125 Q 31.058349609375 25.11474609375 29.981689453125 24.169921875 Q 28.817138671875 24.609375 27.366943359375 24.78515625 Z" fill="#fff" style="-webkit-tap-highlight-color: rgba(0, 0, 0, 0);"></path><path id="ludo-svg-node-iy518zuu" d="M 30.245361328125 7.14111328125 Q 30.245361328125 8.0859375 31.058349609375 8.85498046875 Q 31.871337890625 9.6240234375 32.860107421875 9.6240234375 Q 33.848876953125 9.6240234375 34.639892578125 8.85498046875 Q 35.430908203125 8.0859375 35.430908203125 7.14111328125 Q 35.430908203125 6.240234375 34.639892578125 5.482177734375 Q 33.848876953125 4.72412109375 32.860107421875 4.72412109375 Q 31.871337890625 4.72412109375 31.058349609375 5.482177734375 Q 30.245361328125 6.240234375 30.245361328125 7.14111328125 Z" fill="#fff" style="-webkit-tap-highlight-color: rgba(0, 0, 0, 0);"></path><path id="ludo-svg-node-iy518zuv" d="M 31.322021484375 7.14111328125 Q 31.322021484375 6.6357421875 31.79443359375 6.1962890625 Q 32.266845703125 5.7568359375 32.860107421875 5.7568359375 Q 33.453369140625 5.7568359375 33.914794921875 6.207275390625 Q 34.376220703125 6.65771484375 34.376220703125 7.14111328125 Q 34.376220703125 7.6904296875 33.90380859375 8.140869140625 Q 33.431396484375 8.59130859375 32.860107421875 8.59130859375 Q 32.266845703125 8.59130859375 31.79443359375 8.140869140625 Q 31.322021484375 7.6904296875 31.322021484375 7.14111328125 Z" fill="#fff" style="-webkit-tap-highlight-color: rgba(0, 0, 0, 0);"></path><path id="ludo-svg-node-iy518zuw" d="M 34.112548828125 25.64208984375 L 38.924560546875 17.314453125 L 37.166748046875 26.1474609375 Q 36.903076171875 26.1474609375 36.49658203125 25.916748046875 Q 36.090087890625 25.68603515625 35.870361328125 25.20263671875 Q 34.837646484375 25.59814453125 34.112548828125 25.64208984375 Z" fill="#fff" style="-webkit-tap-highlight-color: rgba(0, 0, 0, 0);"></path><path id="ludo-svg-node-iy518zux" d="M 38.616943359375 10.39306640625 Q 38.616943359375 11.2939453125 39.429931640625 12.052001953125 Q 40.242919921875 12.81005859375 41.231689453125 12.81005859375 Q 42.176513671875 12.81005859375 42.978515625 12.052001953125 Q 43.780517578125 11.2939453125 43.780517578125 10.39306640625 Q 43.780517578125 9.4921875 42.978515625 8.701171875 Q 42.176513671875 7.91015625 41.231689453125 7.91015625 Q 40.242919921875 7.91015625 39.429931640625 8.701171875 Q 38.616943359375 9.4921875 38.616943359375 10.39306640625 Z" fill="#fff" style="-webkit-tap-highlight-color: rgba(0, 0, 0, 0);"></path><path id="ludo-svg-node-iy518zuy" d="M 2.933349609375 10.39306640625 Q 2.933349609375 11.2939453125 3.746337890625 12.052001953125 Q 4.559326171875 12.81005859375 5.504150390625 12.81005859375 Q 6.492919921875 12.81005859375 7.294921875 12.052001953125 Q 8.096923828125 11.2939453125 8.096923828125 10.39306640625 Q 8.096923828125 9.4921875 7.294921875 8.701171875 Q 6.492919921875 7.91015625 5.504150390625 7.91015625 Q 4.559326171875 7.91015625 3.746337890625 8.701171875 Q 2.933349609375 9.4921875 2.933349609375 10.39306640625 M 4.010009765625 10.39306640625 Q 4.010009765625 9.84375 4.482421875 9.393310546875 Q 4.954833984375 8.94287109375 5.504150390625 8.94287109375 Q 6.097412109375 8.94287109375 6.558837890625 9.393310546875 Q 7.020263671875 9.84375 7.020263671875 10.39306640625 Q 7.020263671875 10.9423828125 6.5478515625 11.3818359375 Q 6.075439453125 11.8212890625 5.504150390625 11.8212890625 Q 4.954833984375 11.8212890625 4.482421875 11.3818359375 Q 4.010009765625 10.9423828125 4.010009765625 10.39306640625 M 5.767822265625 12.85400390625 L 8.514404296875 26.455078125 L 11.876220703125 30.2783203125 L 12.733154296875 34.27734375 L 10.997314453125 38.056640625 Q 11.634521484375 39.00146484375 14.820556640625 39.7265625 Q 16.798095703125 39.990234375 18.665771484375 40.089111328125 Q 20.533447265625 40.18798828125 23.367919921875 40.18798828125 Q 26.246337890625 40.18798828125 28.092041015625 40.089111328125 Q 29.937744140625 39.990234375 31.915283203125 39.7265625 Q 35.101318359375 39.00146484375 35.738525390625 38.056640625 L 35.057373046875 36.62841796875 L 33.980712890625 34.27734375 L 34.881591796875 30.2783203125 L 38.221435546875 26.455078125 L 40.946044921875 12.919921875 L 40.418701171875 12.72216796875 L 33.299560546875 24.9609375 L 32.398681640625 9.6240234375 L 31.827392578125 9.4482421875 L 26.553955078125 24.2138671875 L 23.587646484375 7.8662109375 L 23.126220703125 7.8662109375 L 20.159912109375 24.2138671875 L 14.908447265625 9.4482421875 L 14.315185546875 9.580078125 L 13.414306640625 24.9609375 L 6.317138671875 12.72216796875 L 5.767822265625 12.85400390625 M 7.789306640625 17.314453125 L 12.601318359375 25.64208984375 Q 11.876220703125 25.59814453125 10.843505859375 25.20263671875 Q 10.623779296875 25.7080078125 10.21728515625 25.927734375 Q 9.810791015625 26.1474609375 9.547119140625 26.1474609375 L 7.789306640625 17.314453125 M 10.316162109375 26.96044921875 Q 10.755615234375 26.82861328125 11.260986328125 26.279296875 Q 12.030029296875 26.5869140625 13.062744140625 26.5869140625 Q 14.095458984375 26.5869140625 15.106201171875 26.246337890625 Q 16.116943359375 25.90576171875 16.929931640625 25.20263671875 Q 18.226318359375 25.7958984375 19.764404296875 25.77392578125 Q 21.785888671875 25.77392578125 23.367919921875 24.78515625 Q 24.949951171875 25.77392578125 26.971435546875 25.77392578125 Q 28.509521484375 25.77392578125 29.805908203125 25.20263671875 Q 30.618896484375 25.927734375 31.651611328125 26.25732421875 Q 32.684326171875 26.5869140625 33.673095703125 26.5869140625 Q 34.705810546875 26.5869140625 35.474853515625 26.279296875 Q 35.980224609375 26.87255859375 36.507568359375 26.96044921875 L 34.156494140625 29.64111328125 Q 32.003173828125 28.6962890625 28.9599609375 28.048095703125 Q 25.916748046875 27.39990234375 23.367919921875 27.39990234375 Q 20.797119140625 27.39990234375 17.73193359375 28.048095703125 Q 14.666748046875 28.6962890625 12.557373046875 29.64111328125 L 10.316162109375 26.96044921875 M 11.436767578125 7.14111328125 Q 11.436767578125 8.0419921875 12.227783203125 8.81103515625 Q 13.018798828125 9.580078125 14.007568359375 9.580078125 Q 14.996337890625 9.580078125 15.809326171875 8.81103515625 Q 16.622314453125 8.0419921875 16.622314453125 7.14111328125 Q 16.622314453125 6.1962890625 15.809326171875 5.438232421875 Q 14.996337890625 4.68017578125 14.007568359375 4.68017578125 Q 13.018798828125 4.68017578125 12.227783203125 5.438232421875 Q 11.436767578125 6.1962890625 11.436767578125 7.14111328125 M 12.513427734375 37.265625 L 13.677978515625 34.60693359375 Q 14.490966796875 34.21142578125 15.7763671875 33.7939453125 Q 17.061767578125 33.37646484375 18.45703125 33.06884765625 Q 19.852294921875 32.76123046875 21.1376953125 32.596435546875 Q 22.423095703125 32.431640625 23.367919921875 32.431640625 Q 24.312744140625 32.431640625 25.565185546875 32.596435546875 Q 26.817626953125 32.76123046875 28.2568359375 33.06884765625 Q 29.696044921875 33.37646484375 30.95947265625 33.760986328125 Q 32.222900390625 34.1455078125 33.035888671875 34.56298828125 L 34.288330078125 37.265625 Q 33.431396484375 36.9580078125 31.97021484375 36.58447265625 Q 30.509033203125 36.2109375 28.80615234375 35.9033203125 Q 27.103271484375 35.595703125 25.68603515625 35.408935546875 Q 24.268798828125 35.22216796875 23.367919921875 35.22216796875 Q 22.467041015625 35.22216796875 21.07177734375 35.408935546875 Q 19.676513671875 35.595703125 18.006591796875 35.9033203125 Q 16.336669921875 36.2109375 14.853515625 36.58447265625 Q 13.370361328125 36.9580078125 12.513427734375 37.265625 M 12.513427734375 7.14111328125 Q 12.513427734375 6.591796875 12.9638671875 6.15234375 Q 13.414306640625 5.712890625 14.007568359375 5.712890625 Q 14.600830078125 5.712890625 15.062255859375 6.163330078125 Q 15.523681640625 6.61376953125 15.523681640625 7.14111328125 Q 15.523681640625 7.646484375 15.05126953125 8.096923828125 Q 14.578857421875 8.54736328125 14.007568359375 8.54736328125 Q 13.414306640625 8.54736328125 12.9638671875 8.096923828125 Q 12.513427734375 7.646484375 12.513427734375 7.14111328125 M 12.930908203125 38.14453125 Q 14.051513671875 37.79296875 15.4248046875 37.474365234375 Q 16.798095703125 37.15576171875 18.34716796875 36.8701171875 Q 19.896240234375 36.58447265625 21.20361328125 36.419677734375 Q 22.510986328125 36.2548828125 23.367919921875 36.2548828125 Q 24.224853515625 36.2548828125 25.59814453125 36.441650390625 Q 26.971435546875 36.62841796875 28.4765625 36.89208984375 Q 29.981689453125 37.15576171875 31.39892578125 37.518310546875 Q 32.816162109375 37.880859375 33.848876953125 38.21044921875 Q 32.947998046875 38.51806640625 31.915283203125 38.69384765625 Q 29.937744140625 39.00146484375 28.114013671875 39.100341796875 Q 26.290283203125 39.19921875 23.367919921875 39.19921875 Q 20.489501953125 39.19921875 18.643798828125 39.100341796875 Q 16.798095703125 39.00146484375 14.820556640625 38.69384765625 Q 13.743896484375 38.4521484375 12.930908203125 38.14453125 M 12.974853515625 30.498046875 Q 15.084228515625 29.59716796875 17.962646484375 29.014892578125 Q 20.841064453125 28.4326171875 23.367919921875 28.4326171875 Q 25.894775390625 28.4326171875 28.740234375 29.014892578125 Q 31.585693359375 29.59716796875 33.760986328125 30.498046875 L 33.079833984375 33.57421875 Q 32.222900390625 33.1787109375 31.014404296875 32.783203125 Q 29.805908203125 32.3876953125 28.311767578125 32.080078125 Q 26.817626953125 31.7724609375 25.543212890625 31.585693359375 Q 24.268798828125 31.39892578125 23.367919921875 31.39892578125 Q 22.510986328125 31.39892578125 21.15966796875 31.585693359375 Q 19.808349609375 31.7724609375 18.4130859375 32.05810546875 Q 17.017822265625 32.34375 15.75439453125 32.750244140625 Q 14.490966796875 33.15673828125 13.634033203125 33.57421875 L 12.974853515625 30.498046875 M 14.447021484375 25.42236328125 L 15.128173828125 13.0517578125 L 19.390869140625 24.78515625 Q 17.896728515625 24.6533203125 16.754150390625 24.169921875 Q 15.655517578125 25.11474609375 14.447021484375 25.42236328125 M 20.753173828125 5.4052734375 Q 20.753173828125 6.30615234375 21.566162109375 7.064208984375 Q 22.379150390625 7.822265625 23.367919921875 7.822265625 Q 24.356689453125 7.822265625 25.15869140625 7.05322265625 Q 25.960693359375 6.2841796875 25.960693359375 5.4052734375 Q 25.960693359375 4.50439453125 25.15869140625 3.7353515625 Q 24.356689453125 2.96630859375 23.367919921875 2.96630859375 Q 22.379150390625 2.96630859375 21.566162109375 3.7353515625 Q 20.753173828125 4.50439453125 20.753173828125 5.4052734375 M 21.148681640625 24.697265625 L 23.367919921875 12.54638671875 L 25.565185546875 24.697265625 Q 24.488525390625 24.521484375 23.367919921875 23.79638671875 Q 22.225341796875 24.521484375 21.148681640625 24.697265625 M 21.829833984375 5.4052734375 Q 21.829833984375 4.85595703125 22.30224609375 4.405517578125 Q 22.774658203125 3.955078125 23.367919921875 3.955078125 Q 23.961181640625 3.955078125 24.422607421875 4.405517578125 Q 24.884033203125 4.85595703125 24.884033203125 5.4052734375 Q 24.884033203125 5.95458984375 24.41162109375 6.39404296875 Q 23.939208984375 6.83349609375 23.367919921875 6.83349609375 Q 22.774658203125 6.83349609375 22.30224609375 6.39404296875 Q 21.829833984375 5.95458984375 21.829833984375 5.4052734375 M 27.366943359375 24.78515625 L 31.585693359375 13.0517578125 L 32.266845703125 25.42236328125 Q 31.058349609375 25.11474609375 29.981689453125 24.169921875 Q 28.817138671875 24.609375 27.366943359375 24.78515625 M 30.245361328125 7.14111328125 Q 30.245361328125 8.0859375 31.058349609375 8.85498046875 Q 31.871337890625 9.6240234375 32.860107421875 9.6240234375 Q 33.848876953125 9.6240234375 34.639892578125 8.85498046875 Q 35.430908203125 8.0859375 35.430908203125 7.14111328125 Q 35.430908203125 6.240234375 34.639892578125 5.482177734375 Q 33.848876953125 4.72412109375 32.860107421875 4.72412109375 Q 31.871337890625 4.72412109375 31.058349609375 5.482177734375 Q 30.245361328125 6.240234375 30.245361328125 7.14111328125 M 31.322021484375 7.14111328125 Q 31.322021484375 6.6357421875 31.79443359375 6.1962890625 Q 32.266845703125 5.7568359375 32.860107421875 5.7568359375 Q 33.453369140625 5.7568359375 33.914794921875 6.207275390625 Q 34.376220703125 6.65771484375 34.376220703125 7.14111328125 Q 34.376220703125 7.6904296875 33.90380859375 8.140869140625 Q 33.431396484375 8.59130859375 32.860107421875 8.59130859375 Q 32.266845703125 8.59130859375 31.79443359375 8.140869140625 Q 31.322021484375 7.6904296875 31.322021484375 7.14111328125 M 34.112548828125 25.64208984375 L 38.924560546875 17.314453125 L 37.166748046875 26.1474609375 Q 36.903076171875 26.1474609375 36.49658203125 25.916748046875 Q 36.090087890625 25.68603515625 35.870361328125 25.20263671875 Q 34.837646484375 25.59814453125 34.112548828125 25.64208984375 M 38.616943359375 10.39306640625 Q 38.616943359375 11.2939453125 39.429931640625 12.052001953125 Q 40.242919921875 12.81005859375 41.231689453125 12.81005859375 Q 42.176513671875 12.81005859375 42.978515625 12.052001953125 Q 43.780517578125 11.2939453125 43.780517578125 10.39306640625 Q 43.780517578125 9.4921875 42.978515625 8.701171875 Q 42.176513671875 7.91015625 41.231689453125 7.91015625 Q 40.242919921875 7.91015625 39.429931640625 8.701171875 Q 38.616943359375 9.4921875 38.616943359375 10.39306640625 M 39.693603515625 10.39306640625 Q 39.693603515625 9.84375 40.166015625 9.393310546875 Q 40.638427734375 8.94287109375 41.231689453125 8.94287109375 Q 41.824951171875 8.94287109375 42.264404296875 9.393310546875 Q 42.703857421875 9.84375 42.703857421875 10.39306640625 Q 42.703857421875 10.9423828125 42.25341796875 11.3818359375 Q 41.802978515625 11.8212890625 41.231689453125 11.8212890625 Q 40.638427734375 11.8212890625 40.166015625 11.3818359375 Q 39.693603515625 10.9423828125 39.693603515625 10.39306640625 Z Z" style="-webkit-tap-highlight-color: rgba(0, 0, 0, 0);"></path><path id="ludo-svg-node-iy518zs8" d="M 2.933349609375 10.39306640625 Q 2.933349609375 11.2939453125 3.746337890625 12.052001953125 Q 4.559326171875 12.81005859375 5.504150390625 12.81005859375 Q 6.492919921875 12.81005859375 7.294921875 12.052001953125 Q 8.096923828125 11.2939453125 8.096923828125 10.39306640625 Q 8.096923828125 9.4921875 7.294921875 8.701171875 Q 6.492919921875 7.91015625 5.504150390625 7.91015625 Q 4.559326171875 7.91015625 3.746337890625 8.701171875 Q 2.933349609375 9.4921875 2.933349609375 10.39306640625 M 4.010009765625 10.39306640625 Q 4.010009765625 9.84375 4.482421875 9.393310546875 Q 4.954833984375 8.94287109375 5.504150390625 8.94287109375 Q 6.097412109375 8.94287109375 6.558837890625 9.393310546875 Q 7.020263671875 9.84375 7.020263671875 10.39306640625 Q 7.020263671875 10.9423828125 6.5478515625 11.3818359375 Q 6.075439453125 11.8212890625 5.504150390625 11.8212890625 Q 4.954833984375 11.8212890625 4.482421875 11.3818359375 Q 4.010009765625 10.9423828125 4.010009765625 10.39306640625 M 5.767822265625 12.85400390625 L 8.514404296875 26.455078125 L 11.876220703125 30.2783203125 L 12.733154296875 34.27734375 L 10.997314453125 38.056640625 Q 11.634521484375 39.00146484375 14.820556640625 39.7265625 Q 16.798095703125 39.990234375 18.665771484375 40.089111328125 Q 20.533447265625 40.18798828125 23.367919921875 40.18798828125 Q 26.246337890625 40.18798828125 28.092041015625 40.089111328125 Q 29.937744140625 39.990234375 31.915283203125 39.7265625 Q 35.101318359375 39.00146484375 35.738525390625 38.056640625 L 35.057373046875 36.62841796875 L 33.980712890625 34.27734375 L 34.881591796875 30.2783203125 L 38.221435546875 26.455078125 L 40.946044921875 12.919921875 L 40.418701171875 12.72216796875 L 33.299560546875 24.9609375 L 32.398681640625 9.6240234375 L 31.827392578125 9.4482421875 L 26.553955078125 24.2138671875 L 23.587646484375 7.8662109375 L 23.126220703125 7.8662109375 L 20.159912109375 24.2138671875 L 14.908447265625 9.4482421875 L 14.315185546875 9.580078125 L 13.414306640625 24.9609375 L 6.317138671875 12.72216796875 L 5.767822265625 12.85400390625 M 7.789306640625 17.314453125 L 12.601318359375 25.64208984375 Q 11.876220703125 25.59814453125 10.843505859375 25.20263671875 Q 10.623779296875 25.7080078125 10.21728515625 25.927734375 Q 9.810791015625 26.1474609375 9.547119140625 26.1474609375 L 7.789306640625 17.314453125 M 10.316162109375 26.96044921875 Q 10.755615234375 26.82861328125 11.260986328125 26.279296875 Q 12.030029296875 26.5869140625 13.062744140625 26.5869140625 Q 14.095458984375 26.5869140625 15.106201171875 26.246337890625 Q 16.116943359375 25.90576171875 16.929931640625 25.20263671875 Q 18.226318359375 25.7958984375 19.764404296875 25.77392578125 Q 21.785888671875 25.77392578125 23.367919921875 24.78515625 Q 24.949951171875 25.77392578125 26.971435546875 25.77392578125 Q 28.509521484375 25.77392578125 29.805908203125 25.20263671875 Q 30.618896484375 25.927734375 31.651611328125 26.25732421875 Q 32.684326171875 26.5869140625 33.673095703125 26.5869140625 Q 34.705810546875 26.5869140625 35.474853515625 26.279296875 Q 35.980224609375 26.87255859375 36.507568359375 26.96044921875 L 34.156494140625 29.64111328125 Q 32.003173828125 28.6962890625 28.9599609375 28.048095703125 Q 25.916748046875 27.39990234375 23.367919921875 27.39990234375 Q 20.797119140625 27.39990234375 17.73193359375 28.048095703125 Q 14.666748046875 28.6962890625 12.557373046875 29.64111328125 L 10.316162109375 26.96044921875 M 11.436767578125 7.14111328125 Q 11.436767578125 8.0419921875 12.227783203125 8.81103515625 Q 13.018798828125 9.580078125 14.007568359375 9.580078125 Q 14.996337890625 9.580078125 15.809326171875 8.81103515625 Q 16.622314453125 8.0419921875 16.622314453125 7.14111328125 Q 16.622314453125 6.1962890625 15.809326171875 5.438232421875 Q 14.996337890625 4.68017578125 14.007568359375 4.68017578125 Q 13.018798828125 4.68017578125 12.227783203125 5.438232421875 Q 11.436767578125 6.1962890625 11.436767578125 7.14111328125 M 12.513427734375 37.265625 L 13.677978515625 34.60693359375 Q 14.490966796875 34.21142578125 15.7763671875 33.7939453125 Q 17.061767578125 33.37646484375 18.45703125 33.06884765625 Q 19.852294921875 32.76123046875 21.1376953125 32.596435546875 Q 22.423095703125 32.431640625 23.367919921875 32.431640625 Q 24.312744140625 32.431640625 25.565185546875 32.596435546875 Q 26.817626953125 32.76123046875 28.2568359375 33.06884765625 Q 29.696044921875 33.37646484375 30.95947265625 33.760986328125 Q 32.222900390625 34.1455078125 33.035888671875 34.56298828125 L 34.288330078125 37.265625 Q 33.431396484375 36.9580078125 31.97021484375 36.58447265625 Q 30.509033203125 36.2109375 28.80615234375 35.9033203125 Q 27.103271484375 35.595703125 25.68603515625 35.408935546875 Q 24.268798828125 35.22216796875 23.367919921875 35.22216796875 Q 22.467041015625 35.22216796875 21.07177734375 35.408935546875 Q 19.676513671875 35.595703125 18.006591796875 35.9033203125 Q 16.336669921875 36.2109375 14.853515625 36.58447265625 Q 13.370361328125 36.9580078125 12.513427734375 37.265625 M 12.513427734375 7.14111328125 Q 12.513427734375 6.591796875 12.9638671875 6.15234375 Q 13.414306640625 5.712890625 14.007568359375 5.712890625 Q 14.600830078125 5.712890625 15.062255859375 6.163330078125 Q 15.523681640625 6.61376953125 15.523681640625 7.14111328125 Q 15.523681640625 7.646484375 15.05126953125 8.096923828125 Q 14.578857421875 8.54736328125 14.007568359375 8.54736328125 Q 13.414306640625 8.54736328125 12.9638671875 8.096923828125 Q 12.513427734375 7.646484375 12.513427734375 7.14111328125 M 12.930908203125 38.14453125 Q 14.051513671875 37.79296875 15.4248046875 37.474365234375 Q 16.798095703125 37.15576171875 18.34716796875 36.8701171875 Q 19.896240234375 36.58447265625 21.20361328125 36.419677734375 Q 22.510986328125 36.2548828125 23.367919921875 36.2548828125 Q 24.224853515625 36.2548828125 25.59814453125 36.441650390625 Q 26.971435546875 36.62841796875 28.4765625 36.89208984375 Q 29.981689453125 37.15576171875 31.39892578125 37.518310546875 Q 32.816162109375 37.880859375 33.848876953125 38.21044921875 Q 32.947998046875 38.51806640625 31.915283203125 38.69384765625 Q 29.937744140625 39.00146484375 28.114013671875 39.100341796875 Q 26.290283203125 39.19921875 23.367919921875 39.19921875 Q 20.489501953125 39.19921875 18.643798828125 39.100341796875 Q 16.798095703125 39.00146484375 14.820556640625 38.69384765625 Q 13.743896484375 38.4521484375 12.930908203125 38.14453125 M 12.974853515625 30.498046875 Q 15.084228515625 29.59716796875 17.962646484375 29.014892578125 Q 20.841064453125 28.4326171875 23.367919921875 28.4326171875 Q 25.894775390625 28.4326171875 28.740234375 29.014892578125 Q 31.585693359375 29.59716796875 33.760986328125 30.498046875 L 33.079833984375 33.57421875 Q 32.222900390625 33.1787109375 31.014404296875 32.783203125 Q 29.805908203125 32.3876953125 28.311767578125 32.080078125 Q 26.817626953125 31.7724609375 25.543212890625 31.585693359375 Q 24.268798828125 31.39892578125 23.367919921875 31.39892578125 Q 22.510986328125 31.39892578125 21.15966796875 31.585693359375 Q 19.808349609375 31.7724609375 18.4130859375 32.05810546875 Q 17.017822265625 32.34375 15.75439453125 32.750244140625 Q 14.490966796875 33.15673828125 13.634033203125 33.57421875 L 12.974853515625 30.498046875 M 14.447021484375 25.42236328125 L 15.128173828125 13.0517578125 L 19.390869140625 24.78515625 Q 17.896728515625 24.6533203125 16.754150390625 24.169921875 Q 15.655517578125 25.11474609375 14.447021484375 25.42236328125 M 20.753173828125 5.4052734375 Q 20.753173828125 6.30615234375 21.566162109375 7.064208984375 Q 22.379150390625 7.822265625 23.367919921875 7.822265625 Q 24.356689453125 7.822265625 25.15869140625 7.05322265625 Q 25.960693359375 6.2841796875 25.960693359375 5.4052734375 Q 25.960693359375 4.50439453125 25.15869140625 3.7353515625 Q 24.356689453125 2.96630859375 23.367919921875 2.96630859375 Q 22.379150390625 2.96630859375 21.566162109375 3.7353515625 Q 20.753173828125 4.50439453125 20.753173828125 5.4052734375 M 21.148681640625 24.697265625 L 23.367919921875 12.54638671875 L 25.565185546875 24.697265625 Q 24.488525390625 24.521484375 23.367919921875 23.79638671875 Q 22.225341796875 24.521484375 21.148681640625 24.697265625 M 21.829833984375 5.4052734375 Q 21.829833984375 4.85595703125 22.30224609375 4.405517578125 Q 22.774658203125 3.955078125 23.367919921875 3.955078125 Q 23.961181640625 3.955078125 24.422607421875 4.405517578125 Q 24.884033203125 4.85595703125 24.884033203125 5.4052734375 Q 24.884033203125 5.95458984375 24.41162109375 6.39404296875 Q 23.939208984375 6.83349609375 23.367919921875 6.83349609375 Q 22.774658203125 6.83349609375 22.30224609375 6.39404296875 Q 21.829833984375 5.95458984375 21.829833984375 5.4052734375 M 27.366943359375 24.78515625 L 31.585693359375 13.0517578125 L 32.266845703125 25.42236328125 Q 31.058349609375 25.11474609375 29.981689453125 24.169921875 Q 28.817138671875 24.609375 27.366943359375 24.78515625 M 30.245361328125 7.14111328125 Q 30.245361328125 8.0859375 31.058349609375 8.85498046875 Q 31.871337890625 9.6240234375 32.860107421875 9.6240234375 Q 33.848876953125 9.6240234375 34.639892578125 8.85498046875 Q 35.430908203125 8.0859375 35.430908203125 7.14111328125 Q 35.430908203125 6.240234375 34.639892578125 5.482177734375 Q 33.848876953125 4.72412109375 32.860107421875 4.72412109375 Q 31.871337890625 4.72412109375 31.058349609375 5.482177734375 Q 30.245361328125 6.240234375 30.245361328125 7.14111328125 M 31.322021484375 7.14111328125 Q 31.322021484375 6.6357421875 31.79443359375 6.1962890625 Q 32.266845703125 5.7568359375 32.860107421875 5.7568359375 Q 33.453369140625 5.7568359375 33.914794921875 6.207275390625 Q 34.376220703125 6.65771484375 34.376220703125 7.14111328125 Q 34.376220703125 7.6904296875 33.90380859375 8.140869140625 Q 33.431396484375 8.59130859375 32.860107421875 8.59130859375 Q 32.266845703125 8.59130859375 31.79443359375 8.140869140625 Q 31.322021484375 7.6904296875 31.322021484375 7.14111328125 M 34.112548828125 25.64208984375 L 38.924560546875 17.314453125 L 37.166748046875 26.1474609375 Q 36.903076171875 26.1474609375 36.49658203125 25.916748046875 Q 36.090087890625 25.68603515625 35.870361328125 25.20263671875 Q 34.837646484375 25.59814453125 34.112548828125 25.64208984375 M 38.616943359375 10.39306640625 Q 38.616943359375 11.2939453125 39.429931640625 12.052001953125 Q 40.242919921875 12.81005859375 41.231689453125 12.81005859375 Q 42.176513671875 12.81005859375 42.978515625 12.052001953125 Q 43.780517578125 11.2939453125 43.780517578125 10.39306640625 Q 43.780517578125 9.4921875 42.978515625 8.701171875 Q 42.176513671875 7.91015625 41.231689453125 7.91015625 Q 40.242919921875 7.91015625 39.429931640625 8.701171875 Q 38.616943359375 9.4921875 38.616943359375 10.39306640625 M 39.693603515625 10.39306640625 Q 39.693603515625 9.84375 40.166015625 9.393310546875 Q 40.638427734375 8.94287109375 41.231689453125 8.94287109375 Q 41.824951171875 8.94287109375 42.264404296875 9.393310546875 Q 42.703857421875 9.84375 42.703857421875 10.39306640625 Q 42.703857421875 10.9423828125 42.25341796875 11.3818359375 Q 41.802978515625 11.8212890625 41.231689453125 11.8212890625 Q 40.638427734375 11.8212890625 40.166015625 11.3818359375 Q 39.693603515625 10.9423828125 39.693603515625 10.39306640625 Z Z" fill-rule="even-odd" style="-webkit-tap-highlight-color: rgba(0, 0, 0, 0); fill: rgb(0, 0, 0); stroke-width: 0;"></path></g></svg>