<svg xmlns="http://www.w3.org/2000/svg" version="1.1" id="ludo-svg-node-iy518zt2" width="45" height="45" viewBox="0 0 45 45" style="-webkit-tap-highlight-color: rgba(0, 0, 0, 0); width: 45px; height: 45px;"><g id="ludo-svg-node-iy518zt3" style="-webkit-tap-highlight-color: rgba(0, 0, 0, 0);"><path id="ludo-svg-node-iy518zvh" d="M 3.01025390625 26.5869140625 Q 3.01025390625 27.13623046875 3.14208984375 27.9052734375 Q 3.36181640625 29.06982421875 3.9990234375 29.696044921875 Q 4.63623046875 30.322265625 6.30615234375 30.5859375 Q 6.8115234375 30.673828125 7.0751953125 30.673828125 Q 7.3388671875 30.673828125 7.646484375 30.5859375 Q 7.646484375 31.17919921875 7.8662109375 31.728515625 Q 8.3056640625 32.32177734375 8.96484375 32.2998046875 Q 9.68994140625 32.2998046875 10.12939453125 31.48681640625 Q 11.2060546875 30.3662109375 11.75537109375 29.55322265625 Q 12.06298828125 29.0478515625 12.32666015625 28.49853515625 Q 12.59033203125 27.94921875 13.0517578125 27.00439453125 Q 14.04052734375 25.7080078125 15.435791015625 24.818115234375 Q 16.8310546875 23.92822265625 18.45703125 23.40087890625 Q 19.09423828125 23.18115234375 19.654541015625 22.818603515625 Q 20.21484375 22.4560546875 21.005859375 21.81884765625 Q 21.77490234375 21.26953125 22.060546875 21.1376953125 Q 22.060546875 23.3349609375 21.42333984375 26.158447265625 Q 20.7861328125 28.98193359375 19.57763671875 30.82763671875 Q 19.31396484375 31.376953125 17.81982421875 32.71728515625 Q 16.611328125 33.7939453125 15.7763671875 34.69482421875 Q 14.94140625 35.595703125 14.39208984375 36.67236328125 Q 13.88671875 37.6611328125 13.90869140625 39.3310546875 L 13.90869140625 39.990234375 Q 13.95263671875 40.49560546875 13.95263671875 40.71533203125 L 41.85791015625 40.71533203125 Q 41.72607421875 35.48583984375 41.0888671875 30.926513671875 Q 40.45166015625 26.3671875 39.1552734375 21.59912109375 Q 38.759765625 19.92919921875 37.9248046875 18.08349609375 Q 37.08984375 16.23779296875 35.980224609375 14.47998046875 Q 34.87060546875 12.72216796875 33.7060546875 11.282958984375 Q 32.54150390625 9.84375 31.5087890625 8.98681640625 Q 30.25634765625 7.91015625 28.465576171875 7.261962890625 Q 26.6748046875 6.61376953125 25.02685546875 6.61376953125 Q 23.53271484375 6.61376953125 22.5 7.18505859375 L 20.302734375 2.28515625 L 16.875 5.8447265625 L 11.25 2.4609375 L 11.689453125 8.0859375 Q 10.96435546875 8.63525390625 9.95361328125 10.30517578125 L 9.90966796875 10.34912109375 L 9.4921875 10.83251953125 Q 9.228515625 11.14013671875 8.822021484375 11.66748046875 Q 8.41552734375 12.19482421875 8.10791015625 12.59033203125 Q 7.93212890625 12.98583984375 7.91015625 13.447265625 Q 7.91015625 13.95263671875 8.10791015625 14.39208984375 Q 8.06396484375 14.65576171875 7.591552734375 15.677490234375 Q 7.119140625 16.69921875 6.30615234375 18.34716796875 Q 5.009765625 20.9619140625 4.28466796875 22.489013671875 Q 3.5595703125 24.01611328125 3.14208984375 25.20263671875 Q 3.01025390625 25.94970703125 3.01025390625 26.5869140625 Z" fill="#fff" style="-webkit-tap-highlight-color: rgba(0, 0, 0, 0);"></path><path id="ludo-svg-node-iy518zvi" d="M 4.59228515625 27.13623046875 Q 4.59228515625 26.82861328125 4.72412109375 26.54296875 Q 4.98779296875 25.72998046875 5.60302734375 25.191650390625 Q 6.21826171875 24.6533203125 6.87744140625 24.521484375 Q 7.18505859375 24.6533203125 7.437744140625 24.971923828125 Q 7.6904296875 25.29052734375 7.6904296875 25.55419921875 L 7.6904296875 25.68603515625 Q 7.646484375 25.72998046875 7.646484375 25.77392578125 Q 7.55859375 26.21337890625 7.3388671875 26.466064453125 Q 7.119140625 26.71875 6.56982421875 27.04833984375 Q 6.17431640625 27.39990234375 5.55908203125 27.718505859375 Q 4.94384765625 28.037109375 4.72412109375 28.037109375 Q 4.59228515625 27.44384765625 4.59228515625 27.13623046875 Z" fill="#fff" style="-webkit-tap-highlight-color: rgba(0, 0, 0, 0);"></path><path id="ludo-svg-node-iy518zvj" d="M 9.7119140625 16.06201171875 L 9.99755859375 15.64453125 Q 10.43701171875 14.91943359375 10.733642578125 14.47998046875 Q 11.0302734375 14.04052734375 11.2939453125 13.6669921875 Q 11.79931640625 13.07373046875 12.249755859375 12.7880859375 Q 12.7001953125 12.50244140625 13.64501953125 12.19482421875 L 13.86474609375 12.19482421875 Q 13.95263671875 12.15087890625 14.04052734375 12.15087890625 Q 14.43603515625 12.15087890625 14.765625 12.45849609375 Q 14.765625 13.2275390625 14.26025390625 13.7109375 Q 13.53515625 14.61181640625 12.41455078125 15.2490234375 Q 11.2939453125 15.88623046875 9.7119140625 16.06201171875 Z" fill="#fff" style="-webkit-tap-highlight-color: rgba(0, 0, 0, 0);"></path><path id="ludo-svg-node-iy518zvk" d="M 3.01025390625 26.5869140625 Q 3.01025390625 27.13623046875 3.14208984375 27.9052734375 Q 3.36181640625 29.06982421875 3.9990234375 29.696044921875 Q 4.63623046875 30.322265625 6.30615234375 30.5859375 Q 6.8115234375 30.673828125 7.0751953125 30.673828125 Q 7.3388671875 30.673828125 7.646484375 30.5859375 Q 7.646484375 31.17919921875 7.8662109375 31.728515625 Q 8.3056640625 32.32177734375 8.96484375 32.2998046875 Q 9.68994140625 32.2998046875 10.12939453125 31.48681640625 Q 11.2060546875 30.3662109375 11.75537109375 29.55322265625 Q 12.06298828125 29.0478515625 12.32666015625 28.49853515625 Q 12.59033203125 27.94921875 13.0517578125 27.00439453125 Q 14.04052734375 25.7080078125 15.435791015625 24.818115234375 Q 16.8310546875 23.92822265625 18.45703125 23.40087890625 Q 19.09423828125 23.18115234375 19.654541015625 22.818603515625 Q 20.21484375 22.4560546875 21.005859375 21.81884765625 Q 21.77490234375 21.26953125 22.060546875 21.1376953125 Q 22.060546875 23.3349609375 21.42333984375 26.158447265625 Q 20.7861328125 28.98193359375 19.57763671875 30.82763671875 Q 19.31396484375 31.376953125 17.81982421875 32.71728515625 Q 16.611328125 33.7939453125 15.7763671875 34.69482421875 Q 14.94140625 35.595703125 14.39208984375 36.67236328125 Q 13.88671875 37.6611328125 13.90869140625 39.3310546875 L 13.90869140625 39.990234375 Q 13.95263671875 40.49560546875 13.95263671875 40.71533203125 L 41.85791015625 40.71533203125 Q 41.72607421875 35.48583984375 41.0888671875 30.926513671875 Q 40.45166015625 26.3671875 39.1552734375 21.59912109375 Q 38.759765625 19.92919921875 37.9248046875 18.08349609375 Q 37.08984375 16.23779296875 35.980224609375 14.47998046875 Q 34.87060546875 12.72216796875 33.7060546875 11.282958984375 Q 32.54150390625 9.84375 31.5087890625 8.98681640625 Q 30.25634765625 7.91015625 28.465576171875 7.261962890625 Q 26.6748046875 6.61376953125 25.02685546875 6.61376953125 Q 23.53271484375 6.61376953125 22.5 7.18505859375 L 20.302734375 2.28515625 L 16.875 5.8447265625 L 11.25 2.4609375 L 11.689453125 8.0859375 Q 10.96435546875 8.63525390625 9.95361328125 10.30517578125 L 9.90966796875 10.34912109375 L 9.4921875 10.83251953125 Q 9.228515625 11.14013671875 8.822021484375 11.66748046875 Q 8.41552734375 12.19482421875 8.10791015625 12.59033203125 Q 7.93212890625 12.98583984375 7.91015625 13.447265625 Q 7.91015625 13.95263671875 8.10791015625 14.39208984375 Q 8.06396484375 14.65576171875 7.591552734375 15.677490234375 Q 7.119140625 16.69921875 6.30615234375 18.34716796875 Q 5.009765625 20.9619140625 4.28466796875 22.489013671875 Q 3.5595703125 24.01611328125 3.14208984375 25.20263671875 Q 3.01025390625 25.94970703125 3.01025390625 26.5869140625 M 4.59228515625 27.13623046875 Q 4.59228515625 26.82861328125 4.72412109375 26.54296875 Q 4.98779296875 25.72998046875 5.60302734375 25.191650390625 Q 6.21826171875 24.6533203125 6.87744140625 24.521484375 Q 7.18505859375 24.6533203125 7.437744140625 24.971923828125 Q 7.6904296875 25.29052734375 7.6904296875 25.55419921875 L 7.6904296875 25.68603515625 Q 7.646484375 25.72998046875 7.646484375 25.77392578125 Q 7.55859375 26.21337890625 7.3388671875 26.466064453125 Q 7.119140625 26.71875 6.56982421875 27.04833984375 Q 6.17431640625 27.39990234375 5.55908203125 27.718505859375 Q 4.94384765625 28.037109375 4.72412109375 28.037109375 Q 4.59228515625 27.44384765625 4.59228515625 27.13623046875 M 9.7119140625 16.06201171875 L 9.99755859375 15.64453125 Q 10.43701171875 14.91943359375 10.733642578125 14.47998046875 Q 11.0302734375 14.04052734375 11.2939453125 13.6669921875 Q 11.79931640625 13.07373046875 12.249755859375 12.7880859375 Q 12.7001953125 12.50244140625 13.64501953125 12.19482421875 L 13.86474609375 12.19482421875 Q 13.95263671875 12.15087890625 14.04052734375 12.15087890625 Q 14.43603515625 12.15087890625 14.765625 12.45849609375 Q 14.765625 13.2275390625 14.26025390625 13.7109375 Q 13.53515625 14.61181640625 12.41455078125 15.2490234375 Q 11.2939453125 15.88623046875 9.7119140625 16.06201171875 M 22.5 10.70068359375 L 22.5 8.28369140625 Q 23.44482421875 7.734375 24.8291015625 7.734375 Q 26.4111328125 7.734375 28.0810546875 8.338623046875 Q 29.7509765625 8.94287109375 30.91552734375 9.9755859375 Q 31.904296875 10.78857421875 32.98095703125 12.139892578125 Q 34.0576171875 13.4912109375 35.101318359375 15.1611328125 Q 36.14501953125 16.8310546875 36.925048828125 18.577880859375 Q 37.705078125 20.32470703125 38.07861328125 21.90673828125 Q 39.3310546875 26.4990234375 39.935302734375 30.772705078125 Q 40.53955078125 35.04638671875 40.71533203125 39.814453125 L 38.12255859375 39.8583984375 Q 37.90283203125 35.26611328125 37.3095703125 30.970458984375 Q 36.71630859375 26.6748046875 35.7275390625 22.939453125 Q 35.3759765625 21.64306640625 34.62890625 19.9951171875 Q 33.8818359375 18.34716796875 32.958984375 16.688232421875 Q 32.0361328125 15.029296875 31.13525390625 13.699951171875 Q 30.234375 12.37060546875 29.619140625 11.8212890625 Q 28.85009765625 11.05224609375 27.410888671875 10.513916015625 Q 25.9716796875 9.9755859375 24.609375 9.9755859375 Q 23.18115234375 9.9755859375 22.5 10.70068359375 Z Z" style="-webkit-tap-highlight-color: rgba(0, 0, 0, 0);"></path><path id="ludo-svg-node-iy518zt4" d="M 3.01025390625 26.5869140625 Q 3.01025390625 27.13623046875 3.14208984375 27.9052734375 Q 3.36181640625 29.06982421875 3.9990234375 29.696044921875 Q 4.63623046875 30.322265625 6.30615234375 30.5859375 Q 6.8115234375 30.673828125 7.0751953125 30.673828125 Q 7.3388671875 30.673828125 7.646484375 30.5859375 Q 7.646484375 31.17919921875 7.8662109375 31.728515625 Q 8.3056640625 32.32177734375 8.96484375 32.2998046875 Q 9.68994140625 32.2998046875 10.12939453125 31.48681640625 Q 11.2060546875 30.3662109375 11.75537109375 29.55322265625 Q 12.06298828125 29.0478515625 12.32666015625 28.49853515625 Q 12.59033203125 27.94921875 13.0517578125 27.00439453125 Q 14.04052734375 25.7080078125 15.435791015625 24.818115234375 Q 16.8310546875 23.92822265625 18.45703125 23.40087890625 Q 19.09423828125 23.18115234375 19.654541015625 22.818603515625 Q 20.21484375 22.4560546875 21.005859375 21.81884765625 Q 21.77490234375 21.26953125 22.060546875 21.1376953125 Q 22.060546875 23.3349609375 21.42333984375 26.158447265625 Q 20.7861328125 28.98193359375 19.57763671875 30.82763671875 Q 19.31396484375 31.376953125 17.81982421875 32.71728515625 Q 16.611328125 33.7939453125 15.7763671875 34.69482421875 Q 14.94140625 35.595703125 14.39208984375 36.67236328125 Q 13.88671875 37.6611328125 13.90869140625 39.3310546875 L 13.90869140625 39.990234375 Q 13.95263671875 40.49560546875 13.95263671875 40.71533203125 L 41.85791015625 40.71533203125 Q 41.72607421875 35.48583984375 41.0888671875 30.926513671875 Q 40.45166015625 26.3671875 39.1552734375 21.59912109375 Q 38.759765625 19.92919921875 37.9248046875 18.08349609375 Q 37.08984375 16.23779296875 35.980224609375 14.47998046875 Q 34.87060546875 12.72216796875 33.7060546875 11.282958984375 Q 32.54150390625 9.84375 31.5087890625 8.98681640625 Q 30.25634765625 7.91015625 28.465576171875 7.261962890625 Q 26.6748046875 6.61376953125 25.02685546875 6.61376953125 Q 23.53271484375 6.61376953125 22.5 7.18505859375 L 20.302734375 2.28515625 L 16.875 5.8447265625 L 11.25 2.4609375 L 11.689453125 8.0859375 Q 10.96435546875 8.63525390625 9.95361328125 10.30517578125 L 9.90966796875 10.34912109375 L 9.4921875 10.83251953125 Q 9.228515625 11.14013671875 8.822021484375 11.66748046875 Q 8.41552734375 12.19482421875 8.10791015625 12.59033203125 Q 7.93212890625 12.98583984375 7.91015625 13.447265625 Q 7.91015625 13.95263671875 8.10791015625 14.39208984375 Q 8.06396484375 14.65576171875 7.591552734375 15.677490234375 Q 7.119140625 16.69921875 6.30615234375 18.34716796875 Q 5.009765625 20.9619140625 4.28466796875 22.489013671875 Q 3.5595703125 24.01611328125 3.14208984375 25.20263671875 Q 3.01025390625 25.94970703125 3.01025390625 26.5869140625 M 4.59228515625 27.13623046875 Q 4.59228515625 26.82861328125 4.72412109375 26.54296875 Q 4.98779296875 25.72998046875 5.60302734375 25.191650390625 Q 6.21826171875 24.6533203125 6.87744140625 24.521484375 Q 7.18505859375 24.6533203125 7.437744140625 24.971923828125 Q 7.6904296875 25.29052734375 7.6904296875 25.55419921875 L 7.6904296875 25.68603515625 Q 7.646484375 25.72998046875 7.646484375 25.77392578125 Q 7.55859375 26.21337890625 7.3388671875 26.466064453125 Q 7.119140625 26.71875 6.56982421875 27.04833984375 Q 6.17431640625 27.39990234375 5.55908203125 27.718505859375 Q 4.94384765625 28.037109375 4.72412109375 28.037109375 Q 4.59228515625 27.44384765625 4.59228515625 27.13623046875 M 9.7119140625 16.06201171875 L 9.99755859375 15.64453125 Q 10.43701171875 14.91943359375 10.733642578125 14.47998046875 Q 11.0302734375 14.04052734375 11.2939453125 13.6669921875 Q 11.79931640625 13.07373046875 12.249755859375 12.7880859375 Q 12.7001953125 12.50244140625 13.64501953125 12.19482421875 L 13.86474609375 12.19482421875 Q 13.95263671875 12.15087890625 14.04052734375 12.15087890625 Q 14.43603515625 12.15087890625 14.765625 12.45849609375 Q 14.765625 13.2275390625 14.26025390625 13.7109375 Q 13.53515625 14.61181640625 12.41455078125 15.2490234375 Q 11.2939453125 15.88623046875 9.7119140625 16.06201171875 M 22.5 10.70068359375 L 22.5 8.28369140625 Q 23.44482421875 7.734375 24.8291015625 7.734375 Q 26.4111328125 7.734375 28.0810546875 8.338623046875 Q 29.7509765625 8.94287109375 30.91552734375 9.9755859375 Q 31.904296875 10.78857421875 32.98095703125 12.139892578125 Q 34.0576171875 13.4912109375 35.101318359375 15.1611328125 Q 36.14501953125 16.8310546875 36.925048828125 18.577880859375 Q 37.705078125 20.32470703125 38.07861328125 21.90673828125 Q 39.3310546875 26.4990234375 39.935302734375 30.772705078125 Q 40.53955078125 35.04638671875 40.71533203125 39.814453125 L 38.12255859375 39.8583984375 Q 37.90283203125 35.26611328125 37.3095703125 30.970458984375 Q 36.71630859375 26.6748046875 35.7275390625 22.939453125 Q 35.3759765625 21.64306640625 34.62890625 19.9951171875 Q 33.8818359375 18.34716796875 32.958984375 16.688232421875 Q 32.0361328125 15.029296875 31.13525390625 13.699951171875 Q 30.234375 12.37060546875 29.619140625 11.8212890625 Q 28.85009765625 11.05224609375 27.410888671875 10.513916015625 Q 25.9716796875 9.9755859375 24.609375 9.9755859375 Q 23.18115234375 9.9755859375 22.5 10.70068359375 Z Z" fill-rule="even-odd" style="-webkit-tap-highlight-color: rgba(0, 0, 0, 0); fill: rgb(0, 0, 0); stroke-width: 0;"></path></g></svg>