<svg xmlns="http://www.w3.org/2000/svg" version="1.1" id="ludo-svg-node-iy518zti" width="45" height="45" viewBox="0 0 45 45" style="-webkit-tap-highlight-color: rgba(0, 0, 0, 0); width: 45px; height: 45px;"><g id="ludo-svg-node-iy518ztj" style="-webkit-tap-highlight-color: rgba(0, 0, 0, 0);"><path id="ludo-svg-node-iy518zvr" d="M 2.2412109375 10.26123046875 Q 2.2412109375 11.0302734375 2.9443359375 11.700439453125 Q 3.6474609375 12.37060546875 4.50439453125 12.37060546875 Q 5.361328125 12.37060546875 6.053466796875 11.700439453125 Q 6.74560546875 11.0302734375 6.74560546875 10.26123046875 Q 6.74560546875 9.4482421875 6.053466796875 8.7890625 Q 5.361328125 8.1298828125 4.50439453125 8.1298828125 Q 3.6474609375 8.1298828125 2.9443359375 8.7890625 Q 2.2412109375 9.4482421875 2.2412109375 10.26123046875 Z" fill="#fff" style="-webkit-tap-highlight-color: rgba(0, 0, 0, 0);"></path><path id="ludo-svg-node-iy518zvs" d="M 4.76806640625 12.41455078125 L 7.55859375 26.3232421875 L 10.9423828125 30.146484375 L 11.84326171875 34.1455078125 L 10.04150390625 37.96875 Q 10.634765625 38.86962890625 13.90869140625 39.5947265625 Q 15.88623046875 39.90234375 17.73193359375 40.001220703125 Q 19.57763671875 40.10009765625 22.5 40.10009765625 Q 25.42236328125 40.10009765625 27.26806640625 40.001220703125 Q 29.11376953125 39.90234375 31.09130859375 39.5947265625 Q 34.38720703125 38.86962890625 34.95849609375 37.96875 L 33.15673828125 34.1455078125 L 34.0576171875 30.146484375 L 37.44140625 26.3232421875 L 40.23193359375 12.45849609375 L 39.814453125 12.28271484375 L 32.49755859375 24.8291015625 L 31.5966796875 9.07470703125 L 31.13525390625 8.94287109375 L 25.68603515625 24.06005859375 L 22.67578125 7.470703125 L 22.32421875 7.470703125 L 19.31396484375 24.06005859375 L 13.86474609375 8.94287109375 L 13.447265625 9.07470703125 L 12.50244140625 24.8291015625 L 12.45849609375 24.697265625 L 5.185546875 12.28271484375 L 4.76806640625 12.41455078125 Z" fill="#fff" style="-webkit-tap-highlight-color: rgba(0, 0, 0, 0);"></path><path id="ludo-svg-node-iy518zvt" d="M 10.70068359375 7.00927734375 Q 10.70068359375 7.822265625 11.40380859375 8.4814453125 Q 12.10693359375 9.140625 12.9638671875 9.140625 Q 13.82080078125 9.140625 14.512939453125 8.4814453125 Q 15.205078125 7.822265625 15.205078125 7.00927734375 Q 15.205078125 6.240234375 14.512939453125 5.592041015625 Q 13.82080078125 4.94384765625 12.9638671875 4.94384765625 Q 12.10693359375 4.94384765625 11.40380859375 5.592041015625 Q 10.70068359375 6.240234375 10.70068359375 7.00927734375 Z" fill="#fff" style="-webkit-tap-highlight-color: rgba(0, 0, 0, 0);"></path><path id="ludo-svg-node-iy518zvu" d="M 10.8544921875 37.11181640625 Q 11.49169921875 36.76025390625 12.98583984375 36.353759765625 Q 14.47998046875 35.947265625 16.34765625 35.584716796875 Q 18.21533203125 35.22216796875 19.86328125 35.00244140625 Q 21.51123046875 34.78271484375 22.5 34.78271484375 Q 23.48876953125 34.78271484375 25.13671875 35.00244140625 Q 26.78466796875 35.22216796875 28.67431640625 35.606689453125 Q 30.56396484375 35.9912109375 32.047119140625 36.375732421875 Q 33.5302734375 36.76025390625 34.1455078125 37.11181640625 L 33.20068359375 38.69384765625 Q 32.1240234375 38.34228515625 30.684814453125 38.001708984375 Q 29.24560546875 37.6611328125 27.652587890625 37.364501953125 Q 26.0595703125 37.06787109375 24.708251953125 36.89208984375 Q 23.35693359375 36.71630859375 22.5 36.71630859375 Q 21.64306640625 36.71630859375 20.313720703125 36.89208984375 Q 18.984375 37.06787109375 17.369384765625 37.364501953125 Q 15.75439453125 37.6611328125 14.271240234375 38.023681640625 Q 12.7880859375 38.38623046875 11.79931640625 38.69384765625 L 10.8544921875 37.11181640625 Z" fill="#fff" style="-webkit-tap-highlight-color: rgba(0, 0, 0, 0);"></path><path id="ludo-svg-node-iy518zvv" d="M 11.42578125 31.22314453125 L 11.42578125 29.33349609375 Q 13.4912109375 28.3447265625 16.644287109375 27.674560546875 Q 19.79736328125 27.00439453125 22.5 27.00439453125 Q 25.20263671875 27.00439453125 28.355712890625 27.674560546875 Q 31.5087890625 28.3447265625 33.57421875 29.33349609375 L 33.57421875 31.22314453125 Q 31.46484375 30.234375 28.311767578125 29.564208984375 Q 25.15869140625 28.89404296875 22.5 28.89404296875 Q 19.84130859375 28.89404296875 16.688232421875 29.564208984375 Q 13.53515625 30.234375 11.42578125 31.22314453125 Z" fill="#fff" style="-webkit-tap-highlight-color: rgba(0, 0, 0, 0);"></path><path id="ludo-svg-node-iy518zvw" d="M 12.45849609375 35.00244140625 L 12.45849609375 33.11279296875 Q 13.2275390625 32.67333984375 14.534912109375 32.244873046875 Q 15.84228515625 31.81640625 17.303466796875 31.497802734375 Q 18.7646484375 31.17919921875 20.137939453125 30.9814453125 Q 21.51123046875 30.78369140625 22.5 30.78369140625 Q 23.48876953125 30.78369140625 24.862060546875 30.95947265625 Q 26.2353515625 31.13525390625 27.718505859375 31.475830078125 Q 29.20166015625 31.81640625 30.487060546875 32.244873046875 Q 31.7724609375 32.67333984375 32.54150390625 33.11279296875 L 32.54150390625 35.00244140625 Q 31.7724609375 34.56298828125 30.465087890625 34.156494140625 Q 29.15771484375 33.75 27.718505859375 33.409423828125 Q 26.279296875 33.06884765625 24.884033203125 32.89306640625 Q 23.48876953125 32.71728515625 22.5 32.71728515625 Q 21.51123046875 32.71728515625 20.115966796875 32.89306640625 Q 18.720703125 33.06884765625 17.281494140625 33.409423828125 Q 15.84228515625 33.75 14.534912109375 34.156494140625 Q 13.2275390625 34.56298828125 12.45849609375 35.00244140625 Z" fill="#fff" style="-webkit-tap-highlight-color: rgba(0, 0, 0, 0);"></path><path id="ludo-svg-node-iy518zvx" d="M 20.2587890625 5.25146484375 Q 20.2587890625 5.9765625 20.972900390625 6.70166015625 Q 21.68701171875 7.4267578125 22.5 7.4267578125 Q 23.31298828125 7.4267578125 24.027099609375 6.70166015625 Q 24.7412109375 5.9765625 24.7412109375 5.25146484375 Q 24.7412109375 4.482421875 24.049072265625 3.812255859375 Q 23.35693359375 3.14208984375 22.5 3.14208984375 Q 21.64306640625 3.14208984375 20.950927734375 3.812255859375 Q 20.2587890625 4.482421875 20.2587890625 5.25146484375 Z" fill="#fff" style="-webkit-tap-highlight-color: rgba(0, 0, 0, 0);"></path><path id="ludo-svg-node-iy518zvy" d="M 29.794921875 7.00927734375 Q 29.794921875 7.822265625 30.487060546875 8.4814453125 Q 31.17919921875 9.140625 32.0361328125 9.140625 Q 32.89306640625 9.140625 33.59619140625 8.4814453125 Q 34.29931640625 7.822265625 34.29931640625 7.00927734375 Q 34.29931640625 6.240234375 33.59619140625 5.592041015625 Q 32.89306640625 4.94384765625 32.0361328125 4.94384765625 Q 31.17919921875 4.94384765625 30.487060546875 5.592041015625 Q 29.794921875 6.240234375 29.794921875 7.00927734375 Z" fill="#fff" style="-webkit-tap-highlight-color: rgba(0, 0, 0, 0);"></path><path id="ludo-svg-node-iy518zvz" d="M 2.2412109375 10.26123046875 Q 2.2412109375 11.0302734375 2.9443359375 11.700439453125 Q 3.6474609375 12.37060546875 4.50439453125 12.37060546875 Q 5.361328125 12.37060546875 6.053466796875 11.700439453125 Q 6.74560546875 11.0302734375 6.74560546875 10.26123046875 Q 6.74560546875 9.4482421875 6.053466796875 8.7890625 Q 5.361328125 8.1298828125 4.50439453125 8.1298828125 Q 3.6474609375 8.1298828125 2.9443359375 8.7890625 Q 2.2412109375 9.4482421875 2.2412109375 10.26123046875 M 4.76806640625 12.41455078125 L 7.55859375 26.3232421875 L 10.9423828125 30.146484375 L 11.84326171875 34.1455078125 L 10.04150390625 37.96875 Q 10.634765625 38.86962890625 13.90869140625 39.5947265625 Q 15.88623046875 39.90234375 17.73193359375 40.001220703125 Q 19.57763671875 40.10009765625 22.5 40.10009765625 Q 25.42236328125 40.10009765625 27.26806640625 40.001220703125 Q 29.11376953125 39.90234375 31.09130859375 39.5947265625 Q 34.38720703125 38.86962890625 34.95849609375 37.96875 L 33.15673828125 34.1455078125 L 34.0576171875 30.146484375 L 37.44140625 26.3232421875 L 40.23193359375 12.45849609375 L 39.814453125 12.28271484375 L 32.49755859375 24.8291015625 L 31.5966796875 9.07470703125 L 31.13525390625 8.94287109375 L 25.68603515625 24.06005859375 L 22.67578125 7.470703125 L 22.32421875 7.470703125 L 19.31396484375 24.06005859375 L 13.86474609375 8.94287109375 L 13.447265625 9.07470703125 L 12.50244140625 24.8291015625 L 12.45849609375 24.697265625 L 5.185546875 12.28271484375 L 4.76806640625 12.41455078125 M 10.70068359375 7.00927734375 Q 10.70068359375 7.822265625 11.40380859375 8.4814453125 Q 12.10693359375 9.140625 12.9638671875 9.140625 Q 13.82080078125 9.140625 14.512939453125 8.4814453125 Q 15.205078125 7.822265625 15.205078125 7.00927734375 Q 15.205078125 6.240234375 14.512939453125 5.592041015625 Q 13.82080078125 4.94384765625 12.9638671875 4.94384765625 Q 12.10693359375 4.94384765625 11.40380859375 5.592041015625 Q 10.70068359375 6.240234375 10.70068359375 7.00927734375 M 10.8544921875 37.11181640625 Q 11.49169921875 36.76025390625 12.98583984375 36.353759765625 Q 14.47998046875 35.947265625 16.34765625 35.584716796875 Q 18.21533203125 35.22216796875 19.86328125 35.00244140625 Q 21.51123046875 34.78271484375 22.5 34.78271484375 Q 23.48876953125 34.78271484375 25.13671875 35.00244140625 Q 26.78466796875 35.22216796875 28.67431640625 35.606689453125 Q 30.56396484375 35.9912109375 32.047119140625 36.375732421875 Q 33.5302734375 36.76025390625 34.1455078125 37.11181640625 L 33.20068359375 38.69384765625 Q 32.1240234375 38.34228515625 30.684814453125 38.001708984375 Q 29.24560546875 37.6611328125 27.652587890625 37.364501953125 Q 26.0595703125 37.06787109375 24.708251953125 36.89208984375 Q 23.35693359375 36.71630859375 22.5 36.71630859375 Q 21.64306640625 36.71630859375 20.313720703125 36.89208984375 Q 18.984375 37.06787109375 17.369384765625 37.364501953125 Q 15.75439453125 37.6611328125 14.271240234375 38.023681640625 Q 12.7880859375 38.38623046875 11.79931640625 38.69384765625 L 10.8544921875 37.11181640625 M 11.42578125 31.22314453125 L 11.42578125 29.33349609375 Q 13.4912109375 28.3447265625 16.644287109375 27.674560546875 Q 19.79736328125 27.00439453125 22.5 27.00439453125 Q 25.20263671875 27.00439453125 28.355712890625 27.674560546875 Q 31.5087890625 28.3447265625 33.57421875 29.33349609375 L 33.57421875 31.22314453125 Q 31.46484375 30.234375 28.311767578125 29.564208984375 Q 25.15869140625 28.89404296875 22.5 28.89404296875 Q 19.84130859375 28.89404296875 16.688232421875 29.564208984375 Q 13.53515625 30.234375 11.42578125 31.22314453125 M 12.45849609375 35.00244140625 L 12.45849609375 33.11279296875 Q 13.2275390625 32.67333984375 14.534912109375 32.244873046875 Q 15.84228515625 31.81640625 17.303466796875 31.497802734375 Q 18.7646484375 31.17919921875 20.137939453125 30.9814453125 Q 21.51123046875 30.78369140625 22.5 30.78369140625 Q 23.48876953125 30.78369140625 24.862060546875 30.95947265625 Q 26.2353515625 31.13525390625 27.718505859375 31.475830078125 Q 29.20166015625 31.81640625 30.487060546875 32.244873046875 Q 31.7724609375 32.67333984375 32.54150390625 33.11279296875 L 32.54150390625 35.00244140625 Q 31.7724609375 34.56298828125 30.465087890625 34.156494140625 Q 29.15771484375 33.75 27.718505859375 33.409423828125 Q 26.279296875 33.06884765625 24.884033203125 32.89306640625 Q 23.48876953125 32.71728515625 22.5 32.71728515625 Q 21.51123046875 32.71728515625 20.115966796875 32.89306640625 Q 18.720703125 33.06884765625 17.281494140625 33.409423828125 Q 15.84228515625 33.75 14.534912109375 34.156494140625 Q 13.2275390625 34.56298828125 12.45849609375 35.00244140625 M 20.2587890625 5.25146484375 Q 20.2587890625 5.9765625 20.972900390625 6.70166015625 Q 21.68701171875 7.4267578125 22.5 7.4267578125 Q 23.31298828125 7.4267578125 24.027099609375 6.70166015625 Q 24.7412109375 5.9765625 24.7412109375 5.25146484375 Q 24.7412109375 4.482421875 24.049072265625 3.812255859375 Q 23.35693359375 3.14208984375 22.5 3.14208984375 Q 21.64306640625 3.14208984375 20.950927734375 3.812255859375 Q 20.2587890625 4.482421875 20.2587890625 5.25146484375 M 29.794921875 7.00927734375 Q 29.794921875 7.822265625 30.487060546875 8.4814453125 Q 31.17919921875 9.140625 32.0361328125 9.140625 Q 32.89306640625 9.140625 33.59619140625 8.4814453125 Q 34.29931640625 7.822265625 34.29931640625 7.00927734375 Q 34.29931640625 6.240234375 33.59619140625 5.592041015625 Q 32.89306640625 4.94384765625 32.0361328125 4.94384765625 Q 31.17919921875 4.94384765625 30.487060546875 5.592041015625 Q 29.794921875 6.240234375 29.794921875 7.00927734375 M 38.25439453125 10.26123046875 Q 38.25439453125 11.0302734375 38.946533203125 11.700439453125 Q 39.638671875 12.37060546875 40.49560546875 12.37060546875 Q 41.3525390625 12.37060546875 42.0556640625 11.700439453125 Q 42.7587890625 11.0302734375 42.7587890625 10.26123046875 Q 42.7587890625 9.4482421875 42.0556640625 8.7890625 Q 41.3525390625 8.1298828125 40.49560546875 8.1298828125 Q 39.638671875 8.1298828125 38.946533203125 8.7890625 Q 38.25439453125 9.4482421875 38.25439453125 10.26123046875 Z Z" style="-webkit-tap-highlight-color: rgba(0, 0, 0, 0);"></path><path id="ludo-svg-node-iy518ztk" d="M 2.2412109375 10.26123046875 Q 2.2412109375 11.0302734375 2.9443359375 11.700439453125 Q 3.6474609375 12.37060546875 4.50439453125 12.37060546875 Q 5.361328125 12.37060546875 6.053466796875 11.700439453125 Q 6.74560546875 11.0302734375 6.74560546875 10.26123046875 Q 6.74560546875 9.4482421875 6.053466796875 8.7890625 Q 5.361328125 8.1298828125 4.50439453125 8.1298828125 Q 3.6474609375 8.1298828125 2.9443359375 8.7890625 Q 2.2412109375 9.4482421875 2.2412109375 10.26123046875 M 4.76806640625 12.41455078125 L 7.55859375 26.3232421875 L 10.9423828125 30.146484375 L 11.84326171875 34.1455078125 L 10.04150390625 37.96875 Q 10.634765625 38.86962890625 13.90869140625 39.5947265625 Q 15.88623046875 39.90234375 17.73193359375 40.001220703125 Q 19.57763671875 40.10009765625 22.5 40.10009765625 Q 25.42236328125 40.10009765625 27.26806640625 40.001220703125 Q 29.11376953125 39.90234375 31.09130859375 39.5947265625 Q 34.38720703125 38.86962890625 34.95849609375 37.96875 L 33.15673828125 34.1455078125 L 34.0576171875 30.146484375 L 37.44140625 26.3232421875 L 40.23193359375 12.45849609375 L 39.814453125 12.28271484375 L 32.49755859375 24.8291015625 L 31.5966796875 9.07470703125 L 31.13525390625 8.94287109375 L 25.68603515625 24.06005859375 L 22.67578125 7.470703125 L 22.32421875 7.470703125 L 19.31396484375 24.06005859375 L 13.86474609375 8.94287109375 L 13.447265625 9.07470703125 L 12.50244140625 24.8291015625 L 12.45849609375 24.697265625 L 5.185546875 12.28271484375 L 4.76806640625 12.41455078125 M 10.70068359375 7.00927734375 Q 10.70068359375 7.822265625 11.40380859375 8.4814453125 Q 12.10693359375 9.140625 12.9638671875 9.140625 Q 13.82080078125 9.140625 14.512939453125 8.4814453125 Q 15.205078125 7.822265625 15.205078125 7.00927734375 Q 15.205078125 6.240234375 14.512939453125 5.592041015625 Q 13.82080078125 4.94384765625 12.9638671875 4.94384765625 Q 12.10693359375 4.94384765625 11.40380859375 5.592041015625 Q 10.70068359375 6.240234375 10.70068359375 7.00927734375 M 10.8544921875 37.11181640625 Q 11.49169921875 36.76025390625 12.98583984375 36.353759765625 Q 14.47998046875 35.947265625 16.34765625 35.584716796875 Q 18.21533203125 35.22216796875 19.86328125 35.00244140625 Q 21.51123046875 34.78271484375 22.5 34.78271484375 Q 23.48876953125 34.78271484375 25.13671875 35.00244140625 Q 26.78466796875 35.22216796875 28.67431640625 35.606689453125 Q 30.56396484375 35.9912109375 32.047119140625 36.375732421875 Q 33.5302734375 36.76025390625 34.1455078125 37.11181640625 L 33.20068359375 38.69384765625 Q 32.1240234375 38.34228515625 30.684814453125 38.001708984375 Q 29.24560546875 37.6611328125 27.652587890625 37.364501953125 Q 26.0595703125 37.06787109375 24.708251953125 36.89208984375 Q 23.35693359375 36.71630859375 22.5 36.71630859375 Q 21.64306640625 36.71630859375 20.313720703125 36.89208984375 Q 18.984375 37.06787109375 17.369384765625 37.364501953125 Q 15.75439453125 37.6611328125 14.271240234375 38.023681640625 Q 12.7880859375 38.38623046875 11.79931640625 38.69384765625 L 10.8544921875 37.11181640625 M 11.42578125 31.22314453125 L 11.42578125 29.33349609375 Q 13.4912109375 28.3447265625 16.644287109375 27.674560546875 Q 19.79736328125 27.00439453125 22.5 27.00439453125 Q 25.20263671875 27.00439453125 28.355712890625 27.674560546875 Q 31.5087890625 28.3447265625 33.57421875 29.33349609375 L 33.57421875 31.22314453125 Q 31.46484375 30.234375 28.311767578125 29.564208984375 Q 25.15869140625 28.89404296875 22.5 28.89404296875 Q 19.84130859375 28.89404296875 16.688232421875 29.564208984375 Q 13.53515625 30.234375 11.42578125 31.22314453125 M 12.45849609375 35.00244140625 L 12.45849609375 33.11279296875 Q 13.2275390625 32.67333984375 14.534912109375 32.244873046875 Q 15.84228515625 31.81640625 17.303466796875 31.497802734375 Q 18.7646484375 31.17919921875 20.137939453125 30.9814453125 Q 21.51123046875 30.78369140625 22.5 30.78369140625 Q 23.48876953125 30.78369140625 24.862060546875 30.95947265625 Q 26.2353515625 31.13525390625 27.718505859375 31.475830078125 Q 29.20166015625 31.81640625 30.487060546875 32.244873046875 Q 31.7724609375 32.67333984375 32.54150390625 33.11279296875 L 32.54150390625 35.00244140625 Q 31.7724609375 34.56298828125 30.465087890625 34.156494140625 Q 29.15771484375 33.75 27.718505859375 33.409423828125 Q 26.279296875 33.06884765625 24.884033203125 32.89306640625 Q 23.48876953125 32.71728515625 22.5 32.71728515625 Q 21.51123046875 32.71728515625 20.115966796875 32.89306640625 Q 18.720703125 33.06884765625 17.281494140625 33.409423828125 Q 15.84228515625 33.75 14.534912109375 34.156494140625 Q 13.2275390625 34.56298828125 12.45849609375 35.00244140625 M 20.2587890625 5.25146484375 Q 20.2587890625 5.9765625 20.972900390625 6.70166015625 Q 21.68701171875 7.4267578125 22.5 7.4267578125 Q 23.31298828125 7.4267578125 24.027099609375 6.70166015625 Q 24.7412109375 5.9765625 24.7412109375 5.25146484375 Q 24.7412109375 4.482421875 24.049072265625 3.812255859375 Q 23.35693359375 3.14208984375 22.5 3.14208984375 Q 21.64306640625 3.14208984375 20.950927734375 3.812255859375 Q 20.2587890625 4.482421875 20.2587890625 5.25146484375 M 29.794921875 7.00927734375 Q 29.794921875 7.822265625 30.487060546875 8.4814453125 Q 31.17919921875 9.140625 32.0361328125 9.140625 Q 32.89306640625 9.140625 33.59619140625 8.4814453125 Q 34.29931640625 7.822265625 34.29931640625 7.00927734375 Q 34.29931640625 6.240234375 33.59619140625 5.592041015625 Q 32.89306640625 4.94384765625 32.0361328125 4.94384765625 Q 31.17919921875 4.94384765625 30.487060546875 5.592041015625 Q 29.794921875 6.240234375 29.794921875 7.00927734375 M 38.25439453125 10.26123046875 Q 38.25439453125 11.0302734375 38.946533203125 11.700439453125 Q 39.638671875 12.37060546875 40.49560546875 12.37060546875 Q 41.3525390625 12.37060546875 42.0556640625 11.700439453125 Q 42.7587890625 11.0302734375 42.7587890625 10.26123046875 Q 42.7587890625 9.4482421875 42.0556640625 8.7890625 Q 41.3525390625 8.1298828125 40.49560546875 8.1298828125 Q 39.638671875 8.1298828125 38.946533203125 8.7890625 Q 38.25439453125 9.4482421875 38.25439453125 10.26123046875 Z Z" fill-rule="even-odd" style="-webkit-tap-highlight-color: rgba(0, 0, 0, 0); fill: rgb(0, 0, 0); stroke-width: 0;"></path></g></svg>