<svg xmlns="http://www.w3.org/2000/svg" version="1.1" id="ludo-svg-node-iy4zjyiw" width="45" height="45" viewBox="0 0 45 45" style="-webkit-tap-highlight-color: rgba(0, 0, 0, 0); width: 45px; height: 45px;"><g id="ludo-svg-node-iy4zjyix" style="-webkit-tap-highlight-color: rgba(0, 0, 0, 0);"><path id="ludo-svg-node-iy4zjyla" d="M 0.41748046875 44.2529296875 Q 0.81298828125 44.2529296875 0.81298828125 44.6044921875 Q 0.81298828125 44.97802734375 0.41748046875 44.97802734375 Q 0.0439453125 44.97802734375 0.0439453125 44.6044921875 Q 0.0439453125 44.2529296875 0.41748046875 44.2529296875 Z M 45.41748046875 44.2529296875 Q 45.81298828125 44.2529296875 45.81298828125 44.6044921875 Q 45.81298828125 44.97802734375 45.41748046875 44.97802734375 Q 45.0439453125 44.97802734375 45.0439453125 44.6044921875 Q 45.0439453125 44.2529296875 45.41748046875 44.2529296875 Z M 90.41748046875 44.2529296875 Q 90.81298828125 44.2529296875 90.81298828125 44.6044921875 Q 90.81298828125 44.97802734375 90.41748046875 44.97802734375 Q 90.0439453125 44.97802734375 90.0439453125 44.6044921875 Q 90.0439453125 44.2529296875 90.41748046875 44.2529296875 Z M 135.41748046875 44.2529296875 Q 135.81298828125 44.2529296875 135.81298828125 44.6044921875 Q 135.81298828125 44.97802734375 135.41748046875 44.97802734375 Q 135.0439453125 44.97802734375 135.0439453125 44.6044921875 Q 135.0439453125 44.2529296875 135.41748046875 44.2529296875 Z M 180.41748046875 44.2529296875 Q 180.81298828125 44.2529296875 180.81298828125 44.6044921875 Q 180.81298828125 44.97802734375 180.41748046875 44.97802734375 Q 180.0439453125 44.97802734375 180.0439453125 44.6044921875 Q 180.0439453125 44.2529296875 180.41748046875 44.2529296875 Z M 225.41748046875 44.2529296875 Q 225.81298828125 44.2529296875 225.81298828125 44.6044921875 Q 225.81298828125 44.97802734375 225.41748046875 44.97802734375 Q 225.0439453125 44.97802734375 225.0439453125 44.6044921875 Q 225.0439453125 44.2529296875 225.41748046875 44.2529296875 Z M 270.41748046875 44.2529296875 Q 270.81298828125 44.2529296875 270.81298828125 44.6044921875 Q 270.81298828125 44.97802734375 270.41748046875 44.97802734375 Q 270.0439453125 44.97802734375 270.0439453125 44.6044921875 Q 270.0439453125 44.2529296875 270.41748046875 44.2529296875 Z M 315.41748046875 44.2529296875 Q 315.81298828125 44.2529296875 315.81298828125 44.6044921875 Q 315.81298828125 44.97802734375 315.41748046875 44.97802734375 Q 315.0439453125 44.97802734375 315.0439453125 44.6044921875 Q 315.0439453125 44.2529296875 315.41748046875 44.2529296875 Z M 360.41748046875 44.2529296875 Q 360.81298828125 44.2529296875 360.81298828125 44.6044921875 Q 360.81298828125 44.97802734375 360.41748046875 44.97802734375 Q 360.0439453125 44.97802734375 360.0439453125 44.6044921875 Q 360.0439453125 44.2529296875 360.41748046875 44.2529296875 Z M 405.41748046875 44.2529296875 Q 405.81298828125 44.2529296875 405.81298828125 44.6044921875 Q 405.81298828125 44.97802734375 405.41748046875 44.97802734375 Q 405.0439453125 44.97802734375 405.0439453125 44.6044921875 Q 405.0439453125 44.2529296875 405.41748046875 44.2529296875 Z M 450.41748046875 44.2529296875 Q 450.81298828125 44.2529296875 450.81298828125 44.6044921875 Q 450.81298828125 44.97802734375 450.41748046875 44.97802734375 Q 450.0439453125 44.97802734375 450.0439453125 44.6044921875 Q 450.0439453125 44.2529296875 450.41748046875 44.2529296875 Z M 495.41748046875 44.2529296875 Q 495.81298828125 44.2529296875 495.81298828125 44.6044921875 Q 495.81298828125 44.97802734375 495.41748046875 44.97802734375 Q 495.0439453125 44.97802734375 495.0439453125 44.6044921875 Q 495.0439453125 44.2529296875 495.41748046875 44.2529296875 Z M 540.41748046875 44.2529296875 Q 540.81298828125 44.2529296875 540.81298828125 44.6044921875 Q 540.81298828125 44.97802734375 540.41748046875 44.97802734375 Q 540.0439453125 44.97802734375 540.0439453125 44.6044921875 Q 540.0439453125 44.2529296875 540.41748046875 44.2529296875 Z M 585.41748046875 44.2529296875 Q 585.81298828125 44.2529296875 585.81298828125 44.6044921875 Q 585.81298828125 44.97802734375 585.41748046875 44.97802734375 Q 585.0439453125 44.97802734375 585.0439453125 44.6044921875 Q 585.0439453125 44.2529296875 585.41748046875 44.2529296875 Z M 630.41748046875 44.2529296875 Q 630.81298828125 44.2529296875 630.81298828125 44.6044921875 Q 630.81298828125 44.97802734375 630.41748046875 44.97802734375 Q 630.0439453125 44.97802734375 630.0439453125 44.6044921875 Q 630.0439453125 44.2529296875 630.41748046875 44.2529296875 Z M 675.41748046875 44.2529296875 Q 675.81298828125 44.2529296875 675.81298828125 44.6044921875 Q 675.81298828125 44.97802734375 675.41748046875 44.97802734375 Q 675.0439453125 44.97802734375 675.0439453125 44.6044921875 Q 675.0439453125 44.2529296875 675.41748046875 44.2529296875 Z M 720.41748046875 44.2529296875 Q 720.81298828125 44.2529296875 720.81298828125 44.6044921875 Q 720.81298828125 44.97802734375 720.41748046875 44.97802734375 Q 720.0439453125 44.97802734375 720.0439453125 44.6044921875 Q 720.0439453125 44.2529296875 720.41748046875 44.2529296875 Z M 765.41748046875 44.2529296875 Q 765.81298828125 44.2529296875 765.81298828125 44.6044921875 Q 765.81298828125 44.97802734375 765.41748046875 44.97802734375 Q 765.0439453125 44.97802734375 765.0439453125 44.6044921875 Q 765.0439453125 44.2529296875 765.41748046875 44.2529296875 Z M 810.41748046875 44.2529296875 Q 810.81298828125 44.2529296875 810.81298828125 44.6044921875 Q 810.81298828125 44.97802734375 810.41748046875 44.97802734375 Q 810.0439453125 44.97802734375 810.0439453125 44.6044921875 Q 810.0439453125 44.2529296875 810.41748046875 44.2529296875 Z M 855.41748046875 44.2529296875 Q 855.81298828125 44.2529296875 855.81298828125 44.6044921875 Q 855.81298828125 44.97802734375 855.41748046875 44.97802734375 Q 855.0439453125 44.97802734375 855.0439453125 44.6044921875 Q 855.0439453125 44.2529296875 855.41748046875 44.2529296875 Z M 900.41748046875 44.2529296875 Q 900.81298828125 44.2529296875 900.81298828125 44.6044921875 Q 900.81298828125 44.97802734375 900.41748046875 44.97802734375 Q 900.0439453125 44.97802734375 900.0439453125 44.6044921875 Q 900.0439453125 44.2529296875 900.41748046875 44.2529296875 Z M 945.41748046875 44.2529296875 Q 945.81298828125 44.2529296875 945.81298828125 44.6044921875 Q 945.81298828125 44.97802734375 945.41748046875 44.97802734375 Q 945.0439453125 44.97802734375 945.0439453125 44.6044921875 Q 945.0439453125 44.2529296875 945.41748046875 44.2529296875 Z M 990.41748046875 44.2529296875 Q 990.81298828125 44.2529296875 990.81298828125 44.6044921875 Q 990.81298828125 44.97802734375 990.41748046875 44.97802734375 Q 990.0439453125 44.97802734375 990.0439453125 44.6044921875 Q 990.0439453125 44.2529296875 990.41748046875 44.2529296875 Z M 1035.41748046875 44.2529296875 Q 1035.81298828125 44.2529296875 1035.81298828125 44.6044921875 Q 1035.81298828125 44.97802734375 1035.41748046875 44.97802734375 Q 1035.0439453125 44.97802734375 1035.0439453125 44.6044921875 Q 1035.0439453125 44.2529296875 1035.41748046875 44.2529296875 Z M 1080.41748046875 44.2529296875 Q 1080.81298828125 44.2529296875 1080.81298828125 44.6044921875 Q 1080.81298828125 44.97802734375 1080.41748046875 44.97802734375 Q 1080.0439453125 44.97802734375 1080.0439453125 44.6044921875 Q 1080.0439453125 44.2529296875 1080.41748046875 44.2529296875 Z M 1125.41748046875 44.2529296875 Q 1125.81298828125 44.2529296875 1125.81298828125 44.6044921875 Q 1125.81298828125 44.97802734375 1125.41748046875 44.97802734375 Q 1125.0439453125 44.97802734375 1125.0439453125 44.6044921875 Q 1125.0439453125 44.2529296875 1125.41748046875 44.2529296875 Z Z" style="-webkit-tap-highlight-color: rgba(0, 0, 0, 0);"></path><path id="ludo-svg-node-iy4zjyiy" d="M 0.41748046875 44.2529296875 Q 0.81298828125 44.2529296875 0.81298828125 44.6044921875 Q 0.81298828125 44.97802734375 0.41748046875 44.97802734375 Q 0.0439453125 44.97802734375 0.0439453125 44.6044921875 Q 0.0439453125 44.2529296875 0.41748046875 44.2529296875 Z M 45.41748046875 44.2529296875 Q 45.81298828125 44.2529296875 45.81298828125 44.6044921875 Q 45.81298828125 44.97802734375 45.41748046875 44.97802734375 Q 45.0439453125 44.97802734375 45.0439453125 44.6044921875 Q 45.0439453125 44.2529296875 45.41748046875 44.2529296875 Z M 90.41748046875 44.2529296875 Q 90.81298828125 44.2529296875 90.81298828125 44.6044921875 Q 90.81298828125 44.97802734375 90.41748046875 44.97802734375 Q 90.0439453125 44.97802734375 90.0439453125 44.6044921875 Q 90.0439453125 44.2529296875 90.41748046875 44.2529296875 Z M 135.41748046875 44.2529296875 Q 135.81298828125 44.2529296875 135.81298828125 44.6044921875 Q 135.81298828125 44.97802734375 135.41748046875 44.97802734375 Q 135.0439453125 44.97802734375 135.0439453125 44.6044921875 Q 135.0439453125 44.2529296875 135.41748046875 44.2529296875 Z M 180.41748046875 44.2529296875 Q 180.81298828125 44.2529296875 180.81298828125 44.6044921875 Q 180.81298828125 44.97802734375 180.41748046875 44.97802734375 Q 180.0439453125 44.97802734375 180.0439453125 44.6044921875 Q 180.0439453125 44.2529296875 180.41748046875 44.2529296875 Z M 225.41748046875 44.2529296875 Q 225.81298828125 44.2529296875 225.81298828125 44.6044921875 Q 225.81298828125 44.97802734375 225.41748046875 44.97802734375 Q 225.0439453125 44.97802734375 225.0439453125 44.6044921875 Q 225.0439453125 44.2529296875 225.41748046875 44.2529296875 Z M 270.41748046875 44.2529296875 Q 270.81298828125 44.2529296875 270.81298828125 44.6044921875 Q 270.81298828125 44.97802734375 270.41748046875 44.97802734375 Q 270.0439453125 44.97802734375 270.0439453125 44.6044921875 Q 270.0439453125 44.2529296875 270.41748046875 44.2529296875 Z M 315.41748046875 44.2529296875 Q 315.81298828125 44.2529296875 315.81298828125 44.6044921875 Q 315.81298828125 44.97802734375 315.41748046875 44.97802734375 Q 315.0439453125 44.97802734375 315.0439453125 44.6044921875 Q 315.0439453125 44.2529296875 315.41748046875 44.2529296875 Z M 360.41748046875 44.2529296875 Q 360.81298828125 44.2529296875 360.81298828125 44.6044921875 Q 360.81298828125 44.97802734375 360.41748046875 44.97802734375 Q 360.0439453125 44.97802734375 360.0439453125 44.6044921875 Q 360.0439453125 44.2529296875 360.41748046875 44.2529296875 Z M 405.41748046875 44.2529296875 Q 405.81298828125 44.2529296875 405.81298828125 44.6044921875 Q 405.81298828125 44.97802734375 405.41748046875 44.97802734375 Q 405.0439453125 44.97802734375 405.0439453125 44.6044921875 Q 405.0439453125 44.2529296875 405.41748046875 44.2529296875 Z M 450.41748046875 44.2529296875 Q 450.81298828125 44.2529296875 450.81298828125 44.6044921875 Q 450.81298828125 44.97802734375 450.41748046875 44.97802734375 Q 450.0439453125 44.97802734375 450.0439453125 44.6044921875 Q 450.0439453125 44.2529296875 450.41748046875 44.2529296875 Z M 495.41748046875 44.2529296875 Q 495.81298828125 44.2529296875 495.81298828125 44.6044921875 Q 495.81298828125 44.97802734375 495.41748046875 44.97802734375 Q 495.0439453125 44.97802734375 495.0439453125 44.6044921875 Q 495.0439453125 44.2529296875 495.41748046875 44.2529296875 Z M 540.41748046875 44.2529296875 Q 540.81298828125 44.2529296875 540.81298828125 44.6044921875 Q 540.81298828125 44.97802734375 540.41748046875 44.97802734375 Q 540.0439453125 44.97802734375 540.0439453125 44.6044921875 Q 540.0439453125 44.2529296875 540.41748046875 44.2529296875 Z M 585.41748046875 44.2529296875 Q 585.81298828125 44.2529296875 585.81298828125 44.6044921875 Q 585.81298828125 44.97802734375 585.41748046875 44.97802734375 Q 585.0439453125 44.97802734375 585.0439453125 44.6044921875 Q 585.0439453125 44.2529296875 585.41748046875 44.2529296875 Z M 630.41748046875 44.2529296875 Q 630.81298828125 44.2529296875 630.81298828125 44.6044921875 Q 630.81298828125 44.97802734375 630.41748046875 44.97802734375 Q 630.0439453125 44.97802734375 630.0439453125 44.6044921875 Q 630.0439453125 44.2529296875 630.41748046875 44.2529296875 Z M 675.41748046875 44.2529296875 Q 675.81298828125 44.2529296875 675.81298828125 44.6044921875 Q 675.81298828125 44.97802734375 675.41748046875 44.97802734375 Q 675.0439453125 44.97802734375 675.0439453125 44.6044921875 Q 675.0439453125 44.2529296875 675.41748046875 44.2529296875 Z M 720.41748046875 44.2529296875 Q 720.81298828125 44.2529296875 720.81298828125 44.6044921875 Q 720.81298828125 44.97802734375 720.41748046875 44.97802734375 Q 720.0439453125 44.97802734375 720.0439453125 44.6044921875 Q 720.0439453125 44.2529296875 720.41748046875 44.2529296875 Z M 765.41748046875 44.2529296875 Q 765.81298828125 44.2529296875 765.81298828125 44.6044921875 Q 765.81298828125 44.97802734375 765.41748046875 44.97802734375 Q 765.0439453125 44.97802734375 765.0439453125 44.6044921875 Q 765.0439453125 44.2529296875 765.41748046875 44.2529296875 Z M 810.41748046875 44.2529296875 Q 810.81298828125 44.2529296875 810.81298828125 44.6044921875 Q 810.81298828125 44.97802734375 810.41748046875 44.97802734375 Q 810.0439453125 44.97802734375 810.0439453125 44.6044921875 Q 810.0439453125 44.2529296875 810.41748046875 44.2529296875 Z M 855.41748046875 44.2529296875 Q 855.81298828125 44.2529296875 855.81298828125 44.6044921875 Q 855.81298828125 44.97802734375 855.41748046875 44.97802734375 Q 855.0439453125 44.97802734375 855.0439453125 44.6044921875 Q 855.0439453125 44.2529296875 855.41748046875 44.2529296875 Z M 900.41748046875 44.2529296875 Q 900.81298828125 44.2529296875 900.81298828125 44.6044921875 Q 900.81298828125 44.97802734375 900.41748046875 44.97802734375 Q 900.0439453125 44.97802734375 900.0439453125 44.6044921875 Q 900.0439453125 44.2529296875 900.41748046875 44.2529296875 Z M 945.41748046875 44.2529296875 Q 945.81298828125 44.2529296875 945.81298828125 44.6044921875 Q 945.81298828125 44.97802734375 945.41748046875 44.97802734375 Q 945.0439453125 44.97802734375 945.0439453125 44.6044921875 Q 945.0439453125 44.2529296875 945.41748046875 44.2529296875 Z M 990.41748046875 44.2529296875 Q 990.81298828125 44.2529296875 990.81298828125 44.6044921875 Q 990.81298828125 44.97802734375 990.41748046875 44.97802734375 Q 990.0439453125 44.97802734375 990.0439453125 44.6044921875 Q 990.0439453125 44.2529296875 990.41748046875 44.2529296875 Z M 1035.41748046875 44.2529296875 Q 1035.81298828125 44.2529296875 1035.81298828125 44.6044921875 Q 1035.81298828125 44.97802734375 1035.41748046875 44.97802734375 Q 1035.0439453125 44.97802734375 1035.0439453125 44.6044921875 Q 1035.0439453125 44.2529296875 1035.41748046875 44.2529296875 Z M 1080.41748046875 44.2529296875 Q 1080.81298828125 44.2529296875 1080.81298828125 44.6044921875 Q 1080.81298828125 44.97802734375 1080.41748046875 44.97802734375 Q 1080.0439453125 44.97802734375 1080.0439453125 44.6044921875 Q 1080.0439453125 44.2529296875 1080.41748046875 44.2529296875 Z M 1125.41748046875 44.2529296875 Q 1125.81298828125 44.2529296875 1125.81298828125 44.6044921875 Q 1125.81298828125 44.97802734375 1125.41748046875 44.97802734375 Q 1125.0439453125 44.97802734375 1125.0439453125 44.6044921875 Q 1125.0439453125 44.2529296875 1125.41748046875 44.2529296875 Z Z" fill-rule="even-odd" style="-webkit-tap-highlight-color: rgba(0, 0, 0, 0); fill: rgb(0, 0, 0); stroke-width: 0;"></path></g></svg>