<svg xmlns="http://www.w3.org/2000/svg" version="1.1" id="ludo-svg-node-iy4wkpuh" width="45" height="45"
     viewBox="0 0 45 45" style="-webkit-tap-highlight-color: rgba(0, 0, 0, 0); width: 45px; height: 45px;">
    <g id="ludo-svg-node-iy4wkpui" style="-webkit-tap-highlight-color: rgba(0, 0, 0, 0);">
        <path id="ludo-svg-node-iy4wkpxq"
              d="M 11.0302734375 19.072265625 L 9.8876953125 19.09423828125 L 9.31640625 20.50048828125 L 10.83251953125 20.9619140625 L 11.84326171875 19.75341796875 L 11.0302734375 19.072265625 Z"
              fill="#e5e0bf" style="-webkit-tap-highlight-color: rgba(0, 0, 0, 0);"></path>
        <path id="ludo-svg-node-iy4wkpxr"
              d="M 22.8076171875 14.96337890625 Q 23.5546875 14.9853515625 22.4560546875 13.46923828125 Q 21.357421875 11.953125 20.6982421875 12.54638671875 L 18.1494140625 14.94140625 L 22.8076171875 14.96337890625 Z"
              fill="#e5e0bf" style="-webkit-tap-highlight-color: rgba(0, 0, 0, 0);fill:#e5e0bf;"></path>
        <path id="ludo-svg-node-iy4wkpxs"
              d="M 15.380859375 12.81005859375 Q 15.5126953125 11.953125 17.918701171875 10.447998046875 Q 20.32470703125 8.94287109375 22.763671875 7.294921875 L 25.29052734375 3.9111328125 L 27.39990234375 8.67919921875 Q 34.91455078125 12.45849609375 36.903076171875 17.852783203125 Q 38.8916015625 23.2470703125 37.94677734375 31.11328125 Q 37.55126953125 33.92578125 38.045654296875 36.298828125 Q 38.5400390625 38.671875 39.30908203125 40.4736328125 L 12.01904296875 40.49560546875 Q 11.8212890625 36.58447265625 12.8759765625 33.870849609375 Q 13.9306640625 31.1572265625 16.89697265625 28.65234375 Q 17.99560546875 28.41064453125 18.709716796875 27.784423828125 Q 19.423828125 27.158203125 19.88525390625 26.4990234375 Q 19.88525390625 26.4990234375 21.258544921875 26.47705078125 Q 22.6318359375 26.455078125 24.290771484375 25.83984375 Q 25.94970703125 25.224609375 27.344970703125 23.70849609375 Q 28.740234375 22.1923828125 28.80615234375 19.16015625 Q 28.80615234375 18.78662109375 28.619384765625 18.4130859375 Q 28.4326171875 18.03955078125 28.36669921875 17.60009765625 Q 27.00439453125 22.60986328125 24.8291015625 23.939208984375 Q 22.65380859375 25.2685546875 20.63232421875 25.224609375 Q 15.44677734375 24.3017578125 14.21630859375 26.54296875 Q 12.98583984375 28.7841796875 12.98583984375 28.7841796875 L 8.2177734375 26.12548828125 L 10.74462890625 24.32373046875 L 9.6240234375 23.22509765625 L 6.943359375 25.11474609375 L 6.6796875 18.5888671875 L 15.380859375 12.81005859375 Z"
              fill="#e5e0bf" style="-webkit-tap-highlight-color: rgba(0, 0, 0, 0);fill:#e5e0bf;"></path>

        <path id="ludo-svg-node-iy4wkpvv"
              d="M 11.0302734375 19.072265625 L 9.8876953125 19.09423828125 L 9.31640625 20.50048828125 L 10.83251953125 20.9619140625 L 11.84326171875 19.75341796875 L 11.0302734375 19.072265625 M 22.8076171875 14.96337890625 Q 23.5546875 14.9853515625 22.4560546875 13.46923828125 Q 21.357421875 11.953125 20.6982421875 12.54638671875 L 18.1494140625 14.94140625 L 22.8076171875 14.96337890625 M 15.380859375 12.81005859375 Q 15.5126953125 11.953125 17.918701171875 10.447998046875 Q 20.32470703125 8.94287109375 22.763671875 7.294921875 L 25.29052734375 3.9111328125 L 27.39990234375 8.67919921875 Q 34.91455078125 12.45849609375 36.903076171875 17.852783203125 Q 38.8916015625 23.2470703125 37.94677734375 31.11328125 Q 37.55126953125 33.92578125 38.045654296875 36.298828125 Q 38.5400390625 38.671875 39.30908203125 40.4736328125 L 12.01904296875 40.49560546875 Q 11.8212890625 36.58447265625 12.8759765625 33.870849609375 Q 13.9306640625 31.1572265625 16.89697265625 28.65234375 Q 17.99560546875 28.41064453125 18.709716796875 27.784423828125 Q 19.423828125 27.158203125 19.88525390625 26.4990234375 Q 19.88525390625 26.4990234375 21.258544921875 26.47705078125 Q 22.6318359375 26.455078125 24.290771484375 25.83984375 Q 25.94970703125 25.224609375 27.344970703125 23.70849609375 Q 28.740234375 22.1923828125 28.80615234375 19.16015625 Q 28.80615234375 18.78662109375 28.619384765625 18.4130859375 Q 28.4326171875 18.03955078125 28.36669921875 17.60009765625 Q 27.00439453125 22.60986328125 24.8291015625 23.939208984375 Q 22.65380859375 25.2685546875 20.63232421875 25.224609375 Q 15.44677734375 24.3017578125 14.21630859375 26.54296875 Q 12.98583984375 28.7841796875 12.98583984375 28.7841796875 L 8.2177734375 26.12548828125 L 10.74462890625 24.32373046875 L 9.6240234375 23.22509765625 L 6.943359375 25.11474609375 L 6.6796875 18.5888671875 L 15.380859375 12.81005859375 M 36.93603515625 39.00146484375 Q 34.69482421875 36.14501953125 35.068359375 32.222900390625 Q 35.44189453125 28.30078125 35.66162109375 24.2578125 Q 35.88134765625 20.21484375 34.56298828125 16.534423828125 Q 33.24462890625 12.85400390625 27.61962890625 10.48095703125 Q 32.45361328125 14.08447265625 33.167724609375 17.99560546875 Q 33.8818359375 21.90673828125 33.5302734375 25.697021484375 Q 33.1787109375 29.4873046875 33.2666015625 32.926025390625 Q 33.3544921875 36.36474609375 36.93603515625 39.00146484375 Z Z"
              fill-rule="even-odd"
              style="-webkit-tap-highlight-color: rgba(0, 0, 0, 0); fill: rgb(0, 0, 0); stroke-width: 0;fill:#e5e0bf"></path>




        <path id="ludo-svg-node-iy4wkpwu"
              d="M 22.060546875 23.994140625 Q 22.74169921875 24.36767578125 23.2470703125 24.9169921875 Q 23.70849609375 24.58740234375 24.049072265625 24.620361328125 Q 24.3896484375 24.6533203125 24.78515625 24.58740234375 Q 26.4990234375 24.345703125 27.608642578125 22.7197265625 Q 28.71826171875 21.09375 28.76220703125 19.09423828125 L 28.3447265625 17.6220703125 Q 27.13623046875 22.87353515625 24.2138671875 23.26904296875 Q 23.75244140625 23.3349609375 23.22509765625 23.389892578125 Q 22.69775390625 23.44482421875 22.060546875 23.994140625 Z"
              fill="#e5e0bf" style="-webkit-tap-highlight-color: rgba(0, 0, 0, 0);stroke-width:3;stroke:#e5e0bf;"></path>
        <path id="ludo-svg-node-iy4wkpwv"
              d="M 16.3916015625 14.12841796875 L 15.380859375 12.81005859375 Q 15.5126953125 11.953125 17.918701171875 10.447998046875 Q 20.32470703125 8.94287109375 22.763671875 7.294921875 L 25.29052734375 3.9111328125 L 27.39990234375 8.67919921875 Q 34.91455078125 12.45849609375 36.903076171875 17.852783203125 Q 38.8916015625 23.2470703125 37.94677734375 31.11328125 Q 37.55126953125 33.92578125 38.045654296875 36.309814453125 Q 38.5400390625 38.69384765625 39.30908203125 40.49560546875 L 12.01904296875 40.49560546875 Q 11.8212890625 36.58447265625 12.8759765625 33.870849609375 Q 13.9306640625 31.1572265625 16.89697265625 28.65234375 Q 18.61083984375 28.30078125 19.423828125 27.09228515625 Q 20.23681640625 25.8837890625 20.63232421875 25.224609375 Q 15.44677734375 24.3017578125 14.21630859375 26.54296875 Q 12.98583984375 28.7841796875 12.98583984375 28.7841796875 L 8.2177734375 26.12548828125 L 10.74462890625 24.32373046875 L 9.6240234375 23.22509765625 L 6.943359375 25.11474609375 L 6.6796875 18.5888671875 L 15.380859375 12.81005859375 Q 15.64453125 13.20556640625 15.88623046875 13.4912109375 Q 16.1279296875 13.77685546875 16.3916015625 14.12841796875 L 8.349609375 19.423828125 L 8.4375 22.17041015625 L 9.84375 21.26953125 L 12.8759765625 24.43359375 L 11.162109375 25.86181640625 L 12.19482421875 26.47705078125 Q 12.19482421875 26.47705078125 13.040771484375 25.48828125 Q 13.88671875 24.49951171875 15.4248046875 23.88427734375 Q 16.611328125 23.48876953125 19.05029296875 23.291015625 Q 21.4892578125 23.09326171875 23.2470703125 24.9169921875 Q 22.0166015625 26.30126953125 21.24755859375 27.828369140625 Q 20.478515625 29.35546875 17.90771484375 30.08056640625 Q 15.88623046875 31.81640625 14.69970703125 33.958740234375 Q 13.51318359375 36.10107421875 13.64501953125 38.86962890625 L 36.03515625 38.86962890625 Q 35.26611328125 35.947265625 35.33203125 33.717041015625 Q 35.39794921875 31.48681640625 35.606689453125 29.344482421875 Q 35.8154296875 27.2021484375 35.804443359375 24.840087890625 Q 35.79345703125 22.47802734375 34.91455078125 19.2919921875 Q 33.7939453125 16.5234375 31.97021484375 14.150390625 Q 30.146484375 11.77734375 26.21337890625 10.01953125 L 24.9169921875 7.09716796875 L 23.84033203125 8.61328125 Q 21.6650390625 9.9755859375 19.27001953125 11.49169921875 Q 16.875 13.0078125 16.3916015625 14.12841796875 Z"
              fill="#e5e0bf" style="-webkit-tap-highlight-color: rgba(0, 0, 0, 0);"></path>
        <path id="ludo-svg-node-iy4wkpww"
              d="M 22.8076171875 14.78759765625 L 18.1494140625 14.74365234375 L 20.6982421875 12.54638671875 Q 21.357421875 11.9970703125 22.4560546875 13.392333984375 Q 23.5546875 14.78759765625 22.8076171875 14.78759765625 Z"
              fill="#e5e0bf" style="-webkit-tap-highlight-color: rgba(0, 0, 0, 0);"></path>
        <path id="ludo-svg-node-iy4wkpwx"
              d="M 22.060546875 23.994140625 Q 22.74169921875 24.36767578125 23.2470703125 24.9169921875 Q 23.70849609375 24.58740234375 24.049072265625 24.620361328125 Q 24.3896484375 24.6533203125 24.78515625 24.58740234375 Q 26.4990234375 24.345703125 27.608642578125 22.7197265625 Q 28.71826171875 21.09375 28.76220703125 19.09423828125 L 28.3447265625 17.6220703125 Q 27.13623046875 22.87353515625 24.2138671875 23.26904296875 Q 23.75244140625 23.3349609375 23.22509765625 23.389892578125 Q 22.69775390625 23.44482421875 22.060546875 23.994140625 M 16.3916015625 14.12841796875 L 15.380859375 12.81005859375 Q 15.5126953125 11.953125 17.918701171875 10.447998046875 Q 20.32470703125 8.94287109375 22.763671875 7.294921875 L 25.29052734375 3.9111328125 L 27.39990234375 8.67919921875 Q 34.91455078125 12.45849609375 36.903076171875 17.852783203125 Q 38.8916015625 23.2470703125 37.94677734375 31.11328125 Q 37.55126953125 33.92578125 38.045654296875 36.309814453125 Q 38.5400390625 38.69384765625 39.30908203125 40.49560546875 L 12.01904296875 40.49560546875 Q 11.8212890625 36.58447265625 12.8759765625 33.870849609375 Q 13.9306640625 31.1572265625 16.89697265625 28.65234375 Q 18.61083984375 28.30078125 19.423828125 27.09228515625 Q 20.23681640625 25.8837890625 20.63232421875 25.224609375 Q 15.44677734375 24.3017578125 14.21630859375 26.54296875 Q 12.98583984375 28.7841796875 12.98583984375 28.7841796875 L 8.2177734375 26.12548828125 L 10.74462890625 24.32373046875 L 9.6240234375 23.22509765625 L 6.943359375 25.11474609375 L 6.6796875 18.5888671875 L 15.380859375 12.81005859375 Q 15.64453125 13.20556640625 15.88623046875 13.4912109375 Q 16.1279296875 13.77685546875 16.3916015625 14.12841796875 L 8.349609375 19.423828125 L 8.4375 22.17041015625 L 9.84375 21.26953125 L 12.8759765625 24.43359375 L 11.162109375 25.86181640625 L 12.19482421875 26.47705078125 Q 12.19482421875 26.47705078125 13.040771484375 25.48828125 Q 13.88671875 24.49951171875 15.4248046875 23.88427734375 Q 16.611328125 23.48876953125 19.05029296875 23.291015625 Q 21.4892578125 23.09326171875 23.2470703125 24.9169921875 Q 22.0166015625 26.30126953125 21.24755859375 27.828369140625 Q 20.478515625 29.35546875 17.90771484375 30.08056640625 Q 15.88623046875 31.81640625 14.69970703125 33.958740234375 Q 13.51318359375 36.10107421875 13.64501953125 38.86962890625 L 36.03515625 38.86962890625 Q 35.26611328125 35.947265625 35.33203125 33.717041015625 Q 35.39794921875 31.48681640625 35.606689453125 29.344482421875 Q 35.8154296875 27.2021484375 35.804443359375 24.840087890625 Q 35.79345703125 22.47802734375 34.91455078125 19.2919921875 Q 33.7939453125 16.5234375 31.97021484375 14.150390625 Q 30.146484375 11.77734375 26.21337890625 10.01953125 L 24.9169921875 7.09716796875 L 23.84033203125 8.61328125 Q 21.6650390625 9.9755859375 19.27001953125 11.49169921875 Q 16.875 13.0078125 16.3916015625 14.12841796875 M 22.8076171875 14.78759765625 L 18.1494140625 14.74365234375 L 20.6982421875 12.54638671875 Q 21.357421875 11.9970703125 22.4560546875 13.392333984375 Q 23.5546875 14.78759765625 22.8076171875 14.78759765625 M 11.0302734375 19.072265625 L 11.84326171875 19.75341796875 L 10.83251953125 20.9619140625 L 9.580078125 20.390625 L 10.30517578125 19.16015625 L 11.0302734375 19.072265625 Z Z"
              style="-webkit-tap-highlight-color: rgba(0, 0, 0, 0);"></path>
        <path id="ludo-svg-node-iy4wkpuj"
              d="M 22.060546875 23.994140625 Q 22.74169921875 24.36767578125 23.2470703125 24.9169921875 Q 23.70849609375 24.58740234375 24.049072265625 24.620361328125 Q 24.3896484375 24.6533203125 24.78515625 24.58740234375 Q 26.4990234375 24.345703125 27.608642578125 22.7197265625 Q 28.71826171875 21.09375 28.76220703125 19.09423828125 L 28.3447265625 17.6220703125 Q 27.13623046875 22.87353515625 24.2138671875 23.26904296875 Q 23.75244140625 23.3349609375 23.22509765625 23.389892578125 Q 22.69775390625 23.44482421875 22.060546875 23.994140625 M 16.3916015625 14.12841796875 L 15.380859375 12.81005859375 Q 15.5126953125 11.953125 17.918701171875 10.447998046875 Q 20.32470703125 8.94287109375 22.763671875 7.294921875 L 25.29052734375 3.9111328125 L 27.39990234375 8.67919921875 Q 34.91455078125 12.45849609375 36.903076171875 17.852783203125 Q 38.8916015625 23.2470703125 37.94677734375 31.11328125 Q 37.55126953125 33.92578125 38.045654296875 36.309814453125 Q 38.5400390625 38.69384765625 39.30908203125 40.49560546875 L 12.01904296875 40.49560546875 Q 11.8212890625 36.58447265625 12.8759765625 33.870849609375 Q 13.9306640625 31.1572265625 16.89697265625 28.65234375 Q 18.61083984375 28.30078125 19.423828125 27.09228515625 Q 20.23681640625 25.8837890625 20.63232421875 25.224609375 Q 15.44677734375 24.3017578125 14.21630859375 26.54296875 Q 12.98583984375 28.7841796875 12.98583984375 28.7841796875 L 8.2177734375 26.12548828125 L 10.74462890625 24.32373046875 L 9.6240234375 23.22509765625 L 6.943359375 25.11474609375 L 6.6796875 18.5888671875 L 15.380859375 12.81005859375 Q 15.64453125 13.20556640625 15.88623046875 13.4912109375 Q 16.1279296875 13.77685546875 16.3916015625 14.12841796875 L 8.349609375 19.423828125 L 8.4375 22.17041015625 L 9.84375 21.26953125 L 12.8759765625 24.43359375 L 11.162109375 25.86181640625 L 12.19482421875 26.47705078125 Q 12.19482421875 26.47705078125 13.040771484375 25.48828125 Q 13.88671875 24.49951171875 15.4248046875 23.88427734375 Q 16.611328125 23.48876953125 19.05029296875 23.291015625 Q 21.4892578125 23.09326171875 23.2470703125 24.9169921875 Q 22.0166015625 26.30126953125 21.24755859375 27.828369140625 Q 20.478515625 29.35546875 17.90771484375 30.08056640625 Q 15.88623046875 31.81640625 14.69970703125 33.958740234375 Q 13.51318359375 36.10107421875 13.64501953125 38.86962890625 L 36.03515625 38.86962890625 Q 35.26611328125 35.947265625 35.33203125 33.717041015625 Q 35.39794921875 31.48681640625 35.606689453125 29.344482421875 Q 35.8154296875 27.2021484375 35.804443359375 24.840087890625 Q 35.79345703125 22.47802734375 34.91455078125 19.2919921875 Q 33.7939453125 16.5234375 31.97021484375 14.150390625 Q 30.146484375 11.77734375 26.21337890625 10.01953125 L 24.9169921875 7.09716796875 L 23.84033203125 8.61328125 Q 21.6650390625 9.9755859375 19.27001953125 11.49169921875 Q 16.875 13.0078125 16.3916015625 14.12841796875 M 22.8076171875 14.78759765625 L 18.1494140625 14.74365234375 L 20.6982421875 12.54638671875 Q 21.357421875 11.9970703125 22.4560546875 13.392333984375 Q 23.5546875 14.78759765625 22.8076171875 14.78759765625 M 11.0302734375 19.072265625 L 11.84326171875 19.75341796875 L 10.83251953125 20.9619140625 L 9.580078125 20.390625 L 10.30517578125 19.16015625 L 11.0302734375 19.072265625 Z Z"
              fill-rule="even-odd"
              style="-webkit-tap-highlight-color: rgba(0, 0, 0, 0); fill: rgb(0, 0, 0); stroke-width: 0;"></path>
    </g>
</svg>