<svg xmlns="http://www.w3.org/2000/svg" version="1.1" id="ludo-svg-node-iy519ioy" width="45" height="45" viewBox="0 0 45 45" style="-webkit-tap-highlight-color: rgba(0, 0, 0, 0); width: 45px; height: 45px;"><g id="ludo-svg-node-iy519ioz" style="-webkit-tap-highlight-color: rgba(0, 0, 0, 0);"><path id="ludo-svg-node-iy519irj" d="M 4.713134765625 39.287109375 L 8.009033203125 42.42919921875 Q 9.349365234375 41.5283203125 10.5029296875 40.858154296875 Q 11.656494140625 40.18798828125 12.469482421875 40.0341796875 Q 13.062744140625 39.990234375 14.754638671875 39.814453125 Q 16.292724609375 39.6826171875 17.95166015625 39.5068359375 Q 19.610595703125 39.3310546875 21.016845703125 39.1552734375 Q 21.697998046875 39.0234375 22.2802734375 38.726806640625 Q 22.862548828125 38.43017578125 23.763427734375 37.79296875 Q 24.708251953125 38.43017578125 25.2685546875 38.7158203125 Q 25.828857421875 39.00146484375 26.510009765625 39.1552734375 Q 27.894287109375 39.3310546875 29.0478515625 39.44091796875 Q 30.201416015625 39.55078125 32.794189453125 39.814453125 Q 34.464111328125 39.990234375 35.057373046875 40.0341796875 Q 35.870361328125 40.166015625 37.012939453125 40.8251953125 Q 38.155517578125 41.484375 39.495849609375 42.42919921875 L 42.791748046875 39.287109375 Q 41.209716796875 37.6171875 39.407958984375 36.71630859375 Q 37.606201171875 35.8154296875 35.013427734375 35.5517578125 Q 33.804931640625 35.419921875 31.146240234375 35.13427734375 Q 29.344482421875 35.00244140625 28.2568359375 34.892578125 Q 27.169189453125 34.78271484375 26.466064453125 34.65087890625 Q 26.290283203125 34.56298828125 26.048583984375 34.51904296875 Q 25.784912109375 34.38720703125 25.55419921875 34.244384765625 Q 25.323486328125 34.1015625 25.103759765625 33.75 L 22.401123046875 33.75 Q 22.137451171875 34.1015625 21.961669921875 34.2333984375 Q 21.785888671875 34.365234375 21.456298828125 34.51904296875 Q 21.236572265625 34.56298828125 21.060791015625 34.65087890625 Q 20.379638671875 34.78271484375 19.632568359375 34.8486328125 L 16.424560546875 35.13427734375 Q 13.721923828125 35.39794921875 12.513427734375 35.5517578125 Q 9.898681640625 35.8154296875 8.096923828125 36.71630859375 Q 6.295166015625 37.6171875 4.713134765625 39.287109375 Z" fill="#fff" style="-webkit-tap-highlight-color: rgba(0, 0, 0, 0);"></path><path id="ludo-svg-node-iy519irk" d="M 6.295166015625 39.2431640625 Q 9.085693359375 36.9580078125 12.513427734375 36.62841796875 Q 13.546142578125 36.49658203125 16.292724609375 36.2548828125 Q 18.050537109375 36.123046875 19.324951171875 35.9912109375 Q 20.599365234375 35.859375 21.236572265625 35.7275390625 Q 21.873779296875 35.595703125 22.65380859375 35.211181640625 Q 23.433837890625 34.82666015625 23.763427734375 34.3212890625 Q 24.071044921875 34.82666015625 24.862060546875 35.211181640625 Q 25.653076171875 35.595703125 26.268310546875 35.7275390625 Q 26.949462890625 35.859375 27.960205078125 35.96923828125 Q 28.970947265625 36.0791015625 31.234130859375 36.2548828125 Q 33.980712890625 36.474609375 35.013427734375 36.62841796875 Q 38.441162109375 36.93603515625 41.209716796875 39.2431640625 L 39.364013671875 40.89111328125 Q 37.825927734375 39.8583984375 36.9580078125 39.5068359375 Q 36.090087890625 39.1552734375 35.013427734375 38.95751953125 Q 34.464111328125 38.86962890625 33.409423828125 38.759765625 Q 32.354736328125 38.64990234375 31.0693359375 38.51806640625 Q 29.783935546875 38.38623046875 28.729248046875 38.265380859375 Q 27.674560546875 38.14453125 26.466064453125 38.056640625 Q 25.433349609375 37.880859375 23.763427734375 36.71630859375 Q 22.137451171875 37.880859375 21.060791015625 38.056640625 Q 19.852294921875 38.14453125 18.83056640625 38.265380859375 Q 17.808837890625 38.38623046875 16.688232421875 38.49609375 Q 15.567626953125 38.60595703125 14.30419921875 38.73779296875 Q 13.040771484375 38.86962890625 12.513427734375 38.95751953125 Q 11.436767578125 39.13330078125 10.557861328125 39.495849609375 Q 9.678955078125 39.8583984375 8.140869140625 40.89111328125 L 6.295166015625 39.2431640625 Z" fill="#fff" style="-webkit-tap-highlight-color: rgba(0, 0, 0, 0);"></path><path id="ludo-svg-node-iy519irl" d="M 13.172607421875 20.19287109375 Q 13.172607421875 21.77490234375 14.051513671875 23.323974609375 Q 14.930419921875 24.873046875 16.995849609375 26.103515625 L 15.655517578125 31.48681640625 Q 17.764892578125 32.51953125 19.412841796875 33.046875 Q 21.060791015625 33.57421875 22.576904296875 33.7060546875 Q 22.972412109375 33.75 23.763427734375 33.75 Q 24.576416015625 33.75 24.971923828125 33.7060546875 Q 26.553955078125 33.57421875 28.1689453125 33.046875 Q 29.783935546875 32.51953125 31.849365234375 31.48681640625 L 30.509033203125 26.103515625 Q 32.574462890625 24.89501953125 33.475341796875 23.35693359375 Q 34.376220703125 21.81884765625 34.376220703125 20.19287109375 Q 34.376220703125 19.2919921875 34.112548828125 18.43505859375 Q 33.387451171875 17.2705078125 32.310791015625 16.19384765625 Q 31.234130859375 15.1171875 29.608154296875 13.7548828125 Q 28.619384765625 12.94189453125 28.245849609375 12.59033203125 L 23.763427734375 8.0859375 L 19.259033203125 12.59033203125 Q 18.907470703125 12.94189453125 17.896728515625 13.7548828125 Q 16.270751953125 15.09521484375 15.194091796875 16.182861328125 Q 14.117431640625 17.2705078125 13.414306640625 18.43505859375 Q 13.172607421875 19.2919921875 13.172607421875 20.19287109375 Z" fill="#fff" style="-webkit-tap-highlight-color: rgba(0, 0, 0, 0);"></path><path id="ludo-svg-node-iy519irm" d="M 14.271240234375 20.06103515625 Q 14.271240234375 19.2041015625 14.534912109375 18.43505859375 Q 15.172119140625 17.578125 16.182861328125 16.644287109375 Q 17.193603515625 15.71044921875 18.665771484375 14.43603515625 Q 20.050048828125 13.2275390625 20.511474609375 12.76611328125 L 23.807373046875 9.4482421875 L 27.081298828125 12.76611328125 Q 27.520751953125 13.20556640625 28.927001953125 14.43603515625 Q 30.552978515625 15.8203125 31.497802734375 16.710205078125 Q 32.442626953125 17.60009765625 33.079833984375 18.43505859375 Q 33.343505859375 19.2041015625 33.343505859375 20.01708984375 Q 33.343505859375 21.55517578125 32.442626953125 23.016357421875 Q 31.541748046875 24.4775390625 29.696044921875 25.64208984375 Q 28.531494140625 25.13671875 26.729736328125 24.89501953125 Q 24.927978515625 24.6533203125 23.763427734375 24.6533203125 Q 22.554931640625 24.6533203125 20.841064453125 24.906005859375 Q 19.127197265625 25.15869140625 17.896728515625 25.64208984375 Q 16.051025390625 24.4775390625 15.1611328125 23.016357421875 Q 14.271240234375 21.55517578125 14.271240234375 20.06103515625 Z" fill="#fff" style="-webkit-tap-highlight-color: rgba(0, 0, 0, 0);"></path><path id="ludo-svg-node-iy519irn" d="M 17.105712890625 30.322265625 L 18.050537109375 26.630859375 Q 19.588623046875 26.19140625 21.15966796875 25.982666015625 Q 22.730712890625 25.77392578125 23.763427734375 25.77392578125 Q 24.796142578125 25.77392578125 26.3671875 25.982666015625 Q 27.938232421875 26.19140625 29.476318359375 26.630859375 L 30.421142578125 30.2783203125 Q 27.806396484375 28.98193359375 23.763427734375 28.98193359375 Q 19.808349609375 28.98193359375 17.105712890625 30.322265625 Z" fill="#fff" style="-webkit-tap-highlight-color: rgba(0, 0, 0, 0);"></path><path id="ludo-svg-node-iy519iro" d="M 17.501220703125 31.31103515625 Q 19.742431640625 30.1025390625 23.763427734375 30.1025390625 Q 27.718505859375 30.1025390625 30.047607421875 31.26708984375 Q 28.663330078125 31.8603515625 27.44384765625 32.18994140625 Q 26.224365234375 32.51953125 25.015869140625 32.62939453125 L 22.489013671875 32.62939453125 Q 20.159912109375 32.431640625 17.501220703125 31.31103515625 Z" fill="#fff" style="-webkit-tap-highlight-color: rgba(0, 0, 0, 0);"></path><path id="ludo-svg-node-iy519irp" d="M 20.379638671875 18.43505859375 L 22.862548828125 18.43505859375 L 22.862548828125 20.91796875 L 24.664306640625 20.91796875 L 24.664306640625 18.43505859375 L 27.125244140625 18.43505859375 L 27.125244140625 16.6552734375 L 24.664306640625 16.6552734375 L 24.664306640625 14.17236328125 L 22.862548828125 14.17236328125 L 22.862548828125 16.6552734375 L 20.379638671875 16.6552734375 L 20.379638671875 18.43505859375 Z" fill="#fff" style="-webkit-tap-highlight-color: rgba(0, 0, 0, 0);"></path><path id="ludo-svg-node-iy519irq" d="M 21.148681640625 5.6689453125 Q 21.148681640625 6.56982421875 21.961669921875 7.327880859375 Q 22.774658203125 8.0859375 23.763427734375 8.0859375 Q 24.752197265625 8.0859375 25.55419921875 7.327880859375 Q 26.356201171875 6.56982421875 26.356201171875 5.6689453125 Q 26.356201171875 4.76806640625 25.55419921875 3.9990234375 Q 24.752197265625 3.22998046875 23.763427734375 3.22998046875 Q 22.774658203125 3.22998046875 21.961669921875 3.9990234375 Q 21.148681640625 4.76806640625 21.148681640625 5.6689453125 Z" fill="#fff" style="-webkit-tap-highlight-color: rgba(0, 0, 0, 0);"></path><path id="ludo-svg-node-iy519irr" d="M 4.713134765625 39.287109375 L 8.009033203125 42.42919921875 Q 9.349365234375 41.5283203125 10.5029296875 40.858154296875 Q 11.656494140625 40.18798828125 12.469482421875 40.0341796875 Q 13.062744140625 39.990234375 14.754638671875 39.814453125 Q 16.292724609375 39.6826171875 17.95166015625 39.5068359375 Q 19.610595703125 39.3310546875 21.016845703125 39.1552734375 Q 21.697998046875 39.0234375 22.2802734375 38.726806640625 Q 22.862548828125 38.43017578125 23.763427734375 37.79296875 Q 24.708251953125 38.43017578125 25.2685546875 38.7158203125 Q 25.828857421875 39.00146484375 26.510009765625 39.1552734375 Q 27.894287109375 39.3310546875 29.0478515625 39.44091796875 Q 30.201416015625 39.55078125 32.794189453125 39.814453125 Q 34.464111328125 39.990234375 35.057373046875 40.0341796875 Q 35.870361328125 40.166015625 37.012939453125 40.8251953125 Q 38.155517578125 41.484375 39.495849609375 42.42919921875 L 42.791748046875 39.287109375 Q 41.209716796875 37.6171875 39.407958984375 36.71630859375 Q 37.606201171875 35.8154296875 35.013427734375 35.5517578125 Q 33.804931640625 35.419921875 31.146240234375 35.13427734375 Q 29.344482421875 35.00244140625 28.2568359375 34.892578125 Q 27.169189453125 34.78271484375 26.466064453125 34.65087890625 Q 26.290283203125 34.56298828125 26.048583984375 34.51904296875 Q 25.784912109375 34.38720703125 25.55419921875 34.244384765625 Q 25.323486328125 34.1015625 25.103759765625 33.75 L 22.401123046875 33.75 Q 22.137451171875 34.1015625 21.961669921875 34.2333984375 Q 21.785888671875 34.365234375 21.456298828125 34.51904296875 Q 21.236572265625 34.56298828125 21.060791015625 34.65087890625 Q 20.379638671875 34.78271484375 19.632568359375 34.8486328125 L 16.424560546875 35.13427734375 Q 13.721923828125 35.39794921875 12.513427734375 35.5517578125 Q 9.898681640625 35.8154296875 8.096923828125 36.71630859375 Q 6.295166015625 37.6171875 4.713134765625 39.287109375 M 6.295166015625 39.2431640625 Q 9.085693359375 36.9580078125 12.513427734375 36.62841796875 Q 13.546142578125 36.49658203125 16.292724609375 36.2548828125 Q 18.050537109375 36.123046875 19.324951171875 35.9912109375 Q 20.599365234375 35.859375 21.236572265625 35.7275390625 Q 21.873779296875 35.595703125 22.65380859375 35.211181640625 Q 23.433837890625 34.82666015625 23.763427734375 34.3212890625 Q 24.071044921875 34.82666015625 24.862060546875 35.211181640625 Q 25.653076171875 35.595703125 26.268310546875 35.7275390625 Q 26.949462890625 35.859375 27.960205078125 35.96923828125 Q 28.970947265625 36.0791015625 31.234130859375 36.2548828125 Q 33.980712890625 36.474609375 35.013427734375 36.62841796875 Q 38.441162109375 36.93603515625 41.209716796875 39.2431640625 L 39.364013671875 40.89111328125 Q 37.825927734375 39.8583984375 36.9580078125 39.5068359375 Q 36.090087890625 39.1552734375 35.013427734375 38.95751953125 Q 34.464111328125 38.86962890625 33.409423828125 38.759765625 Q 32.354736328125 38.64990234375 31.0693359375 38.51806640625 Q 29.783935546875 38.38623046875 28.729248046875 38.265380859375 Q 27.674560546875 38.14453125 26.466064453125 38.056640625 Q 25.433349609375 37.880859375 23.763427734375 36.71630859375 Q 22.137451171875 37.880859375 21.060791015625 38.056640625 Q 19.852294921875 38.14453125 18.83056640625 38.265380859375 Q 17.808837890625 38.38623046875 16.688232421875 38.49609375 Q 15.567626953125 38.60595703125 14.30419921875 38.73779296875 Q 13.040771484375 38.86962890625 12.513427734375 38.95751953125 Q 11.436767578125 39.13330078125 10.557861328125 39.495849609375 Q 9.678955078125 39.8583984375 8.140869140625 40.89111328125 L 6.295166015625 39.2431640625 M 13.172607421875 20.19287109375 Q 13.172607421875 21.77490234375 14.051513671875 23.323974609375 Q 14.930419921875 24.873046875 16.995849609375 26.103515625 L 15.655517578125 31.48681640625 Q 17.764892578125 32.51953125 19.412841796875 33.046875 Q 21.060791015625 33.57421875 22.576904296875 33.7060546875 Q 22.972412109375 33.75 23.763427734375 33.75 Q 24.576416015625 33.75 24.971923828125 33.7060546875 Q 26.553955078125 33.57421875 28.1689453125 33.046875 Q 29.783935546875 32.51953125 31.849365234375 31.48681640625 L 30.509033203125 26.103515625 Q 32.574462890625 24.89501953125 33.475341796875 23.35693359375 Q 34.376220703125 21.81884765625 34.376220703125 20.19287109375 Q 34.376220703125 19.2919921875 34.112548828125 18.43505859375 Q 33.387451171875 17.2705078125 32.310791015625 16.19384765625 Q 31.234130859375 15.1171875 29.608154296875 13.7548828125 Q 28.619384765625 12.94189453125 28.245849609375 12.59033203125 L 23.763427734375 8.0859375 L 19.259033203125 12.59033203125 Q 18.907470703125 12.94189453125 17.896728515625 13.7548828125 Q 16.270751953125 15.09521484375 15.194091796875 16.182861328125 Q 14.117431640625 17.2705078125 13.414306640625 18.43505859375 Q 13.172607421875 19.2919921875 13.172607421875 20.19287109375 M 14.271240234375 20.06103515625 Q 14.271240234375 19.2041015625 14.534912109375 18.43505859375 Q 15.172119140625 17.578125 16.182861328125 16.644287109375 Q 17.193603515625 15.71044921875 18.665771484375 14.43603515625 Q 20.050048828125 13.2275390625 20.511474609375 12.76611328125 L 23.807373046875 9.4482421875 L 27.081298828125 12.76611328125 Q 27.520751953125 13.20556640625 28.927001953125 14.43603515625 Q 30.552978515625 15.8203125 31.497802734375 16.710205078125 Q 32.442626953125 17.60009765625 33.079833984375 18.43505859375 Q 33.343505859375 19.2041015625 33.343505859375 20.01708984375 Q 33.343505859375 21.55517578125 32.442626953125 23.016357421875 Q 31.541748046875 24.4775390625 29.696044921875 25.64208984375 Q 28.531494140625 25.13671875 26.729736328125 24.89501953125 Q 24.927978515625 24.6533203125 23.763427734375 24.6533203125 Q 22.554931640625 24.6533203125 20.841064453125 24.906005859375 Q 19.127197265625 25.15869140625 17.896728515625 25.64208984375 Q 16.051025390625 24.4775390625 15.1611328125 23.016357421875 Q 14.271240234375 21.55517578125 14.271240234375 20.06103515625 M 17.105712890625 30.322265625 L 18.050537109375 26.630859375 Q 19.588623046875 26.19140625 21.15966796875 25.982666015625 Q 22.730712890625 25.77392578125 23.763427734375 25.77392578125 Q 24.796142578125 25.77392578125 26.3671875 25.982666015625 Q 27.938232421875 26.19140625 29.476318359375 26.630859375 L 30.421142578125 30.2783203125 Q 27.806396484375 28.98193359375 23.763427734375 28.98193359375 Q 19.808349609375 28.98193359375 17.105712890625 30.322265625 M 17.501220703125 31.31103515625 Q 19.742431640625 30.1025390625 23.763427734375 30.1025390625 Q 27.718505859375 30.1025390625 30.047607421875 31.26708984375 Q 28.663330078125 31.8603515625 27.44384765625 32.18994140625 Q 26.224365234375 32.51953125 25.015869140625 32.62939453125 L 22.489013671875 32.62939453125 Q 20.159912109375 32.431640625 17.501220703125 31.31103515625 M 20.379638671875 18.43505859375 L 22.862548828125 18.43505859375 L 22.862548828125 20.91796875 L 24.664306640625 20.91796875 L 24.664306640625 18.43505859375 L 27.125244140625 18.43505859375 L 27.125244140625 16.6552734375 L 24.664306640625 16.6552734375 L 24.664306640625 14.17236328125 L 22.862548828125 14.17236328125 L 22.862548828125 16.6552734375 L 20.379638671875 16.6552734375 L 20.379638671875 18.43505859375 M 21.148681640625 5.6689453125 Q 21.148681640625 6.56982421875 21.961669921875 7.327880859375 Q 22.774658203125 8.0859375 23.763427734375 8.0859375 Q 24.752197265625 8.0859375 25.55419921875 7.327880859375 Q 26.356201171875 6.56982421875 26.356201171875 5.6689453125 Q 26.356201171875 4.76806640625 25.55419921875 3.9990234375 Q 24.752197265625 3.22998046875 23.763427734375 3.22998046875 Q 22.774658203125 3.22998046875 21.961669921875 3.9990234375 Q 21.148681640625 4.76806640625 21.148681640625 5.6689453125 M 22.225341796875 5.6689453125 Q 22.225341796875 5.11962890625 22.69775390625 4.669189453125 Q 23.170166015625 4.21875 23.763427734375 4.21875 Q 24.356689453125 4.21875 24.818115234375 4.669189453125 Q 25.279541015625 5.11962890625 25.279541015625 5.6689453125 Q 25.279541015625 6.21826171875 24.80712890625 6.65771484375 Q 24.334716796875 7.09716796875 23.763427734375 7.09716796875 Q 23.170166015625 7.09716796875 22.69775390625 6.65771484375 Q 22.225341796875 6.21826171875 22.225341796875 5.6689453125 Z Z" style="-webkit-tap-highlight-color: rgba(0, 0, 0, 0);"></path><path id="ludo-svg-node-iy519ip0" d="M 4.713134765625 39.287109375 L 8.009033203125 42.42919921875 Q 9.349365234375 41.5283203125 10.5029296875 40.858154296875 Q 11.656494140625 40.18798828125 12.469482421875 40.0341796875 Q 13.062744140625 39.990234375 14.754638671875 39.814453125 Q 16.292724609375 39.6826171875 17.95166015625 39.5068359375 Q 19.610595703125 39.3310546875 21.016845703125 39.1552734375 Q 21.697998046875 39.0234375 22.2802734375 38.726806640625 Q 22.862548828125 38.43017578125 23.763427734375 37.79296875 Q 24.708251953125 38.43017578125 25.2685546875 38.7158203125 Q 25.828857421875 39.00146484375 26.510009765625 39.1552734375 Q 27.894287109375 39.3310546875 29.0478515625 39.44091796875 Q 30.201416015625 39.55078125 32.794189453125 39.814453125 Q 34.464111328125 39.990234375 35.057373046875 40.0341796875 Q 35.870361328125 40.166015625 37.012939453125 40.8251953125 Q 38.155517578125 41.484375 39.495849609375 42.42919921875 L 42.791748046875 39.287109375 Q 41.209716796875 37.6171875 39.407958984375 36.71630859375 Q 37.606201171875 35.8154296875 35.013427734375 35.5517578125 Q 33.804931640625 35.419921875 31.146240234375 35.13427734375 Q 29.344482421875 35.00244140625 28.2568359375 34.892578125 Q 27.169189453125 34.78271484375 26.466064453125 34.65087890625 Q 26.290283203125 34.56298828125 26.048583984375 34.51904296875 Q 25.784912109375 34.38720703125 25.55419921875 34.244384765625 Q 25.323486328125 34.1015625 25.103759765625 33.75 L 22.401123046875 33.75 Q 22.137451171875 34.1015625 21.961669921875 34.2333984375 Q 21.785888671875 34.365234375 21.456298828125 34.51904296875 Q 21.236572265625 34.56298828125 21.060791015625 34.65087890625 Q 20.379638671875 34.78271484375 19.632568359375 34.8486328125 L 16.424560546875 35.13427734375 Q 13.721923828125 35.39794921875 12.513427734375 35.5517578125 Q 9.898681640625 35.8154296875 8.096923828125 36.71630859375 Q 6.295166015625 37.6171875 4.713134765625 39.287109375 M 6.295166015625 39.2431640625 Q 9.085693359375 36.9580078125 12.513427734375 36.62841796875 Q 13.546142578125 36.49658203125 16.292724609375 36.2548828125 Q 18.050537109375 36.123046875 19.324951171875 35.9912109375 Q 20.599365234375 35.859375 21.236572265625 35.7275390625 Q 21.873779296875 35.595703125 22.65380859375 35.211181640625 Q 23.433837890625 34.82666015625 23.763427734375 34.3212890625 Q 24.071044921875 34.82666015625 24.862060546875 35.211181640625 Q 25.653076171875 35.595703125 26.268310546875 35.7275390625 Q 26.949462890625 35.859375 27.960205078125 35.96923828125 Q 28.970947265625 36.0791015625 31.234130859375 36.2548828125 Q 33.980712890625 36.474609375 35.013427734375 36.62841796875 Q 38.441162109375 36.93603515625 41.209716796875 39.2431640625 L 39.364013671875 40.89111328125 Q 37.825927734375 39.8583984375 36.9580078125 39.5068359375 Q 36.090087890625 39.1552734375 35.013427734375 38.95751953125 Q 34.464111328125 38.86962890625 33.409423828125 38.759765625 Q 32.354736328125 38.64990234375 31.0693359375 38.51806640625 Q 29.783935546875 38.38623046875 28.729248046875 38.265380859375 Q 27.674560546875 38.14453125 26.466064453125 38.056640625 Q 25.433349609375 37.880859375 23.763427734375 36.71630859375 Q 22.137451171875 37.880859375 21.060791015625 38.056640625 Q 19.852294921875 38.14453125 18.83056640625 38.265380859375 Q 17.808837890625 38.38623046875 16.688232421875 38.49609375 Q 15.567626953125 38.60595703125 14.30419921875 38.73779296875 Q 13.040771484375 38.86962890625 12.513427734375 38.95751953125 Q 11.436767578125 39.13330078125 10.557861328125 39.495849609375 Q 9.678955078125 39.8583984375 8.140869140625 40.89111328125 L 6.295166015625 39.2431640625 M 13.172607421875 20.19287109375 Q 13.172607421875 21.77490234375 14.051513671875 23.323974609375 Q 14.930419921875 24.873046875 16.995849609375 26.103515625 L 15.655517578125 31.48681640625 Q 17.764892578125 32.51953125 19.412841796875 33.046875 Q 21.060791015625 33.57421875 22.576904296875 33.7060546875 Q 22.972412109375 33.75 23.763427734375 33.75 Q 24.576416015625 33.75 24.971923828125 33.7060546875 Q 26.553955078125 33.57421875 28.1689453125 33.046875 Q 29.783935546875 32.51953125 31.849365234375 31.48681640625 L 30.509033203125 26.103515625 Q 32.574462890625 24.89501953125 33.475341796875 23.35693359375 Q 34.376220703125 21.81884765625 34.376220703125 20.19287109375 Q 34.376220703125 19.2919921875 34.112548828125 18.43505859375 Q 33.387451171875 17.2705078125 32.310791015625 16.19384765625 Q 31.234130859375 15.1171875 29.608154296875 13.7548828125 Q 28.619384765625 12.94189453125 28.245849609375 12.59033203125 L 23.763427734375 8.0859375 L 19.259033203125 12.59033203125 Q 18.907470703125 12.94189453125 17.896728515625 13.7548828125 Q 16.270751953125 15.09521484375 15.194091796875 16.182861328125 Q 14.117431640625 17.2705078125 13.414306640625 18.43505859375 Q 13.172607421875 19.2919921875 13.172607421875 20.19287109375 M 14.271240234375 20.06103515625 Q 14.271240234375 19.2041015625 14.534912109375 18.43505859375 Q 15.172119140625 17.578125 16.182861328125 16.644287109375 Q 17.193603515625 15.71044921875 18.665771484375 14.43603515625 Q 20.050048828125 13.2275390625 20.511474609375 12.76611328125 L 23.807373046875 9.4482421875 L 27.081298828125 12.76611328125 Q 27.520751953125 13.20556640625 28.927001953125 14.43603515625 Q 30.552978515625 15.8203125 31.497802734375 16.710205078125 Q 32.442626953125 17.60009765625 33.079833984375 18.43505859375 Q 33.343505859375 19.2041015625 33.343505859375 20.01708984375 Q 33.343505859375 21.55517578125 32.442626953125 23.016357421875 Q 31.541748046875 24.4775390625 29.696044921875 25.64208984375 Q 28.531494140625 25.13671875 26.729736328125 24.89501953125 Q 24.927978515625 24.6533203125 23.763427734375 24.6533203125 Q 22.554931640625 24.6533203125 20.841064453125 24.906005859375 Q 19.127197265625 25.15869140625 17.896728515625 25.64208984375 Q 16.051025390625 24.4775390625 15.1611328125 23.016357421875 Q 14.271240234375 21.55517578125 14.271240234375 20.06103515625 M 17.105712890625 30.322265625 L 18.050537109375 26.630859375 Q 19.588623046875 26.19140625 21.15966796875 25.982666015625 Q 22.730712890625 25.77392578125 23.763427734375 25.77392578125 Q 24.796142578125 25.77392578125 26.3671875 25.982666015625 Q 27.938232421875 26.19140625 29.476318359375 26.630859375 L 30.421142578125 30.2783203125 Q 27.806396484375 28.98193359375 23.763427734375 28.98193359375 Q 19.808349609375 28.98193359375 17.105712890625 30.322265625 M 17.501220703125 31.31103515625 Q 19.742431640625 30.1025390625 23.763427734375 30.1025390625 Q 27.718505859375 30.1025390625 30.047607421875 31.26708984375 Q 28.663330078125 31.8603515625 27.44384765625 32.18994140625 Q 26.224365234375 32.51953125 25.015869140625 32.62939453125 L 22.489013671875 32.62939453125 Q 20.159912109375 32.431640625 17.501220703125 31.31103515625 M 20.379638671875 18.43505859375 L 22.862548828125 18.43505859375 L 22.862548828125 20.91796875 L 24.664306640625 20.91796875 L 24.664306640625 18.43505859375 L 27.125244140625 18.43505859375 L 27.125244140625 16.6552734375 L 24.664306640625 16.6552734375 L 24.664306640625 14.17236328125 L 22.862548828125 14.17236328125 L 22.862548828125 16.6552734375 L 20.379638671875 16.6552734375 L 20.379638671875 18.43505859375 M 21.148681640625 5.6689453125 Q 21.148681640625 6.56982421875 21.961669921875 7.327880859375 Q 22.774658203125 8.0859375 23.763427734375 8.0859375 Q 24.752197265625 8.0859375 25.55419921875 7.327880859375 Q 26.356201171875 6.56982421875 26.356201171875 5.6689453125 Q 26.356201171875 4.76806640625 25.55419921875 3.9990234375 Q 24.752197265625 3.22998046875 23.763427734375 3.22998046875 Q 22.774658203125 3.22998046875 21.961669921875 3.9990234375 Q 21.148681640625 4.76806640625 21.148681640625 5.6689453125 M 22.225341796875 5.6689453125 Q 22.225341796875 5.11962890625 22.69775390625 4.669189453125 Q 23.170166015625 4.21875 23.763427734375 4.21875 Q 24.356689453125 4.21875 24.818115234375 4.669189453125 Q 25.279541015625 5.11962890625 25.279541015625 5.6689453125 Q 25.279541015625 6.21826171875 24.80712890625 6.65771484375 Q 24.334716796875 7.09716796875 23.763427734375 7.09716796875 Q 23.170166015625 7.09716796875 22.69775390625 6.65771484375 Q 22.225341796875 6.21826171875 22.225341796875 5.6689453125 Z Z" fill-rule="even-odd" style="-webkit-tap-highlight-color: rgba(0, 0, 0, 0); fill: rgb(0, 0, 0); stroke-width: 0;"></path></g></svg>