<svg xmlns="http://www.w3.org/2000/svg" version="1.1" id="ludo-svg-node-iy51mzlc" width="45" height="45" viewBox="0 0 45 45" viewBox="0 0 45 45" style="-webkit-tap-highlight-color: rgba(0, 0, 0, 0); width: 45px; height: 45px;"><g id="ludo-svg-node-iy51mzld" style="-webkit-tap-highlight-color: rgba(0, 0, 0, 0);"><path id="ludo-svg-node-iy51mznu" d="M 24.752197265625 26.2353515625 Q 28.531494140625 26.30126953125 30.948486328125 26.597900390625 Q 33.365478515625 26.89453125 35.299072265625 27.333984375 Q 36.507568359375 26.1474609375 37.979736328125 25.07080078125 Q 39.451904296875 23.994140625 40.045166015625 23.22509765625 Q 41.099853515625 21.8408203125 41.099853515625 19.66552734375 Q 41.099853515625 17.68798828125 40.155029296875 16.36962890625 Q 38.441162109375 13.90869140625 35.013427734375 13.90869140625 Q 32.904052734375 13.90869140625 30.772705078125 14.78759765625 Q 28.861083984375 15.5126953125 27.872314453125 16.50146484375 Q 26.026611328125 18.30322265625 25.147705078125 21.24755859375 Q 24.840087890625 22.25830078125 24.796142578125 23.818359375 Q 24.752197265625 25.37841796875 24.752197265625 26.2353515625 Z" fill="#fff" style="-webkit-tap-highlight-color: rgba(0, 0, 0, 0);"></path><path id="ludo-svg-node-iy51mznv" d="M 23.192138671875 26.19140625 Q 23.170166015625 25.33447265625 23.126220703125 23.7744140625 Q 23.082275390625 22.21435546875 22.796630859375 21.20361328125 Q 21.895751953125 18.25927734375 20.072021484375 16.45751953125 Q 19.083251953125 15.46875 17.171630859375 14.74365234375 Q 15.018310546875 13.86474609375 12.930908203125 13.86474609375 Q 9.459228515625 13.86474609375 7.789306640625 16.34765625 Q 6.844482421875 17.666015625 6.844482421875 19.62158203125 Q 6.844482421875 21.796875 7.899169921875 23.18115234375 Q 8.470458984375 23.9501953125 10.030517578125 25.125732421875 Q 11.590576171875 26.30126953125 12.645263671875 27.2900390625 Q 14.556884765625 26.8505859375 16.973876953125 26.553955078125 Q 19.390869140625 26.25732421875 23.192138671875 26.19140625 Z" fill="#fff" style="-webkit-tap-highlight-color: rgba(0, 0, 0, 0);"></path><path id="ludo-svg-node-iy51mznw" d="M 13.216552734375 32.1240234375 L 12.513427734375 34.65087890625 Q 14.425048828125 34.1015625 17.435302734375 33.75 Q 20.445556640625 33.3984375 24.005126953125 33.3984375 Q 31.168212890625 33.3984375 35.408935546875 34.62890625 L 34.749755859375 32.10205078125 L 35.364990234375 28.89404296875 Q 31.036376953125 27.7734375 23.961181640625 27.7734375 Q 16.754150390625 27.7734375 12.557373046875 28.89404296875 L 13.216552734375 32.1240234375 Z" fill="#fff" style="-webkit-tap-highlight-color: rgba(0, 0, 0, 0);"></path><path id="ludo-svg-node-iy51mznx" d="M 24.752197265625 9.2724609375 L 23.192138671875 9.25048828125 L 23.192138671875 6.39404296875 L 21.346435546875 6.39404296875 Q 20.599365234375 6.39404296875 20.599365234375 5.64697265625 L 20.599365234375 5.64697265625 Q 20.599365234375 4.89990234375 21.346435546875 4.89990234375 L 23.192138671875 4.89990234375 L 23.192138671875 3.05419921875 Q 23.192138671875 2.26318359375 23.961181640625 2.26318359375 L 23.961181640625 2.26318359375 Q 24.752197265625 2.26318359375 24.752197265625 3.05419921875 L 24.752197265625 4.89990234375 L 26.619873046875 4.89990234375 Q 27.366943359375 4.89990234375 27.366943359375 5.64697265625 L 27.366943359375 5.64697265625 Q 27.366943359375 6.39404296875 26.619873046875 6.39404296875 L 24.774169921875 6.416015625 L 24.752197265625 9.2724609375 Z" fill="#fff" style="-webkit-tap-highlight-color: rgba(0, 0, 0, 0);"></path><path id="ludo-svg-node-iy51mzny" d="M 23.983154296875 20.6982421875 Q 24.180908203125 19.97314453125 24.246826171875 19.8193359375 Q 24.466552734375 19.0283203125 24.730224609375 18.369140625 Q 24.884033203125 18.017578125 25.125732421875 17.523193359375 Q 25.367431640625 17.02880859375 25.675048828125 16.3916015625 Q 25.828857421875 16.01806640625 26.026611328125 15.46875 Q 26.224365234375 14.91943359375 26.422119140625 14.39208984375 Q 26.597900390625 13.974609375 26.597900390625 13.46923828125 Q 26.597900390625 10.8544921875 23.983154296875 10.8544921875 Q 21.346435546875 10.8984375 21.346435546875 13.4912109375 Q 21.346435546875 13.99658203125 21.522216796875 14.4140625 Q 21.719970703125 14.94140625 21.90673828125 15.49072265625 Q 22.093505859375 16.0400390625 22.291259765625 16.41357421875 Q 22.554931640625 17.05078125 22.8076171875 17.545166015625 Q 23.060302734375 18.03955078125 23.214111328125 18.39111328125 Q 23.477783203125 19.00634765625 23.719482421875 19.84130859375 Q 23.807373046875 20.10498046875 23.8623046875 20.32470703125 Q 23.917236328125 20.54443359375 23.983154296875 20.6982421875 Z" fill="#fff" style="-webkit-tap-highlight-color: rgba(0, 0, 0, 0);"></path><path id="ludo-svg-node-iy51mznz" d="M 35.958251953125 36.6943359375 Q 31.849365234375 34.98046875 24.049072265625 34.98046875 Q 16.094970703125 34.98046875 12.008056640625 36.73828125 Q 15.875244140625 38.2763671875 24.005126953125 38.2763671875 Q 27.850341796875 38.2763671875 31.036376953125 37.847900390625 Q 34.222412109375 37.41943359375 35.958251953125 36.6943359375 Z" fill="#fff" style="-webkit-tap-highlight-color: rgba(0, 0, 0, 0);"></path><path id="ludo-svg-node-iy51mzo0" d="M 24.752197265625 26.2353515625 Q 28.531494140625 26.30126953125 30.948486328125 26.597900390625 Q 33.365478515625 26.89453125 35.299072265625 27.333984375 Q 36.507568359375 26.1474609375 37.979736328125 25.07080078125 Q 39.451904296875 23.994140625 40.045166015625 23.22509765625 Q 41.099853515625 21.8408203125 41.099853515625 19.66552734375 Q 41.099853515625 17.68798828125 40.155029296875 16.36962890625 Q 38.441162109375 13.90869140625 35.013427734375 13.90869140625 Q 32.904052734375 13.90869140625 30.772705078125 14.78759765625 Q 28.861083984375 15.5126953125 27.872314453125 16.50146484375 Q 26.026611328125 18.30322265625 25.147705078125 21.24755859375 Q 24.840087890625 22.25830078125 24.796142578125 23.818359375 Q 24.752197265625 25.37841796875 24.752197265625 26.2353515625 M 23.192138671875 26.19140625 Q 23.170166015625 25.33447265625 23.126220703125 23.7744140625 Q 23.082275390625 22.21435546875 22.796630859375 21.20361328125 Q 21.895751953125 18.25927734375 20.072021484375 16.45751953125 Q 19.083251953125 15.46875 17.171630859375 14.74365234375 Q 15.018310546875 13.86474609375 12.930908203125 13.86474609375 Q 9.459228515625 13.86474609375 7.789306640625 16.34765625 Q 6.844482421875 17.666015625 6.844482421875 19.62158203125 Q 6.844482421875 21.796875 7.899169921875 23.18115234375 Q 8.470458984375 23.9501953125 10.030517578125 25.125732421875 Q 11.590576171875 26.30126953125 12.645263671875 27.2900390625 Q 14.556884765625 26.8505859375 16.973876953125 26.553955078125 Q 19.390869140625 26.25732421875 23.192138671875 26.19140625 M 13.216552734375 32.1240234375 L 12.513427734375 34.65087890625 Q 14.425048828125 34.1015625 17.435302734375 33.75 Q 20.445556640625 33.3984375 24.005126953125 33.3984375 Q 31.168212890625 33.3984375 35.408935546875 34.62890625 L 34.749755859375 32.10205078125 L 35.364990234375 28.89404296875 Q 31.036376953125 27.7734375 23.961181640625 27.7734375 Q 16.754150390625 27.7734375 12.557373046875 28.89404296875 L 13.216552734375 32.1240234375 M 24.752197265625 9.2724609375 L 23.192138671875 9.25048828125 L 23.192138671875 6.39404296875 L 21.346435546875 6.39404296875 Q 20.599365234375 6.39404296875 20.599365234375 5.64697265625 L 20.599365234375 5.64697265625 Q 20.599365234375 4.89990234375 21.346435546875 4.89990234375 L 23.192138671875 4.89990234375 L 23.192138671875 3.05419921875 Q 23.192138671875 2.26318359375 23.961181640625 2.26318359375 L 23.961181640625 2.26318359375 Q 24.752197265625 2.26318359375 24.752197265625 3.05419921875 L 24.752197265625 4.89990234375 L 26.619873046875 4.89990234375 Q 27.366943359375 4.89990234375 27.366943359375 5.64697265625 L 27.366943359375 5.64697265625 Q 27.366943359375 6.39404296875 26.619873046875 6.39404296875 L 24.774169921875 6.416015625 L 24.752197265625 9.2724609375 M 23.983154296875 20.6982421875 Q 24.180908203125 19.97314453125 24.246826171875 19.8193359375 Q 24.466552734375 19.0283203125 24.730224609375 18.369140625 Q 24.884033203125 18.017578125 25.125732421875 17.523193359375 Q 25.367431640625 17.02880859375 25.675048828125 16.3916015625 Q 25.828857421875 16.01806640625 26.026611328125 15.46875 Q 26.224365234375 14.91943359375 26.422119140625 14.39208984375 Q 26.597900390625 13.974609375 26.597900390625 13.46923828125 Q 26.597900390625 10.8544921875 23.983154296875 10.8544921875 Q 21.346435546875 10.8984375 21.346435546875 13.4912109375 Q 21.346435546875 13.99658203125 21.522216796875 14.4140625 Q 21.719970703125 14.94140625 21.90673828125 15.49072265625 Q 22.093505859375 16.0400390625 22.291259765625 16.41357421875 Q 22.554931640625 17.05078125 22.8076171875 17.545166015625 Q 23.060302734375 18.03955078125 23.214111328125 18.39111328125 Q 23.477783203125 19.00634765625 23.719482421875 19.84130859375 Q 23.807373046875 20.10498046875 23.8623046875 20.32470703125 Q 23.917236328125 20.54443359375 23.983154296875 20.6982421875 M 35.958251953125 36.6943359375 Q 31.849365234375 34.98046875 24.049072265625 34.98046875 Q 16.094970703125 34.98046875 12.008056640625 36.73828125 Q 15.875244140625 38.2763671875 24.005126953125 38.2763671875 Q 27.850341796875 38.2763671875 31.036376953125 37.847900390625 Q 34.222412109375 37.41943359375 35.958251953125 36.6943359375 M 11.634521484375 32.05810546875 L 10.931396484375 27.94921875 Q 10.887451171875 27.94921875 10.843505859375 27.861328125 Q 10.733642578125 27.70751953125 10.228271484375 27.44384765625 Q 9.722900390625 27.18017578125 9.019775390625 26.5869140625 Q 8.074951171875 25.77392578125 7.525634765625 25.257568359375 Q 6.976318359375 24.7412109375 6.558837890625 24.14794921875 Q 5.196533203125 22.30224609375 5.042724609375 19.6875 Q 4.866943359375 17.16064453125 7.108154296875 14.65576171875 Q 9.349365234375 12.12890625 13.260498046875 12.3046875 Q 14.644775390625 12.37060546875 16.666259765625 13.02978515625 Q 17.786865234375 13.447265625 19.324951171875 14.0625 Q 19.500732421875 14.150390625 19.918212890625 14.4140625 Q 19.830322265625 13.798828125 19.830322265625 13.4912109375 Q 19.830322265625 11.77734375 21.038818359375 10.557861328125 Q 22.247314453125 9.33837890625 23.961181640625 9.33837890625 Q 25.675048828125 9.33837890625 26.89453125 10.546875 Q 28.114013671875 11.75537109375 28.114013671875 13.46923828125 Q 28.114013671875 13.9306640625 28.004150390625 14.39208984375 Q 28.399658203125 14.12841796875 28.597412109375 14.04052734375 Q 29.256591796875 13.77685546875 29.9267578125 13.524169921875 Q 30.596923828125 13.271484375 31.256103515625 13.0078125 Q 33.189697265625 12.392578125 34.661865234375 12.3046875 Q 38.507080078125 12.10693359375 40.836181640625 14.65576171875 Q 43.033447265625 17.138671875 42.879638671875 19.66552734375 Q 42.681884765625 22.30224609375 41.385498046875 24.14794921875 Q 40.748291015625 24.98291015625 38.902587890625 26.56494140625 Q 38.199462890625 27.158203125 37.68310546875 27.421875 Q 37.166748046875 27.685546875 37.078857421875 27.83935546875 Q 37.056884765625 27.861328125 37.034912109375 27.894287109375 Q 37.012939453125 27.92724609375 37.012939453125 27.92724609375 L 36.309814453125 32.05810546875 L 37.760009765625 37.50732421875 Q 36.661376953125 38.47412109375 32.838134765625 39.111328125 Q 29.014892578125 39.74853515625 24.005126953125 39.74853515625 Q 18.929443359375 39.74853515625 15.062255859375 39.08935546875 Q 11.195068359375 38.43017578125 10.206298828125 37.41943359375 L 11.634521484375 32.05810546875 Z Z" style="-webkit-tap-highlight-color: rgba(0, 0, 0, 0);"></path><path id="ludo-svg-node-iy51mzle" d="M 24.752197265625 26.2353515625 Q 28.531494140625 26.30126953125 30.948486328125 26.597900390625 Q 33.365478515625 26.89453125 35.299072265625 27.333984375 Q 36.507568359375 26.1474609375 37.979736328125 25.07080078125 Q 39.451904296875 23.994140625 40.045166015625 23.22509765625 Q 41.099853515625 21.8408203125 41.099853515625 19.66552734375 Q 41.099853515625 17.68798828125 40.155029296875 16.36962890625 Q 38.441162109375 13.90869140625 35.013427734375 13.90869140625 Q 32.904052734375 13.90869140625 30.772705078125 14.78759765625 Q 28.861083984375 15.5126953125 27.872314453125 16.50146484375 Q 26.026611328125 18.30322265625 25.147705078125 21.24755859375 Q 24.840087890625 22.25830078125 24.796142578125 23.818359375 Q 24.752197265625 25.37841796875 24.752197265625 26.2353515625 M 23.192138671875 26.19140625 Q 23.170166015625 25.33447265625 23.126220703125 23.7744140625 Q 23.082275390625 22.21435546875 22.796630859375 21.20361328125 Q 21.895751953125 18.25927734375 20.072021484375 16.45751953125 Q 19.083251953125 15.46875 17.171630859375 14.74365234375 Q 15.018310546875 13.86474609375 12.930908203125 13.86474609375 Q 9.459228515625 13.86474609375 7.789306640625 16.34765625 Q 6.844482421875 17.666015625 6.844482421875 19.62158203125 Q 6.844482421875 21.796875 7.899169921875 23.18115234375 Q 8.470458984375 23.9501953125 10.030517578125 25.125732421875 Q 11.590576171875 26.30126953125 12.645263671875 27.2900390625 Q 14.556884765625 26.8505859375 16.973876953125 26.553955078125 Q 19.390869140625 26.25732421875 23.192138671875 26.19140625 M 13.216552734375 32.1240234375 L 12.513427734375 34.65087890625 Q 14.425048828125 34.1015625 17.435302734375 33.75 Q 20.445556640625 33.3984375 24.005126953125 33.3984375 Q 31.168212890625 33.3984375 35.408935546875 34.62890625 L 34.749755859375 32.10205078125 L 35.364990234375 28.89404296875 Q 31.036376953125 27.7734375 23.961181640625 27.7734375 Q 16.754150390625 27.7734375 12.557373046875 28.89404296875 L 13.216552734375 32.1240234375 M 24.752197265625 9.2724609375 L 23.192138671875 9.25048828125 L 23.192138671875 6.39404296875 L 21.346435546875 6.39404296875 Q 20.599365234375 6.39404296875 20.599365234375 5.64697265625 L 20.599365234375 5.64697265625 Q 20.599365234375 4.89990234375 21.346435546875 4.89990234375 L 23.192138671875 4.89990234375 L 23.192138671875 3.05419921875 Q 23.192138671875 2.26318359375 23.961181640625 2.26318359375 L 23.961181640625 2.26318359375 Q 24.752197265625 2.26318359375 24.752197265625 3.05419921875 L 24.752197265625 4.89990234375 L 26.619873046875 4.89990234375 Q 27.366943359375 4.89990234375 27.366943359375 5.64697265625 L 27.366943359375 5.64697265625 Q 27.366943359375 6.39404296875 26.619873046875 6.39404296875 L 24.774169921875 6.416015625 L 24.752197265625 9.2724609375 M 23.983154296875 20.6982421875 Q 24.180908203125 19.97314453125 24.246826171875 19.8193359375 Q 24.466552734375 19.0283203125 24.730224609375 18.369140625 Q 24.884033203125 18.017578125 25.125732421875 17.523193359375 Q 25.367431640625 17.02880859375 25.675048828125 16.3916015625 Q 25.828857421875 16.01806640625 26.026611328125 15.46875 Q 26.224365234375 14.91943359375 26.422119140625 14.39208984375 Q 26.597900390625 13.974609375 26.597900390625 13.46923828125 Q 26.597900390625 10.8544921875 23.983154296875 10.8544921875 Q 21.346435546875 10.8984375 21.346435546875 13.4912109375 Q 21.346435546875 13.99658203125 21.522216796875 14.4140625 Q 21.719970703125 14.94140625 21.90673828125 15.49072265625 Q 22.093505859375 16.0400390625 22.291259765625 16.41357421875 Q 22.554931640625 17.05078125 22.8076171875 17.545166015625 Q 23.060302734375 18.03955078125 23.214111328125 18.39111328125 Q 23.477783203125 19.00634765625 23.719482421875 19.84130859375 Q 23.807373046875 20.10498046875 23.8623046875 20.32470703125 Q 23.917236328125 20.54443359375 23.983154296875 20.6982421875 M 35.958251953125 36.6943359375 Q 31.849365234375 34.98046875 24.049072265625 34.98046875 Q 16.094970703125 34.98046875 12.008056640625 36.73828125 Q 15.875244140625 38.2763671875 24.005126953125 38.2763671875 Q 27.850341796875 38.2763671875 31.036376953125 37.847900390625 Q 34.222412109375 37.41943359375 35.958251953125 36.6943359375 M 11.634521484375 32.05810546875 L 10.931396484375 27.94921875 Q 10.887451171875 27.94921875 10.843505859375 27.861328125 Q 10.733642578125 27.70751953125 10.228271484375 27.44384765625 Q 9.722900390625 27.18017578125 9.019775390625 26.5869140625 Q 8.074951171875 25.77392578125 7.525634765625 25.257568359375 Q 6.976318359375 24.7412109375 6.558837890625 24.14794921875 Q 5.196533203125 22.30224609375 5.042724609375 19.6875 Q 4.866943359375 17.16064453125 7.108154296875 14.65576171875 Q 9.349365234375 12.12890625 13.260498046875 12.3046875 Q 14.644775390625 12.37060546875 16.666259765625 13.02978515625 Q 17.786865234375 13.447265625 19.324951171875 14.0625 Q 19.500732421875 14.150390625 19.918212890625 14.4140625 Q 19.830322265625 13.798828125 19.830322265625 13.4912109375 Q 19.830322265625 11.77734375 21.038818359375 10.557861328125 Q 22.247314453125 9.33837890625 23.961181640625 9.33837890625 Q 25.675048828125 9.33837890625 26.89453125 10.546875 Q 28.114013671875 11.75537109375 28.114013671875 13.46923828125 Q 28.114013671875 13.9306640625 28.004150390625 14.39208984375 Q 28.399658203125 14.12841796875 28.597412109375 14.04052734375 Q 29.256591796875 13.77685546875 29.9267578125 13.524169921875 Q 30.596923828125 13.271484375 31.256103515625 13.0078125 Q 33.189697265625 12.392578125 34.661865234375 12.3046875 Q 38.507080078125 12.10693359375 40.836181640625 14.65576171875 Q 43.033447265625 17.138671875 42.879638671875 19.66552734375 Q 42.681884765625 22.30224609375 41.385498046875 24.14794921875 Q 40.748291015625 24.98291015625 38.902587890625 26.56494140625 Q 38.199462890625 27.158203125 37.68310546875 27.421875 Q 37.166748046875 27.685546875 37.078857421875 27.83935546875 Q 37.056884765625 27.861328125 37.034912109375 27.894287109375 Q 37.012939453125 27.92724609375 37.012939453125 27.92724609375 L 36.309814453125 32.05810546875 L 37.760009765625 37.50732421875 Q 36.661376953125 38.47412109375 32.838134765625 39.111328125 Q 29.014892578125 39.74853515625 24.005126953125 39.74853515625 Q 18.929443359375 39.74853515625 15.062255859375 39.08935546875 Q 11.195068359375 38.43017578125 10.206298828125 37.41943359375 L 11.634521484375 32.05810546875 Z Z" fill-rule="even-odd" style="-webkit-tap-highlight-color: rgba(0, 0, 0, 0); fill: rgb(0, 0, 0); stroke-width: 0;"></path></g></svg>