<svg xmlns="http://www.w3.org/2000/svg" version="1.1" id="ludo-svg-node-iy519ioa" width="45" height="45" viewBox="0 0 45 45" viewBox="0 0 45 45" style="-webkit-tap-highlight-color: rgba(0, 0, 0, 0); width: 45px; height: 45px;"><g id="ludo-svg-node-iy519iob" style="-webkit-tap-highlight-color: rgba(0, 0, 0, 0);"><path id="ludo-svg-node-iy519iqo" d="M 4.37255859375 26.5869140625 Q 4.37255859375 27.13623046875 4.5263671875 27.9052734375 Q 4.74609375 29.06982421875 5.372314453125 29.696044921875 Q 5.99853515625 30.322265625 7.66845703125 30.5859375 Q 8.173828125 30.673828125 8.4375 30.673828125 Q 8.701171875 30.673828125 9.0087890625 30.5859375 Q 9.0087890625 31.17919921875 9.25048828125 31.728515625 Q 9.68994140625 32.32177734375 10.3271484375 32.2998046875 Q 11.05224609375 32.2998046875 11.49169921875 31.48681640625 Q 12.568359375 30.3662109375 13.084716796875 29.5751953125 Q 13.60107421875 28.7841796875 14.4140625 27.00439453125 Q 15.40283203125 25.7080078125 16.798095703125 24.818115234375 Q 18.193359375 23.92822265625 19.8193359375 23.40087890625 Q 20.93994140625 23.00537109375 22.52197265625 21.77490234375 Q 23.1591796875 21.26953125 23.4228515625 21.1376953125 Q 23.4228515625 23.3349609375 22.78564453125 26.158447265625 Q 22.1484375 28.98193359375 20.93994140625 30.82763671875 Q 20.67626953125 31.376953125 19.18212890625 32.71728515625 Q 17.9736328125 33.7939453125 17.138671875 34.69482421875 Q 16.3037109375 35.595703125 15.7763671875 36.67236328125 Q 15.27099609375 37.6611328125 15.27099609375 39.3310546875 L 15.27099609375 39.990234375 Q 15.31494140625 40.49560546875 15.31494140625 40.71533203125 L 43.22021484375 40.71533203125 Q 43.08837890625 35.48583984375 42.451171875 30.926513671875 Q 41.81396484375 26.3671875 40.517578125 21.59912109375 Q 40.1220703125 19.92919921875 39.287109375 18.08349609375 Q 38.4521484375 16.23779296875 37.342529296875 14.47998046875 Q 36.23291015625 12.72216796875 35.068359375 11.282958984375 Q 33.90380859375 9.84375 32.87109375 8.98681640625 Q 31.61865234375 7.91015625 29.8388671875 7.261962890625 Q 28.05908203125 6.61376953125 26.38916015625 6.61376953125 Q 24.89501953125 6.61376953125 23.8623046875 7.18505859375 L 21.6650390625 2.28515625 L 18.2373046875 5.8447265625 L 12.6123046875 2.4609375 L 13.07373046875 8.0859375 Q 12.3486328125 8.63525390625 11.31591796875 10.30517578125 L 11.27197265625 10.34912109375 Q 11.00830078125 10.70068359375 10.4150390625 11.3818359375 Q 9.86572265625 12.06298828125 9.47021484375 12.59033203125 Q 9.29443359375 12.98583984375 9.29443359375 13.447265625 Q 9.29443359375 13.95263671875 9.47021484375 14.39208984375 Q 9.42626953125 14.65576171875 8.953857421875 15.677490234375 Q 8.4814453125 16.69921875 7.66845703125 18.34716796875 Q 6.3720703125 20.9619140625 5.64697265625 22.489013671875 Q 4.921875 24.01611328125 4.5263671875 25.20263671875 Q 4.37255859375 25.94970703125 4.37255859375 26.5869140625 Z" fill="#fff" style="-webkit-tap-highlight-color: rgba(0, 0, 0, 0);"></path><path id="ludo-svg-node-iy519iqp" d="M 5.51513671875 26.54296875 Q 5.51513671875 25.90576171875 5.64697265625 25.15869140625 Q 5.99853515625 24.0380859375 6.8115234375 22.32421875 Q 7.62451171875 20.6103515625 8.7890625 18.30322265625 Q 9.68994140625 16.45751953125 10.118408203125 15.53466796875 Q 10.546875 14.61181640625 10.5908203125 14.34814453125 Q 10.458984375 13.95263671875 10.458984375 13.4912109375 Q 10.458984375 12.94189453125 10.5908203125 12.59033203125 Q 11.22802734375 11.953125 11.5576171875 11.513671875 Q 11.88720703125 11.07421875 12.3046875 10.34912109375 Q 13.51318359375 9.0966796875 14.0625 8.32763671875 L 13.73291015625 4.50439453125 L 18.45703125 7.22900390625 L 21.29150390625 4.04296875 L 23.18115234375 8.54736328125 Q 24.5654296875 7.822265625 26.34521484375 7.822265625 Q 27.97119140625 7.822265625 29.542236328125 8.404541015625 Q 31.11328125 8.98681640625 32.27783203125 9.9755859375 Q 33.2666015625 10.78857421875 34.354248046875 12.139892578125 Q 35.44189453125 13.4912109375 36.474609375 15.1611328125 Q 37.50732421875 16.8310546875 38.287353515625 18.577880859375 Q 39.0673828125 20.32470703125 39.44091796875 21.90673828125 Q 40.693359375 26.455078125 41.297607421875 30.706787109375 Q 41.90185546875 34.95849609375 42.099609375 39.638671875 L 16.435546875 39.638671875 Q 16.5234375 38.86962890625 16.76513671875 37.880859375 Q 16.94091796875 37.15576171875 16.94091796875 36.89208984375 Q 17.6220703125 35.7275390625 18.56689453125 34.7607421875 Q 19.51171875 33.7939453125 20.85205078125 32.62939453125 Q 22.060546875 31.552734375 22.2802734375 31.22314453125 Q 23.48876953125 29.11376953125 24.06005859375 26.4111328125 Q 24.63134765625 23.70849609375 24.63134765625 20.6982421875 Q 24.63134765625 20.4345703125 24.58740234375 19.92919921875 L 24.58740234375 19.2041015625 Q 23.5546875 19.75341796875 22.0166015625 20.7861328125 Q 20.390625 21.86279296875 19.51171875 22.17041015625 Q 16.1279296875 23.291015625 13.77685546875 25.90576171875 Q 13.55712890625 26.30126953125 12.8759765625 27.44384765625 Q 12.28271484375 28.388671875 11.97509765625 28.927001953125 Q 11.66748046875 29.46533203125 11.18408203125 30.41015625 Q 10.6787109375 31.35498046875 10.3271484375 31.35498046875 Q 10.1513671875 31.35498046875 9.95361328125 31.09130859375 L 9.95361328125 31.04736328125 Q 9.64599609375 30.322265625 9.60205078125 29.794921875 Q 8.7451171875 29.5751953125 7.66845703125 29.55322265625 Q 5.95458984375 29.33349609375 5.64697265625 27.83935546875 Q 5.51513671875 27.09228515625 5.51513671875 26.54296875 Z" fill="#fff" style="-webkit-tap-highlight-color: rgba(0, 0, 0, 0);"></path><path id="ludo-svg-node-iy519iqq" d="M 6.85546875 26.2353515625 Q 6.85546875 26.54296875 6.9873046875 27.13623046875 Q 7.2509765625 27.09228515625 7.84423828125 26.795654296875 Q 8.4375 26.4990234375 8.8330078125 26.1474609375 Q 9.38232421875 25.83984375 9.60205078125 25.587158203125 Q 9.82177734375 25.33447265625 9.90966796875 24.873046875 Q 9.90966796875 24.8291015625 9.95361328125 24.78515625 L 9.95361328125 24.6533203125 Q 9.95361328125 24.3896484375 9.7119140625 24.071044921875 Q 9.47021484375 23.75244140625 9.140625 23.62060546875 Q 8.45947265625 23.75244140625 7.855224609375 24.290771484375 Q 7.2509765625 24.8291015625 6.9873046875 25.64208984375 Q 6.85546875 25.927734375 6.85546875 26.2353515625 Z" fill="#fff" style="-webkit-tap-highlight-color: rgba(0, 0, 0, 0);"></path><path id="ludo-svg-node-iy519iqr" d="M 4.37255859375 26.5869140625 Q 4.37255859375 27.13623046875 4.5263671875 27.9052734375 Q 4.74609375 29.06982421875 5.372314453125 29.696044921875 Q 5.99853515625 30.322265625 7.66845703125 30.5859375 Q 8.173828125 30.673828125 8.4375 30.673828125 Q 8.701171875 30.673828125 9.0087890625 30.5859375 Q 9.0087890625 31.17919921875 9.25048828125 31.728515625 Q 9.68994140625 32.32177734375 10.3271484375 32.2998046875 Q 11.05224609375 32.2998046875 11.49169921875 31.48681640625 Q 12.568359375 30.3662109375 13.084716796875 29.5751953125 Q 13.60107421875 28.7841796875 14.4140625 27.00439453125 Q 15.40283203125 25.7080078125 16.798095703125 24.818115234375 Q 18.193359375 23.92822265625 19.8193359375 23.40087890625 Q 20.93994140625 23.00537109375 22.52197265625 21.77490234375 Q 23.1591796875 21.26953125 23.4228515625 21.1376953125 Q 23.4228515625 23.3349609375 22.78564453125 26.158447265625 Q 22.1484375 28.98193359375 20.93994140625 30.82763671875 Q 20.67626953125 31.376953125 19.18212890625 32.71728515625 Q 17.9736328125 33.7939453125 17.138671875 34.69482421875 Q 16.3037109375 35.595703125 15.7763671875 36.67236328125 Q 15.27099609375 37.6611328125 15.27099609375 39.3310546875 L 15.27099609375 39.990234375 Q 15.31494140625 40.49560546875 15.31494140625 40.71533203125 L 43.22021484375 40.71533203125 Q 43.08837890625 35.48583984375 42.451171875 30.926513671875 Q 41.81396484375 26.3671875 40.517578125 21.59912109375 Q 40.1220703125 19.92919921875 39.287109375 18.08349609375 Q 38.4521484375 16.23779296875 37.342529296875 14.47998046875 Q 36.23291015625 12.72216796875 35.068359375 11.282958984375 Q 33.90380859375 9.84375 32.87109375 8.98681640625 Q 31.61865234375 7.91015625 29.8388671875 7.261962890625 Q 28.05908203125 6.61376953125 26.38916015625 6.61376953125 Q 24.89501953125 6.61376953125 23.8623046875 7.18505859375 L 21.6650390625 2.28515625 L 18.2373046875 5.8447265625 L 12.6123046875 2.4609375 L 13.07373046875 8.0859375 Q 12.3486328125 8.63525390625 11.31591796875 10.30517578125 L 11.27197265625 10.34912109375 Q 11.00830078125 10.70068359375 10.4150390625 11.3818359375 Q 9.86572265625 12.06298828125 9.47021484375 12.59033203125 Q 9.29443359375 12.98583984375 9.29443359375 13.447265625 Q 9.29443359375 13.95263671875 9.47021484375 14.39208984375 Q 9.42626953125 14.65576171875 8.953857421875 15.677490234375 Q 8.4814453125 16.69921875 7.66845703125 18.34716796875 Q 6.3720703125 20.9619140625 5.64697265625 22.489013671875 Q 4.921875 24.01611328125 4.5263671875 25.20263671875 Q 4.37255859375 25.94970703125 4.37255859375 26.5869140625 M 5.51513671875 26.54296875 Q 5.51513671875 25.90576171875 5.64697265625 25.15869140625 Q 5.99853515625 24.0380859375 6.8115234375 22.32421875 Q 7.62451171875 20.6103515625 8.7890625 18.30322265625 Q 9.68994140625 16.45751953125 10.118408203125 15.53466796875 Q 10.546875 14.61181640625 10.5908203125 14.34814453125 Q 10.458984375 13.95263671875 10.458984375 13.4912109375 Q 10.458984375 12.94189453125 10.5908203125 12.59033203125 Q 11.22802734375 11.953125 11.5576171875 11.513671875 Q 11.88720703125 11.07421875 12.3046875 10.34912109375 Q 13.51318359375 9.0966796875 14.0625 8.32763671875 L 13.73291015625 4.50439453125 L 18.45703125 7.22900390625 L 21.29150390625 4.04296875 L 23.18115234375 8.54736328125 Q 24.5654296875 7.822265625 26.34521484375 7.822265625 Q 27.97119140625 7.822265625 29.542236328125 8.404541015625 Q 31.11328125 8.98681640625 32.27783203125 9.9755859375 Q 33.2666015625 10.78857421875 34.354248046875 12.139892578125 Q 35.44189453125 13.4912109375 36.474609375 15.1611328125 Q 37.50732421875 16.8310546875 38.287353515625 18.577880859375 Q 39.0673828125 20.32470703125 39.44091796875 21.90673828125 Q 40.693359375 26.455078125 41.297607421875 30.706787109375 Q 41.90185546875 34.95849609375 42.099609375 39.638671875 L 16.435546875 39.638671875 Q 16.5234375 38.86962890625 16.76513671875 37.880859375 Q 16.94091796875 37.15576171875 16.94091796875 36.89208984375 Q 17.6220703125 35.7275390625 18.56689453125 34.7607421875 Q 19.51171875 33.7939453125 20.85205078125 32.62939453125 Q 22.060546875 31.552734375 22.2802734375 31.22314453125 Q 23.48876953125 29.11376953125 24.06005859375 26.4111328125 Q 24.63134765625 23.70849609375 24.63134765625 20.6982421875 Q 24.63134765625 20.4345703125 24.58740234375 19.92919921875 L 24.58740234375 19.2041015625 Q 23.5546875 19.75341796875 22.0166015625 20.7861328125 Q 20.390625 21.86279296875 19.51171875 22.17041015625 Q 16.1279296875 23.291015625 13.77685546875 25.90576171875 Q 13.55712890625 26.30126953125 12.8759765625 27.44384765625 Q 12.28271484375 28.388671875 11.97509765625 28.927001953125 Q 11.66748046875 29.46533203125 11.18408203125 30.41015625 Q 10.6787109375 31.35498046875 10.3271484375 31.35498046875 Q 10.1513671875 31.35498046875 9.95361328125 31.09130859375 L 9.95361328125 31.04736328125 Q 9.64599609375 30.322265625 9.60205078125 29.794921875 Q 8.7451171875 29.5751953125 7.66845703125 29.55322265625 Q 5.95458984375 29.33349609375 5.64697265625 27.83935546875 Q 5.51513671875 27.09228515625 5.51513671875 26.54296875 M 6.85546875 26.2353515625 Q 6.85546875 26.54296875 6.9873046875 27.13623046875 Q 7.2509765625 27.09228515625 7.84423828125 26.795654296875 Q 8.4375 26.4990234375 8.8330078125 26.1474609375 Q 9.38232421875 25.83984375 9.60205078125 25.587158203125 Q 9.82177734375 25.33447265625 9.90966796875 24.873046875 Q 9.90966796875 24.8291015625 9.95361328125 24.78515625 L 9.95361328125 24.6533203125 Q 9.95361328125 24.3896484375 9.7119140625 24.071044921875 Q 9.47021484375 23.75244140625 9.140625 23.62060546875 Q 8.45947265625 23.75244140625 7.855224609375 24.290771484375 Q 7.2509765625 24.8291015625 6.9873046875 25.64208984375 Q 6.85546875 25.927734375 6.85546875 26.2353515625 M 11.71142578125 15.75439453125 Q 13.29345703125 15.57861328125 14.4140625 14.94140625 Q 15.53466796875 14.30419921875 16.259765625 13.4033203125 Q 16.76513671875 12.89794921875 16.76513671875 12.15087890625 Q 16.45751953125 11.84326171875 16.0400390625 11.8212890625 Q 15.9521484375 11.8212890625 15.8642578125 11.865234375 L 15.62255859375 11.865234375 Q 14.677734375 12.1728515625 14.227294921875 12.469482421875 Q 13.77685546875 12.76611328125 13.29345703125 13.359375 Q 12.98583984375 13.7548828125 12.777099609375 14.073486328125 Q 12.568359375 14.39208984375 11.9970703125 15.3369140625 L 11.71142578125 15.75439453125 Z Z" style="-webkit-tap-highlight-color: rgba(0, 0, 0, 0);"></path><path id="ludo-svg-node-iy519ioc" d="M 4.37255859375 26.5869140625 Q 4.37255859375 27.13623046875 4.5263671875 27.9052734375 Q 4.74609375 29.06982421875 5.372314453125 29.696044921875 Q 5.99853515625 30.322265625 7.66845703125 30.5859375 Q 8.173828125 30.673828125 8.4375 30.673828125 Q 8.701171875 30.673828125 9.0087890625 30.5859375 Q 9.0087890625 31.17919921875 9.25048828125 31.728515625 Q 9.68994140625 32.32177734375 10.3271484375 32.2998046875 Q 11.05224609375 32.2998046875 11.49169921875 31.48681640625 Q 12.568359375 30.3662109375 13.084716796875 29.5751953125 Q 13.60107421875 28.7841796875 14.4140625 27.00439453125 Q 15.40283203125 25.7080078125 16.798095703125 24.818115234375 Q 18.193359375 23.92822265625 19.8193359375 23.40087890625 Q 20.93994140625 23.00537109375 22.52197265625 21.77490234375 Q 23.1591796875 21.26953125 23.4228515625 21.1376953125 Q 23.4228515625 23.3349609375 22.78564453125 26.158447265625 Q 22.1484375 28.98193359375 20.93994140625 30.82763671875 Q 20.67626953125 31.376953125 19.18212890625 32.71728515625 Q 17.9736328125 33.7939453125 17.138671875 34.69482421875 Q 16.3037109375 35.595703125 15.7763671875 36.67236328125 Q 15.27099609375 37.6611328125 15.27099609375 39.3310546875 L 15.27099609375 39.990234375 Q 15.31494140625 40.49560546875 15.31494140625 40.71533203125 L 43.22021484375 40.71533203125 Q 43.08837890625 35.48583984375 42.451171875 30.926513671875 Q 41.81396484375 26.3671875 40.517578125 21.59912109375 Q 40.1220703125 19.92919921875 39.287109375 18.08349609375 Q 38.4521484375 16.23779296875 37.342529296875 14.47998046875 Q 36.23291015625 12.72216796875 35.068359375 11.282958984375 Q 33.90380859375 9.84375 32.87109375 8.98681640625 Q 31.61865234375 7.91015625 29.8388671875 7.261962890625 Q 28.05908203125 6.61376953125 26.38916015625 6.61376953125 Q 24.89501953125 6.61376953125 23.8623046875 7.18505859375 L 21.6650390625 2.28515625 L 18.2373046875 5.8447265625 L 12.6123046875 2.4609375 L 13.07373046875 8.0859375 Q 12.3486328125 8.63525390625 11.31591796875 10.30517578125 L 11.27197265625 10.34912109375 Q 11.00830078125 10.70068359375 10.4150390625 11.3818359375 Q 9.86572265625 12.06298828125 9.47021484375 12.59033203125 Q 9.29443359375 12.98583984375 9.29443359375 13.447265625 Q 9.29443359375 13.95263671875 9.47021484375 14.39208984375 Q 9.42626953125 14.65576171875 8.953857421875 15.677490234375 Q 8.4814453125 16.69921875 7.66845703125 18.34716796875 Q 6.3720703125 20.9619140625 5.64697265625 22.489013671875 Q 4.921875 24.01611328125 4.5263671875 25.20263671875 Q 4.37255859375 25.94970703125 4.37255859375 26.5869140625 M 5.51513671875 26.54296875 Q 5.51513671875 25.90576171875 5.64697265625 25.15869140625 Q 5.99853515625 24.0380859375 6.8115234375 22.32421875 Q 7.62451171875 20.6103515625 8.7890625 18.30322265625 Q 9.68994140625 16.45751953125 10.118408203125 15.53466796875 Q 10.546875 14.61181640625 10.5908203125 14.34814453125 Q 10.458984375 13.95263671875 10.458984375 13.4912109375 Q 10.458984375 12.94189453125 10.5908203125 12.59033203125 Q 11.22802734375 11.953125 11.5576171875 11.513671875 Q 11.88720703125 11.07421875 12.3046875 10.34912109375 Q 13.51318359375 9.0966796875 14.0625 8.32763671875 L 13.73291015625 4.50439453125 L 18.45703125 7.22900390625 L 21.29150390625 4.04296875 L 23.18115234375 8.54736328125 Q 24.5654296875 7.822265625 26.34521484375 7.822265625 Q 27.97119140625 7.822265625 29.542236328125 8.404541015625 Q 31.11328125 8.98681640625 32.27783203125 9.9755859375 Q 33.2666015625 10.78857421875 34.354248046875 12.139892578125 Q 35.44189453125 13.4912109375 36.474609375 15.1611328125 Q 37.50732421875 16.8310546875 38.287353515625 18.577880859375 Q 39.0673828125 20.32470703125 39.44091796875 21.90673828125 Q 40.693359375 26.455078125 41.297607421875 30.706787109375 Q 41.90185546875 34.95849609375 42.099609375 39.638671875 L 16.435546875 39.638671875 Q 16.5234375 38.86962890625 16.76513671875 37.880859375 Q 16.94091796875 37.15576171875 16.94091796875 36.89208984375 Q 17.6220703125 35.7275390625 18.56689453125 34.7607421875 Q 19.51171875 33.7939453125 20.85205078125 32.62939453125 Q 22.060546875 31.552734375 22.2802734375 31.22314453125 Q 23.48876953125 29.11376953125 24.06005859375 26.4111328125 Q 24.63134765625 23.70849609375 24.63134765625 20.6982421875 Q 24.63134765625 20.4345703125 24.58740234375 19.92919921875 L 24.58740234375 19.2041015625 Q 23.5546875 19.75341796875 22.0166015625 20.7861328125 Q 20.390625 21.86279296875 19.51171875 22.17041015625 Q 16.1279296875 23.291015625 13.77685546875 25.90576171875 Q 13.55712890625 26.30126953125 12.8759765625 27.44384765625 Q 12.28271484375 28.388671875 11.97509765625 28.927001953125 Q 11.66748046875 29.46533203125 11.18408203125 30.41015625 Q 10.6787109375 31.35498046875 10.3271484375 31.35498046875 Q 10.1513671875 31.35498046875 9.95361328125 31.09130859375 L 9.95361328125 31.04736328125 Q 9.64599609375 30.322265625 9.60205078125 29.794921875 Q 8.7451171875 29.5751953125 7.66845703125 29.55322265625 Q 5.95458984375 29.33349609375 5.64697265625 27.83935546875 Q 5.51513671875 27.09228515625 5.51513671875 26.54296875 M 6.85546875 26.2353515625 Q 6.85546875 26.54296875 6.9873046875 27.13623046875 Q 7.2509765625 27.09228515625 7.84423828125 26.795654296875 Q 8.4375 26.4990234375 8.8330078125 26.1474609375 Q 9.38232421875 25.83984375 9.60205078125 25.587158203125 Q 9.82177734375 25.33447265625 9.90966796875 24.873046875 Q 9.90966796875 24.8291015625 9.95361328125 24.78515625 L 9.95361328125 24.6533203125 Q 9.95361328125 24.3896484375 9.7119140625 24.071044921875 Q 9.47021484375 23.75244140625 9.140625 23.62060546875 Q 8.45947265625 23.75244140625 7.855224609375 24.290771484375 Q 7.2509765625 24.8291015625 6.9873046875 25.64208984375 Q 6.85546875 25.927734375 6.85546875 26.2353515625 M 11.71142578125 15.75439453125 Q 13.29345703125 15.57861328125 14.4140625 14.94140625 Q 15.53466796875 14.30419921875 16.259765625 13.4033203125 Q 16.76513671875 12.89794921875 16.76513671875 12.15087890625 Q 16.45751953125 11.84326171875 16.0400390625 11.8212890625 Q 15.9521484375 11.8212890625 15.8642578125 11.865234375 L 15.62255859375 11.865234375 Q 14.677734375 12.1728515625 14.227294921875 12.469482421875 Q 13.77685546875 12.76611328125 13.29345703125 13.359375 Q 12.98583984375 13.7548828125 12.777099609375 14.073486328125 Q 12.568359375 14.39208984375 11.9970703125 15.3369140625 L 11.71142578125 15.75439453125 Z Z" fill-rule="even-odd" style="-webkit-tap-highlight-color: rgba(0, 0, 0, 0); fill: rgb(0, 0, 0); stroke-width: 0;"></path></g></svg>