<svg xmlns="http://www.w3.org/2000/svg" version="1.1" id="ludo-svg-node-iy519inu" width="45" height="45" viewBox="0 0 45 45" viewBox="0 0 45 45" style="-webkit-tap-highlight-color: rgba(0, 0, 0, 0); width: 45px; height: 45px;"><g id="ludo-svg-node-iy519inv" style="-webkit-tap-highlight-color: rgba(0, 0, 0, 0);"><path id="ludo-svg-node-iy519iqf" d="M 10.008544921875 37.6171875 Q 10.008544921875 38.60595703125 10.096435546875 39.5947265625 L 23.609619140625 39.5947265625 L 37.100830078125 39.5947265625 Q 37.232666015625 38.60595703125 37.232666015625 37.6171875 Q 37.232666015625 35.5078125 36.73828125 33.59619140625 Q 36.243896484375 31.6845703125 35.5078125 30.16845703125 Q 34.771728515625 28.65234375 34.002685546875 27.6416015625 Q 33.233642578125 26.630859375 32.596435546875 26.103515625 Q 31.343994140625 24.93896484375 30.08056640625 24.2138671875 Q 28.817138671875 23.48876953125 27.652587890625 23.40087890625 Q 29.849853515625 22.67578125 30.772705078125 21.280517578125 Q 31.695556640625 19.88525390625 31.695556640625 17.0947265625 Q 31.695556640625 14.8095703125 29.827880859375 13.095703125 Q 27.960205078125 11.3818359375 25.411376953125 11.25 Q 26.663818359375 10.9423828125 27.22412109375 9.744873046875 Q 27.784423828125 8.54736328125 27.784423828125 7.09716796875 Q 27.740478515625 5.47119140625 26.455078125 4.537353515625 Q 25.169677734375 3.603515625 23.609619140625 3.603515625 Q 22.027587890625 3.603515625 20.7421875 4.54833984375 Q 19.456787109375 5.4931640625 19.412841796875 7.09716796875 Q 19.412841796875 8.54736328125 19.97314453125 9.73388671875 Q 20.533447265625 10.92041015625 21.807861328125 11.25 Q 19.237060546875 11.3818359375 17.369384765625 13.095703125 Q 15.501708984375 14.8095703125 15.501708984375 17.0947265625 Q 15.501708984375 19.88525390625 16.424560546875 21.280517578125 Q 17.347412109375 22.67578125 19.544677734375 23.40087890625 Q 18.380126953125 23.48876953125 17.11669921875 24.202880859375 Q 15.853271484375 24.9169921875 14.600830078125 26.103515625 Q 14.007568359375 26.60888671875 13.2275390625 27.652587890625 Q 12.447509765625 28.6962890625 11.700439453125 30.1904296875 Q 10.953369140625 31.6845703125 10.48095703125 33.59619140625 Q 10.008544921875 35.5078125 10.008544921875 37.6171875 Z" fill="#fff" style="-webkit-tap-highlight-color: rgba(0, 0, 0, 0);"></path><path id="ludo-svg-node-iy519iqg" d="M 10.008544921875 37.6171875 Q 10.008544921875 38.60595703125 10.096435546875 39.5947265625 L 23.609619140625 39.5947265625 L 37.100830078125 39.5947265625 Q 37.232666015625 38.60595703125 37.232666015625 37.6171875 Q 37.232666015625 35.5078125 36.73828125 33.59619140625 Q 36.243896484375 31.6845703125 35.5078125 30.16845703125 Q 34.771728515625 28.65234375 34.002685546875 27.6416015625 Q 33.233642578125 26.630859375 32.596435546875 26.103515625 Q 31.343994140625 24.93896484375 30.08056640625 24.2138671875 Q 28.817138671875 23.48876953125 27.652587890625 23.40087890625 Q 29.849853515625 22.67578125 30.772705078125 21.280517578125 Q 31.695556640625 19.88525390625 31.695556640625 17.0947265625 Q 31.695556640625 14.8095703125 29.827880859375 13.095703125 Q 27.960205078125 11.3818359375 25.411376953125 11.25 Q 26.663818359375 10.9423828125 27.22412109375 9.744873046875 Q 27.784423828125 8.54736328125 27.784423828125 7.09716796875 Q 27.740478515625 5.47119140625 26.455078125 4.537353515625 Q 25.169677734375 3.603515625 23.609619140625 3.603515625 Q 22.027587890625 3.603515625 20.7421875 4.54833984375 Q 19.456787109375 5.4931640625 19.412841796875 7.09716796875 Q 19.412841796875 8.54736328125 19.97314453125 9.73388671875 Q 20.533447265625 10.92041015625 21.807861328125 11.25 Q 19.237060546875 11.3818359375 17.369384765625 13.095703125 Q 15.501708984375 14.8095703125 15.501708984375 17.0947265625 Q 15.501708984375 19.88525390625 16.424560546875 21.280517578125 Q 17.347412109375 22.67578125 19.544677734375 23.40087890625 Q 18.380126953125 23.48876953125 17.11669921875 24.202880859375 Q 15.853271484375 24.9169921875 14.600830078125 26.103515625 Q 14.007568359375 26.60888671875 13.2275390625 27.652587890625 Q 12.447509765625 28.6962890625 11.700439453125 30.1904296875 Q 10.953369140625 31.6845703125 10.48095703125 33.59619140625 Q 10.008544921875 35.5078125 10.008544921875 37.6171875 M 11.085205078125 37.9248046875 L 11.085205078125 37.3095703125 Q 11.085205078125 35.5517578125 11.57958984375 33.81591796875 Q 12.073974609375 32.080078125 12.821044921875 30.640869140625 Q 13.568115234375 29.20166015625 14.315185546875 28.19091796875 Q 15.062255859375 27.18017578125 15.589599609375 26.6748046875 Q 16.446533203125 25.55419921875 17.90771484375 24.8291015625 Q 19.368896484375 24.10400390625 21.170654296875 24.01611328125 Q 21.434326171875 23.97216796875 21.434326171875 23.53271484375 Q 21.434326171875 23.02734375 21.170654296875 22.939453125 Q 18.555908203125 22.03857421875 17.611083984375 20.7861328125 Q 16.666259765625 19.53369140625 16.578369140625 17.0947265625 Q 16.666259765625 15.205078125 18.314208984375 13.699951171875 Q 19.962158203125 12.19482421875 22.576904296875 12.01904296875 Q 22.840576171875 11.79931640625 22.840576171875 11.2939453125 Q 22.840576171875 10.9423828125 22.708740234375 10.83251953125 Q 21.676025390625 10.3271484375 21.082763671875 9.1845703125 Q 20.489501953125 8.0419921875 20.489501953125 7.09716796875 Q 20.577392578125 5.9765625 21.522216796875 5.328369140625 Q 22.467041015625 4.68017578125 23.609619140625 4.68017578125 Q 24.774169921875 4.68017578125 25.697021484375 5.328369140625 Q 26.619873046875 5.9765625 26.707763671875 7.09716796875 Q 26.707763671875 8.0419921875 26.1474609375 9.195556640625 Q 25.587158203125 10.34912109375 24.510498046875 10.83251953125 Q 24.422607421875 10.92041015625 24.422607421875 11.25 Q 24.422607421875 11.84326171875 24.642333984375 12.01904296875 Q 27.257080078125 12.19482421875 28.89404296875 13.699951171875 Q 30.531005859375 15.205078125 30.618896484375 17.0947265625 Q 30.531005859375 19.53369140625 29.608154296875 20.7861328125 Q 28.685302734375 22.03857421875 26.026611328125 22.939453125 Q 25.762939453125 23.02734375 25.762939453125 23.53271484375 Q 25.762939453125 23.97216796875 26.026611328125 24.01611328125 Q 27.828369140625 24.10400390625 29.28955078125 24.8291015625 Q 30.750732421875 25.55419921875 31.607666015625 26.6748046875 Q 32.156982421875 27.18017578125 32.89306640625 28.19091796875 Q 33.629150390625 29.20166015625 34.398193359375 30.640869140625 Q 35.167236328125 32.080078125 35.6396484375 33.81591796875 Q 36.112060546875 35.5517578125 36.112060546875 37.3095703125 L 36.112060546875 37.9248046875 Q 36.068115234375 38.232421875 36.068115234375 38.51806640625 L 23.609619140625 38.51806640625 L 11.129150390625 38.51806640625 Q 11.129150390625 38.232421875 11.085205078125 37.9248046875 Z Z" style="-webkit-tap-highlight-color: rgba(0, 0, 0, 0);"></path><path id="ludo-svg-node-iy519inw" d="M 10.008544921875 37.6171875 Q 10.008544921875 38.60595703125 10.096435546875 39.5947265625 L 23.609619140625 39.5947265625 L 37.100830078125 39.5947265625 Q 37.232666015625 38.60595703125 37.232666015625 37.6171875 Q 37.232666015625 35.5078125 36.73828125 33.59619140625 Q 36.243896484375 31.6845703125 35.5078125 30.16845703125 Q 34.771728515625 28.65234375 34.002685546875 27.6416015625 Q 33.233642578125 26.630859375 32.596435546875 26.103515625 Q 31.343994140625 24.93896484375 30.08056640625 24.2138671875 Q 28.817138671875 23.48876953125 27.652587890625 23.40087890625 Q 29.849853515625 22.67578125 30.772705078125 21.280517578125 Q 31.695556640625 19.88525390625 31.695556640625 17.0947265625 Q 31.695556640625 14.8095703125 29.827880859375 13.095703125 Q 27.960205078125 11.3818359375 25.411376953125 11.25 Q 26.663818359375 10.9423828125 27.22412109375 9.744873046875 Q 27.784423828125 8.54736328125 27.784423828125 7.09716796875 Q 27.740478515625 5.47119140625 26.455078125 4.537353515625 Q 25.169677734375 3.603515625 23.609619140625 3.603515625 Q 22.027587890625 3.603515625 20.7421875 4.54833984375 Q 19.456787109375 5.4931640625 19.412841796875 7.09716796875 Q 19.412841796875 8.54736328125 19.97314453125 9.73388671875 Q 20.533447265625 10.92041015625 21.807861328125 11.25 Q 19.237060546875 11.3818359375 17.369384765625 13.095703125 Q 15.501708984375 14.8095703125 15.501708984375 17.0947265625 Q 15.501708984375 19.88525390625 16.424560546875 21.280517578125 Q 17.347412109375 22.67578125 19.544677734375 23.40087890625 Q 18.380126953125 23.48876953125 17.11669921875 24.202880859375 Q 15.853271484375 24.9169921875 14.600830078125 26.103515625 Q 14.007568359375 26.60888671875 13.2275390625 27.652587890625 Q 12.447509765625 28.6962890625 11.700439453125 30.1904296875 Q 10.953369140625 31.6845703125 10.48095703125 33.59619140625 Q 10.008544921875 35.5078125 10.008544921875 37.6171875 M 11.085205078125 37.9248046875 L 11.085205078125 37.3095703125 Q 11.085205078125 35.5517578125 11.57958984375 33.81591796875 Q 12.073974609375 32.080078125 12.821044921875 30.640869140625 Q 13.568115234375 29.20166015625 14.315185546875 28.19091796875 Q 15.062255859375 27.18017578125 15.589599609375 26.6748046875 Q 16.446533203125 25.55419921875 17.90771484375 24.8291015625 Q 19.368896484375 24.10400390625 21.170654296875 24.01611328125 Q 21.434326171875 23.97216796875 21.434326171875 23.53271484375 Q 21.434326171875 23.02734375 21.170654296875 22.939453125 Q 18.555908203125 22.03857421875 17.611083984375 20.7861328125 Q 16.666259765625 19.53369140625 16.578369140625 17.0947265625 Q 16.666259765625 15.205078125 18.314208984375 13.699951171875 Q 19.962158203125 12.19482421875 22.576904296875 12.01904296875 Q 22.840576171875 11.79931640625 22.840576171875 11.2939453125 Q 22.840576171875 10.9423828125 22.708740234375 10.83251953125 Q 21.676025390625 10.3271484375 21.082763671875 9.1845703125 Q 20.489501953125 8.0419921875 20.489501953125 7.09716796875 Q 20.577392578125 5.9765625 21.522216796875 5.328369140625 Q 22.467041015625 4.68017578125 23.609619140625 4.68017578125 Q 24.774169921875 4.68017578125 25.697021484375 5.328369140625 Q 26.619873046875 5.9765625 26.707763671875 7.09716796875 Q 26.707763671875 8.0419921875 26.1474609375 9.195556640625 Q 25.587158203125 10.34912109375 24.510498046875 10.83251953125 Q 24.422607421875 10.92041015625 24.422607421875 11.25 Q 24.422607421875 11.84326171875 24.642333984375 12.01904296875 Q 27.257080078125 12.19482421875 28.89404296875 13.699951171875 Q 30.531005859375 15.205078125 30.618896484375 17.0947265625 Q 30.531005859375 19.53369140625 29.608154296875 20.7861328125 Q 28.685302734375 22.03857421875 26.026611328125 22.939453125 Q 25.762939453125 23.02734375 25.762939453125 23.53271484375 Q 25.762939453125 23.97216796875 26.026611328125 24.01611328125 Q 27.828369140625 24.10400390625 29.28955078125 24.8291015625 Q 30.750732421875 25.55419921875 31.607666015625 26.6748046875 Q 32.156982421875 27.18017578125 32.89306640625 28.19091796875 Q 33.629150390625 29.20166015625 34.398193359375 30.640869140625 Q 35.167236328125 32.080078125 35.6396484375 33.81591796875 Q 36.112060546875 35.5517578125 36.112060546875 37.3095703125 L 36.112060546875 37.9248046875 Q 36.068115234375 38.232421875 36.068115234375 38.51806640625 L 23.609619140625 38.51806640625 L 11.129150390625 38.51806640625 Q 11.129150390625 38.232421875 11.085205078125 37.9248046875 Z Z" fill-rule="even-odd" style="-webkit-tap-highlight-color: rgba(0, 0, 0, 0); fill: rgb(0, 0, 0); stroke-width: 0;"></path></g></svg>