<svg xmlns="http://www.w3.org/2000/svg" version="1.1" id="ludo-svg-node-iy4xtjrv" width="45" height="45" viewBox="0 0 45 45" style="-webkit-tap-highlight-color: rgba(0, 0, 0, 0); width: 45px; height: 45px;"><g id="ludo-svg-node-iy4xtjrw" style="-webkit-tap-highlight-color: rgba(0, 0, 0, 0);"><path id="ludo-svg-node-iy4xtju8" d="M 33.975 16.560000000000002 L 35.684999999999995 30.285 L 37.53 34.515 L 37.53 43.605 L 9.855 43.605 L 9.855 34.515 L 11.7 30.285 L 13.41 16.560000000000002 L 9.945 9 L 12.105 2.1600000000000037 L 18.18 2.1600000000000037 L 18.18 8.009999999999998 L 20.79 8.009999999999998 L 20.79 2.1600000000000037 L 26.955 2.1600000000000037 L 26.955 8.009999999999998 L 29.52 8.009999999999998 L 29.52 2.1600000000000037 L 35.595 2.1600000000000037 L 37.754999999999995 9 L 33.975 16.560000000000002 Z" fill="#fff" style="-webkit-tap-highlight-color: rgba(0, 0, 0, 0);"></path><path id="ludo-svg-node-iy4xtju9" d="M 11.79 35.685 L 11.79 41.76 L 35.684999999999995 41.76 L 35.684999999999995 35.685 L 11.79 35.685 Z" fill="#fff" style="-webkit-tap-highlight-color: rgba(0, 0, 0, 0);"></path><path id="ludo-svg-node-iy4xtjua" d="M 12.33 33.75 L 35.055 33.75 L 34.065 31.365000000000002 L 13.32 31.365000000000002 L 12.33 33.75 Z" fill="#fff" style="-webkit-tap-highlight-color: rgba(0, 0, 0, 0);"></path><path id="ludo-svg-node-iy4xtjub" d="M 24.884999999999998 20.025000000000002 L 27.81 22.95 L 32.894999999999996 22.95 L 32.22 17.415000000000003 L 15.344999999999999 17.415000000000003 L 14.625 22.95 L 19.485 22.95 L 22.59 20.025000000000002 Q 23.58 18.765 24.884999999999998 20.025000000000002 Z" fill="#fff" style="-webkit-tap-highlight-color: rgba(0, 0, 0, 0);"></path><path id="ludo-svg-node-iy4xtjuc" d="M 19.71 24.885 L 14.399999999999999 24.885 L 13.725 29.655 L 33.66 29.655 L 33.12 24.885 L 27.675 24.885 L 24.884999999999998 27.675 Q 23.58 28.98 22.59 27.675 L 19.71 24.885 Z" fill="#fff" style="-webkit-tap-highlight-color: rgba(0, 0, 0, 0);"></path><path id="ludo-svg-node-iy4xtjud" d="M 11.879999999999999 8.865000000000002 L 15.165 15.57 L 32.445 15.57 L 35.82 8.865000000000002 L 34.29 4.005000000000003 L 31.365 4.005000000000003 L 31.365 9.945 L 25.11 9.945 L 25.11 4.005000000000003 L 22.59 4.005000000000003 L 22.59 9.945 L 16.335 9.945 L 16.335 4.005000000000003 L 13.5 4.005000000000003 L 11.879999999999999 8.865000000000002 Z" fill="#fff" style="-webkit-tap-highlight-color: rgba(0, 0, 0, 0);"></path><path id="ludo-svg-node-iy4xtjue" d="M 33.975 16.560000000000002 L 35.684999999999995 30.285 L 37.53 34.515 L 37.53 43.605 L 9.855 43.605 L 9.855 34.515 L 11.7 30.285 L 13.41 16.560000000000002 L 9.945 9 L 12.105 2.1600000000000037 L 18.18 2.1600000000000037 L 18.18 8.009999999999998 L 20.79 8.009999999999998 L 20.79 2.1600000000000037 L 26.955 2.1600000000000037 L 26.955 8.009999999999998 L 29.52 8.009999999999998 L 29.52 2.1600000000000037 L 35.595 2.1600000000000037 L 37.754999999999995 9 L 33.975 16.560000000000002 M 11.79 35.685 L 11.79 41.76 L 35.684999999999995 41.76 L 35.684999999999995 35.685 L 11.79 35.685 M 12.33 33.75 L 35.055 33.75 L 34.065 31.365000000000002 L 13.32 31.365000000000002 L 12.33 33.75 M 24.884999999999998 20.025000000000002 L 27.81 22.95 L 32.894999999999996 22.95 L 32.22 17.415000000000003 L 15.344999999999999 17.415000000000003 L 14.625 22.95 L 19.485 22.95 L 22.59 20.025000000000002 Q 23.58 18.765 24.884999999999998 20.025000000000002 M 19.71 24.885 L 14.399999999999999 24.885 L 13.725 29.655 L 33.66 29.655 L 33.12 24.885 L 27.675 24.885 L 24.884999999999998 27.675 Q 23.58 28.98 22.59 27.675 L 19.71 24.885 M 11.879999999999999 8.865000000000002 L 15.165 15.57 L 32.445 15.57 L 35.82 8.865000000000002 L 34.29 4.005000000000003 L 31.365 4.005000000000003 L 31.365 9.945 L 25.11 9.945 L 25.11 4.005000000000003 L 22.59 4.005000000000003 L 22.59 9.945 L 16.335 9.945 L 16.335 4.005000000000003 L 13.5 4.005000000000003 L 11.879999999999999 8.865000000000002 M 21.195 23.805 L 23.669999999999998 26.415 L 26.279999999999998 23.805 L 23.669999999999998 21.330000000000002 L 21.195 23.805 Z Z" style="-webkit-tap-highlight-color: rgba(0, 0, 0, 0);"></path><path id="ludo-svg-node-iy4xtjrx" d="M 33.975 16.560000000000002 L 35.684999999999995 30.285 L 37.53 34.515 L 37.53 43.605 L 9.855 43.605 L 9.855 34.515 L 11.7 30.285 L 13.41 16.560000000000002 L 9.945 9 L 12.105 2.1600000000000037 L 18.18 2.1600000000000037 L 18.18 8.009999999999998 L 20.79 8.009999999999998 L 20.79 2.1600000000000037 L 26.955 2.1600000000000037 L 26.955 8.009999999999998 L 29.52 8.009999999999998 L 29.52 2.1600000000000037 L 35.595 2.1600000000000037 L 37.754999999999995 9 L 33.975 16.560000000000002 M 11.79 35.685 L 11.79 41.76 L 35.684999999999995 41.76 L 35.684999999999995 35.685 L 11.79 35.685 M 12.33 33.75 L 35.055 33.75 L 34.065 31.365000000000002 L 13.32 31.365000000000002 L 12.33 33.75 M 24.884999999999998 20.025000000000002 L 27.81 22.95 L 32.894999999999996 22.95 L 32.22 17.415000000000003 L 15.344999999999999 17.415000000000003 L 14.625 22.95 L 19.485 22.95 L 22.59 20.025000000000002 Q 23.58 18.765 24.884999999999998 20.025000000000002 M 19.71 24.885 L 14.399999999999999 24.885 L 13.725 29.655 L 33.66 29.655 L 33.12 24.885 L 27.675 24.885 L 24.884999999999998 27.675 Q 23.58 28.98 22.59 27.675 L 19.71 24.885 M 11.879999999999999 8.865000000000002 L 15.165 15.57 L 32.445 15.57 L 35.82 8.865000000000002 L 34.29 4.005000000000003 L 31.365 4.005000000000003 L 31.365 9.945 L 25.11 9.945 L 25.11 4.005000000000003 L 22.59 4.005000000000003 L 22.59 9.945 L 16.335 9.945 L 16.335 4.005000000000003 L 13.5 4.005000000000003 L 11.879999999999999 8.865000000000002 M 21.195 23.805 L 23.669999999999998 26.415 L 26.279999999999998 23.805 L 23.669999999999998 21.330000000000002 L 21.195 23.805 Z Z" fill-rule="even-odd" style="-webkit-tap-highlight-color: rgba(0, 0, 0, 0); fill: rgb(0, 0, 0); stroke-width: 0;"></path></g></svg>