<svg xmlns="http://www.w3.org/2000/svg" version="1.1" id="ludo-svg-node-iy4wkpvd" width="45" height="45" viewBox="0 0 45 45" style="-webkit-tap-highlight-color: rgba(0, 0, 0, 0); width: 45px; height: 45px;"><g id="ludo-svg-node-iy4wkpve" style="-webkit-tap-highlight-color: rgba(0, 0, 0, 0);"><path id="ludo-svg-node-iy4wkpxl" d="M 22.5 40.49560546875 L 9.7998046875 40.49560546875 L 9.7998046875 38.86962890625 Q 9.7119140625 37.11181640625 10.711669921875 35.859375 Q 11.71142578125 34.60693359375 13.46923828125 33.486328125 Q 16.0400390625 31.48681640625 17.237548828125 28.707275390625 Q 18.43505859375 25.927734375 18.96240234375 22.82958984375 L 12.65625 22.82958984375 L 18.896484375 17.578125 Q 17.0068359375 15.9521484375 17.0068359375 13.447265625 Q 17.0068359375 11.18408203125 18.61083984375 9.55810546875 Q 20.21484375 7.93212890625 22.5 7.93212890625 Q 24.76318359375 7.93212890625 26.378173828125 9.55810546875 Q 27.9931640625 11.18408203125 27.9931640625 13.447265625 Q 27.9931640625 15.9521484375 26.103515625 17.578125 L 32.34375 22.82958984375 L 26.03759765625 22.82958984375 Q 26.54296875 25.927734375 27.75146484375 28.707275390625 Q 28.9599609375 31.48681640625 31.53076171875 33.486328125 Q 33.2666015625 34.60693359375 34.266357421875 35.859375 Q 35.26611328125 37.11181640625 35.2001953125 38.86962890625 L 35.2001953125 40.49560546875 L 22.5 40.49560546875 Z Z" style="-webkit-tap-highlight-color: rgba(0, 0, 0, 0);"></path><path id="ludo-svg-node-iy4wkpvf" d="M 22.5 40.49560546875 L 9.7998046875 40.49560546875 L 9.7998046875 38.86962890625 Q 9.7119140625 37.11181640625 10.711669921875 35.859375 Q 11.71142578125 34.60693359375 13.46923828125 33.486328125 Q 16.0400390625 31.48681640625 17.237548828125 28.707275390625 Q 18.43505859375 25.927734375 18.96240234375 22.82958984375 L 12.65625 22.82958984375 L 18.896484375 17.578125 Q 17.0068359375 15.9521484375 17.0068359375 13.447265625 Q 17.0068359375 11.18408203125 18.61083984375 9.55810546875 Q 20.21484375 7.93212890625 22.5 7.93212890625 Q 24.76318359375 7.93212890625 26.378173828125 9.55810546875 Q 27.9931640625 11.18408203125 27.9931640625 13.447265625 Q 27.9931640625 15.9521484375 26.103515625 17.578125 L 32.34375 22.82958984375 L 26.03759765625 22.82958984375 Q 26.54296875 25.927734375 27.75146484375 28.707275390625 Q 28.9599609375 31.48681640625 31.53076171875 33.486328125 Q 33.2666015625 34.60693359375 34.266357421875 35.859375 Q 35.26611328125 37.11181640625 35.2001953125 38.86962890625 L 35.2001953125 40.49560546875 L 22.5 40.49560546875 Z Z" fill-rule="even-odd" style="-webkit-tap-highlight-color: rgba(0, 0, 0, 0); fill: rgb(0, 0, 0); stroke-width: 0;"></path></g></svg>