<svg xmlns="http://www.w3.org/2000/svg" version="1.1" id="ludo-svg-node-iy4xtjsz" width="45" height="45" viewBox="0 0 45 45" viewBox="0 0 45 45" style="-webkit-tap-highlight-color: rgba(0, 0, 0, 0); width: 45px; height: 45px;"><g id="ludo-svg-node-iy4xtjt0" style="-webkit-tap-highlight-color: rgba(0, 0, 0, 0);"><path id="ludo-svg-node-iy4xtjv7" d="M 15.885 26.415 Q 15.615 26.91 16.02 27.315 Q 16.425 27.72 15.885 28.35 Q 15.389999999999999 29.07 14.0625 30.285 Q 12.735 31.5 11.79 31.905 Q 10.26 32.805 8.64 32.04 Q 7.83 31.634999999999998 6.6375 30.465 Q 5.444999999999999 29.295 4.995 28.575 Q 4.455 27.855 4.59 27.36 Q 4.725 26.865000000000002 4.635 26.19 Q 4.635 25.650000000000002 4.365 25.4025 Q 4.095 25.155 4.635 23.67 Q 5.175 22.32 6.93 19.215 Q 8.685 16.11 9.18 14.625 Q 9.674999999999999 13.275000000000002 9.022499999999999 13.387500000000003 Q 8.37 13.5 8.64 12.780000000000001 Q 8.91 11.969999999999999 9.629999999999999 10.597500000000004 Q 10.35 9.225000000000001 10.934999999999999 8.550000000000004 Q 11.565 7.920000000000002 12.2625 8.032499999999999 Q 12.959999999999999 8.145000000000003 13.5 7.2450000000000045 Q 13.995 6.390000000000001 14.4675 4.590000000000003 Q 14.94 2.789999999999999 15.479999999999999 1.3049999999999997 Q 16.155 2.700000000000003 16.919999999999998 3.960000000000001 Q 17.685 5.219999999999999 18.495 5.535000000000004 Q 20.52 4.770000000000003 23.355 5.175000000000004 Q 27.404999999999998 5.715000000000003 29.34 6.772500000000001 Q 31.275 7.829999999999998 33.975 11.160000000000004 Q 35.01 12.465000000000003 35.64 13.927500000000002 Q 36.269999999999996 15.39 36.765 17.1 Q 37.26 18.810000000000002 37.5525 21.015 Q 37.845 23.220000000000002 37.98 24.975 Q 37.98 26.865000000000002 37.8675 28.462500000000002 Q 37.754999999999995 30.060000000000002 37.845 31.68 Q 37.845 33.3 37.845 34.3125 Q 37.845 35.325 38.205 36.99 Q 38.43 38.385 39.105 40.095 Q 39.78 41.805 40.365 43.47 L 12.105 43.47 Q 11.52 42.3 11.7 40.905 Q 11.7 40.005 11.924999999999999 38.7 Q 12.15 37.395 12.645 36.225 Q 13.049999999999999 35.19 13.725 34.2225 Q 14.399999999999999 33.255 15.165 32.355000000000004 Q 16.605 30.105 17.865 28.755 Q 18.945 27.54 20.2275 26.4375 Q 21.509999999999998 25.335 22.59 24.03 Q 23.49 22.725 23.805 21.645 Q 24.029999999999998 20.925 23.759999999999998 19.6875 Q 23.49 18.45 23.265 18.495 Q 23.085 18.585 22.544999999999998 20.16 Q 22.005 21.735 21.509999999999998 22.275000000000002 Q 21.015 23.04 20.4525 23.3325 Q 19.89 23.625 19.485 23.895 Q 18.945 24.165 18.6525 24.165 Q 18.36 24.165 17.955 24.435000000000002 Q 17.46 24.795 16.8075 25.3575 Q 16.155 25.92 15.885 26.415 Z" fill="#fff" style="-webkit-tap-highlight-color: rgba(0, 0, 0, 0);"></path><path id="ludo-svg-node-iy4xtjv8" d="M 14.264999999999999 37.845 Q 15.389999999999999 38.115 17.752499999999998 38.0925 Q 20.115 38.07 20.88 38.07 L 20.97 35.82 Q 20.294999999999998 35.82 18.2025 35.730000000000004 Q 16.11 35.64 15.165 35.46 L 14.264999999999999 37.845 Z" fill="#fff" style="-webkit-tap-highlight-color: rgba(0, 0, 0, 0);"></path><path id="ludo-svg-node-iy4xtjv9" d="M 29.43 38.205 Q 30.869999999999997 38.115 32.8725 37.935 Q 34.875 37.755 36.36 37.665 L 35.91 35.370000000000005 Q 34.695 35.64 32.355 35.7525 Q 30.015 35.865 29.294999999999998 35.91 L 29.43 38.205 Z" fill="#fff" style="-webkit-tap-highlight-color: rgba(0, 0, 0, 0);"></path><path id="ludo-svg-node-iy4xtjva" d="M 25.11 34.605000000000004 L 22.724999999999998 36.99 L 25.11 39.465 L 27.494999999999997 36.99 L 25.11 34.605000000000004 Z" fill="#fff" style="-webkit-tap-highlight-color: rgba(0, 0, 0, 0);"></path><path id="ludo-svg-node-iy4xtjvb" d="M 14.399999999999999 14.715 Q 13.86 14.625 12.645 14.625 Q 12.33 14.625 12.0375 14.985 Q 11.745 15.345000000000002 11.7 15.57 Q 11.7 15.75 11.7225 16.200000000000003 Q 11.745 16.650000000000002 12.014999999999999 16.875 Q 12.105 16.965 12.959999999999999 16.965 Q 13.229999999999999 16.92 13.635 16.7175 Q 14.04 16.515 14.399999999999999 16.335 Q 15.344999999999999 15.84 15.344999999999999 15.48 Q 15.434999999999999 14.985 15.1425 14.940000000000001 Q 14.85 14.895 14.399999999999999 14.715 Z" fill="#fff" style="-webkit-tap-highlight-color: rgba(0, 0, 0, 0);"></path><path id="ludo-svg-node-iy4xtjvc" d="M 5.85 24.345000000000002 Q 6.614999999999999 25.11 6.614999999999999 25.965 Q 6.66 26.145 6.5249999999999995 26.8425 Q 6.39 27.54 6.39 27.585 Q 6.5249999999999995 27.765 7.3575 26.82 Q 8.19 25.875 8.1 25.515 Q 8.1 25.245 7.199999999999999 24.75 Q 6.3 24.255 5.85 24.345000000000002 Z" fill="#fff" style="-webkit-tap-highlight-color: rgba(0, 0, 0, 0);"></path><path id="ludo-svg-node-iy4xtjvd" d="M 15.885 26.415 Q 15.615 26.91 16.02 27.315 Q 16.425 27.72 15.885 28.35 Q 15.389999999999999 29.07 14.0625 30.285 Q 12.735 31.5 11.79 31.905 Q 10.26 32.805 8.64 32.04 Q 7.83 31.634999999999998 6.6375 30.465 Q 5.444999999999999 29.295 4.995 28.575 Q 4.455 27.855 4.59 27.36 Q 4.725 26.865000000000002 4.635 26.19 Q 4.635 25.650000000000002 4.365 25.4025 Q 4.095 25.155 4.635 23.67 Q 5.175 22.32 6.93 19.215 Q 8.685 16.11 9.18 14.625 Q 9.674999999999999 13.275000000000002 9.022499999999999 13.387500000000003 Q 8.37 13.5 8.64 12.780000000000001 Q 8.91 11.969999999999999 9.629999999999999 10.597500000000004 Q 10.35 9.225000000000001 10.934999999999999 8.550000000000004 Q 11.565 7.920000000000002 12.2625 8.032499999999999 Q 12.959999999999999 8.145000000000003 13.5 7.2450000000000045 Q 13.995 6.390000000000001 14.4675 4.590000000000003 Q 14.94 2.789999999999999 15.479999999999999 1.3049999999999997 Q 16.155 2.700000000000003 16.919999999999998 3.960000000000001 Q 17.685 5.219999999999999 18.495 5.535000000000004 Q 20.52 4.770000000000003 23.355 5.175000000000004 Q 27.404999999999998 5.715000000000003 29.34 6.772500000000001 Q 31.275 7.829999999999998 33.975 11.160000000000004 Q 35.01 12.465000000000003 35.64 13.927500000000002 Q 36.269999999999996 15.39 36.765 17.1 Q 37.26 18.810000000000002 37.5525 21.015 Q 37.845 23.220000000000002 37.98 24.975 Q 37.98 26.865000000000002 37.8675 28.462500000000002 Q 37.754999999999995 30.060000000000002 37.845 31.68 Q 37.845 33.3 37.845 34.3125 Q 37.845 35.325 38.205 36.99 Q 38.43 38.385 39.105 40.095 Q 39.78 41.805 40.365 43.47 L 12.105 43.47 Q 11.52 42.3 11.7 40.905 Q 11.7 40.005 11.924999999999999 38.7 Q 12.15 37.395 12.645 36.225 Q 13.049999999999999 35.19 13.725 34.2225 Q 14.399999999999999 33.255 15.165 32.355000000000004 Q 16.605 30.105 17.865 28.755 Q 18.945 27.54 20.2275 26.4375 Q 21.509999999999998 25.335 22.59 24.03 Q 23.49 22.725 23.805 21.645 Q 24.029999999999998 20.925 23.759999999999998 19.6875 Q 23.49 18.45 23.265 18.495 Q 23.085 18.585 22.544999999999998 20.16 Q 22.005 21.735 21.509999999999998 22.275000000000002 Q 21.015 23.04 20.4525 23.3325 Q 19.89 23.625 19.485 23.895 Q 18.945 24.165 18.6525 24.165 Q 18.36 24.165 17.955 24.435000000000002 Q 17.46 24.795 16.8075 25.3575 Q 16.155 25.92 15.885 26.415 M 14.264999999999999 37.845 Q 15.389999999999999 38.115 17.752499999999998 38.0925 Q 20.115 38.07 20.88 38.07 L 20.97 35.82 Q 20.294999999999998 35.82 18.2025 35.730000000000004 Q 16.11 35.64 15.165 35.46 L 14.264999999999999 37.845 M 29.43 38.205 Q 30.869999999999997 38.115 32.8725 37.935 Q 34.875 37.755 36.36 37.665 L 35.91 35.370000000000005 Q 34.695 35.64 32.355 35.7525 Q 30.015 35.865 29.294999999999998 35.91 L 29.43 38.205 M 25.11 34.605000000000004 L 22.724999999999998 36.99 L 25.11 39.465 L 27.494999999999997 36.99 L 25.11 34.605000000000004 M 14.399999999999999 14.715 Q 13.86 14.625 12.645 14.625 Q 12.33 14.625 12.0375 14.985 Q 11.745 15.345000000000002 11.7 15.57 Q 11.7 15.75 11.7225 16.200000000000003 Q 11.745 16.650000000000002 12.014999999999999 16.875 Q 12.105 16.965 12.959999999999999 16.965 Q 13.229999999999999 16.92 13.635 16.7175 Q 14.04 16.515 14.399999999999999 16.335 Q 15.344999999999999 15.84 15.344999999999999 15.48 Q 15.434999999999999 14.985 15.1425 14.940000000000001 Q 14.85 14.895 14.399999999999999 14.715 M 5.85 24.345000000000002 Q 6.614999999999999 25.11 6.614999999999999 25.965 Q 6.66 26.145 6.5249999999999995 26.8425 Q 6.39 27.54 6.39 27.585 Q 6.5249999999999995 27.765 7.3575 26.82 Q 8.19 25.875 8.1 25.515 Q 8.1 25.245 7.199999999999999 24.75 Q 6.3 24.255 5.85 24.345000000000002 M 19.349999999999998 6.704999999999998 Q 22.05 7.109999999999999 24.974999999999998 7.897500000000001 Q 27.9 8.685000000000002 29.834999999999997 10.620000000000005 Q 31.59 12.645000000000003 32.22 13.567500000000003 Q 32.85 14.490000000000002 33.66 16.335 Q 34.29 18.45 34.6275 20.79 Q 34.964999999999996 23.130000000000003 35.144999999999996 25.2 Q 35.28 26.955000000000002 35.28 28.642500000000002 Q 35.28 30.33 36.36 33.435 Q 36.225 31.14 36.3825 29.1825 Q 36.54 27.225 36.449999999999996 25.11 Q 36.36 22.77 35.865 19.845000000000002 Q 35.37 16.92 34.83 15.57 Q 34.155 13.905000000000001 33.0525 12.465000000000003 Q 31.95 11.024999999999999 30.599999999999998 9.54 Q 29.384999999999998 8.235 27.945 7.627500000000005 Q 26.505 7.020000000000003 24.21 6.615000000000002 Q 22.68 6.300000000000004 21.6675 6.480000000000004 Q 20.654999999999998 6.660000000000004 19.349999999999998 6.704999999999998 Z Z" style="-webkit-tap-highlight-color: rgba(0, 0, 0, 0);"></path><path id="ludo-svg-node-iy4xtjt1" d="M 15.885 26.415 Q 15.615 26.91 16.02 27.315 Q 16.425 27.72 15.885 28.35 Q 15.389999999999999 29.07 14.0625 30.285 Q 12.735 31.5 11.79 31.905 Q 10.26 32.805 8.64 32.04 Q 7.83 31.634999999999998 6.6375 30.465 Q 5.444999999999999 29.295 4.995 28.575 Q 4.455 27.855 4.59 27.36 Q 4.725 26.865000000000002 4.635 26.19 Q 4.635 25.650000000000002 4.365 25.4025 Q 4.095 25.155 4.635 23.67 Q 5.175 22.32 6.93 19.215 Q 8.685 16.11 9.18 14.625 Q 9.674999999999999 13.275000000000002 9.022499999999999 13.387500000000003 Q 8.37 13.5 8.64 12.780000000000001 Q 8.91 11.969999999999999 9.629999999999999 10.597500000000004 Q 10.35 9.225000000000001 10.934999999999999 8.550000000000004 Q 11.565 7.920000000000002 12.2625 8.032499999999999 Q 12.959999999999999 8.145000000000003 13.5 7.2450000000000045 Q 13.995 6.390000000000001 14.4675 4.590000000000003 Q 14.94 2.789999999999999 15.479999999999999 1.3049999999999997 Q 16.155 2.700000000000003 16.919999999999998 3.960000000000001 Q 17.685 5.219999999999999 18.495 5.535000000000004 Q 20.52 4.770000000000003 23.355 5.175000000000004 Q 27.404999999999998 5.715000000000003 29.34 6.772500000000001 Q 31.275 7.829999999999998 33.975 11.160000000000004 Q 35.01 12.465000000000003 35.64 13.927500000000002 Q 36.269999999999996 15.39 36.765 17.1 Q 37.26 18.810000000000002 37.5525 21.015 Q 37.845 23.220000000000002 37.98 24.975 Q 37.98 26.865000000000002 37.8675 28.462500000000002 Q 37.754999999999995 30.060000000000002 37.845 31.68 Q 37.845 33.3 37.845 34.3125 Q 37.845 35.325 38.205 36.99 Q 38.43 38.385 39.105 40.095 Q 39.78 41.805 40.365 43.47 L 12.105 43.47 Q 11.52 42.3 11.7 40.905 Q 11.7 40.005 11.924999999999999 38.7 Q 12.15 37.395 12.645 36.225 Q 13.049999999999999 35.19 13.725 34.2225 Q 14.399999999999999 33.255 15.165 32.355000000000004 Q 16.605 30.105 17.865 28.755 Q 18.945 27.54 20.2275 26.4375 Q 21.509999999999998 25.335 22.59 24.03 Q 23.49 22.725 23.805 21.645 Q 24.029999999999998 20.925 23.759999999999998 19.6875 Q 23.49 18.45 23.265 18.495 Q 23.085 18.585 22.544999999999998 20.16 Q 22.005 21.735 21.509999999999998 22.275000000000002 Q 21.015 23.04 20.4525 23.3325 Q 19.89 23.625 19.485 23.895 Q 18.945 24.165 18.6525 24.165 Q 18.36 24.165 17.955 24.435000000000002 Q 17.46 24.795 16.8075 25.3575 Q 16.155 25.92 15.885 26.415 M 14.264999999999999 37.845 Q 15.389999999999999 38.115 17.752499999999998 38.0925 Q 20.115 38.07 20.88 38.07 L 20.97 35.82 Q 20.294999999999998 35.82 18.2025 35.730000000000004 Q 16.11 35.64 15.165 35.46 L 14.264999999999999 37.845 M 29.43 38.205 Q 30.869999999999997 38.115 32.8725 37.935 Q 34.875 37.755 36.36 37.665 L 35.91 35.370000000000005 Q 34.695 35.64 32.355 35.7525 Q 30.015 35.865 29.294999999999998 35.91 L 29.43 38.205 M 25.11 34.605000000000004 L 22.724999999999998 36.99 L 25.11 39.465 L 27.494999999999997 36.99 L 25.11 34.605000000000004 M 14.399999999999999 14.715 Q 13.86 14.625 12.645 14.625 Q 12.33 14.625 12.0375 14.985 Q 11.745 15.345000000000002 11.7 15.57 Q 11.7 15.75 11.7225 16.200000000000003 Q 11.745 16.650000000000002 12.014999999999999 16.875 Q 12.105 16.965 12.959999999999999 16.965 Q 13.229999999999999 16.92 13.635 16.7175 Q 14.04 16.515 14.399999999999999 16.335 Q 15.344999999999999 15.84 15.344999999999999 15.48 Q 15.434999999999999 14.985 15.1425 14.940000000000001 Q 14.85 14.895 14.399999999999999 14.715 M 5.85 24.345000000000002 Q 6.614999999999999 25.11 6.614999999999999 25.965 Q 6.66 26.145 6.5249999999999995 26.8425 Q 6.39 27.54 6.39 27.585 Q 6.5249999999999995 27.765 7.3575 26.82 Q 8.19 25.875 8.1 25.515 Q 8.1 25.245 7.199999999999999 24.75 Q 6.3 24.255 5.85 24.345000000000002 M 19.349999999999998 6.704999999999998 Q 22.05 7.109999999999999 24.974999999999998 7.897500000000001 Q 27.9 8.685000000000002 29.834999999999997 10.620000000000005 Q 31.59 12.645000000000003 32.22 13.567500000000003 Q 32.85 14.490000000000002 33.66 16.335 Q 34.29 18.45 34.6275 20.79 Q 34.964999999999996 23.130000000000003 35.144999999999996 25.2 Q 35.28 26.955000000000002 35.28 28.642500000000002 Q 35.28 30.33 36.36 33.435 Q 36.225 31.14 36.3825 29.1825 Q 36.54 27.225 36.449999999999996 25.11 Q 36.36 22.77 35.865 19.845000000000002 Q 35.37 16.92 34.83 15.57 Q 34.155 13.905000000000001 33.0525 12.465000000000003 Q 31.95 11.024999999999999 30.599999999999998 9.54 Q 29.384999999999998 8.235 27.945 7.627500000000005 Q 26.505 7.020000000000003 24.21 6.615000000000002 Q 22.68 6.300000000000004 21.6675 6.480000000000004 Q 20.654999999999998 6.660000000000004 19.349999999999998 6.704999999999998 Z Z" fill-rule="even-odd" style="-webkit-tap-highlight-color: rgba(0, 0, 0, 0); fill: rgb(0, 0, 0); stroke-width: 0;"></path></g></svg>