<svg xmlns="http://www.w3.org/2000/svg" version="1.1" id="ludo-svg-node-iy4wkpw9" width="45" height="45" viewBox="0 0 45 45" style="-webkit-tap-highlight-color: rgba(0, 0, 0, 0); width: 45px; height: 45px;"><g id="ludo-svg-node-iy4wkpwa" style="-webkit-tap-highlight-color: rgba(0, 0, 0, 0);"><path id="ludo-svg-node-iy4wkpxx" d="M 12.9638671875 33.37646484375 Q 13.0517578125 34.95849609375 12.63427734375 36.84814453125 L 15.57861328125 34.95849609375 L 12.9638671875 33.37646484375 Z" fill="#FFF" style="-webkit-tap-highlight-color: rgba(0, 0, 0, 0);"></path><path id="ludo-svg-node-iy4wkpxy" d="M 22.5 40.49560546875 L 9.68994140625 40.49560546875 Q 12.19482421875 35.419921875 10.953369140625 30.465087890625 Q 9.7119140625 25.51025390625 6.50390625 20.58837890625 Q 6.240234375 20.63232421875 6.08642578125 20.63232421875 Q 4.89990234375 20.63232421875 4.053955078125 19.786376953125 Q 3.2080078125 18.9404296875 3.2080078125 17.75390625 Q 3.2080078125 16.5673828125 4.053955078125 15.721435546875 Q 4.89990234375 14.87548828125 6.08642578125 14.87548828125 Q 7.27294921875 14.87548828125 8.118896484375 15.721435546875 Q 8.96484375 16.5673828125 8.96484375 17.75390625 Q 8.96484375 18.193359375 8.8330078125 18.5888671875 Q 8.7451171875 18.896484375 8.50341796875 19.31396484375 L 12.81005859375 22.3681640625 L 15.00732421875 11.689453125 Q 13.60107421875 11.00830078125 13.42529296875 9.42626953125 Q 13.3154296875 8.45947265625 14.0625 7.4267578125 Q 14.8095703125 6.39404296875 15.99609375 6.26220703125 Q 17.1826171875 6.15234375 18.10546875 6.8994140625 Q 19.0283203125 7.646484375 19.16015625 8.8330078125 Q 19.31396484375 10.3271484375 18.1494140625 11.337890625 L 22.5 20.390625 L 26.8505859375 11.337890625 Q 25.6640625 10.3271484375 25.83984375 8.8330078125 Q 25.9716796875 7.646484375 26.89453125 6.8994140625 Q 27.8173828125 6.15234375 29.00390625 6.26220703125 Q 30.1904296875 6.39404296875 30.926513671875 7.4267578125 Q 31.66259765625 8.45947265625 31.57470703125 9.42626953125 Q 31.376953125 11.00830078125 29.99267578125 11.689453125 L 32.18994140625 22.3681640625 L 36.49658203125 19.31396484375 Q 36.23291015625 18.896484375 36.1669921875 18.5888671875 Q 36.03515625 18.193359375 36.03515625 17.75390625 Q 36.03515625 16.5673828125 36.881103515625 15.721435546875 Q 37.72705078125 14.87548828125 38.91357421875 14.87548828125 Q 40.10009765625 14.87548828125 40.946044921875 15.721435546875 Q 41.7919921875 16.5673828125 41.7919921875 17.75390625 Q 41.7919921875 18.9404296875 40.946044921875 19.786376953125 Q 40.10009765625 20.63232421875 38.91357421875 20.63232421875 Q 38.759765625 20.63232421875 38.49609375 20.58837890625 Q 35.26611328125 25.51025390625 34.03564453125 30.465087890625 Q 32.80517578125 35.419921875 35.31005859375 40.49560546875 L 22.5 40.49560546875 Z" fill="#FFF" style="-webkit-tap-highlight-color: rgba(0, 0, 0, 0);"></path><path id="ludo-svg-node-iy4wkpxz" d="M 22.5 30.60791015625 Q 24.89501953125 30.60791015625 27.3779296875 31.234130859375 Q 29.86083984375 31.8603515625 32.05810546875 32.71728515625 Q 32.10205078125 31.81640625 32.2998046875 30.76171875 Q 29.9267578125 29.8388671875 27.432861328125 29.267578125 Q 24.93896484375 28.6962890625 22.5 28.6962890625 Q 20.06103515625 28.6962890625 17.55615234375 29.267578125 Q 15.05126953125 29.8388671875 12.7001953125 30.76171875 Q 12.8759765625 31.81640625 12.94189453125 32.71728515625 Q 15.1171875 31.8603515625 17.60009765625 31.234130859375 Q 20.0830078125 30.60791015625 22.5 30.60791015625 Z" fill="#FFF" style="-webkit-tap-highlight-color: rgba(0, 0, 0, 0);"></path><path id="ludo-svg-node-iy4wkpy0" d="M 22.5 38.86962890625 L 33.0029296875 38.86962890625 Q 32.67333984375 38.12255859375 32.4755859375 37.265625 L 22.5 37.265625 L 12.5244140625 37.265625 Q 12.3046875 38.12255859375 11.9970703125 38.86962890625 L 22.5 38.86962890625 Z" fill="#FFF" style="-webkit-tap-highlight-color: rgba(0, 0, 0, 0);"></path><path id="ludo-svg-node-iy4wkpy1" d="M 32.0361328125 33.37646484375 L 29.42138671875 34.95849609375 L 32.36572265625 36.84814453125 Q 31.92626953125 34.95849609375 32.0361328125 33.37646484375 Z" fill="#FFF" style="-webkit-tap-highlight-color: rgba(0, 0, 0, 0);"></path><path id="ludo-svg-node-iy4wkpy2" d="M 12.9638671875 33.37646484375 Q 13.0517578125 34.95849609375 12.63427734375 36.84814453125 L 15.57861328125 34.95849609375 L 12.9638671875 33.37646484375 M 22.5 40.49560546875 L 9.68994140625 40.49560546875 Q 12.19482421875 35.419921875 10.953369140625 30.465087890625 Q 9.7119140625 25.51025390625 6.50390625 20.58837890625 Q 6.240234375 20.63232421875 6.08642578125 20.63232421875 Q 4.89990234375 20.63232421875 4.053955078125 19.786376953125 Q 3.2080078125 18.9404296875 3.2080078125 17.75390625 Q 3.2080078125 16.5673828125 4.053955078125 15.721435546875 Q 4.89990234375 14.87548828125 6.08642578125 14.87548828125 Q 7.27294921875 14.87548828125 8.118896484375 15.721435546875 Q 8.96484375 16.5673828125 8.96484375 17.75390625 Q 8.96484375 18.193359375 8.8330078125 18.5888671875 Q 8.7451171875 18.896484375 8.50341796875 19.31396484375 L 12.81005859375 22.3681640625 L 15.00732421875 11.689453125 Q 13.60107421875 11.00830078125 13.42529296875 9.42626953125 Q 13.3154296875 8.45947265625 14.0625 7.4267578125 Q 14.8095703125 6.39404296875 15.99609375 6.26220703125 Q 17.1826171875 6.15234375 18.10546875 6.8994140625 Q 19.0283203125 7.646484375 19.16015625 8.8330078125 Q 19.31396484375 10.3271484375 18.1494140625 11.337890625 L 22.5 20.390625 L 26.8505859375 11.337890625 Q 25.6640625 10.3271484375 25.83984375 8.8330078125 Q 25.9716796875 7.646484375 26.89453125 6.8994140625 Q 27.8173828125 6.15234375 29.00390625 6.26220703125 Q 30.1904296875 6.39404296875 30.926513671875 7.4267578125 Q 31.66259765625 8.45947265625 31.57470703125 9.42626953125 Q 31.376953125 11.00830078125 29.99267578125 11.689453125 L 32.18994140625 22.3681640625 L 36.49658203125 19.31396484375 Q 36.23291015625 18.896484375 36.1669921875 18.5888671875 Q 36.03515625 18.193359375 36.03515625 17.75390625 Q 36.03515625 16.5673828125 36.881103515625 15.721435546875 Q 37.72705078125 14.87548828125 38.91357421875 14.87548828125 Q 40.10009765625 14.87548828125 40.946044921875 15.721435546875 Q 41.7919921875 16.5673828125 41.7919921875 17.75390625 Q 41.7919921875 18.9404296875 40.946044921875 19.786376953125 Q 40.10009765625 20.63232421875 38.91357421875 20.63232421875 Q 38.759765625 20.63232421875 38.49609375 20.58837890625 Q 35.26611328125 25.51025390625 34.03564453125 30.465087890625 Q 32.80517578125 35.419921875 35.31005859375 40.49560546875 L 22.5 40.49560546875 M 22.5 30.60791015625 Q 24.89501953125 30.60791015625 27.3779296875 31.234130859375 Q 29.86083984375 31.8603515625 32.05810546875 32.71728515625 Q 32.10205078125 31.81640625 32.2998046875 30.76171875 Q 29.9267578125 29.8388671875 27.432861328125 29.267578125 Q 24.93896484375 28.6962890625 22.5 28.6962890625 Q 20.06103515625 28.6962890625 17.55615234375 29.267578125 Q 15.05126953125 29.8388671875 12.7001953125 30.76171875 Q 12.8759765625 31.81640625 12.94189453125 32.71728515625 Q 15.1171875 31.8603515625 17.60009765625 31.234130859375 Q 20.0830078125 30.60791015625 22.5 30.60791015625 M 22.5 38.86962890625 L 33.0029296875 38.86962890625 Q 32.67333984375 38.12255859375 32.4755859375 37.265625 L 22.5 37.265625 L 12.5244140625 37.265625 Q 12.3046875 38.12255859375 11.9970703125 38.86962890625 L 22.5 38.86962890625 M 32.0361328125 33.37646484375 L 29.42138671875 34.95849609375 L 32.36572265625 36.84814453125 Q 31.92626953125 34.95849609375 32.0361328125 33.37646484375 M 19.44580078125 34.4091796875 L 22.5 36.32080078125 L 25.55419921875 34.47509765625 L 22.5 32.58544921875 L 19.44580078125 34.4091796875 Z Z" style="-webkit-tap-highlight-color: rgba(0, 0, 0, 0);"></path><path id="ludo-svg-node-iy4wkpwb" d="M 12.9638671875 33.37646484375 Q 13.0517578125 34.95849609375 12.63427734375 36.84814453125 L 15.57861328125 34.95849609375 L 12.9638671875 33.37646484375 M 22.5 40.49560546875 L 9.68994140625 40.49560546875 Q 12.19482421875 35.419921875 10.953369140625 30.465087890625 Q 9.7119140625 25.51025390625 6.50390625 20.58837890625 Q 6.240234375 20.63232421875 6.08642578125 20.63232421875 Q 4.89990234375 20.63232421875 4.053955078125 19.786376953125 Q 3.2080078125 18.9404296875 3.2080078125 17.75390625 Q 3.2080078125 16.5673828125 4.053955078125 15.721435546875 Q 4.89990234375 14.87548828125 6.08642578125 14.87548828125 Q 7.27294921875 14.87548828125 8.118896484375 15.721435546875 Q 8.96484375 16.5673828125 8.96484375 17.75390625 Q 8.96484375 18.193359375 8.8330078125 18.5888671875 Q 8.7451171875 18.896484375 8.50341796875 19.31396484375 L 12.81005859375 22.3681640625 L 15.00732421875 11.689453125 Q 13.60107421875 11.00830078125 13.42529296875 9.42626953125 Q 13.3154296875 8.45947265625 14.0625 7.4267578125 Q 14.8095703125 6.39404296875 15.99609375 6.26220703125 Q 17.1826171875 6.15234375 18.10546875 6.8994140625 Q 19.0283203125 7.646484375 19.16015625 8.8330078125 Q 19.31396484375 10.3271484375 18.1494140625 11.337890625 L 22.5 20.390625 L 26.8505859375 11.337890625 Q 25.6640625 10.3271484375 25.83984375 8.8330078125 Q 25.9716796875 7.646484375 26.89453125 6.8994140625 Q 27.8173828125 6.15234375 29.00390625 6.26220703125 Q 30.1904296875 6.39404296875 30.926513671875 7.4267578125 Q 31.66259765625 8.45947265625 31.57470703125 9.42626953125 Q 31.376953125 11.00830078125 29.99267578125 11.689453125 L 32.18994140625 22.3681640625 L 36.49658203125 19.31396484375 Q 36.23291015625 18.896484375 36.1669921875 18.5888671875 Q 36.03515625 18.193359375 36.03515625 17.75390625 Q 36.03515625 16.5673828125 36.881103515625 15.721435546875 Q 37.72705078125 14.87548828125 38.91357421875 14.87548828125 Q 40.10009765625 14.87548828125 40.946044921875 15.721435546875 Q 41.7919921875 16.5673828125 41.7919921875 17.75390625 Q 41.7919921875 18.9404296875 40.946044921875 19.786376953125 Q 40.10009765625 20.63232421875 38.91357421875 20.63232421875 Q 38.759765625 20.63232421875 38.49609375 20.58837890625 Q 35.26611328125 25.51025390625 34.03564453125 30.465087890625 Q 32.80517578125 35.419921875 35.31005859375 40.49560546875 L 22.5 40.49560546875 M 22.5 30.60791015625 Q 24.89501953125 30.60791015625 27.3779296875 31.234130859375 Q 29.86083984375 31.8603515625 32.05810546875 32.71728515625 Q 32.10205078125 31.81640625 32.2998046875 30.76171875 Q 29.9267578125 29.8388671875 27.432861328125 29.267578125 Q 24.93896484375 28.6962890625 22.5 28.6962890625 Q 20.06103515625 28.6962890625 17.55615234375 29.267578125 Q 15.05126953125 29.8388671875 12.7001953125 30.76171875 Q 12.8759765625 31.81640625 12.94189453125 32.71728515625 Q 15.1171875 31.8603515625 17.60009765625 31.234130859375 Q 20.0830078125 30.60791015625 22.5 30.60791015625 M 22.5 38.86962890625 L 33.0029296875 38.86962890625 Q 32.67333984375 38.12255859375 32.4755859375 37.265625 L 22.5 37.265625 L 12.5244140625 37.265625 Q 12.3046875 38.12255859375 11.9970703125 38.86962890625 L 22.5 38.86962890625 M 32.0361328125 33.37646484375 L 29.42138671875 34.95849609375 L 32.36572265625 36.84814453125 Q 31.92626953125 34.95849609375 32.0361328125 33.37646484375 M 19.44580078125 34.4091796875 L 22.5 36.32080078125 L 25.55419921875 34.47509765625 L 22.5 32.58544921875 L 19.44580078125 34.4091796875 Z Z" fill-rule="even-odd" style="-webkit-tap-highlight-color: rgba(0, 0, 0, 0); fill: rgb(0, 0, 0); stroke-width: 0;"></path></g></svg>