<svg xmlns="http://www.w3.org/2000/svg" version="1.1" id="ludo-svg-node-iy51mzk8" width="45" height="45" viewBox="0 0 45 45" style="-webkit-tap-highlight-color: rgba(0, 0, 0, 0); width: 45px; height: 45px;"><g id="ludo-svg-node-iy51mzk9" style="-webkit-tap-highlight-color: rgba(0, 0, 0, 0);"><path id="ludo-svg-node-iy51mzmt" d="M 23.983154296875 38.2763671875 L 34.771728515625 38.2763671875 Q 35.233154296875 36.80419921875 35.233154296875 35.15625 Q 35.233154296875 31.728515625 33.33251953125 28.948974609375 Q 31.431884765625 26.16943359375 28.465576171875 24.85107421875 Q 26.993408203125 24.697265625 26.993408203125 23.2470703125 Q 26.993408203125 22.08251953125 28.465576171875 21.55517578125 Q 30.509033203125 20.0830078125 30.509033203125 17.77587890625 Q 30.509033203125 16.06201171875 29.366455078125 14.798583984375 Q 28.223876953125 13.53515625 26.597900390625 13.3154296875 Q 25.301513671875 13.20556640625 25.301513671875 11.84326171875 Q 25.301513671875 11.18408203125 25.784912109375 10.70068359375 Q 26.971435546875 9.7119140625 26.971435546875 8.26171875 Q 26.971435546875 7.05322265625 26.092529296875 6.17431640625 Q 25.213623046875 5.29541015625 23.983154296875 5.29541015625 Q 22.752685546875 5.29541015625 21.884765625 6.17431640625 Q 21.016845703125 7.05322265625 21.016845703125 8.26171875 Q 21.016845703125 9.73388671875 22.203369140625 10.70068359375 Q 22.686767578125 11.22802734375 22.686767578125 11.84326171875 Q 22.686767578125 13.20556640625 21.368408203125 13.3154296875 Q 19.720458984375 13.53515625 18.5888671875 14.798583984375 Q 17.457275390625 16.06201171875 17.457275390625 17.77587890625 Q 17.457275390625 20.0830078125 19.500732421875 21.55517578125 Q 20.972900390625 22.060546875 20.972900390625 23.2470703125 Q 20.972900390625 24.697265625 19.522705078125 24.85107421875 Q 16.512451171875 26.16943359375 14.622802734375 28.948974609375 Q 12.733154296875 31.728515625 12.733154296875 35.15625 Q 12.733154296875 36.6943359375 13.194580078125 38.2763671875 L 23.983154296875 38.2763671875 Z" fill="#fff" style="-webkit-tap-highlight-color: rgba(0, 0, 0, 0);"></path><path id="ludo-svg-node-iy51mzmu" d="M 23.983154296875 38.2763671875 L 34.771728515625 38.2763671875 Q 35.233154296875 36.80419921875 35.233154296875 35.15625 Q 35.233154296875 31.728515625 33.33251953125 28.948974609375 Q 31.431884765625 26.16943359375 28.465576171875 24.85107421875 Q 26.993408203125 24.697265625 26.993408203125 23.2470703125 Q 26.993408203125 22.08251953125 28.465576171875 21.55517578125 Q 30.509033203125 20.0830078125 30.509033203125 17.77587890625 Q 30.509033203125 16.06201171875 29.366455078125 14.798583984375 Q 28.223876953125 13.53515625 26.597900390625 13.3154296875 Q 25.301513671875 13.20556640625 25.301513671875 11.84326171875 Q 25.301513671875 11.18408203125 25.784912109375 10.70068359375 Q 26.971435546875 9.7119140625 26.971435546875 8.26171875 Q 26.971435546875 7.05322265625 26.092529296875 6.17431640625 Q 25.213623046875 5.29541015625 23.983154296875 5.29541015625 Q 22.752685546875 5.29541015625 21.884765625 6.17431640625 Q 21.016845703125 7.05322265625 21.016845703125 8.26171875 Q 21.016845703125 9.73388671875 22.203369140625 10.70068359375 Q 22.686767578125 11.22802734375 22.686767578125 11.84326171875 Q 22.686767578125 13.20556640625 21.368408203125 13.3154296875 Q 19.720458984375 13.53515625 18.5888671875 14.798583984375 Q 17.457275390625 16.06201171875 17.457275390625 17.77587890625 Q 17.457275390625 20.0830078125 19.500732421875 21.55517578125 Q 20.972900390625 22.060546875 20.972900390625 23.2470703125 Q 20.972900390625 24.697265625 19.522705078125 24.85107421875 Q 16.512451171875 26.16943359375 14.622802734375 28.948974609375 Q 12.733154296875 31.728515625 12.733154296875 35.15625 Q 12.733154296875 36.6943359375 13.194580078125 38.2763671875 L 23.983154296875 38.2763671875 M 23.983154296875 39.74853515625 L 12.117919921875 39.74853515625 Q 11.260986328125 37.5732421875 11.260986328125 35.15625 Q 11.260986328125 31.11328125 13.568115234375 27.872314453125 Q 15.875244140625 24.63134765625 19.500732421875 23.2470703125 Q 17.940673828125 22.5439453125 16.951904296875 21.07177734375 Q 15.963134765625 19.599609375 15.963134765625 17.77587890625 Q 15.963134765625 15.46875 17.501220703125 13.77685546875 Q 19.039306640625 12.0849609375 21.280517578125 11.8212890625 Q 19.500732421875 10.48095703125 19.500732421875 8.26171875 Q 19.500732421875 6.416015625 20.819091796875 5.108642578125 Q 22.137451171875 3.80126953125 23.983154296875 3.80126953125 Q 25.828857421875 3.80126953125 27.147216796875 5.108642578125 Q 28.465576171875 6.416015625 28.465576171875 8.26171875 Q 28.465576171875 10.48095703125 26.685791015625 11.8212890625 Q 28.927001953125 12.0849609375 30.465087890625 13.77685546875 Q 32.003173828125 15.46875 32.003173828125 17.77587890625 Q 32.003173828125 19.599609375 31.014404296875 21.07177734375 Q 30.025634765625 22.5439453125 28.487548828125 23.2470703125 Q 32.091064453125 24.63134765625 34.4091796875 27.872314453125 Q 36.727294921875 31.11328125 36.727294921875 35.15625 Q 36.727294921875 37.59521484375 35.848388671875 39.74853515625 L 23.983154296875 39.74853515625 Z Z" style="-webkit-tap-highlight-color: rgba(0, 0, 0, 0);"></path><path id="ludo-svg-node-iy51mzka" d="M 23.983154296875 38.2763671875 L 34.771728515625 38.2763671875 Q 35.233154296875 36.80419921875 35.233154296875 35.15625 Q 35.233154296875 31.728515625 33.33251953125 28.948974609375 Q 31.431884765625 26.16943359375 28.465576171875 24.85107421875 Q 26.993408203125 24.697265625 26.993408203125 23.2470703125 Q 26.993408203125 22.08251953125 28.465576171875 21.55517578125 Q 30.509033203125 20.0830078125 30.509033203125 17.77587890625 Q 30.509033203125 16.06201171875 29.366455078125 14.798583984375 Q 28.223876953125 13.53515625 26.597900390625 13.3154296875 Q 25.301513671875 13.20556640625 25.301513671875 11.84326171875 Q 25.301513671875 11.18408203125 25.784912109375 10.70068359375 Q 26.971435546875 9.7119140625 26.971435546875 8.26171875 Q 26.971435546875 7.05322265625 26.092529296875 6.17431640625 Q 25.213623046875 5.29541015625 23.983154296875 5.29541015625 Q 22.752685546875 5.29541015625 21.884765625 6.17431640625 Q 21.016845703125 7.05322265625 21.016845703125 8.26171875 Q 21.016845703125 9.73388671875 22.203369140625 10.70068359375 Q 22.686767578125 11.22802734375 22.686767578125 11.84326171875 Q 22.686767578125 13.20556640625 21.368408203125 13.3154296875 Q 19.720458984375 13.53515625 18.5888671875 14.798583984375 Q 17.457275390625 16.06201171875 17.457275390625 17.77587890625 Q 17.457275390625 20.0830078125 19.500732421875 21.55517578125 Q 20.972900390625 22.060546875 20.972900390625 23.2470703125 Q 20.972900390625 24.697265625 19.522705078125 24.85107421875 Q 16.512451171875 26.16943359375 14.622802734375 28.948974609375 Q 12.733154296875 31.728515625 12.733154296875 35.15625 Q 12.733154296875 36.6943359375 13.194580078125 38.2763671875 L 23.983154296875 38.2763671875 M 23.983154296875 39.74853515625 L 12.117919921875 39.74853515625 Q 11.260986328125 37.5732421875 11.260986328125 35.15625 Q 11.260986328125 31.11328125 13.568115234375 27.872314453125 Q 15.875244140625 24.63134765625 19.500732421875 23.2470703125 Q 17.940673828125 22.5439453125 16.951904296875 21.07177734375 Q 15.963134765625 19.599609375 15.963134765625 17.77587890625 Q 15.963134765625 15.46875 17.501220703125 13.77685546875 Q 19.039306640625 12.0849609375 21.280517578125 11.8212890625 Q 19.500732421875 10.48095703125 19.500732421875 8.26171875 Q 19.500732421875 6.416015625 20.819091796875 5.108642578125 Q 22.137451171875 3.80126953125 23.983154296875 3.80126953125 Q 25.828857421875 3.80126953125 27.147216796875 5.108642578125 Q 28.465576171875 6.416015625 28.465576171875 8.26171875 Q 28.465576171875 10.48095703125 26.685791015625 11.8212890625 Q 28.927001953125 12.0849609375 30.465087890625 13.77685546875 Q 32.003173828125 15.46875 32.003173828125 17.77587890625 Q 32.003173828125 19.599609375 31.014404296875 21.07177734375 Q 30.025634765625 22.5439453125 28.487548828125 23.2470703125 Q 32.091064453125 24.63134765625 34.4091796875 27.872314453125 Q 36.727294921875 31.11328125 36.727294921875 35.15625 Q 36.727294921875 37.59521484375 35.848388671875 39.74853515625 L 23.983154296875 39.74853515625 Z Z" fill-rule="even-odd" style="-webkit-tap-highlight-color: rgba(0, 0, 0, 0); fill: rgb(0, 0, 0); stroke-width: 0;"></path></g></svg>