<svg xmlns="http://www.w3.org/2000/svg" version="1.1" id="ludo-svg-node-iy519ipe" width="45" height="45" viewBox="0 0 45 45" style="-webkit-tap-highlight-color: rgba(0, 0, 0, 0); width: 45px; height: 45px;"><g id="ludo-svg-node-iy519ipf" style="-webkit-tap-highlight-color: rgba(0, 0, 0, 0);"><path id="ludo-svg-node-iy519irt" d="M 2.83447265625 18.896484375 Q 2.83447265625 19.79736328125 3.131103515625 20.63232421875 Q 3.427734375 21.46728515625 4.46044921875 23.115234375 Q 6.13037109375 25.0048828125 6.866455078125 26.158447265625 Q 7.6025390625 27.31201171875 8.15185546875 28.89404296875 Q 8.8330078125 30.60791015625 9.20654296875 32.0361328125 Q 9.580078125 33.46435546875 9.580078125 34.60693359375 Q 9.580078125 35.419921875 9.60205078125 36.046142578125 Q 9.6240234375 36.67236328125 9.755859375 37.6611328125 Q 10.74462890625 37.9248046875 12.41455078125 38.265380859375 Q 14.08447265625 38.60595703125 15.93017578125 38.946533203125 Q 17.77587890625 39.287109375 19.53369140625 39.48486328125 Q 21.29150390625 39.6826171875 22.5 39.6826171875 Q 23.88427734375 39.638671875 25.7080078125 39.44091796875 Q 27.53173828125 39.2431640625 29.3115234375 38.924560546875 Q 31.09130859375 38.60595703125 32.71728515625 38.265380859375 Q 34.34326171875 37.9248046875 35.244140625 37.6611328125 Q 35.33203125 36.71630859375 35.35400390625 36.068115234375 Q 35.3759765625 35.419921875 35.3759765625 34.60693359375 Q 35.3759765625 33.486328125 35.760498046875 32.05810546875 Q 36.14501953125 30.6298828125 36.80419921875 28.89404296875 Q 37.3974609375 27.31201171875 38.16650390625 26.158447265625 Q 38.935546875 25.0048828125 40.53955078125 23.115234375 Q 41.3525390625 21.77490234375 41.715087890625 20.830078125 Q 42.07763671875 19.88525390625 42.07763671875 18.896484375 Q 42.07763671875 17.81982421875 41.5283203125 16.32568359375 Q 40.31982421875 14.56787109375 38.902587890625 13.941650390625 Q 37.4853515625 13.3154296875 35.2880859375 13.271484375 Q 33.1787109375 13.3154296875 30.56396484375 14.754638671875 Q 27.94921875 16.19384765625 25.29052734375 18.9404296875 Q 25.51025390625 17.40234375 25.653076171875 16.19384765625 Q 25.7958984375 14.9853515625 25.7958984375 13.99658203125 Q 25.7958984375 13.0517578125 25.609130859375 12.1728515625 Q 25.42236328125 11.2939453125 25.02685546875 10.61279296875 Q 24.63134765625 10.01953125 24.19189453125 9.7119140625 Q 23.75244140625 9.404296875 23.04931640625 9.3603515625 L 23.04931640625 7.22900390625 L 25.42236328125 7.22900390625 L 25.42236328125 6.15234375 L 23.04931640625 6.15234375 L 23.04931640625 3.603515625 L 21.95068359375 3.603515625 L 21.95068359375 6.15234375 L 19.62158203125 6.15234375 L 19.62158203125 7.22900390625 L 21.95068359375 7.22900390625 L 21.95068359375 9.3603515625 Q 21.2255859375 9.404296875 20.80810546875 9.7119140625 Q 20.390625 10.01953125 19.97314453125 10.61279296875 Q 19.57763671875 11.25 19.390869140625 12.12890625 Q 19.2041015625 13.0078125 19.2041015625 13.99658203125 Q 19.2041015625 16.19384765625 19.70947265625 18.9404296875 Q 17.05078125 16.19384765625 14.447021484375 14.754638671875 Q 11.84326171875 13.3154296875 9.66796875 13.271484375 Q 8.54736328125 13.271484375 7.40478515625 13.568115234375 Q 6.26220703125 13.86474609375 5.25146484375 14.468994140625 Q 4.24072265625 15.0732421875 3.5595703125 16.19384765625 Q 2.87841796875 17.314453125 2.83447265625 18.896484375 Z" fill="#fff" style="-webkit-tap-highlight-color: rgba(0, 0, 0, 0);"></path><path id="ludo-svg-node-iy519iru" d="M 3.955078125 18.896484375 Q 3.9990234375 17.4462890625 4.7021484375 16.5234375 Q 5.4052734375 15.6005859375 6.35009765625 15.150146484375 Q 7.294921875 14.69970703125 8.15185546875 14.5458984375 Q 9.0087890625 14.39208984375 9.66796875 14.34814453125 Q 10.96435546875 14.39208984375 12.996826171875 15.35888671875 Q 15.029296875 16.32568359375 18.3251953125 18.896484375 Q 18.4130859375 19.0283203125 18.984375 19.75341796875 Q 19.88525390625 20.9619140625 20.445556640625 21.8408203125 Q 21.005859375 22.7197265625 21.42333984375 23.75244140625 Q 21.51123046875 24.2578125 21.64306640625 25.64208984375 Q 21.73095703125 26.71875 21.73095703125 26.7626953125 L 23.22509765625 26.7626953125 Q 23.31298828125 25.94970703125 23.40087890625 25.11474609375 Q 23.48876953125 24.2578125 23.57666015625 23.75244140625 Q 23.97216796875 22.67578125 24.5654296875 21.796875 Q 25.15869140625 20.91796875 26.103515625 19.66552734375 Q 26.3232421875 19.35791015625 26.630859375 18.896484375 Q 29.86083984375 16.32568359375 31.915283203125 15.35888671875 Q 33.9697265625 14.39208984375 35.2880859375 14.34814453125 L 35.595703125 14.34814453125 Q 36.97998046875 14.39208984375 38.177490234375 14.798583984375 Q 39.375 15.205078125 40.45166015625 16.69921875 Q 40.84716796875 17.95166015625 40.869140625 18.80859375 Q 40.869140625 19.62158203125 40.550537109375 20.423583984375 Q 40.23193359375 21.2255859375 39.55078125 22.32421875 Q 37.880859375 24.3896484375 36.97998046875 25.938720703125 Q 36.0791015625 27.48779296875 35.2880859375 30.1025390625 Q 31.46484375 29.50927734375 27.92724609375 29.1796875 Q 24.3896484375 28.85009765625 22.5439453125 28.7841796875 Q 20.7861328125 28.7841796875 17.347412109375 29.124755859375 Q 13.90869140625 29.46533203125 10.08544921875 30.05859375 L 9.2724609375 28.1689453125 Q 8.72314453125 26.87255859375 7.899169921875 25.587158203125 Q 7.0751953125 24.3017578125 5.44921875 22.32421875 Q 4.50439453125 20.93994140625 4.251708984375 20.2587890625 Q 3.9990234375 19.57763671875 3.955078125 18.896484375 Z" fill="#fff" style="-webkit-tap-highlight-color: rgba(0, 0, 0, 0);"></path><path id="ludo-svg-node-iy519irv" d="M 5.9765625 18.30322265625 Q 5.9765625 18.52294921875 6.064453125 18.80859375 Q 6.416015625 19.79736328125 6.712646484375 20.379638671875 Q 7.00927734375 20.9619140625 7.6904296875 21.86279296875 Q 8.72314453125 23.48876953125 9.107666015625 24.093017578125 Q 9.4921875 24.697265625 10.48095703125 26.2353515625 L 11.513671875 27.83935546875 Q 16.787109375 27.24609375 19.97314453125 26.7626953125 Q 19.75341796875 26.12548828125 19.62158203125 25.751953125 Q 19.48974609375 25.37841796875 19.31396484375 24.8291015625 Q 19.22607421875 24.4775390625 19.105224609375 24.202880859375 Q 18.984375 23.92822265625 18.8525390625 23.57666015625 Q 18.25927734375 22.1923828125 17.677001953125 21.29150390625 Q 17.0947265625 20.390625 16.06201171875 19.248046875 Q 14.34814453125 17.86376953125 12.733154296875 16.89697265625 Q 11.1181640625 15.93017578125 10.21728515625 15.93017578125 Q 8.876953125 15.93017578125 7.4267578125 16.556396484375 Q 5.9765625 17.1826171875 5.9765625 18.30322265625 Z" fill="#fff" style="-webkit-tap-highlight-color: rgba(0, 0, 0, 0);"></path><path id="ludo-svg-node-iy519irw" d="M 10.48095703125 32.51953125 Q 13.95263671875 31.97021484375 17.347412109375 31.640625 Q 20.7421875 31.31103515625 22.5 31.31103515625 Q 24.2578125 31.31103515625 27.652587890625 31.651611328125 Q 31.04736328125 31.9921875 34.51904296875 32.51953125 L 34.34326171875 34.51904296875 Q 31.1572265625 34.013671875 27.7294921875 33.673095703125 Q 24.3017578125 33.33251953125 22.5 33.28857421875 Q 20.7421875 33.28857421875 17.391357421875 33.629150390625 Q 14.04052734375 33.9697265625 10.56884765625 34.51904296875 L 10.48095703125 32.51953125 Z" fill="#fff" style="-webkit-tap-highlight-color: rgba(0, 0, 0, 0);"></path><path id="ludo-svg-node-iy519irx" d="M 10.61279296875 35.9912109375 Q 13.7109375 35.39794921875 17.05078125 35.1123046875 Q 20.390625 34.82666015625 22.5 34.82666015625 Q 24.6533203125 34.82666015625 27.938232421875 35.123291015625 Q 31.22314453125 35.419921875 34.34326171875 35.9912109375 L 33.75 37.79296875 Q 31.00341796875 37.353515625 28.01513671875 37.122802734375 Q 25.02685546875 36.89208984375 22.5 36.84814453125 Q 20.3466796875 36.89208984375 17.105712890625 37.144775390625 Q 13.86474609375 37.3974609375 11.25 37.79296875 L 10.61279296875 35.9912109375 Z" fill="#fff" style="-webkit-tap-highlight-color: rgba(0, 0, 0, 0);"></path><path id="ludo-svg-node-iy519iry" d="M 20.302734375 13.99658203125 L 20.302734375 13.7548828125 L 20.302734375 13.359375 Q 20.302734375 12.32666015625 20.63232421875 11.4697265625 Q 20.9619140625 10.61279296875 21.95068359375 10.34912109375 Q 22.03857421875 10.34912109375 22.1923828125 10.30517578125 Q 22.3681640625 10.26123046875 22.5 10.26123046875 Q 22.587890625 10.26123046875 22.763671875 10.30517578125 Q 22.939453125 10.34912109375 23.04931640625 10.34912109375 Q 24.08203125 10.65673828125 24.3896484375 11.57958984375 Q 24.697265625 12.50244140625 24.697265625 13.99658203125 Q 24.697265625 14.94140625 24.5654296875 16.083984375 Q 24.43359375 17.2265625 24.169921875 18.9404296875 Q 24.0380859375 19.57763671875 23.44482421875 21.0498046875 Q 22.763671875 22.763671875 22.5 23.75244140625 Q 22.236328125 22.67578125 21.51123046875 20.91796875 Q 20.91796875 19.4677734375 20.7861328125 18.9404296875 Q 20.7421875 18.6767578125 20.6982421875 18.17138671875 Q 20.302734375 15.3369140625 20.302734375 13.99658203125 Z" fill="#fff" style="-webkit-tap-highlight-color: rgba(0, 0, 0, 0);"></path><path id="ludo-svg-node-iy519irz" d="M 21.46728515625 13.7109375 Q 21.46728515625 15.05126953125 21.73095703125 16.76513671875 Q 21.99462890625 18.47900390625 22.5 20.10498046875 Q 23.00537109375 18.47900390625 23.2470703125 16.842041015625 Q 23.48876953125 15.205078125 23.48876953125 13.798828125 Q 23.48876953125 11.27197265625 22.763671875 11.2939453125 L 22.67578125 11.25 Q 22.587890625 11.2060546875 22.5 11.2060546875 Q 22.4560546875 11.2060546875 22.3681640625 11.25 Q 22.2802734375 11.2939453125 22.236328125 11.2939453125 Q 21.46728515625 11.27197265625 21.46728515625 13.7109375 Z" fill="#fff" style="-webkit-tap-highlight-color: rgba(0, 0, 0, 0);"></path><path id="ludo-svg-node-iy519is0" d="M 2.83447265625 18.896484375 Q 2.83447265625 19.79736328125 3.131103515625 20.63232421875 Q 3.427734375 21.46728515625 4.46044921875 23.115234375 Q 6.13037109375 25.0048828125 6.866455078125 26.158447265625 Q 7.6025390625 27.31201171875 8.15185546875 28.89404296875 Q 8.8330078125 30.60791015625 9.20654296875 32.0361328125 Q 9.580078125 33.46435546875 9.580078125 34.60693359375 Q 9.580078125 35.419921875 9.60205078125 36.046142578125 Q 9.6240234375 36.67236328125 9.755859375 37.6611328125 Q 10.74462890625 37.9248046875 12.41455078125 38.265380859375 Q 14.08447265625 38.60595703125 15.93017578125 38.946533203125 Q 17.77587890625 39.287109375 19.53369140625 39.48486328125 Q 21.29150390625 39.6826171875 22.5 39.6826171875 Q 23.88427734375 39.638671875 25.7080078125 39.44091796875 Q 27.53173828125 39.2431640625 29.3115234375 38.924560546875 Q 31.09130859375 38.60595703125 32.71728515625 38.265380859375 Q 34.34326171875 37.9248046875 35.244140625 37.6611328125 Q 35.33203125 36.71630859375 35.35400390625 36.068115234375 Q 35.3759765625 35.419921875 35.3759765625 34.60693359375 Q 35.3759765625 33.486328125 35.760498046875 32.05810546875 Q 36.14501953125 30.6298828125 36.80419921875 28.89404296875 Q 37.3974609375 27.31201171875 38.16650390625 26.158447265625 Q 38.935546875 25.0048828125 40.53955078125 23.115234375 Q 41.3525390625 21.77490234375 41.715087890625 20.830078125 Q 42.07763671875 19.88525390625 42.07763671875 18.896484375 Q 42.07763671875 17.81982421875 41.5283203125 16.32568359375 Q 40.31982421875 14.56787109375 38.902587890625 13.941650390625 Q 37.4853515625 13.3154296875 35.2880859375 13.271484375 Q 33.1787109375 13.3154296875 30.56396484375 14.754638671875 Q 27.94921875 16.19384765625 25.29052734375 18.9404296875 Q 25.51025390625 17.40234375 25.653076171875 16.19384765625 Q 25.7958984375 14.9853515625 25.7958984375 13.99658203125 Q 25.7958984375 13.0517578125 25.609130859375 12.1728515625 Q 25.42236328125 11.2939453125 25.02685546875 10.61279296875 Q 24.63134765625 10.01953125 24.19189453125 9.7119140625 Q 23.75244140625 9.404296875 23.04931640625 9.3603515625 L 23.04931640625 7.22900390625 L 25.42236328125 7.22900390625 L 25.42236328125 6.15234375 L 23.04931640625 6.15234375 L 23.04931640625 3.603515625 L 21.95068359375 3.603515625 L 21.95068359375 6.15234375 L 19.62158203125 6.15234375 L 19.62158203125 7.22900390625 L 21.95068359375 7.22900390625 L 21.95068359375 9.3603515625 Q 21.2255859375 9.404296875 20.80810546875 9.7119140625 Q 20.390625 10.01953125 19.97314453125 10.61279296875 Q 19.57763671875 11.25 19.390869140625 12.12890625 Q 19.2041015625 13.0078125 19.2041015625 13.99658203125 Q 19.2041015625 16.19384765625 19.70947265625 18.9404296875 Q 17.05078125 16.19384765625 14.447021484375 14.754638671875 Q 11.84326171875 13.3154296875 9.66796875 13.271484375 Q 8.54736328125 13.271484375 7.40478515625 13.568115234375 Q 6.26220703125 13.86474609375 5.25146484375 14.468994140625 Q 4.24072265625 15.0732421875 3.5595703125 16.19384765625 Q 2.87841796875 17.314453125 2.83447265625 18.896484375 M 3.955078125 18.896484375 Q 3.9990234375 17.4462890625 4.7021484375 16.5234375 Q 5.4052734375 15.6005859375 6.35009765625 15.150146484375 Q 7.294921875 14.69970703125 8.15185546875 14.5458984375 Q 9.0087890625 14.39208984375 9.66796875 14.34814453125 Q 10.96435546875 14.39208984375 12.996826171875 15.35888671875 Q 15.029296875 16.32568359375 18.3251953125 18.896484375 Q 18.4130859375 19.0283203125 18.984375 19.75341796875 Q 19.88525390625 20.9619140625 20.445556640625 21.8408203125 Q 21.005859375 22.7197265625 21.42333984375 23.75244140625 Q 21.51123046875 24.2578125 21.64306640625 25.64208984375 Q 21.73095703125 26.71875 21.73095703125 26.7626953125 L 23.22509765625 26.7626953125 Q 23.31298828125 25.94970703125 23.40087890625 25.11474609375 Q 23.48876953125 24.2578125 23.57666015625 23.75244140625 Q 23.97216796875 22.67578125 24.5654296875 21.796875 Q 25.15869140625 20.91796875 26.103515625 19.66552734375 Q 26.3232421875 19.35791015625 26.630859375 18.896484375 Q 29.86083984375 16.32568359375 31.915283203125 15.35888671875 Q 33.9697265625 14.39208984375 35.2880859375 14.34814453125 L 35.595703125 14.34814453125 Q 36.97998046875 14.39208984375 38.177490234375 14.798583984375 Q 39.375 15.205078125 40.45166015625 16.69921875 Q 40.84716796875 17.95166015625 40.869140625 18.80859375 Q 40.869140625 19.62158203125 40.550537109375 20.423583984375 Q 40.23193359375 21.2255859375 39.55078125 22.32421875 Q 37.880859375 24.3896484375 36.97998046875 25.938720703125 Q 36.0791015625 27.48779296875 35.2880859375 30.1025390625 Q 31.46484375 29.50927734375 27.92724609375 29.1796875 Q 24.3896484375 28.85009765625 22.5439453125 28.7841796875 Q 20.7861328125 28.7841796875 17.347412109375 29.124755859375 Q 13.90869140625 29.46533203125 10.08544921875 30.05859375 L 9.2724609375 28.1689453125 Q 8.72314453125 26.87255859375 7.899169921875 25.587158203125 Q 7.0751953125 24.3017578125 5.44921875 22.32421875 Q 4.50439453125 20.93994140625 4.251708984375 20.2587890625 Q 3.9990234375 19.57763671875 3.955078125 18.896484375 M 5.9765625 18.30322265625 Q 5.9765625 18.52294921875 6.064453125 18.80859375 Q 6.416015625 19.79736328125 6.712646484375 20.379638671875 Q 7.00927734375 20.9619140625 7.6904296875 21.86279296875 Q 8.72314453125 23.48876953125 9.107666015625 24.093017578125 Q 9.4921875 24.697265625 10.48095703125 26.2353515625 L 11.513671875 27.83935546875 Q 16.787109375 27.24609375 19.97314453125 26.7626953125 Q 19.75341796875 26.12548828125 19.62158203125 25.751953125 Q 19.48974609375 25.37841796875 19.31396484375 24.8291015625 Q 19.22607421875 24.4775390625 19.105224609375 24.202880859375 Q 18.984375 23.92822265625 18.8525390625 23.57666015625 Q 18.25927734375 22.1923828125 17.677001953125 21.29150390625 Q 17.0947265625 20.390625 16.06201171875 19.248046875 Q 14.34814453125 17.86376953125 12.733154296875 16.89697265625 Q 11.1181640625 15.93017578125 10.21728515625 15.93017578125 Q 8.876953125 15.93017578125 7.4267578125 16.556396484375 Q 5.9765625 17.1826171875 5.9765625 18.30322265625 M 10.48095703125 32.51953125 Q 13.95263671875 31.97021484375 17.347412109375 31.640625 Q 20.7421875 31.31103515625 22.5 31.31103515625 Q 24.2578125 31.31103515625 27.652587890625 31.651611328125 Q 31.04736328125 31.9921875 34.51904296875 32.51953125 L 34.34326171875 34.51904296875 Q 31.1572265625 34.013671875 27.7294921875 33.673095703125 Q 24.3017578125 33.33251953125 22.5 33.28857421875 Q 20.7421875 33.28857421875 17.391357421875 33.629150390625 Q 14.04052734375 33.9697265625 10.56884765625 34.51904296875 L 10.48095703125 32.51953125 M 10.61279296875 35.9912109375 Q 13.7109375 35.39794921875 17.05078125 35.1123046875 Q 20.390625 34.82666015625 22.5 34.82666015625 Q 24.6533203125 34.82666015625 27.938232421875 35.123291015625 Q 31.22314453125 35.419921875 34.34326171875 35.9912109375 L 33.75 37.79296875 Q 31.00341796875 37.353515625 28.01513671875 37.122802734375 Q 25.02685546875 36.89208984375 22.5 36.84814453125 Q 20.3466796875 36.89208984375 17.105712890625 37.144775390625 Q 13.86474609375 37.3974609375 11.25 37.79296875 L 10.61279296875 35.9912109375 M 20.302734375 13.99658203125 L 20.302734375 13.7548828125 L 20.302734375 13.359375 Q 20.302734375 12.32666015625 20.63232421875 11.4697265625 Q 20.9619140625 10.61279296875 21.95068359375 10.34912109375 Q 22.03857421875 10.34912109375 22.1923828125 10.30517578125 Q 22.3681640625 10.26123046875 22.5 10.26123046875 Q 22.587890625 10.26123046875 22.763671875 10.30517578125 Q 22.939453125 10.34912109375 23.04931640625 10.34912109375 Q 24.08203125 10.65673828125 24.3896484375 11.57958984375 Q 24.697265625 12.50244140625 24.697265625 13.99658203125 Q 24.697265625 14.94140625 24.5654296875 16.083984375 Q 24.43359375 17.2265625 24.169921875 18.9404296875 Q 24.0380859375 19.57763671875 23.44482421875 21.0498046875 Q 22.763671875 22.763671875 22.5 23.75244140625 Q 22.236328125 22.67578125 21.51123046875 20.91796875 Q 20.91796875 19.4677734375 20.7861328125 18.9404296875 Q 20.7421875 18.6767578125 20.6982421875 18.17138671875 Q 20.302734375 15.3369140625 20.302734375 13.99658203125 M 21.46728515625 13.7109375 Q 21.46728515625 15.05126953125 21.73095703125 16.76513671875 Q 21.99462890625 18.47900390625 22.5 20.10498046875 Q 23.00537109375 18.47900390625 23.2470703125 16.842041015625 Q 23.48876953125 15.205078125 23.48876953125 13.798828125 Q 23.48876953125 11.27197265625 22.763671875 11.2939453125 L 22.67578125 11.25 Q 22.587890625 11.2060546875 22.5 11.2060546875 Q 22.4560546875 11.2060546875 22.3681640625 11.25 Q 22.2802734375 11.2939453125 22.236328125 11.2939453125 Q 21.46728515625 11.27197265625 21.46728515625 13.7109375 M 25.02685546875 26.7626953125 Q 28.212890625 27.26806640625 33.486328125 27.83935546875 L 34.51904296875 26.2353515625 Q 35.419921875 24.89501953125 35.936279296875 24.027099609375 Q 36.45263671875 23.1591796875 37.3095703125 21.86279296875 Q 38.03466796875 20.91796875 38.2763671875 20.445556640625 Q 38.51806640625 19.97314453125 38.82568359375 19.0283203125 Q 38.86962890625 18.9404296875 38.935546875 18.80859375 Q 39.0234375 18.5009765625 39.0234375 18.21533203125 Q 39.0234375 17.0947265625 37.738037109375 16.556396484375 Q 36.45263671875 16.01806640625 34.78271484375 15.93017578125 Q 33.8818359375 15.93017578125 32.266845703125 16.89697265625 Q 30.65185546875 17.86376953125 28.93798828125 19.248046875 Q 27.9052734375 20.36865234375 27.322998046875 21.26953125 Q 26.74072265625 22.17041015625 26.1474609375 23.57666015625 Q 25.9716796875 23.97216796875 25.8837890625 24.246826171875 Q 25.7958984375 24.521484375 25.68603515625 24.8291015625 Q 25.59814453125 25.0048828125 25.37841796875 25.72998046875 Q 25.15869140625 26.455078125 25.02685546875 26.7626953125 Z Z" style="-webkit-tap-highlight-color: rgba(0, 0, 0, 0);"></path><path id="ludo-svg-node-iy519ipg" d="M 2.83447265625 18.896484375 Q 2.83447265625 19.79736328125 3.131103515625 20.63232421875 Q 3.427734375 21.46728515625 4.46044921875 23.115234375 Q 6.13037109375 25.0048828125 6.866455078125 26.158447265625 Q 7.6025390625 27.31201171875 8.15185546875 28.89404296875 Q 8.8330078125 30.60791015625 9.20654296875 32.0361328125 Q 9.580078125 33.46435546875 9.580078125 34.60693359375 Q 9.580078125 35.419921875 9.60205078125 36.046142578125 Q 9.6240234375 36.67236328125 9.755859375 37.6611328125 Q 10.74462890625 37.9248046875 12.41455078125 38.265380859375 Q 14.08447265625 38.60595703125 15.93017578125 38.946533203125 Q 17.77587890625 39.287109375 19.53369140625 39.48486328125 Q 21.29150390625 39.6826171875 22.5 39.6826171875 Q 23.88427734375 39.638671875 25.7080078125 39.44091796875 Q 27.53173828125 39.2431640625 29.3115234375 38.924560546875 Q 31.09130859375 38.60595703125 32.71728515625 38.265380859375 Q 34.34326171875 37.9248046875 35.244140625 37.6611328125 Q 35.33203125 36.71630859375 35.35400390625 36.068115234375 Q 35.3759765625 35.419921875 35.3759765625 34.60693359375 Q 35.3759765625 33.486328125 35.760498046875 32.05810546875 Q 36.14501953125 30.6298828125 36.80419921875 28.89404296875 Q 37.3974609375 27.31201171875 38.16650390625 26.158447265625 Q 38.935546875 25.0048828125 40.53955078125 23.115234375 Q 41.3525390625 21.77490234375 41.715087890625 20.830078125 Q 42.07763671875 19.88525390625 42.07763671875 18.896484375 Q 42.07763671875 17.81982421875 41.5283203125 16.32568359375 Q 40.31982421875 14.56787109375 38.902587890625 13.941650390625 Q 37.4853515625 13.3154296875 35.2880859375 13.271484375 Q 33.1787109375 13.3154296875 30.56396484375 14.754638671875 Q 27.94921875 16.19384765625 25.29052734375 18.9404296875 Q 25.51025390625 17.40234375 25.653076171875 16.19384765625 Q 25.7958984375 14.9853515625 25.7958984375 13.99658203125 Q 25.7958984375 13.0517578125 25.609130859375 12.1728515625 Q 25.42236328125 11.2939453125 25.02685546875 10.61279296875 Q 24.63134765625 10.01953125 24.19189453125 9.7119140625 Q 23.75244140625 9.404296875 23.04931640625 9.3603515625 L 23.04931640625 7.22900390625 L 25.42236328125 7.22900390625 L 25.42236328125 6.15234375 L 23.04931640625 6.15234375 L 23.04931640625 3.603515625 L 21.95068359375 3.603515625 L 21.95068359375 6.15234375 L 19.62158203125 6.15234375 L 19.62158203125 7.22900390625 L 21.95068359375 7.22900390625 L 21.95068359375 9.3603515625 Q 21.2255859375 9.404296875 20.80810546875 9.7119140625 Q 20.390625 10.01953125 19.97314453125 10.61279296875 Q 19.57763671875 11.25 19.390869140625 12.12890625 Q 19.2041015625 13.0078125 19.2041015625 13.99658203125 Q 19.2041015625 16.19384765625 19.70947265625 18.9404296875 Q 17.05078125 16.19384765625 14.447021484375 14.754638671875 Q 11.84326171875 13.3154296875 9.66796875 13.271484375 Q 8.54736328125 13.271484375 7.40478515625 13.568115234375 Q 6.26220703125 13.86474609375 5.25146484375 14.468994140625 Q 4.24072265625 15.0732421875 3.5595703125 16.19384765625 Q 2.87841796875 17.314453125 2.83447265625 18.896484375 M 3.955078125 18.896484375 Q 3.9990234375 17.4462890625 4.7021484375 16.5234375 Q 5.4052734375 15.6005859375 6.35009765625 15.150146484375 Q 7.294921875 14.69970703125 8.15185546875 14.5458984375 Q 9.0087890625 14.39208984375 9.66796875 14.34814453125 Q 10.96435546875 14.39208984375 12.996826171875 15.35888671875 Q 15.029296875 16.32568359375 18.3251953125 18.896484375 Q 18.4130859375 19.0283203125 18.984375 19.75341796875 Q 19.88525390625 20.9619140625 20.445556640625 21.8408203125 Q 21.005859375 22.7197265625 21.42333984375 23.75244140625 Q 21.51123046875 24.2578125 21.64306640625 25.64208984375 Q 21.73095703125 26.71875 21.73095703125 26.7626953125 L 23.22509765625 26.7626953125 Q 23.31298828125 25.94970703125 23.40087890625 25.11474609375 Q 23.48876953125 24.2578125 23.57666015625 23.75244140625 Q 23.97216796875 22.67578125 24.5654296875 21.796875 Q 25.15869140625 20.91796875 26.103515625 19.66552734375 Q 26.3232421875 19.35791015625 26.630859375 18.896484375 Q 29.86083984375 16.32568359375 31.915283203125 15.35888671875 Q 33.9697265625 14.39208984375 35.2880859375 14.34814453125 L 35.595703125 14.34814453125 Q 36.97998046875 14.39208984375 38.177490234375 14.798583984375 Q 39.375 15.205078125 40.45166015625 16.69921875 Q 40.84716796875 17.95166015625 40.869140625 18.80859375 Q 40.869140625 19.62158203125 40.550537109375 20.423583984375 Q 40.23193359375 21.2255859375 39.55078125 22.32421875 Q 37.880859375 24.3896484375 36.97998046875 25.938720703125 Q 36.0791015625 27.48779296875 35.2880859375 30.1025390625 Q 31.46484375 29.50927734375 27.92724609375 29.1796875 Q 24.3896484375 28.85009765625 22.5439453125 28.7841796875 Q 20.7861328125 28.7841796875 17.347412109375 29.124755859375 Q 13.90869140625 29.46533203125 10.08544921875 30.05859375 L 9.2724609375 28.1689453125 Q 8.72314453125 26.87255859375 7.899169921875 25.587158203125 Q 7.0751953125 24.3017578125 5.44921875 22.32421875 Q 4.50439453125 20.93994140625 4.251708984375 20.2587890625 Q 3.9990234375 19.57763671875 3.955078125 18.896484375 M 5.9765625 18.30322265625 Q 5.9765625 18.52294921875 6.064453125 18.80859375 Q 6.416015625 19.79736328125 6.712646484375 20.379638671875 Q 7.00927734375 20.9619140625 7.6904296875 21.86279296875 Q 8.72314453125 23.48876953125 9.107666015625 24.093017578125 Q 9.4921875 24.697265625 10.48095703125 26.2353515625 L 11.513671875 27.83935546875 Q 16.787109375 27.24609375 19.97314453125 26.7626953125 Q 19.75341796875 26.12548828125 19.62158203125 25.751953125 Q 19.48974609375 25.37841796875 19.31396484375 24.8291015625 Q 19.22607421875 24.4775390625 19.105224609375 24.202880859375 Q 18.984375 23.92822265625 18.8525390625 23.57666015625 Q 18.25927734375 22.1923828125 17.677001953125 21.29150390625 Q 17.0947265625 20.390625 16.06201171875 19.248046875 Q 14.34814453125 17.86376953125 12.733154296875 16.89697265625 Q 11.1181640625 15.93017578125 10.21728515625 15.93017578125 Q 8.876953125 15.93017578125 7.4267578125 16.556396484375 Q 5.9765625 17.1826171875 5.9765625 18.30322265625 M 10.48095703125 32.51953125 Q 13.95263671875 31.97021484375 17.347412109375 31.640625 Q 20.7421875 31.31103515625 22.5 31.31103515625 Q 24.2578125 31.31103515625 27.652587890625 31.651611328125 Q 31.04736328125 31.9921875 34.51904296875 32.51953125 L 34.34326171875 34.51904296875 Q 31.1572265625 34.013671875 27.7294921875 33.673095703125 Q 24.3017578125 33.33251953125 22.5 33.28857421875 Q 20.7421875 33.28857421875 17.391357421875 33.629150390625 Q 14.04052734375 33.9697265625 10.56884765625 34.51904296875 L 10.48095703125 32.51953125 M 10.61279296875 35.9912109375 Q 13.7109375 35.39794921875 17.05078125 35.1123046875 Q 20.390625 34.82666015625 22.5 34.82666015625 Q 24.6533203125 34.82666015625 27.938232421875 35.123291015625 Q 31.22314453125 35.419921875 34.34326171875 35.9912109375 L 33.75 37.79296875 Q 31.00341796875 37.353515625 28.01513671875 37.122802734375 Q 25.02685546875 36.89208984375 22.5 36.84814453125 Q 20.3466796875 36.89208984375 17.105712890625 37.144775390625 Q 13.86474609375 37.3974609375 11.25 37.79296875 L 10.61279296875 35.9912109375 M 20.302734375 13.99658203125 L 20.302734375 13.7548828125 L 20.302734375 13.359375 Q 20.302734375 12.32666015625 20.63232421875 11.4697265625 Q 20.9619140625 10.61279296875 21.95068359375 10.34912109375 Q 22.03857421875 10.34912109375 22.1923828125 10.30517578125 Q 22.3681640625 10.26123046875 22.5 10.26123046875 Q 22.587890625 10.26123046875 22.763671875 10.30517578125 Q 22.939453125 10.34912109375 23.04931640625 10.34912109375 Q 24.08203125 10.65673828125 24.3896484375 11.57958984375 Q 24.697265625 12.50244140625 24.697265625 13.99658203125 Q 24.697265625 14.94140625 24.5654296875 16.083984375 Q 24.43359375 17.2265625 24.169921875 18.9404296875 Q 24.0380859375 19.57763671875 23.44482421875 21.0498046875 Q 22.763671875 22.763671875 22.5 23.75244140625 Q 22.236328125 22.67578125 21.51123046875 20.91796875 Q 20.91796875 19.4677734375 20.7861328125 18.9404296875 Q 20.7421875 18.6767578125 20.6982421875 18.17138671875 Q 20.302734375 15.3369140625 20.302734375 13.99658203125 M 21.46728515625 13.7109375 Q 21.46728515625 15.05126953125 21.73095703125 16.76513671875 Q 21.99462890625 18.47900390625 22.5 20.10498046875 Q 23.00537109375 18.47900390625 23.2470703125 16.842041015625 Q 23.48876953125 15.205078125 23.48876953125 13.798828125 Q 23.48876953125 11.27197265625 22.763671875 11.2939453125 L 22.67578125 11.25 Q 22.587890625 11.2060546875 22.5 11.2060546875 Q 22.4560546875 11.2060546875 22.3681640625 11.25 Q 22.2802734375 11.2939453125 22.236328125 11.2939453125 Q 21.46728515625 11.27197265625 21.46728515625 13.7109375 M 25.02685546875 26.7626953125 Q 28.212890625 27.26806640625 33.486328125 27.83935546875 L 34.51904296875 26.2353515625 Q 35.419921875 24.89501953125 35.936279296875 24.027099609375 Q 36.45263671875 23.1591796875 37.3095703125 21.86279296875 Q 38.03466796875 20.91796875 38.2763671875 20.445556640625 Q 38.51806640625 19.97314453125 38.82568359375 19.0283203125 Q 38.86962890625 18.9404296875 38.935546875 18.80859375 Q 39.0234375 18.5009765625 39.0234375 18.21533203125 Q 39.0234375 17.0947265625 37.738037109375 16.556396484375 Q 36.45263671875 16.01806640625 34.78271484375 15.93017578125 Q 33.8818359375 15.93017578125 32.266845703125 16.89697265625 Q 30.65185546875 17.86376953125 28.93798828125 19.248046875 Q 27.9052734375 20.36865234375 27.322998046875 21.26953125 Q 26.74072265625 22.17041015625 26.1474609375 23.57666015625 Q 25.9716796875 23.97216796875 25.8837890625 24.246826171875 Q 25.7958984375 24.521484375 25.68603515625 24.8291015625 Q 25.59814453125 25.0048828125 25.37841796875 25.72998046875 Q 25.15869140625 26.455078125 25.02685546875 26.7626953125 Z Z" fill-rule="even-odd" style="-webkit-tap-highlight-color: rgba(0, 0, 0, 0); fill: rgb(0, 0, 0); stroke-width: 0;"></path></g></svg>