<svg xmlns="http://www.w3.org/2000/svg" version="1.1" id="ludo-svg-node-iy4xtjtf" width="45" height="45" viewBox="0 0 45 45" viewBox="0 0 45 45" style="-webkit-tap-highlight-color: rgba(0, 0, 0, 0); width: 45px; height: 45px;"><g id="ludo-svg-node-iy4xtjtg" style="-webkit-tap-highlight-color: rgba(0, 0, 0, 0);"><path id="ludo-svg-node-iy4xtjvi" d="M 13.95 36.9 L 12.78 40.545 L 15.344999999999999 38.205 L 13.95 36.9 Z" fill="#fff" style="-webkit-tap-highlight-color: rgba(0, 0, 0, 0);"></path><path id="ludo-svg-node-iy4xtjvj" d="M 31.59 36.99 L 30.06 38.295 L 32.355 40.230000000000004 L 31.59 36.99 Z" fill="#fff" style="-webkit-tap-highlight-color: rgba(0, 0, 0, 0);"></path><path id="ludo-svg-node-iy4xtjvk" d="M 18.81 36.45 L 16.965 36.9 L 17.189999999999998 38.925 L 19.035 38.61 L 18.81 36.45 Z" fill="#fff" style="-webkit-tap-highlight-color: rgba(0, 0, 0, 0);"></path><path id="ludo-svg-node-iy4xtjvl" d="M 28.755 36.9 L 26.955 36.45 L 26.595 38.61 L 28.349999999999998 38.835 L 28.755 36.9 Z" fill="#fff" style="-webkit-tap-highlight-color: rgba(0, 0, 0, 0);"></path><path id="ludo-svg-node-iy4xtjvm" d="M 12.555 34.605000000000004 L 4.995 17.505000000000003 Q 4.005 17.775000000000002 3.375 17.1 L 2.385 16.02 Q 1.035 14.850000000000001 2.385 13.5 L 3.375 12.555 Q 4.545 11.115000000000002 5.85 12.555 L 6.93 13.5 Q 8.01 14.850000000000001 6.93 16.02 L 6.39 16.560000000000002 L 14.084999999999999 22.59 L 13.41 12.870000000000005 Q 12.825 12.735 12.42 12.329999999999998 L 11.475 11.340000000000003 Q 10.08 10.079999999999998 11.475 8.865000000000002 L 12.42 7.785000000000004 Q 13.68 6.615000000000002 14.94 7.785000000000004 L 16.02 8.865000000000002 Q 17.099999999999998 10.079999999999998 16.02 11.340000000000003 L 14.94 12.329999999999998 L 19.575 20.25 L 22.05 11.160000000000004 L 21.645 10.935000000000002 L 20.654999999999998 9.855000000000004 Q 19.439999999999998 8.594999999999999 20.654999999999998 7.335000000000001 L 21.645 6.255000000000003 Q 22.86 5.265000000000001 24.119999999999997 6.255000000000003 L 25.11 7.335000000000001 Q 26.505 8.594999999999999 25.11 9.855000000000004 L 24.119999999999997 10.935000000000002 L 23.669999999999998 11.160000000000004 L 26.189999999999998 20.34 L 30.825 12.555 L 29.744999999999997 11.475000000000001 Q 28.665 10.170000000000002 29.744999999999997 8.865000000000002 L 30.735 7.875 Q 32.04 6.795000000000002 33.3 7.875 L 34.29 8.865000000000002 Q 35.595 10.170000000000002 34.29 11.475000000000001 L 33.3 12.420000000000002 L 32.445 12.96 L 31.904999999999998 22.5 L 39.824999999999996 15.48 L 39.15 14.940000000000001 Q 38.07 13.635000000000002 39.15 12.329999999999998 L 40.23 11.340000000000003 Q 41.49 10.170000000000002 42.75 11.340000000000003 L 43.695 12.329999999999998 Q 45 13.635000000000002 43.695 14.940000000000001 L 42.75 15.885000000000002 Q 41.985 16.650000000000002 41.085 16.425 L 33.21 34.92 L 35.37 43.695 L 9.405 43.695 L 12.555 34.605000000000004 Z" fill="#fff" style="-webkit-tap-highlight-color: rgba(0, 0, 0, 0);"></path><path id="ludo-svg-node-iy4xtjvn" d="M 22.95 35.055 L 20.654999999999998 37.305 L 22.95 39.6 L 25.11 37.305 L 22.95 35.055 Z" fill="#fff" style="-webkit-tap-highlight-color: rgba(0, 0, 0, 0);"></path><path id="ludo-svg-node-iy4xtjvo" d="M 13.41 31.5 L 14.264999999999999 33.3 Q 16.155 32.445 18.3825 31.68 Q 20.61 30.915 23.04 30.915 Q 25.38 30.915 27.134999999999998 31.5 Q 28.89 32.085 31.59 33.435 L 32.355 31.59 Q 29.924999999999997 30.240000000000002 27.765 29.565 Q 25.605 28.89 23.04 28.89 Q 20.52 28.89 17.9325 29.5425 Q 15.344999999999999 30.195 13.41 31.5 Z" fill="#fff" style="-webkit-tap-highlight-color: rgba(0, 0, 0, 0);"></path><path id="ludo-svg-node-iy4xtjvp" d="M 4.545 13.950000000000003 L 3.5549999999999997 14.805 L 4.545 15.795000000000002 L 5.3999999999999995 14.805 L 4.545 13.950000000000003 Z" fill="#fff" style="-webkit-tap-highlight-color: rgba(0, 0, 0, 0);"></path><path id="ludo-svg-node-iy4xtjvq" d="M 13.725 9.18 L 12.78 10.079999999999998 L 13.725 11.024999999999999 L 14.625 10.079999999999998 L 13.725 9.18 Z" fill="#fff" style="-webkit-tap-highlight-color: rgba(0, 0, 0, 0);"></path><path id="ludo-svg-node-iy4xtjvr" d="M 22.95 7.560000000000002 L 21.869999999999997 8.64 L 22.95 9.719999999999999 L 23.895 8.64 L 22.95 7.560000000000002 Z" fill="#fff" style="-webkit-tap-highlight-color: rgba(0, 0, 0, 0);"></path><path id="ludo-svg-node-iy4xtjvs" d="M 32.04 9.18 L 31.049999999999997 10.170000000000002 L 32.04 11.160000000000004 L 32.894999999999996 10.170000000000002 L 32.04 9.18 Z" fill="#fff" style="-webkit-tap-highlight-color: rgba(0, 0, 0, 0);"></path><path id="ludo-svg-node-iy4xtjvt" d="M 13.95 36.9 L 12.78 40.545 L 15.344999999999999 38.205 L 13.95 36.9 M 31.59 36.99 L 30.06 38.295 L 32.355 40.230000000000004 L 31.59 36.99 M 18.81 36.45 L 16.965 36.9 L 17.189999999999998 38.925 L 19.035 38.61 L 18.81 36.45 M 28.755 36.9 L 26.955 36.45 L 26.595 38.61 L 28.349999999999998 38.835 L 28.755 36.9 M 12.555 34.605000000000004 L 4.995 17.505000000000003 Q 4.005 17.775000000000002 3.375 17.1 L 2.385 16.02 Q 1.035 14.850000000000001 2.385 13.5 L 3.375 12.555 Q 4.545 11.115000000000002 5.85 12.555 L 6.93 13.5 Q 8.01 14.850000000000001 6.93 16.02 L 6.39 16.560000000000002 L 14.084999999999999 22.59 L 13.41 12.870000000000005 Q 12.825 12.735 12.42 12.329999999999998 L 11.475 11.340000000000003 Q 10.08 10.079999999999998 11.475 8.865000000000002 L 12.42 7.785000000000004 Q 13.68 6.615000000000002 14.94 7.785000000000004 L 16.02 8.865000000000002 Q 17.099999999999998 10.079999999999998 16.02 11.340000000000003 L 14.94 12.329999999999998 L 19.575 20.25 L 22.05 11.160000000000004 L 21.645 10.935000000000002 L 20.654999999999998 9.855000000000004 Q 19.439999999999998 8.594999999999999 20.654999999999998 7.335000000000001 L 21.645 6.255000000000003 Q 22.86 5.265000000000001 24.119999999999997 6.255000000000003 L 25.11 7.335000000000001 Q 26.505 8.594999999999999 25.11 9.855000000000004 L 24.119999999999997 10.935000000000002 L 23.669999999999998 11.160000000000004 L 26.189999999999998 20.34 L 30.825 12.555 L 29.744999999999997 11.475000000000001 Q 28.665 10.170000000000002 29.744999999999997 8.865000000000002 L 30.735 7.875 Q 32.04 6.795000000000002 33.3 7.875 L 34.29 8.865000000000002 Q 35.595 10.170000000000002 34.29 11.475000000000001 L 33.3 12.420000000000002 L 32.445 12.96 L 31.904999999999998 22.5 L 39.824999999999996 15.48 L 39.15 14.940000000000001 Q 38.07 13.635000000000002 39.15 12.329999999999998 L 40.23 11.340000000000003 Q 41.49 10.170000000000002 42.75 11.340000000000003 L 43.695 12.329999999999998 Q 45 13.635000000000002 43.695 14.940000000000001 L 42.75 15.885000000000002 Q 41.985 16.650000000000002 41.085 16.425 L 33.21 34.92 L 35.37 43.695 L 9.405 43.695 L 12.555 34.605000000000004 M 22.95 35.055 L 20.654999999999998 37.305 L 22.95 39.6 L 25.11 37.305 L 22.95 35.055 M 13.41 31.5 L 14.264999999999999 33.3 Q 16.155 32.445 18.3825 31.68 Q 20.61 30.915 23.04 30.915 Q 25.38 30.915 27.134999999999998 31.5 Q 28.89 32.085 31.59 33.435 L 32.355 31.59 Q 29.924999999999997 30.240000000000002 27.765 29.565 Q 25.605 28.89 23.04 28.89 Q 20.52 28.89 17.9325 29.5425 Q 15.344999999999999 30.195 13.41 31.5 M 4.545 13.950000000000003 L 3.5549999999999997 14.805 L 4.545 15.795000000000002 L 5.3999999999999995 14.805 L 4.545 13.950000000000003 M 13.725 9.18 L 12.78 10.079999999999998 L 13.725 11.024999999999999 L 14.625 10.079999999999998 L 13.725 9.18 M 22.95 7.560000000000002 L 21.869999999999997 8.64 L 22.95 9.719999999999999 L 23.895 8.64 L 22.95 7.560000000000002 M 32.04 9.18 L 31.049999999999997 10.170000000000002 L 32.04 11.160000000000004 L 32.894999999999996 10.170000000000002 L 32.04 9.18 M 41.445 12.645000000000003 L 40.545 13.545000000000002 L 41.445 14.490000000000002 L 42.345 13.545000000000002 L 41.445 12.645000000000003 Z Z" style="-webkit-tap-highlight-color: rgba(0, 0, 0, 0);"></path><path id="ludo-svg-node-iy4xtjth" d="M 13.95 36.9 L 12.78 40.545 L 15.344999999999999 38.205 L 13.95 36.9 M 31.59 36.99 L 30.06 38.295 L 32.355 40.230000000000004 L 31.59 36.99 M 18.81 36.45 L 16.965 36.9 L 17.189999999999998 38.925 L 19.035 38.61 L 18.81 36.45 M 28.755 36.9 L 26.955 36.45 L 26.595 38.61 L 28.349999999999998 38.835 L 28.755 36.9 M 12.555 34.605000000000004 L 4.995 17.505000000000003 Q 4.005 17.775000000000002 3.375 17.1 L 2.385 16.02 Q 1.035 14.850000000000001 2.385 13.5 L 3.375 12.555 Q 4.545 11.115000000000002 5.85 12.555 L 6.93 13.5 Q 8.01 14.850000000000001 6.93 16.02 L 6.39 16.560000000000002 L 14.084999999999999 22.59 L 13.41 12.870000000000005 Q 12.825 12.735 12.42 12.329999999999998 L 11.475 11.340000000000003 Q 10.08 10.079999999999998 11.475 8.865000000000002 L 12.42 7.785000000000004 Q 13.68 6.615000000000002 14.94 7.785000000000004 L 16.02 8.865000000000002 Q 17.099999999999998 10.079999999999998 16.02 11.340000000000003 L 14.94 12.329999999999998 L 19.575 20.25 L 22.05 11.160000000000004 L 21.645 10.935000000000002 L 20.654999999999998 9.855000000000004 Q 19.439999999999998 8.594999999999999 20.654999999999998 7.335000000000001 L 21.645 6.255000000000003 Q 22.86 5.265000000000001 24.119999999999997 6.255000000000003 L 25.11 7.335000000000001 Q 26.505 8.594999999999999 25.11 9.855000000000004 L 24.119999999999997 10.935000000000002 L 23.669999999999998 11.160000000000004 L 26.189999999999998 20.34 L 30.825 12.555 L 29.744999999999997 11.475000000000001 Q 28.665 10.170000000000002 29.744999999999997 8.865000000000002 L 30.735 7.875 Q 32.04 6.795000000000002 33.3 7.875 L 34.29 8.865000000000002 Q 35.595 10.170000000000002 34.29 11.475000000000001 L 33.3 12.420000000000002 L 32.445 12.96 L 31.904999999999998 22.5 L 39.824999999999996 15.48 L 39.15 14.940000000000001 Q 38.07 13.635000000000002 39.15 12.329999999999998 L 40.23 11.340000000000003 Q 41.49 10.170000000000002 42.75 11.340000000000003 L 43.695 12.329999999999998 Q 45 13.635000000000002 43.695 14.940000000000001 L 42.75 15.885000000000002 Q 41.985 16.650000000000002 41.085 16.425 L 33.21 34.92 L 35.37 43.695 L 9.405 43.695 L 12.555 34.605000000000004 M 22.95 35.055 L 20.654999999999998 37.305 L 22.95 39.6 L 25.11 37.305 L 22.95 35.055 M 13.41 31.5 L 14.264999999999999 33.3 Q 16.155 32.445 18.3825 31.68 Q 20.61 30.915 23.04 30.915 Q 25.38 30.915 27.134999999999998 31.5 Q 28.89 32.085 31.59 33.435 L 32.355 31.59 Q 29.924999999999997 30.240000000000002 27.765 29.565 Q 25.605 28.89 23.04 28.89 Q 20.52 28.89 17.9325 29.5425 Q 15.344999999999999 30.195 13.41 31.5 M 4.545 13.950000000000003 L 3.5549999999999997 14.805 L 4.545 15.795000000000002 L 5.3999999999999995 14.805 L 4.545 13.950000000000003 M 13.725 9.18 L 12.78 10.079999999999998 L 13.725 11.024999999999999 L 14.625 10.079999999999998 L 13.725 9.18 M 22.95 7.560000000000002 L 21.869999999999997 8.64 L 22.95 9.719999999999999 L 23.895 8.64 L 22.95 7.560000000000002 M 32.04 9.18 L 31.049999999999997 10.170000000000002 L 32.04 11.160000000000004 L 32.894999999999996 10.170000000000002 L 32.04 9.18 M 41.445 12.645000000000003 L 40.545 13.545000000000002 L 41.445 14.490000000000002 L 42.345 13.545000000000002 L 41.445 12.645000000000003 Z Z" fill-rule="even-odd" style="-webkit-tap-highlight-color: rgba(0, 0, 0, 0); fill: rgb(0, 0, 0); stroke-width: 0;"></path></g></svg>