<svg xmlns="http://www.w3.org/2000/svg" version="1.1" id="ludo-svg-node-iy4xtjr7" width="45" height="45" viewBox="0 0 45 45" style="-webkit-tap-highlight-color: rgba(0, 0, 0, 0); width: 45px; height: 45px;"><g id="ludo-svg-node-iy4xtjr8" style="-webkit-tap-highlight-color: rgba(0, 0, 0, 0);"><path id="ludo-svg-node-iy4xtjts" d="M 15.57 33.5475 Q 15.57 33.5475 16.0425 33.33375 Q 16.515 33.120000000000005 17.099999999999998 31.815 Q 17.73 30.285 18.495 28.372500000000002 Q 19.259999999999998 26.46 20.025 24.435000000000002 Q 19.845 24.3 19.6875 24.21 Q 19.529999999999998 24.12 19.485 24.03 Q 18.224999999999998 22.635 19.485 21.645 Q 19.62 21.51 20.002499999999998 21.1275 Q 20.384999999999998 20.745 20.79 20.34 Q 19.215 19.62 18.2025 18.1125 Q 17.189999999999998 16.605 17.189999999999998 14.805 Q 17.189999999999998 12.329999999999998 19.0125 10.485 Q 20.835 8.64 23.265 8.64 Q 25.74 8.64 27.5175 10.485 Q 29.294999999999998 12.329999999999998 29.294999999999998 14.805 Q 29.294999999999998 16.605 28.2825 18.1125 Q 27.27 19.62 25.74 20.34 Q 26.145 20.745 26.505 21.1275 Q 26.865 21.51 27.044999999999998 21.645 Q 28.169999999999998 22.635 27.044999999999998 24.03 Q 26.955 24.12 26.7975 24.21 Q 26.64 24.3 26.505 24.435000000000002 Q 27.314999999999998 26.46 28.035 28.372500000000002 Q 28.755 30.285 29.43 31.815 Q 29.97 33.120000000000005 30.9375 33.5475 Q 31.904999999999998 33.975 33.839999999999996 35.1225 Q 35.775 36.269999999999996 36.135 37.215 Q 36.449999999999996 38.115 36.5625 39.825 Q 36.675 41.535 36.765 43.38 L 9.855 43.38 Q 9.855 41.535 9.945 39.825 Q 10.035 38.115 10.395 37.215 Q 10.665 36.269999999999996 12.645 35.1225 Q 14.625 33.975 15.57 33.5475 Z" fill="#fff" style="-webkit-tap-highlight-color: rgba(0, 0, 0, 0);"></path><path id="ludo-svg-node-iy4xtjtt" d="M 23.13 20.565 Q 23.13 20.655 22.185 21.622500000000002 Q 21.24 22.59 21.105 22.725 Q 21.24 22.995 22.162499999999998 23.9175 Q 23.085 24.84 23.265 24.975 Q 23.4 24.84 24.322499999999998 23.9175 Q 25.244999999999997 22.995 25.515 22.725 Q 25.244999999999997 22.59 24.232499999999998 21.622500000000002 Q 23.22 20.655 23.13 20.565 Z" fill="#fff" style="-webkit-tap-highlight-color: rgba(0, 0, 0, 0);"></path><path id="ludo-svg-node-iy4xtjtu" d="M 27.134999999999998 14.715 Q 27.134999999999998 13.095000000000002 26.009999999999998 11.947499999999998 Q 24.884999999999998 10.800000000000004 23.265 10.800000000000004 Q 21.689999999999998 10.800000000000004 20.52 11.9925 Q 19.349999999999998 13.185000000000002 19.349999999999998 14.805 Q 19.349999999999998 16.290000000000003 20.294999999999998 17.37 Q 21.24 18.45 22.59 18.585 Q 23.22 18.990000000000002 23.895 18.585 Q 25.244999999999997 18.45 26.189999999999998 17.37 Q 27.134999999999998 16.290000000000003 27.134999999999998 14.715 Z" fill="#fff" style="-webkit-tap-highlight-color: rgba(0, 0, 0, 0);"></path><path id="ludo-svg-node-iy4xtjtv" d="M 15.57 33.5475 Q 15.57 33.5475 16.0425 33.33375 Q 16.515 33.120000000000005 17.099999999999998 31.815 Q 17.73 30.285 18.495 28.372500000000002 Q 19.259999999999998 26.46 20.025 24.435000000000002 Q 19.845 24.3 19.6875 24.21 Q 19.529999999999998 24.12 19.485 24.03 Q 18.224999999999998 22.635 19.485 21.645 Q 19.62 21.51 20.002499999999998 21.1275 Q 20.384999999999998 20.745 20.79 20.34 Q 19.215 19.62 18.2025 18.1125 Q 17.189999999999998 16.605 17.189999999999998 14.805 Q 17.189999999999998 12.329999999999998 19.0125 10.485 Q 20.835 8.64 23.265 8.64 Q 25.74 8.64 27.5175 10.485 Q 29.294999999999998 12.329999999999998 29.294999999999998 14.805 Q 29.294999999999998 16.605 28.2825 18.1125 Q 27.27 19.62 25.74 20.34 Q 26.145 20.745 26.505 21.1275 Q 26.865 21.51 27.044999999999998 21.645 Q 28.169999999999998 22.635 27.044999999999998 24.03 Q 26.955 24.12 26.7975 24.21 Q 26.64 24.3 26.505 24.435000000000002 Q 27.314999999999998 26.46 28.035 28.372500000000002 Q 28.755 30.285 29.43 31.815 Q 29.97 33.120000000000005 30.9375 33.5475 Q 31.904999999999998 33.975 33.839999999999996 35.1225 Q 35.775 36.269999999999996 36.135 37.215 Q 36.449999999999996 38.115 36.5625 39.825 Q 36.675 41.535 36.765 43.38 L 9.855 43.38 Q 9.855 41.535 9.945 39.825 Q 10.035 38.115 10.395 37.215 Q 10.665 36.269999999999996 12.645 35.1225 Q 14.625 33.975 15.57 33.5475 M 23.13 20.565 Q 23.13 20.655 22.185 21.622500000000002 Q 21.24 22.59 21.105 22.725 Q 21.24 22.995 22.162499999999998 23.9175 Q 23.085 24.84 23.265 24.975 Q 23.4 24.84 24.322499999999998 23.9175 Q 25.244999999999997 22.995 25.515 22.725 Q 25.244999999999997 22.59 24.232499999999998 21.622500000000002 Q 23.22 20.655 23.13 20.565 M 27.134999999999998 14.715 Q 27.134999999999998 13.095000000000002 26.009999999999998 11.947499999999998 Q 24.884999999999998 10.800000000000004 23.265 10.800000000000004 Q 21.689999999999998 10.800000000000004 20.52 11.9925 Q 19.349999999999998 13.185000000000002 19.349999999999998 14.805 Q 19.349999999999998 16.290000000000003 20.294999999999998 17.37 Q 21.24 18.45 22.59 18.585 Q 23.22 18.990000000000002 23.895 18.585 Q 25.244999999999997 18.45 26.189999999999998 17.37 Q 27.134999999999998 16.290000000000003 27.134999999999998 14.715 M 12.33 37.845 Q 12.014999999999999 39.24 12.014999999999999 41.22 L 34.515 41.22 Q 34.515 39.6 34.199999999999996 37.845 Q 33.93 37.305 32.535 36.6525 Q 31.14 36 29.7225 35.3025 Q 28.305 34.605000000000004 27.494999999999997 32.58 Q 26.82 31.23 26.1675 29.565 Q 25.515 27.900000000000002 24.884999999999998 26.19 Q 24.705 26.28 24.615 26.392500000000002 Q 24.525 26.505 24.435 26.505 Q 23.265 27.945 22.05 26.505 Q 21.96 26.505 21.869999999999997 26.392500000000002 Q 21.779999999999998 26.28 21.645 26.19 Q 20.97 27.900000000000002 20.3175 29.565 Q 19.665 31.23 19.035 32.58 Q 18.224999999999998 34.605000000000004 16.785 35.3025 Q 15.344999999999999 36 13.95 36.6525 Q 12.555 37.305 12.33 37.845 Z Z" style="-webkit-tap-highlight-color: rgba(0, 0, 0, 0);"></path><path id="ludo-svg-node-iy4xtjr9" d="M 15.57 33.5475 Q 15.57 33.5475 16.0425 33.33375 Q 16.515 33.120000000000005 17.099999999999998 31.815 Q 17.73 30.285 18.495 28.372500000000002 Q 19.259999999999998 26.46 20.025 24.435000000000002 Q 19.845 24.3 19.6875 24.21 Q 19.529999999999998 24.12 19.485 24.03 Q 18.224999999999998 22.635 19.485 21.645 Q 19.62 21.51 20.002499999999998 21.1275 Q 20.384999999999998 20.745 20.79 20.34 Q 19.215 19.62 18.2025 18.1125 Q 17.189999999999998 16.605 17.189999999999998 14.805 Q 17.189999999999998 12.329999999999998 19.0125 10.485 Q 20.835 8.64 23.265 8.64 Q 25.74 8.64 27.5175 10.485 Q 29.294999999999998 12.329999999999998 29.294999999999998 14.805 Q 29.294999999999998 16.605 28.2825 18.1125 Q 27.27 19.62 25.74 20.34 Q 26.145 20.745 26.505 21.1275 Q 26.865 21.51 27.044999999999998 21.645 Q 28.169999999999998 22.635 27.044999999999998 24.03 Q 26.955 24.12 26.7975 24.21 Q 26.64 24.3 26.505 24.435000000000002 Q 27.314999999999998 26.46 28.035 28.372500000000002 Q 28.755 30.285 29.43 31.815 Q 29.97 33.120000000000005 30.9375 33.5475 Q 31.904999999999998 33.975 33.839999999999996 35.1225 Q 35.775 36.269999999999996 36.135 37.215 Q 36.449999999999996 38.115 36.5625 39.825 Q 36.675 41.535 36.765 43.38 L 9.855 43.38 Q 9.855 41.535 9.945 39.825 Q 10.035 38.115 10.395 37.215 Q 10.665 36.269999999999996 12.645 35.1225 Q 14.625 33.975 15.57 33.5475 M 23.13 20.565 Q 23.13 20.655 22.185 21.622500000000002 Q 21.24 22.59 21.105 22.725 Q 21.24 22.995 22.162499999999998 23.9175 Q 23.085 24.84 23.265 24.975 Q 23.4 24.84 24.322499999999998 23.9175 Q 25.244999999999997 22.995 25.515 22.725 Q 25.244999999999997 22.59 24.232499999999998 21.622500000000002 Q 23.22 20.655 23.13 20.565 M 27.134999999999998 14.715 Q 27.134999999999998 13.095000000000002 26.009999999999998 11.947499999999998 Q 24.884999999999998 10.800000000000004 23.265 10.800000000000004 Q 21.689999999999998 10.800000000000004 20.52 11.9925 Q 19.349999999999998 13.185000000000002 19.349999999999998 14.805 Q 19.349999999999998 16.290000000000003 20.294999999999998 17.37 Q 21.24 18.45 22.59 18.585 Q 23.22 18.990000000000002 23.895 18.585 Q 25.244999999999997 18.45 26.189999999999998 17.37 Q 27.134999999999998 16.290000000000003 27.134999999999998 14.715 M 12.33 37.845 Q 12.014999999999999 39.24 12.014999999999999 41.22 L 34.515 41.22 Q 34.515 39.6 34.199999999999996 37.845 Q 33.93 37.305 32.535 36.6525 Q 31.14 36 29.7225 35.3025 Q 28.305 34.605000000000004 27.494999999999997 32.58 Q 26.82 31.23 26.1675 29.565 Q 25.515 27.900000000000002 24.884999999999998 26.19 Q 24.705 26.28 24.615 26.392500000000002 Q 24.525 26.505 24.435 26.505 Q 23.265 27.945 22.05 26.505 Q 21.96 26.505 21.869999999999997 26.392500000000002 Q 21.779999999999998 26.28 21.645 26.19 Q 20.97 27.900000000000002 20.3175 29.565 Q 19.665 31.23 19.035 32.58 Q 18.224999999999998 34.605000000000004 16.785 35.3025 Q 15.344999999999999 36 13.95 36.6525 Q 12.555 37.305 12.33 37.845 Z Z" fill-rule="even-odd" style="-webkit-tap-highlight-color: rgba(0, 0, 0, 0); fill: rgb(0, 0, 0); stroke-width: 0;"></path></g></svg>