<svg xmlns="http://www.w3.org/2000/svg" version="1.1" id="ludo-svg-node-iy4xtjsr" width="45" height="45" viewBox="0 0 45 45" viewBox="0 0 45 45" style="-webkit-tap-highlight-color: rgba(0, 0, 0, 0); width: 45px; height: 45px;"><g id="ludo-svg-node-iy4xtjss" style="-webkit-tap-highlight-color: rgba(0, 0, 0, 0);"><path id="ludo-svg-node-iy4xtjv3" d="M 18.81 36.765 Q 16.875 36.72 15.615 36.6975 Q 14.354999999999999 36.675 14.264999999999999 36.54 Q 13.68 36 13.635 35.235 Q 13.59 34.47 14.174999999999999 33.975 Q 14.219999999999999 33.885 14.94 32.8725 Q 15.66 31.86 16.65 30.375 Q 14.94 28.215 13.41 26.122500000000002 Q 11.879999999999999 24.03 11.565 23.67 Q 10.575 22.815 10.575 21.532500000000002 Q 10.575 20.25 11.565 19.26 Q 11.834999999999999 18.990000000000002 13.2075 17.19 Q 14.58 15.39 16.1775 13.275000000000002 Q 17.775 11.160000000000004 19.1475 9.337499999999999 Q 20.52 7.515000000000001 20.7 7.335000000000001 Q 20.88 7.155000000000001 20.97 7.020000000000003 Q 20.474999999999998 6.480000000000004 19.9575 5.984999999999999 Q 19.439999999999998 5.490000000000002 19.349999999999998 5.310000000000002 Q 17.91 4.050000000000004 19.349999999999998 2.789999999999999 Q 19.485 2.565000000000005 20.5875 1.5300000000000011 Q 21.689999999999998 0.49500000000000455 21.869999999999997 0.22500000000000142 Q 23.085 -0.9450000000000003 24.21 0.22500000000000142 Q 24.48 0.49500000000000455 25.515 1.5300000000000011 Q 26.55 2.565000000000005 26.82 2.789999999999999 Q 28.08 4.050000000000004 26.82 5.310000000000002 Q 26.64 5.490000000000002 26.099999999999998 5.984999999999999 Q 25.56 6.480000000000004 25.11 7.020000000000003 Q 25.154999999999998 7.020000000000003 25.334999999999997 7.155000000000001 Q 25.65 7.515000000000001 27 9.337499999999999 Q 28.349999999999998 11.160000000000004 29.9025 13.275000000000002 Q 31.455 15.39 32.7825 17.19 Q 34.11 18.990000000000002 34.379999999999995 19.26 Q 35.324999999999996 20.25 35.324999999999996 21.532500000000002 Q 35.324999999999996 22.815 34.379999999999995 23.67 Q 34.065 24.03 32.6025 26.032500000000002 Q 31.14 28.035 29.52 30.195 Q 30.645 31.68 31.432499999999997 32.7825 Q 32.22 33.885 32.355 33.975 Q 33.57 35.235 32.22 36.54 Q 32.129999999999995 36.675 30.7575 36.6975 Q 29.384999999999998 36.72 27.36 36.765 Q 27.224999999999998 37.755 27.27 37.755 Q 27.494999999999997 37.980000000000004 28.799999999999997 37.9575 Q 30.105 37.935 31.68 37.89 Q 33.254999999999995 37.845 34.7175 37.8225 Q 36.18 37.8 36.765 37.980000000000004 Q 38.25 38.475 38.835 40.2525 Q 39.42 42.03 39.824999999999996 43.695 L 27.81 43.695 Q 26.865 43.695 26.0325 43.6275 Q 25.2 43.56 24.345 43.155 Q 23.535 42.75 23.31 42.5475 Q 23.085 42.345 23.04 42.075 Q 23.04 42.345 22.86 42.5475 Q 22.68 42.75 21.869999999999997 43.155 Q 20.925 43.56 20.07 43.6275 Q 19.215 43.695 18.404999999999998 43.695 L 6.255 43.695 Q 6.75 42.03 7.4475 40.2525 Q 8.145 38.475 9.629999999999999 37.980000000000004 Q 10.17 37.8 11.5875 37.8225 Q 13.004999999999999 37.845 14.5125 37.89 Q 16.02 37.935 17.2575 37.9575 Q 18.495 37.980000000000004 18.72 37.755 Q 18.945 37.62 18.877499999999998 37.4625 Q 18.81 37.305 18.81 36.765 Z" fill="#fff" style="-webkit-tap-highlight-color: rgba(0, 0, 0, 0);"></path><path id="ludo-svg-node-iy4xtjv4" d="M 24.119999999999997 22.41 L 26.595 22.41 L 26.595 20.34 L 24.119999999999997 20.34 L 24.119999999999997 17.325 L 22.05 17.325 L 22.05 20.34 L 19.575 20.34 L 19.575 22.41 L 22.05 22.41 L 22.05 30.195 L 24.119999999999997 30.195 L 24.119999999999997 22.41 Z" fill="#fff" style="-webkit-tap-highlight-color: rgba(0, 0, 0, 0);"></path><path id="ludo-svg-node-iy4xtjv5" d="M 23.04 1.7100000000000009 Q 22.86 1.980000000000004 21.9375 2.9250000000000043 Q 21.015 3.8700000000000045 20.88 4.005000000000003 Q 21.015 4.274999999999999 21.9375 5.197499999999998 Q 22.86 6.1200000000000045 23.04 6.255000000000003 Q 23.175 6.1200000000000045 24.119999999999997 5.197499999999998 Q 25.064999999999998 4.274999999999999 25.334999999999997 4.005000000000003 Q 25.064999999999998 3.8700000000000045 24.119999999999997 2.9250000000000043 Q 23.175 1.980000000000004 23.04 1.7100000000000009 Z" fill="#fff" style="-webkit-tap-highlight-color: rgba(0, 0, 0, 0);"></path><path id="ludo-svg-node-iy4xtjv6" d="M 18.81 36.765 Q 16.875 36.72 15.615 36.6975 Q 14.354999999999999 36.675 14.264999999999999 36.54 Q 13.68 36 13.635 35.235 Q 13.59 34.47 14.174999999999999 33.975 Q 14.219999999999999 33.885 14.94 32.8725 Q 15.66 31.86 16.65 30.375 Q 14.94 28.215 13.41 26.122500000000002 Q 11.879999999999999 24.03 11.565 23.67 Q 10.575 22.815 10.575 21.532500000000002 Q 10.575 20.25 11.565 19.26 Q 11.834999999999999 18.990000000000002 13.2075 17.19 Q 14.58 15.39 16.1775 13.275000000000002 Q 17.775 11.160000000000004 19.1475 9.337499999999999 Q 20.52 7.515000000000001 20.7 7.335000000000001 Q 20.88 7.155000000000001 20.97 7.020000000000003 Q 20.474999999999998 6.480000000000004 19.9575 5.984999999999999 Q 19.439999999999998 5.490000000000002 19.349999999999998 5.310000000000002 Q 17.91 4.050000000000004 19.349999999999998 2.789999999999999 Q 19.485 2.565000000000005 20.5875 1.5300000000000011 Q 21.689999999999998 0.49500000000000455 21.869999999999997 0.22500000000000142 Q 23.085 -0.9450000000000003 24.21 0.22500000000000142 Q 24.48 0.49500000000000455 25.515 1.5300000000000011 Q 26.55 2.565000000000005 26.82 2.789999999999999 Q 28.08 4.050000000000004 26.82 5.310000000000002 Q 26.64 5.490000000000002 26.099999999999998 5.984999999999999 Q 25.56 6.480000000000004 25.11 7.020000000000003 Q 25.154999999999998 7.020000000000003 25.334999999999997 7.155000000000001 Q 25.65 7.515000000000001 27 9.337499999999999 Q 28.349999999999998 11.160000000000004 29.9025 13.275000000000002 Q 31.455 15.39 32.7825 17.19 Q 34.11 18.990000000000002 34.379999999999995 19.26 Q 35.324999999999996 20.25 35.324999999999996 21.532500000000002 Q 35.324999999999996 22.815 34.379999999999995 23.67 Q 34.065 24.03 32.6025 26.032500000000002 Q 31.14 28.035 29.52 30.195 Q 30.645 31.68 31.432499999999997 32.7825 Q 32.22 33.885 32.355 33.975 Q 33.57 35.235 32.22 36.54 Q 32.129999999999995 36.675 30.7575 36.6975 Q 29.384999999999998 36.72 27.36 36.765 Q 27.224999999999998 37.755 27.27 37.755 Q 27.494999999999997 37.980000000000004 28.799999999999997 37.9575 Q 30.105 37.935 31.68 37.89 Q 33.254999999999995 37.845 34.7175 37.8225 Q 36.18 37.8 36.765 37.980000000000004 Q 38.25 38.475 38.835 40.2525 Q 39.42 42.03 39.824999999999996 43.695 L 27.81 43.695 Q 26.865 43.695 26.0325 43.6275 Q 25.2 43.56 24.345 43.155 Q 23.535 42.75 23.31 42.5475 Q 23.085 42.345 23.04 42.075 Q 23.04 42.345 22.86 42.5475 Q 22.68 42.75 21.869999999999997 43.155 Q 20.925 43.56 20.07 43.6275 Q 19.215 43.695 18.404999999999998 43.695 L 6.255 43.695 Q 6.75 42.03 7.4475 40.2525 Q 8.145 38.475 9.629999999999999 37.980000000000004 Q 10.17 37.8 11.5875 37.8225 Q 13.004999999999999 37.845 14.5125 37.89 Q 16.02 37.935 17.2575 37.9575 Q 18.495 37.980000000000004 18.72 37.755 Q 18.945 37.62 18.877499999999998 37.4625 Q 18.81 37.305 18.81 36.765 M 24.119999999999997 22.41 L 26.595 22.41 L 26.595 20.34 L 24.119999999999997 20.34 L 24.119999999999997 17.325 L 22.05 17.325 L 22.05 20.34 L 19.575 20.34 L 19.575 22.41 L 22.05 22.41 L 22.05 30.195 L 24.119999999999997 30.195 L 24.119999999999997 22.41 M 23.04 1.7100000000000009 Q 22.86 1.980000000000004 21.9375 2.9250000000000043 Q 21.015 3.8700000000000045 20.88 4.005000000000003 Q 21.015 4.274999999999999 21.9375 5.197499999999998 Q 22.86 6.1200000000000045 23.04 6.255000000000003 Q 23.175 6.1200000000000045 24.119999999999997 5.197499999999998 Q 25.064999999999998 4.274999999999999 25.334999999999997 4.005000000000003 Q 25.064999999999998 3.8700000000000045 24.119999999999997 2.9250000000000043 Q 23.175 1.980000000000004 23.04 1.7100000000000009 M 20.97 36.675 L 25.11 36.675 L 25.515 34.92 L 20.564999999999998 34.92 L 20.97 36.675 Z Z" style="-webkit-tap-highlight-color: rgba(0, 0, 0, 0);"></path><path id="ludo-svg-node-iy4xtjst" d="M 18.81 36.765 Q 16.875 36.72 15.615 36.6975 Q 14.354999999999999 36.675 14.264999999999999 36.54 Q 13.68 36 13.635 35.235 Q 13.59 34.47 14.174999999999999 33.975 Q 14.219999999999999 33.885 14.94 32.8725 Q 15.66 31.86 16.65 30.375 Q 14.94 28.215 13.41 26.122500000000002 Q 11.879999999999999 24.03 11.565 23.67 Q 10.575 22.815 10.575 21.532500000000002 Q 10.575 20.25 11.565 19.26 Q 11.834999999999999 18.990000000000002 13.2075 17.19 Q 14.58 15.39 16.1775 13.275000000000002 Q 17.775 11.160000000000004 19.1475 9.337499999999999 Q 20.52 7.515000000000001 20.7 7.335000000000001 Q 20.88 7.155000000000001 20.97 7.020000000000003 Q 20.474999999999998 6.480000000000004 19.9575 5.984999999999999 Q 19.439999999999998 5.490000000000002 19.349999999999998 5.310000000000002 Q 17.91 4.050000000000004 19.349999999999998 2.789999999999999 Q 19.485 2.565000000000005 20.5875 1.5300000000000011 Q 21.689999999999998 0.49500000000000455 21.869999999999997 0.22500000000000142 Q 23.085 -0.9450000000000003 24.21 0.22500000000000142 Q 24.48 0.49500000000000455 25.515 1.5300000000000011 Q 26.55 2.565000000000005 26.82 2.789999999999999 Q 28.08 4.050000000000004 26.82 5.310000000000002 Q 26.64 5.490000000000002 26.099999999999998 5.984999999999999 Q 25.56 6.480000000000004 25.11 7.020000000000003 Q 25.154999999999998 7.020000000000003 25.334999999999997 7.155000000000001 Q 25.65 7.515000000000001 27 9.337499999999999 Q 28.349999999999998 11.160000000000004 29.9025 13.275000000000002 Q 31.455 15.39 32.7825 17.19 Q 34.11 18.990000000000002 34.379999999999995 19.26 Q 35.324999999999996 20.25 35.324999999999996 21.532500000000002 Q 35.324999999999996 22.815 34.379999999999995 23.67 Q 34.065 24.03 32.6025 26.032500000000002 Q 31.14 28.035 29.52 30.195 Q 30.645 31.68 31.432499999999997 32.7825 Q 32.22 33.885 32.355 33.975 Q 33.57 35.235 32.22 36.54 Q 32.129999999999995 36.675 30.7575 36.6975 Q 29.384999999999998 36.72 27.36 36.765 Q 27.224999999999998 37.755 27.27 37.755 Q 27.494999999999997 37.980000000000004 28.799999999999997 37.9575 Q 30.105 37.935 31.68 37.89 Q 33.254999999999995 37.845 34.7175 37.8225 Q 36.18 37.8 36.765 37.980000000000004 Q 38.25 38.475 38.835 40.2525 Q 39.42 42.03 39.824999999999996 43.695 L 27.81 43.695 Q 26.865 43.695 26.0325 43.6275 Q 25.2 43.56 24.345 43.155 Q 23.535 42.75 23.31 42.5475 Q 23.085 42.345 23.04 42.075 Q 23.04 42.345 22.86 42.5475 Q 22.68 42.75 21.869999999999997 43.155 Q 20.925 43.56 20.07 43.6275 Q 19.215 43.695 18.404999999999998 43.695 L 6.255 43.695 Q 6.75 42.03 7.4475 40.2525 Q 8.145 38.475 9.629999999999999 37.980000000000004 Q 10.17 37.8 11.5875 37.8225 Q 13.004999999999999 37.845 14.5125 37.89 Q 16.02 37.935 17.2575 37.9575 Q 18.495 37.980000000000004 18.72 37.755 Q 18.945 37.62 18.877499999999998 37.4625 Q 18.81 37.305 18.81 36.765 M 24.119999999999997 22.41 L 26.595 22.41 L 26.595 20.34 L 24.119999999999997 20.34 L 24.119999999999997 17.325 L 22.05 17.325 L 22.05 20.34 L 19.575 20.34 L 19.575 22.41 L 22.05 22.41 L 22.05 30.195 L 24.119999999999997 30.195 L 24.119999999999997 22.41 M 23.04 1.7100000000000009 Q 22.86 1.980000000000004 21.9375 2.9250000000000043 Q 21.015 3.8700000000000045 20.88 4.005000000000003 Q 21.015 4.274999999999999 21.9375 5.197499999999998 Q 22.86 6.1200000000000045 23.04 6.255000000000003 Q 23.175 6.1200000000000045 24.119999999999997 5.197499999999998 Q 25.064999999999998 4.274999999999999 25.334999999999997 4.005000000000003 Q 25.064999999999998 3.8700000000000045 24.119999999999997 2.9250000000000043 Q 23.175 1.980000000000004 23.04 1.7100000000000009 M 20.97 36.675 L 25.11 36.675 L 25.515 34.92 L 20.564999999999998 34.92 L 20.97 36.675 Z Z" fill-rule="even-odd" style="-webkit-tap-highlight-color: rgba(0, 0, 0, 0); fill: rgb(0, 0, 0); stroke-width: 0;"></path></g></svg>