<svg xmlns="http://www.w3.org/2000/svg" version="1.1" id="ludo-svg-node-iy51mzm0" width="45" height="45" viewBox="0 0 45 45" viewBox="0 0 45 45" style="-webkit-tap-highlight-color: rgba(0, 0, 0, 0); width: 45px; height: 45px;"><g id="ludo-svg-node-iy51mzm1" style="-webkit-tap-highlight-color: rgba(0, 0, 0, 0);"><path id="ludo-svg-node-iy51mzoc" d="M 14.4580078125 13.974609375 Q 15.205078125 13.0517578125 16.094970703125 12.689208984375 Q 16.98486328125 12.32666015625 17.46826171875 12.72216796875 Q 17.9296875 13.11767578125 17.720947265625 14.051513671875 Q 17.51220703125 14.9853515625 16.7431640625 15.88623046875 Q 15.9521484375 16.80908203125 15.084228515625 17.171630859375 Q 14.21630859375 17.5341796875 13.7548828125 17.138671875 Q 13.271484375 16.7431640625 13.480224609375 15.8203125 Q 13.68896484375 14.8974609375 14.4580078125 13.974609375 Z" fill="#000" style="-webkit-tap-highlight-color: rgba(0, 0, 0, 0);"></path><path id="ludo-svg-node-iy51mzod" d="M 10.96435546875 24.36767578125 Q 10.2392578125 24.78515625 10.04150390625 25.5322265625 Q 10.107421875 26.34521484375 9.228515625 26.4111328125 Q 8.28369140625 26.4990234375 8.26171875 25.6640625 Q 8.3935546875 24.10400390625 9.82177734375 23.115234375 Q 10.546875 22.6318359375 11.1181640625 23.22509765625 Q 11.689453125 23.90625 10.96435546875 24.36767578125 Z" fill="#000" style="-webkit-tap-highlight-color: rgba(0, 0, 0, 0);"></path><path id="ludo-svg-node-iy51mzoe" d="M 25.2685546875 6.92138671875 Q 28.6962890625 7.14111328125 31.651611328125 8.701171875 Q 34.60693359375 10.26123046875 36.67236328125 12.7001953125 Q 38.12255859375 14.4140625 39.407958984375 16.8310546875 Q 40.693359375 19.248046875 41.46240234375 21.95068359375 Q 42.3193359375 25.0927734375 42.550048828125 28.553466796875 Q 42.78076171875 32.01416015625 42.78076171875 34.98046875 L 42.78076171875 39.74853515625 Q 42.78076171875 39.74853515625 39.375 39.74853515625 Q 35.96923828125 39.74853515625 30.498046875 39.74853515625 L 15.7763671875 39.74853515625 Q 15.556640625 39.74853515625 15.57861328125 38.671875 Q 15.6005859375 37.59521484375 15.732421875 36.9580078125 Q 15.79833984375 36.4306640625 16.138916015625 35.4638671875 Q 16.4794921875 34.4970703125 17.2265625 33.11279296875 Q 17.60009765625 32.40966796875 18.907470703125 31.058349609375 Q 20.21484375 29.70703125 21.95068359375 27.9052734375 Q 22.939453125 26.89453125 23.48876953125 25.3564453125 Q 24.0380859375 23.818359375 23.97216796875 22.56591796875 Q 22.9833984375 23.31298828125 22.17041015625 23.66455078125 Q 17.55615234375 25.33447265625 15.4248046875 28.49853515625 Q 15.3369140625 28.63037109375 15.084228515625 29.080810546875 Q 14.83154296875 29.53125 14.43603515625 30.25634765625 Q 13.974609375 31.11328125 13.7109375 31.39892578125 Q 13.2275390625 31.83837890625 12.48046875 31.88232421875 Q 11.25 31.97021484375 10.5908203125 30.673828125 Q 9.64599609375 30.9375 8.94287109375 30.8935546875 Q 7.62451171875 30.41015625 7.14111328125 29.90478515625 Q 6.0205078125 28.80615234375 5.679931640625 27.674560546875 Q 5.33935546875 26.54296875 5.33935546875 25.24658203125 Q 5.361328125 23.3349609375 7.646484375 20.36865234375 Q 10.3271484375 16.9189453125 10.5029296875 15.05126953125 Q 10.5029296875 14.26025390625 10.65673828125 13.29345703125 Q 10.74462890625 12.63427734375 11.2060546875 11.953125 Q 11.49169921875 11.513671875 11.590576171875 11.35986328125 Q 11.689453125 11.2060546875 11.953125 10.8544921875 Q 12.12890625 10.5908203125 12.271728515625 10.447998046875 Q 12.41455078125 10.30517578125 12.6123046875 10.0634765625 Q 12.7880859375 9.86572265625 12.930908203125 9.722900390625 Q 13.07373046875 9.580078125 13.20556640625 9.42626953125 Q 12.0849609375 6.21826171875 12.2607421875 2.8125 Q 16.611328125 4.32861328125 19.599609375 7.6904296875 Q 20.36865234375 5.185546875 22.4560546875 3.66943359375 Q 24.23583984375 4.8779296875 25.2685546875 6.92138671875 Z" fill="#000" style="-webkit-tap-highlight-color: rgba(0, 0, 0, 0);"></path><path id="ludo-svg-node-iy51mzof" d="M 14.4580078125 13.974609375 Q 15.205078125 13.0517578125 16.094970703125 12.689208984375 Q 16.98486328125 12.32666015625 17.46826171875 12.72216796875 Q 17.9296875 13.11767578125 17.720947265625 14.051513671875 Q 17.51220703125 14.9853515625 16.7431640625 15.88623046875 Q 15.9521484375 16.80908203125 15.084228515625 17.171630859375 Q 14.21630859375 17.5341796875 13.7548828125 17.138671875 Q 13.271484375 16.7431640625 13.480224609375 15.8203125 Q 13.68896484375 14.8974609375 14.4580078125 13.974609375 M 10.96435546875 24.36767578125 Q 10.2392578125 24.78515625 10.04150390625 25.5322265625 Q 10.107421875 26.34521484375 9.228515625 26.4111328125 Q 8.28369140625 26.4990234375 8.26171875 25.6640625 Q 8.3935546875 24.10400390625 9.82177734375 23.115234375 Q 10.546875 22.6318359375 11.1181640625 23.22509765625 Q 11.689453125 23.90625 10.96435546875 24.36767578125 M 25.2685546875 6.92138671875 Q 28.6962890625 7.14111328125 31.651611328125 8.701171875 Q 34.60693359375 10.26123046875 36.67236328125 12.7001953125 Q 38.12255859375 14.4140625 39.407958984375 16.8310546875 Q 40.693359375 19.248046875 41.46240234375 21.95068359375 Q 42.3193359375 25.0927734375 42.550048828125 28.553466796875 Q 42.78076171875 32.01416015625 42.78076171875 34.98046875 L 42.78076171875 39.74853515625 Q 42.78076171875 39.74853515625 39.375 39.74853515625 Q 35.96923828125 39.74853515625 30.498046875 39.74853515625 L 15.7763671875 39.74853515625 Q 15.556640625 39.74853515625 15.57861328125 38.671875 Q 15.6005859375 37.59521484375 15.732421875 36.9580078125 Q 15.79833984375 36.4306640625 16.138916015625 35.4638671875 Q 16.4794921875 34.4970703125 17.2265625 33.11279296875 Q 17.60009765625 32.40966796875 18.907470703125 31.058349609375 Q 20.21484375 29.70703125 21.95068359375 27.9052734375 Q 22.939453125 26.89453125 23.48876953125 25.3564453125 Q 24.0380859375 23.818359375 23.97216796875 22.56591796875 Q 22.9833984375 23.31298828125 22.17041015625 23.66455078125 Q 17.55615234375 25.33447265625 15.4248046875 28.49853515625 Q 15.3369140625 28.63037109375 15.084228515625 29.080810546875 Q 14.83154296875 29.53125 14.43603515625 30.25634765625 Q 13.974609375 31.11328125 13.7109375 31.39892578125 Q 13.2275390625 31.83837890625 12.48046875 31.88232421875 Q 11.25 31.97021484375 10.5908203125 30.673828125 Q 9.64599609375 30.9375 8.94287109375 30.8935546875 Q 7.62451171875 30.41015625 7.14111328125 29.90478515625 Q 6.0205078125 28.80615234375 5.679931640625 27.674560546875 Q 5.33935546875 26.54296875 5.33935546875 25.24658203125 Q 5.361328125 23.3349609375 7.646484375 20.36865234375 Q 10.3271484375 16.9189453125 10.5029296875 15.05126953125 Q 10.5029296875 14.26025390625 10.65673828125 13.29345703125 Q 10.74462890625 12.63427734375 11.2060546875 11.953125 Q 11.49169921875 11.513671875 11.590576171875 11.35986328125 Q 11.689453125 11.2060546875 11.953125 10.8544921875 Q 12.12890625 10.5908203125 12.271728515625 10.447998046875 Q 12.41455078125 10.30517578125 12.6123046875 10.0634765625 Q 12.7880859375 9.86572265625 12.930908203125 9.722900390625 Q 13.07373046875 9.580078125 13.20556640625 9.42626953125 Q 12.0849609375 6.21826171875 12.2607421875 2.8125 Q 16.611328125 4.32861328125 19.599609375 7.6904296875 Q 20.36865234375 5.185546875 22.4560546875 3.66943359375 Q 24.23583984375 4.8779296875 25.2685546875 6.92138671875 M 13.623046875 11.14013671875 Q 13.447265625 11.31591796875 13.18359375 11.6455078125 Q 13.0517578125 11.84326171875 12.65625 12.513427734375 Q 12.2607421875 13.18359375 12.10693359375 13.64501953125 Q 11.88720703125 14.17236328125 11.93115234375 14.512939453125 Q 11.97509765625 14.853515625 11.97509765625 15.29296875 Q 11.79931640625 16.58935546875 11.09619140625 17.73193359375 Q 10.39306640625 18.87451171875 9.33837890625 20.50048828125 Q 8.28369140625 22.08251953125 7.734375 22.87353515625 Q 7.18505859375 23.66455078125 6.8994140625 24.89501953125 Q 6.7236328125 25.64208984375 6.910400390625 26.707763671875 Q 7.09716796875 27.7734375 7.75634765625 28.388671875 Q 8.81103515625 29.3994140625 9.7119140625 29.3115234375 Q 9.95361328125 29.3115234375 10.17333984375 29.2236328125 Q 10.546875 28.98193359375 10.986328125 29.11376953125 Q 11.49169921875 29.3115234375 11.6455078125 30.05859375 Q 11.75537109375 30.38818359375 12.15087890625 30.552978515625 Q 12.54638671875 30.7177734375 12.81005859375 30.4541015625 Q 13.07373046875 30.234375 13.370361328125 29.5751953125 Q 13.6669921875 28.916015625 14.326171875 27.79541015625 Q 15.0732421875 26.47705078125 15.9521484375 25.675048828125 Q 16.8310546875 24.873046875 17.5341796875 24.345703125 Q 17.9296875 24.06005859375 18.489990234375 23.697509765625 Q 19.05029296875 23.3349609375 20.0390625 22.939453125 Q 20.80810546875 22.60986328125 21.73095703125 22.159423828125 Q 22.65380859375 21.708984375 23.40087890625 21.0498046875 Q 24.36767578125 20.45654296875 24.9609375 20.76416015625 Q 25.37841796875 21.02783203125 25.46630859375 21.7529296875 Q 25.7080078125 22.91748046875 25.55419921875 24.14794921875 Q 25.3564453125 25.48828125 24.609375 27.015380859375 Q 23.8623046875 28.54248046875 21.62109375 30.41015625 Q 17.0947265625 34.21142578125 17.33642578125 38.1884765625 Q 17.33642578125 38.1884765625 21.07177734375 38.1884765625 Q 24.80712890625 38.1884765625 28.10302734375 38.1884765625 L 40.14404296875 38.1884765625 Q 40.1220703125 38.21044921875 40.177001953125 37.001953125 Q 40.23193359375 35.79345703125 40.25390625 34.4091796875 Q 40.25390625 31.6845703125 40.23193359375 28.740234375 Q 40.2099609375 25.7958984375 39.462890625 22.87353515625 Q 38.7158203125 20.06103515625 37.81494140625 18.08349609375 Q 36.9140625 16.10595703125 35.859375 14.65576171875 Q 34.27734375 12.28271484375 31.541748046875 10.634765625 Q 28.80615234375 8.98681640625 25.83984375 8.45947265625 Q 26.03759765625 9.4482421875 26.03759765625 10.5908203125 Q 25.99365234375 11.35986328125 25.2685546875 11.35986328125 Q 24.49951171875 11.35986328125 24.54345703125 10.5908203125 Q 24.63134765625 7.66845703125 22.5 5.625 Q 20.830078125 7.31689453125 20.67626953125 9.68994140625 Q 20.67626953125 10.458984375 19.88525390625 10.37109375 Q 19.16015625 10.34912109375 19.2041015625 9.55810546875 Q 19.2041015625 9.47021484375 19.248046875 9.38232421875 Q 18.30322265625 9.68994140625 17.3583984375 10.21728515625 Q 16.67724609375 10.65673828125 16.32568359375 9.99755859375 Q 15.93017578125 9.33837890625 16.67724609375 8.96484375 Q 17.0068359375 8.76708984375 17.369384765625 8.59130859375 Q 17.73193359375 8.41552734375 18.08349609375 8.2177734375 Q 16.10595703125 6.240234375 13.77685546875 5.09765625 Q 13.974609375 7.20703125 14.69970703125 9.16259765625 Q 14.8974609375 10.0634765625 13.623046875 11.14013671875 Z Z" style="-webkit-tap-highlight-color: rgba(0, 0, 0, 0);"></path><path id="ludo-svg-node-iy51mzm2" d="M 14.4580078125 13.974609375 Q 15.205078125 13.0517578125 16.094970703125 12.689208984375 Q 16.98486328125 12.32666015625 17.46826171875 12.72216796875 Q 17.9296875 13.11767578125 17.720947265625 14.051513671875 Q 17.51220703125 14.9853515625 16.7431640625 15.88623046875 Q 15.9521484375 16.80908203125 15.084228515625 17.171630859375 Q 14.21630859375 17.5341796875 13.7548828125 17.138671875 Q 13.271484375 16.7431640625 13.480224609375 15.8203125 Q 13.68896484375 14.8974609375 14.4580078125 13.974609375 M 10.96435546875 24.36767578125 Q 10.2392578125 24.78515625 10.04150390625 25.5322265625 Q 10.107421875 26.34521484375 9.228515625 26.4111328125 Q 8.28369140625 26.4990234375 8.26171875 25.6640625 Q 8.3935546875 24.10400390625 9.82177734375 23.115234375 Q 10.546875 22.6318359375 11.1181640625 23.22509765625 Q 11.689453125 23.90625 10.96435546875 24.36767578125 M 25.2685546875 6.92138671875 Q 28.6962890625 7.14111328125 31.651611328125 8.701171875 Q 34.60693359375 10.26123046875 36.67236328125 12.7001953125 Q 38.12255859375 14.4140625 39.407958984375 16.8310546875 Q 40.693359375 19.248046875 41.46240234375 21.95068359375 Q 42.3193359375 25.0927734375 42.550048828125 28.553466796875 Q 42.78076171875 32.01416015625 42.78076171875 34.98046875 L 42.78076171875 39.74853515625 Q 42.78076171875 39.74853515625 39.375 39.74853515625 Q 35.96923828125 39.74853515625 30.498046875 39.74853515625 L 15.7763671875 39.74853515625 Q 15.556640625 39.74853515625 15.57861328125 38.671875 Q 15.6005859375 37.59521484375 15.732421875 36.9580078125 Q 15.79833984375 36.4306640625 16.138916015625 35.4638671875 Q 16.4794921875 34.4970703125 17.2265625 33.11279296875 Q 17.60009765625 32.40966796875 18.907470703125 31.058349609375 Q 20.21484375 29.70703125 21.95068359375 27.9052734375 Q 22.939453125 26.89453125 23.48876953125 25.3564453125 Q 24.0380859375 23.818359375 23.97216796875 22.56591796875 Q 22.9833984375 23.31298828125 22.17041015625 23.66455078125 Q 17.55615234375 25.33447265625 15.4248046875 28.49853515625 Q 15.3369140625 28.63037109375 15.084228515625 29.080810546875 Q 14.83154296875 29.53125 14.43603515625 30.25634765625 Q 13.974609375 31.11328125 13.7109375 31.39892578125 Q 13.2275390625 31.83837890625 12.48046875 31.88232421875 Q 11.25 31.97021484375 10.5908203125 30.673828125 Q 9.64599609375 30.9375 8.94287109375 30.8935546875 Q 7.62451171875 30.41015625 7.14111328125 29.90478515625 Q 6.0205078125 28.80615234375 5.679931640625 27.674560546875 Q 5.33935546875 26.54296875 5.33935546875 25.24658203125 Q 5.361328125 23.3349609375 7.646484375 20.36865234375 Q 10.3271484375 16.9189453125 10.5029296875 15.05126953125 Q 10.5029296875 14.26025390625 10.65673828125 13.29345703125 Q 10.74462890625 12.63427734375 11.2060546875 11.953125 Q 11.49169921875 11.513671875 11.590576171875 11.35986328125 Q 11.689453125 11.2060546875 11.953125 10.8544921875 Q 12.12890625 10.5908203125 12.271728515625 10.447998046875 Q 12.41455078125 10.30517578125 12.6123046875 10.0634765625 Q 12.7880859375 9.86572265625 12.930908203125 9.722900390625 Q 13.07373046875 9.580078125 13.20556640625 9.42626953125 Q 12.0849609375 6.21826171875 12.2607421875 2.8125 Q 16.611328125 4.32861328125 19.599609375 7.6904296875 Q 20.36865234375 5.185546875 22.4560546875 3.66943359375 Q 24.23583984375 4.8779296875 25.2685546875 6.92138671875 M 13.623046875 11.14013671875 Q 13.447265625 11.31591796875 13.18359375 11.6455078125 Q 13.0517578125 11.84326171875 12.65625 12.513427734375 Q 12.2607421875 13.18359375 12.10693359375 13.64501953125 Q 11.88720703125 14.17236328125 11.93115234375 14.512939453125 Q 11.97509765625 14.853515625 11.97509765625 15.29296875 Q 11.79931640625 16.58935546875 11.09619140625 17.73193359375 Q 10.39306640625 18.87451171875 9.33837890625 20.50048828125 Q 8.28369140625 22.08251953125 7.734375 22.87353515625 Q 7.18505859375 23.66455078125 6.8994140625 24.89501953125 Q 6.7236328125 25.64208984375 6.910400390625 26.707763671875 Q 7.09716796875 27.7734375 7.75634765625 28.388671875 Q 8.81103515625 29.3994140625 9.7119140625 29.3115234375 Q 9.95361328125 29.3115234375 10.17333984375 29.2236328125 Q 10.546875 28.98193359375 10.986328125 29.11376953125 Q 11.49169921875 29.3115234375 11.6455078125 30.05859375 Q 11.75537109375 30.38818359375 12.15087890625 30.552978515625 Q 12.54638671875 30.7177734375 12.81005859375 30.4541015625 Q 13.07373046875 30.234375 13.370361328125 29.5751953125 Q 13.6669921875 28.916015625 14.326171875 27.79541015625 Q 15.0732421875 26.47705078125 15.9521484375 25.675048828125 Q 16.8310546875 24.873046875 17.5341796875 24.345703125 Q 17.9296875 24.06005859375 18.489990234375 23.697509765625 Q 19.05029296875 23.3349609375 20.0390625 22.939453125 Q 20.80810546875 22.60986328125 21.73095703125 22.159423828125 Q 22.65380859375 21.708984375 23.40087890625 21.0498046875 Q 24.36767578125 20.45654296875 24.9609375 20.76416015625 Q 25.37841796875 21.02783203125 25.46630859375 21.7529296875 Q 25.7080078125 22.91748046875 25.55419921875 24.14794921875 Q 25.3564453125 25.48828125 24.609375 27.015380859375 Q 23.8623046875 28.54248046875 21.62109375 30.41015625 Q 17.0947265625 34.21142578125 17.33642578125 38.1884765625 Q 17.33642578125 38.1884765625 21.07177734375 38.1884765625 Q 24.80712890625 38.1884765625 28.10302734375 38.1884765625 L 40.14404296875 38.1884765625 Q 40.1220703125 38.21044921875 40.177001953125 37.001953125 Q 40.23193359375 35.79345703125 40.25390625 34.4091796875 Q 40.25390625 31.6845703125 40.23193359375 28.740234375 Q 40.2099609375 25.7958984375 39.462890625 22.87353515625 Q 38.7158203125 20.06103515625 37.81494140625 18.08349609375 Q 36.9140625 16.10595703125 35.859375 14.65576171875 Q 34.27734375 12.28271484375 31.541748046875 10.634765625 Q 28.80615234375 8.98681640625 25.83984375 8.45947265625 Q 26.03759765625 9.4482421875 26.03759765625 10.5908203125 Q 25.99365234375 11.35986328125 25.2685546875 11.35986328125 Q 24.49951171875 11.35986328125 24.54345703125 10.5908203125 Q 24.63134765625 7.66845703125 22.5 5.625 Q 20.830078125 7.31689453125 20.67626953125 9.68994140625 Q 20.67626953125 10.458984375 19.88525390625 10.37109375 Q 19.16015625 10.34912109375 19.2041015625 9.55810546875 Q 19.2041015625 9.47021484375 19.248046875 9.38232421875 Q 18.30322265625 9.68994140625 17.3583984375 10.21728515625 Q 16.67724609375 10.65673828125 16.32568359375 9.99755859375 Q 15.93017578125 9.33837890625 16.67724609375 8.96484375 Q 17.0068359375 8.76708984375 17.369384765625 8.59130859375 Q 17.73193359375 8.41552734375 18.08349609375 8.2177734375 Q 16.10595703125 6.240234375 13.77685546875 5.09765625 Q 13.974609375 7.20703125 14.69970703125 9.16259765625 Q 14.8974609375 10.0634765625 13.623046875 11.14013671875 Z Z" fill-rule="even-odd" style="-webkit-tap-highlight-color: rgba(0, 0, 0, 0); fill: rgb(255, 255, 255); stroke-width: 0;"></path></g></svg>