<svg xmlns="http://www.w3.org/2000/svg" version="1.1" id="ludo-svg-node-iy4xtjsb" width="45" height="45" viewBox="0 0 45 45" viewBox="0 0 45 45" style="-webkit-tap-highlight-color: rgba(0, 0, 0, 0); width: 45px; height: 45px;"><g id="ludo-svg-node-iy4xtjsc" style="-webkit-tap-highlight-color: rgba(0, 0, 0, 0);"><path id="ludo-svg-node-iy4xtjus" d="M 26.82 38.295 Q 24.345 40.77 24.119999999999997 40.905 Q 22.994999999999997 41.94 21.735 40.905 Q 21.465 40.77 19.035 38.205 L 15.885 38.385 L 13.094999999999999 41.445 L 32.67 41.445 L 29.834999999999997 38.52 L 26.82 38.295 Z" fill="#fff" style="-webkit-tap-highlight-color: rgba(0, 0, 0, 0);"></path><path id="ludo-svg-node-iy4xtjut" d="M 31.049999999999997 34.74 Q 30.375 34.335 29.744999999999997 34.019999999999996 Q 29.115 33.705 28.665 33.435 Q 27.765 33.03 25.807499999999997 32.894999999999996 Q 23.849999999999998 32.76 23.13 32.715 Q 22.455 32.76 20.7675 32.985 Q 19.08 33.21 16.965 33.84 Q 14.76 34.65 14.264999999999999 34.92 L 15.705 36.36 L 19.035 36.135 L 21.735 33.3 Q 22.95 32.175 24.119999999999997 33.3 L 26.955 36.135 L 29.7 36.36 L 31.049999999999997 34.74 Z" fill="#fff" style="-webkit-tap-highlight-color: rgba(0, 0, 0, 0);"></path><path id="ludo-svg-node-iy4xtjuu" d="M 13.184999999999999 36.765 L 12.959999999999999 38.52 L 14.174999999999999 37.53 L 13.184999999999999 36.765 Z" fill="#fff" style="-webkit-tap-highlight-color: rgba(0, 0, 0, 0);"></path><path id="ludo-svg-node-iy4xtjuv" d="M 13.184999999999999 33.120000000000005 Q 13.68 32.85 14.399999999999999 32.557500000000005 Q 15.12 32.265 16.335 31.905 Q 17.955 31.365000000000002 19.4175 31.095 Q 20.88 30.825000000000003 21.96 30.735 L 21.869999999999997 22.725 Q 21.06 18.540000000000003 20.07 14.850000000000001 Q 19.08 11.160000000000004 17.325 10.620000000000005 Q 15.299999999999999 10.079999999999998 12.622499999999999 10.305 Q 9.945 10.530000000000001 9.09 10.935000000000002 Q 8.145 11.43 6.7275 12.7575 Q 5.31 14.085 4.77 15.705000000000002 Q 4.185 17.415000000000003 4.0275 18.765 Q 3.8699999999999997 20.115000000000002 3.78 20.970000000000002 Q 3.78 22.725 4.545 25.965 Q 4.995 27.585 5.7825 28.755 Q 6.569999999999999 29.925 8.1 31.14 Q 9.45 32.31 10.709999999999999 32.6475 Q 11.969999999999999 32.985 13.184999999999999 33.120000000000005 Z" fill="#fff" style="-webkit-tap-highlight-color: rgba(0, 0, 0, 0);"></path><path id="ludo-svg-node-iy4xtjuw" d="M 22.95 18.045 Q 23.355 16.155 23.8275 14.4225 Q 24.3 12.689999999999998 24.974999999999998 11.340000000000003 Q 24.974999999999998 10.89 24.57 10.079999999999998 Q 24.21 9.405000000000001 23.7825 8.82 Q 23.355 8.235 23.04 7.560000000000002 Q 21.915 9.090000000000003 21.419999999999998 10.079999999999998 Q 21.015 10.800000000000004 20.947499999999998 11.115000000000002 Q 20.88 11.43 20.88 11.700000000000003 Q 22.095 14.175 22.95 18.045 Z" fill="#fff" style="-webkit-tap-highlight-color: rgba(0, 0, 0, 0);"></path><path id="ludo-svg-node-iy4xtjux" d="M 34.379999999999995 35.055 L 35.28 43.605 L 10.26 43.605 L 11.25 35.055 Q 10.17 34.83 9.09 34.3575 Q 8.01 33.885 6.705 32.894999999999996 Q 4.905 31.41 3.96 29.97 Q 3.0149999999999997 28.53 2.475 26.505 Q 1.6199999999999999 23.175 1.6199999999999999 20.880000000000003 Q 1.665 19.935000000000002 1.8675 18.405 Q 2.07 16.875 2.835 14.940000000000001 Q 3.465 12.915 5.265 11.25 Q 7.0649999999999995 9.585 8.235 9.090000000000003 Q 9.27 8.550000000000004 12.42 8.235 Q 15.57 7.920000000000002 17.865 8.550000000000004 Q 18.945 9 19.259999999999998 9.405000000000001 Q 19.8 8.46 20.5425 7.402500000000003 Q 21.285 6.344999999999999 21.96 5.399999999999999 L 21.96 4.634999999999998 L 19.89 4.634999999999998 L 19.89 2.4750000000000014 L 21.96 2.4750000000000014 L 21.96 0.45000000000000284 L 24.029999999999998 0.45000000000000284 L 24.029999999999998 2.4750000000000014 L 25.965 2.4750000000000014 L 25.965 4.634999999999998 L 24.029999999999998 4.634999999999998 L 24.029999999999998 5.399999999999999 Q 24.66 6.344999999999999 25.357499999999998 7.357500000000002 Q 26.055 8.370000000000005 26.595 9.315000000000005 Q 26.91 9.090000000000003 27.2475 8.910000000000004 Q 27.584999999999997 8.730000000000004 27.9 8.550000000000004 Q 30.24 7.920000000000002 33.3675 8.235 Q 36.495 8.550000000000004 37.665 9.090000000000003 Q 38.699999999999996 9.585 40.5 11.25 Q 42.3 12.915 43.065 14.940000000000001 Q 43.695 16.875 43.92 18.405 Q 44.144999999999996 19.935000000000002 44.144999999999996 20.880000000000003 Q 44.235 23.130000000000003 43.29 26.505 Q 42.75 28.53 41.8275 29.97 Q 40.905 31.41 39.059999999999995 32.894999999999996 Q 37.71 33.975 36.585 34.4475 Q 35.46 34.92 34.379999999999995 35.055 Z" fill="#fff" style="-webkit-tap-highlight-color: rgba(0, 0, 0, 0);"></path><path id="ludo-svg-node-iy4xtjuy" d="M 23.04 34.83 L 20.79 37.125 L 23.04 39.375 L 25.2 37.125 L 23.04 34.83 Z" fill="#fff" style="-webkit-tap-highlight-color: rgba(0, 0, 0, 0);"></path><path id="ludo-svg-node-iy4xtjuz" d="M 32.355 36.45 L 31.275 37.305 L 32.58 38.52 L 32.355 36.45 Z" fill="#fff" style="-webkit-tap-highlight-color: rgba(0, 0, 0, 0);"></path><path id="ludo-svg-node-iy4xtjv0" d="M 26.82 38.295 Q 24.345 40.77 24.119999999999997 40.905 Q 22.994999999999997 41.94 21.735 40.905 Q 21.465 40.77 19.035 38.205 L 15.885 38.385 L 13.094999999999999 41.445 L 32.67 41.445 L 29.834999999999997 38.52 L 26.82 38.295 M 31.049999999999997 34.74 Q 30.375 34.335 29.744999999999997 34.019999999999996 Q 29.115 33.705 28.665 33.435 Q 27.765 33.03 25.807499999999997 32.894999999999996 Q 23.849999999999998 32.76 23.13 32.715 Q 22.455 32.76 20.7675 32.985 Q 19.08 33.21 16.965 33.84 Q 14.76 34.65 14.264999999999999 34.92 L 15.705 36.36 L 19.035 36.135 L 21.735 33.3 Q 22.95 32.175 24.119999999999997 33.3 L 26.955 36.135 L 29.7 36.36 L 31.049999999999997 34.74 M 13.184999999999999 36.765 L 12.959999999999999 38.52 L 14.174999999999999 37.53 L 13.184999999999999 36.765 M 13.184999999999999 33.120000000000005 Q 13.68 32.85 14.399999999999999 32.557500000000005 Q 15.12 32.265 16.335 31.905 Q 17.955 31.365000000000002 19.4175 31.095 Q 20.88 30.825000000000003 21.96 30.735 L 21.869999999999997 22.725 Q 21.06 18.540000000000003 20.07 14.850000000000001 Q 19.08 11.160000000000004 17.325 10.620000000000005 Q 15.299999999999999 10.079999999999998 12.622499999999999 10.305 Q 9.945 10.530000000000001 9.09 10.935000000000002 Q 8.145 11.43 6.7275 12.7575 Q 5.31 14.085 4.77 15.705000000000002 Q 4.185 17.415000000000003 4.0275 18.765 Q 3.8699999999999997 20.115000000000002 3.78 20.970000000000002 Q 3.78 22.725 4.545 25.965 Q 4.995 27.585 5.7825 28.755 Q 6.569999999999999 29.925 8.1 31.14 Q 9.45 32.31 10.709999999999999 32.6475 Q 11.969999999999999 32.985 13.184999999999999 33.120000000000005 M 22.95 18.045 Q 23.355 16.155 23.8275 14.4225 Q 24.3 12.689999999999998 24.974999999999998 11.340000000000003 Q 24.974999999999998 10.89 24.57 10.079999999999998 Q 24.21 9.405000000000001 23.7825 8.82 Q 23.355 8.235 23.04 7.560000000000002 Q 21.915 9.090000000000003 21.419999999999998 10.079999999999998 Q 21.015 10.800000000000004 20.947499999999998 11.115000000000002 Q 20.88 11.43 20.88 11.700000000000003 Q 22.095 14.175 22.95 18.045 M 34.379999999999995 35.055 L 35.28 43.605 L 10.26 43.605 L 11.25 35.055 Q 10.17 34.83 9.09 34.3575 Q 8.01 33.885 6.705 32.894999999999996 Q 4.905 31.41 3.96 29.97 Q 3.0149999999999997 28.53 2.475 26.505 Q 1.6199999999999999 23.175 1.6199999999999999 20.880000000000003 Q 1.665 19.935000000000002 1.8675 18.405 Q 2.07 16.875 2.835 14.940000000000001 Q 3.465 12.915 5.265 11.25 Q 7.0649999999999995 9.585 8.235 9.090000000000003 Q 9.27 8.550000000000004 12.42 8.235 Q 15.57 7.920000000000002 17.865 8.550000000000004 Q 18.945 9 19.259999999999998 9.405000000000001 Q 19.8 8.46 20.5425 7.402500000000003 Q 21.285 6.344999999999999 21.96 5.399999999999999 L 21.96 4.634999999999998 L 19.89 4.634999999999998 L 19.89 2.4750000000000014 L 21.96 2.4750000000000014 L 21.96 0.45000000000000284 L 24.029999999999998 0.45000000000000284 L 24.029999999999998 2.4750000000000014 L 25.965 2.4750000000000014 L 25.965 4.634999999999998 L 24.029999999999998 4.634999999999998 L 24.029999999999998 5.399999999999999 Q 24.66 6.344999999999999 25.357499999999998 7.357500000000002 Q 26.055 8.370000000000005 26.595 9.315000000000005 Q 26.91 9.090000000000003 27.2475 8.910000000000004 Q 27.584999999999997 8.730000000000004 27.9 8.550000000000004 Q 30.24 7.920000000000002 33.3675 8.235 Q 36.495 8.550000000000004 37.665 9.090000000000003 Q 38.699999999999996 9.585 40.5 11.25 Q 42.3 12.915 43.065 14.940000000000001 Q 43.695 16.875 43.92 18.405 Q 44.144999999999996 19.935000000000002 44.144999999999996 20.880000000000003 Q 44.235 23.130000000000003 43.29 26.505 Q 42.75 28.53 41.8275 29.97 Q 40.905 31.41 39.059999999999995 32.894999999999996 Q 37.71 33.975 36.585 34.4475 Q 35.46 34.92 34.379999999999995 35.055 M 23.04 34.83 L 20.79 37.125 L 23.04 39.375 L 25.2 37.125 L 23.04 34.83 M 32.355 36.45 L 31.275 37.305 L 32.58 38.52 L 32.355 36.45 M 23.895 30.735 Q 25.02 30.735 26.82 30.915 Q 28.619999999999997 31.095 29.52 31.5 Q 30.15 31.815 30.959999999999997 32.22 Q 31.77 32.625 32.58 33.120000000000005 Q 33.795 33.03 35.0325 32.6925 Q 36.269999999999996 32.355000000000004 37.754999999999995 31.14 Q 40.5 28.845 41.22 25.965 Q 42.074999999999996 22.77 41.985 20.970000000000002 Q 41.985 20.115000000000002 41.805 18.765 Q 41.625 17.415000000000003 40.995 15.705000000000002 Q 40.41 14.085 38.97 12.7575 Q 37.53 11.43 36.675 10.935000000000002 Q 35.73 10.530000000000001 33.165 10.305 Q 30.599999999999998 10.079999999999998 28.575 10.620000000000005 Q 26.775 11.160000000000004 25.807499999999997 14.850000000000001 Q 24.84 18.540000000000003 24.029999999999998 22.725 L 23.895 30.735 Z Z" style="-webkit-tap-highlight-color: rgba(0, 0, 0, 0);"></path><path id="ludo-svg-node-iy4xtjsd" d="M 26.82 38.295 Q 24.345 40.77 24.119999999999997 40.905 Q 22.994999999999997 41.94 21.735 40.905 Q 21.465 40.77 19.035 38.205 L 15.885 38.385 L 13.094999999999999 41.445 L 32.67 41.445 L 29.834999999999997 38.52 L 26.82 38.295 M 31.049999999999997 34.74 Q 30.375 34.335 29.744999999999997 34.019999999999996 Q 29.115 33.705 28.665 33.435 Q 27.765 33.03 25.807499999999997 32.894999999999996 Q 23.849999999999998 32.76 23.13 32.715 Q 22.455 32.76 20.7675 32.985 Q 19.08 33.21 16.965 33.84 Q 14.76 34.65 14.264999999999999 34.92 L 15.705 36.36 L 19.035 36.135 L 21.735 33.3 Q 22.95 32.175 24.119999999999997 33.3 L 26.955 36.135 L 29.7 36.36 L 31.049999999999997 34.74 M 13.184999999999999 36.765 L 12.959999999999999 38.52 L 14.174999999999999 37.53 L 13.184999999999999 36.765 M 13.184999999999999 33.120000000000005 Q 13.68 32.85 14.399999999999999 32.557500000000005 Q 15.12 32.265 16.335 31.905 Q 17.955 31.365000000000002 19.4175 31.095 Q 20.88 30.825000000000003 21.96 30.735 L 21.869999999999997 22.725 Q 21.06 18.540000000000003 20.07 14.850000000000001 Q 19.08 11.160000000000004 17.325 10.620000000000005 Q 15.299999999999999 10.079999999999998 12.622499999999999 10.305 Q 9.945 10.530000000000001 9.09 10.935000000000002 Q 8.145 11.43 6.7275 12.7575 Q 5.31 14.085 4.77 15.705000000000002 Q 4.185 17.415000000000003 4.0275 18.765 Q 3.8699999999999997 20.115000000000002 3.78 20.970000000000002 Q 3.78 22.725 4.545 25.965 Q 4.995 27.585 5.7825 28.755 Q 6.569999999999999 29.925 8.1 31.14 Q 9.45 32.31 10.709999999999999 32.6475 Q 11.969999999999999 32.985 13.184999999999999 33.120000000000005 M 22.95 18.045 Q 23.355 16.155 23.8275 14.4225 Q 24.3 12.689999999999998 24.974999999999998 11.340000000000003 Q 24.974999999999998 10.89 24.57 10.079999999999998 Q 24.21 9.405000000000001 23.7825 8.82 Q 23.355 8.235 23.04 7.560000000000002 Q 21.915 9.090000000000003 21.419999999999998 10.079999999999998 Q 21.015 10.800000000000004 20.947499999999998 11.115000000000002 Q 20.88 11.43 20.88 11.700000000000003 Q 22.095 14.175 22.95 18.045 M 34.379999999999995 35.055 L 35.28 43.605 L 10.26 43.605 L 11.25 35.055 Q 10.17 34.83 9.09 34.3575 Q 8.01 33.885 6.705 32.894999999999996 Q 4.905 31.41 3.96 29.97 Q 3.0149999999999997 28.53 2.475 26.505 Q 1.6199999999999999 23.175 1.6199999999999999 20.880000000000003 Q 1.665 19.935000000000002 1.8675 18.405 Q 2.07 16.875 2.835 14.940000000000001 Q 3.465 12.915 5.265 11.25 Q 7.0649999999999995 9.585 8.235 9.090000000000003 Q 9.27 8.550000000000004 12.42 8.235 Q 15.57 7.920000000000002 17.865 8.550000000000004 Q 18.945 9 19.259999999999998 9.405000000000001 Q 19.8 8.46 20.5425 7.402500000000003 Q 21.285 6.344999999999999 21.96 5.399999999999999 L 21.96 4.634999999999998 L 19.89 4.634999999999998 L 19.89 2.4750000000000014 L 21.96 2.4750000000000014 L 21.96 0.45000000000000284 L 24.029999999999998 0.45000000000000284 L 24.029999999999998 2.4750000000000014 L 25.965 2.4750000000000014 L 25.965 4.634999999999998 L 24.029999999999998 4.634999999999998 L 24.029999999999998 5.399999999999999 Q 24.66 6.344999999999999 25.357499999999998 7.357500000000002 Q 26.055 8.370000000000005 26.595 9.315000000000005 Q 26.91 9.090000000000003 27.2475 8.910000000000004 Q 27.584999999999997 8.730000000000004 27.9 8.550000000000004 Q 30.24 7.920000000000002 33.3675 8.235 Q 36.495 8.550000000000004 37.665 9.090000000000003 Q 38.699999999999996 9.585 40.5 11.25 Q 42.3 12.915 43.065 14.940000000000001 Q 43.695 16.875 43.92 18.405 Q 44.144999999999996 19.935000000000002 44.144999999999996 20.880000000000003 Q 44.235 23.130000000000003 43.29 26.505 Q 42.75 28.53 41.8275 29.97 Q 40.905 31.41 39.059999999999995 32.894999999999996 Q 37.71 33.975 36.585 34.4475 Q 35.46 34.92 34.379999999999995 35.055 M 23.04 34.83 L 20.79 37.125 L 23.04 39.375 L 25.2 37.125 L 23.04 34.83 M 32.355 36.45 L 31.275 37.305 L 32.58 38.52 L 32.355 36.45 M 23.895 30.735 Q 25.02 30.735 26.82 30.915 Q 28.619999999999997 31.095 29.52 31.5 Q 30.15 31.815 30.959999999999997 32.22 Q 31.77 32.625 32.58 33.120000000000005 Q 33.795 33.03 35.0325 32.6925 Q 36.269999999999996 32.355000000000004 37.754999999999995 31.14 Q 40.5 28.845 41.22 25.965 Q 42.074999999999996 22.77 41.985 20.970000000000002 Q 41.985 20.115000000000002 41.805 18.765 Q 41.625 17.415000000000003 40.995 15.705000000000002 Q 40.41 14.085 38.97 12.7575 Q 37.53 11.43 36.675 10.935000000000002 Q 35.73 10.530000000000001 33.165 10.305 Q 30.599999999999998 10.079999999999998 28.575 10.620000000000005 Q 26.775 11.160000000000004 25.807499999999997 14.850000000000001 Q 24.84 18.540000000000003 24.029999999999998 22.725 L 23.895 30.735 Z Z" fill-rule="even-odd" style="-webkit-tap-highlight-color: rgba(0, 0, 0, 0); fill: rgb(0, 0, 0); stroke-width: 0;"></path></g></svg>