<svg xmlns="http://www.w3.org/2000/svg" version="1.1" id="ludo-svg-node-iy519ioi" width="45" height="45" viewBox="0 0 45 45" viewBox="0 0 45 45" style="-webkit-tap-highlight-color: rgba(0, 0, 0, 0); width: 45px; height: 45px;"><g id="ludo-svg-node-iy519ioj" style="-webkit-tap-highlight-color: rgba(0, 0, 0, 0);"><path id="ludo-svg-node-iy519iqs" d="M 9.11865234375 39.5947265625 L 38.38623046875 39.5947265625 L 38.38623046875 35.9912109375 L 36.123046875 35.9912109375 L 36.123046875 32.3876953125 L 32.2998046875 28.3447265625 L 32.2998046875 14.853515625 L 36.80419921875 11.4697265625 L 36.80419921875 5.4052734375 L 31.61865234375 5.4052734375 L 31.61865234375 8.0859375 L 26.89453125 8.0859375 L 26.89453125 5.4052734375 L 20.6103515625 5.4052734375 L 20.6103515625 8.0859375 L 15.88623046875 8.0859375 L 15.88623046875 5.4052734375 L 10.70068359375 5.4052734375 L 10.70068359375 11.4697265625 L 15.205078125 14.853515625 L 15.205078125 28.3447265625 L 11.3818359375 32.3876953125 L 11.3818359375 35.9912109375 L 9.11865234375 35.9912109375 L 9.11865234375 39.5947265625 Z" fill="#fff" style="-webkit-tap-highlight-color: rgba(0, 0, 0, 0);"></path><path id="ludo-svg-node-iy519iqt" d="M 10.1953125 38.51806640625 L 10.1953125 37.06787109375 L 12.45849609375 37.06787109375 L 37.28759765625 37.06787109375 L 37.28759765625 38.51806640625 L 10.1953125 38.51806640625 Z" fill="#fff" style="-webkit-tap-highlight-color: rgba(0, 0, 0, 0);"></path><path id="ludo-svg-node-iy519iqu" d="M 11.77734375 10.65673828125 L 11.77734375 6.48193359375 L 14.78759765625 6.48193359375 L 14.78759765625 9.1845703125 L 21.68701171875 9.1845703125 L 21.68701171875 6.48193359375 L 25.81787109375 6.48193359375 L 25.81787109375 9.1845703125 L 32.6953125 9.1845703125 L 32.6953125 6.48193359375 L 35.7275390625 6.48193359375 L 35.7275390625 10.65673828125 L 11.77734375 10.65673828125 Z" fill="#fff" style="-webkit-tap-highlight-color: rgba(0, 0, 0, 0);"></path><path id="ludo-svg-node-iy519iqv" d="M 12.45849609375 35.9912109375 L 12.45849609375 33.20068359375 L 35.04638671875 33.20068359375 L 35.04638671875 35.9912109375 L 12.45849609375 35.9912109375 Z" fill="#fff" style="-webkit-tap-highlight-color: rgba(0, 0, 0, 0);"></path><path id="ludo-svg-node-iy519iqw" d="M 12.85400390625 11.7333984375 L 34.65087890625 11.7333984375 L 31.57470703125 14.04052734375 L 16.28173828125 14.04052734375 L 15.93017578125 14.04052734375 L 12.85400390625 11.7333984375 Z" fill="#fff" style="-webkit-tap-highlight-color: rgba(0, 0, 0, 0);"></path><path id="ludo-svg-node-iy519iqx" d="M 13.2275390625 32.1240234375 L 16.01806640625 29.15771484375 L 31.48681640625 29.15771484375 L 34.27734375 32.1240234375 L 13.2275390625 32.1240234375 Z" fill="#fff" style="-webkit-tap-highlight-color: rgba(0, 0, 0, 0);"></path><path id="ludo-svg-node-iy519iqy" d="M 9.11865234375 39.5947265625 L 38.38623046875 39.5947265625 L 38.38623046875 35.9912109375 L 36.123046875 35.9912109375 L 36.123046875 32.3876953125 L 32.2998046875 28.3447265625 L 32.2998046875 14.853515625 L 36.80419921875 11.4697265625 L 36.80419921875 5.4052734375 L 31.61865234375 5.4052734375 L 31.61865234375 8.0859375 L 26.89453125 8.0859375 L 26.89453125 5.4052734375 L 20.6103515625 5.4052734375 L 20.6103515625 8.0859375 L 15.88623046875 8.0859375 L 15.88623046875 5.4052734375 L 10.70068359375 5.4052734375 L 10.70068359375 11.4697265625 L 15.205078125 14.853515625 L 15.205078125 28.3447265625 L 11.3818359375 32.3876953125 L 11.3818359375 35.9912109375 L 9.11865234375 35.9912109375 L 9.11865234375 39.5947265625 M 10.1953125 38.51806640625 L 10.1953125 37.06787109375 L 12.45849609375 37.06787109375 L 37.28759765625 37.06787109375 L 37.28759765625 38.51806640625 L 10.1953125 38.51806640625 M 11.77734375 10.65673828125 L 11.77734375 6.48193359375 L 14.78759765625 6.48193359375 L 14.78759765625 9.1845703125 L 21.68701171875 9.1845703125 L 21.68701171875 6.48193359375 L 25.81787109375 6.48193359375 L 25.81787109375 9.1845703125 L 32.6953125 9.1845703125 L 32.6953125 6.48193359375 L 35.7275390625 6.48193359375 L 35.7275390625 10.65673828125 L 11.77734375 10.65673828125 M 12.45849609375 35.9912109375 L 12.45849609375 33.20068359375 L 35.04638671875 33.20068359375 L 35.04638671875 35.9912109375 L 12.45849609375 35.9912109375 M 12.85400390625 11.7333984375 L 34.65087890625 11.7333984375 L 31.57470703125 14.04052734375 L 16.28173828125 14.04052734375 L 15.93017578125 14.04052734375 L 12.85400390625 11.7333984375 M 13.2275390625 32.1240234375 L 16.01806640625 29.15771484375 L 31.48681640625 29.15771484375 L 34.27734375 32.1240234375 L 13.2275390625 32.1240234375 M 16.28173828125 28.0810546875 L 16.28173828125 15.1171875 L 31.22314453125 15.1171875 L 31.22314453125 28.0810546875 L 16.28173828125 28.0810546875 Z Z" style="-webkit-tap-highlight-color: rgba(0, 0, 0, 0);"></path><path id="ludo-svg-node-iy519iok" d="M 9.11865234375 39.5947265625 L 38.38623046875 39.5947265625 L 38.38623046875 35.9912109375 L 36.123046875 35.9912109375 L 36.123046875 32.3876953125 L 32.2998046875 28.3447265625 L 32.2998046875 14.853515625 L 36.80419921875 11.4697265625 L 36.80419921875 5.4052734375 L 31.61865234375 5.4052734375 L 31.61865234375 8.0859375 L 26.89453125 8.0859375 L 26.89453125 5.4052734375 L 20.6103515625 5.4052734375 L 20.6103515625 8.0859375 L 15.88623046875 8.0859375 L 15.88623046875 5.4052734375 L 10.70068359375 5.4052734375 L 10.70068359375 11.4697265625 L 15.205078125 14.853515625 L 15.205078125 28.3447265625 L 11.3818359375 32.3876953125 L 11.3818359375 35.9912109375 L 9.11865234375 35.9912109375 L 9.11865234375 39.5947265625 M 10.1953125 38.51806640625 L 10.1953125 37.06787109375 L 12.45849609375 37.06787109375 L 37.28759765625 37.06787109375 L 37.28759765625 38.51806640625 L 10.1953125 38.51806640625 M 11.77734375 10.65673828125 L 11.77734375 6.48193359375 L 14.78759765625 6.48193359375 L 14.78759765625 9.1845703125 L 21.68701171875 9.1845703125 L 21.68701171875 6.48193359375 L 25.81787109375 6.48193359375 L 25.81787109375 9.1845703125 L 32.6953125 9.1845703125 L 32.6953125 6.48193359375 L 35.7275390625 6.48193359375 L 35.7275390625 10.65673828125 L 11.77734375 10.65673828125 M 12.45849609375 35.9912109375 L 12.45849609375 33.20068359375 L 35.04638671875 33.20068359375 L 35.04638671875 35.9912109375 L 12.45849609375 35.9912109375 M 12.85400390625 11.7333984375 L 34.65087890625 11.7333984375 L 31.57470703125 14.04052734375 L 16.28173828125 14.04052734375 L 15.93017578125 14.04052734375 L 12.85400390625 11.7333984375 M 13.2275390625 32.1240234375 L 16.01806640625 29.15771484375 L 31.48681640625 29.15771484375 L 34.27734375 32.1240234375 L 13.2275390625 32.1240234375 M 16.28173828125 28.0810546875 L 16.28173828125 15.1171875 L 31.22314453125 15.1171875 L 31.22314453125 28.0810546875 L 16.28173828125 28.0810546875 Z Z" fill-rule="even-odd" style="-webkit-tap-highlight-color: rgba(0, 0, 0, 0); fill: rgb(0, 0, 0); stroke-width: 0;"></path></g></svg>