<svg xmlns="http://www.w3.org/2000/svg" version="1.1" id="ludo-svg-node-iy4xtjt7" width="45" height="45" viewBox="0 0 45 45" viewBox="0 0 45 45" style="-webkit-tap-highlight-color: rgba(0, 0, 0, 0); width: 45px; height: 45px;"><g id="ludo-svg-node-iy4xtjt8" style="-webkit-tap-highlight-color: rgba(0, 0, 0, 0);"><path id="ludo-svg-node-iy4xtjve" d="M 21.195 23.805 L 23.669999999999998 26.415 L 26.279999999999998 23.805 L 23.669999999999998 21.330000000000002 L 21.195 23.805 Z" fill="#fff" style="-webkit-tap-highlight-color: rgba(0, 0, 0, 0);"></path><path id="ludo-svg-node-iy4xtjvf" d="M 33.975 16.560000000000002 L 35.684999999999995 30.285 L 37.665 34.515 L 37.665 43.605 L 9.855 43.605 L 9.855 34.515 L 11.7 30.285 L 13.41 16.560000000000002 L 9.945 9 L 12.105 2.1600000000000037 L 18.18 2.1600000000000037 L 18.18 8.009999999999998 L 20.79 8.009999999999998 L 20.79 2.1600000000000037 L 26.955 2.1600000000000037 L 26.955 8.009999999999998 L 29.52 8.009999999999998 L 29.52 2.1600000000000037 L 35.595 2.1600000000000037 L 37.754999999999995 9 L 33.975 16.560000000000002 Z" fill="#fff" style="-webkit-tap-highlight-color: rgba(0, 0, 0, 0);"></path><path id="ludo-svg-node-iy4xtjvg" d="M 13.32 31.59 L 12.33 33.75 L 35.055 33.75 L 33.975 31.59 L 13.32 31.59 Z" fill="#fff" style="-webkit-tap-highlight-color: rgba(0, 0, 0, 0);"></path><path id="ludo-svg-node-iy4xtjvh" d="M 21.195 23.805 L 23.669999999999998 26.415 L 26.279999999999998 23.805 L 23.669999999999998 21.330000000000002 L 21.195 23.805 M 33.975 16.560000000000002 L 35.684999999999995 30.285 L 37.665 34.515 L 37.665 43.605 L 9.855 43.605 L 9.855 34.515 L 11.7 30.285 L 13.41 16.560000000000002 L 9.945 9 L 12.105 2.1600000000000037 L 18.18 2.1600000000000037 L 18.18 8.009999999999998 L 20.79 8.009999999999998 L 20.79 2.1600000000000037 L 26.955 2.1600000000000037 L 26.955 8.009999999999998 L 29.52 8.009999999999998 L 29.52 2.1600000000000037 L 35.595 2.1600000000000037 L 37.754999999999995 9 L 33.975 16.560000000000002 M 13.32 31.59 L 12.33 33.75 L 35.055 33.75 L 33.975 31.59 L 13.32 31.59 M 32.445 15.57 L 15.165 15.57 L 15.57 17.64 L 32.22 17.64 L 32.445 15.57 Z Z" style="-webkit-tap-highlight-color: rgba(0, 0, 0, 0);"></path><path id="ludo-svg-node-iy4xtjt9" d="M 21.195 23.805 L 23.669999999999998 26.415 L 26.279999999999998 23.805 L 23.669999999999998 21.330000000000002 L 21.195 23.805 M 33.975 16.560000000000002 L 35.684999999999995 30.285 L 37.665 34.515 L 37.665 43.605 L 9.855 43.605 L 9.855 34.515 L 11.7 30.285 L 13.41 16.560000000000002 L 9.945 9 L 12.105 2.1600000000000037 L 18.18 2.1600000000000037 L 18.18 8.009999999999998 L 20.79 8.009999999999998 L 20.79 2.1600000000000037 L 26.955 2.1600000000000037 L 26.955 8.009999999999998 L 29.52 8.009999999999998 L 29.52 2.1600000000000037 L 35.595 2.1600000000000037 L 37.754999999999995 9 L 33.975 16.560000000000002 M 13.32 31.59 L 12.33 33.75 L 35.055 33.75 L 33.975 31.59 L 13.32 31.59 M 32.445 15.57 L 15.165 15.57 L 15.57 17.64 L 32.22 17.64 L 32.445 15.57 Z Z" fill-rule="even-odd" style="-webkit-tap-highlight-color: rgba(0, 0, 0, 0); fill: rgb(0, 0, 0); stroke-width: 0;"></path></g></svg>