<svg xmlns="http://www.w3.org/2000/svg" version="1.1" id="ludo-svg-node-iy4xtjrn" width="45" height="45" viewBox="0 0 45 45" style="-webkit-tap-highlight-color: rgba(0, 0, 0, 0); width: 45px; height: 45px;"><g id="ludo-svg-node-iy4xtjro" style="-webkit-tap-highlight-color: rgba(0, 0, 0, 0);"><path id="ludo-svg-node-iy4xtju2" d="M 15.885 26.415 Q 15.615 26.91 16.02 27.315 Q 16.425 27.72 15.885 28.35 Q 15.389999999999999 29.07 14.0625 30.285 Q 12.735 31.5 11.79 31.905 Q 10.26 32.805 8.64 32.04 Q 7.83 31.634999999999998 6.6375 30.465 Q 5.444999999999999 29.295 4.995 28.575 Q 4.455 27.855 4.59 27.36 Q 4.725 26.865000000000002 4.635 26.19 Q 4.635 25.650000000000002 4.365 25.4025 Q 4.095 25.155 4.635 23.67 Q 5.175 22.32 6.93 19.215 Q 8.685 16.11 9.18 14.625 Q 9.674999999999999 13.275000000000002 9.022499999999999 13.387500000000003 Q 8.37 13.5 8.64 12.780000000000001 Q 8.91 11.969999999999999 9.629999999999999 10.597500000000004 Q 10.35 9.225000000000001 10.934999999999999 8.550000000000004 Q 11.565 7.920000000000002 12.2625 8.032499999999999 Q 12.959999999999999 8.145000000000003 13.5 7.2450000000000045 Q 13.995 6.390000000000001 14.4675 4.590000000000003 Q 14.94 2.789999999999999 15.479999999999999 1.3049999999999997 Q 16.155 2.700000000000003 16.919999999999998 3.960000000000001 Q 17.685 5.219999999999999 18.495 5.535000000000004 Q 20.52 4.770000000000003 23.355 5.175000000000004 Q 27.404999999999998 5.715000000000003 29.34 6.772500000000001 Q 31.275 7.829999999999998 33.975 11.160000000000004 Q 35.01 12.465000000000003 35.64 13.927500000000002 Q 36.269999999999996 15.39 36.765 17.1 Q 37.26 18.810000000000002 37.5525 21.015 Q 37.845 23.220000000000002 37.98 24.975 Q 37.98 26.865000000000002 37.8675 28.462500000000002 Q 37.754999999999995 30.060000000000002 37.845 31.68 Q 37.845 33.3 37.845 34.3125 Q 37.845 35.325 38.205 36.99 Q 38.43 38.385 39.105 40.095 Q 39.78 41.805 40.365 43.47 L 12.105 43.47 Q 11.52 42.3 11.7 40.905 Q 11.7 40.005 11.924999999999999 38.7 Q 12.15 37.395 12.645 36.225 Q 13.049999999999999 35.19 13.725 34.2225 Q 14.399999999999999 33.255 15.165 32.355000000000004 Q 16.605 30.105 17.865 28.755 Q 18.945 27.54 20.1825 26.505 Q 21.419999999999998 25.470000000000002 22.5 24.12 Q 23.445 22.635 23.669999999999998 21.51 Q 23.805 20.835 23.6475 19.642500000000002 Q 23.49 18.45 23.265 18.495 Q 23.085 18.585 22.544999999999998 20.16 Q 22.005 21.735 21.509999999999998 22.275000000000002 Q 21.015 23.04 20.4525 23.3325 Q 19.89 23.625 19.485 23.895 Q 18.945 24.165 18.6525 24.165 Q 18.36 24.165 17.955 24.435000000000002 Q 17.46 24.795 16.8075 25.3575 Q 16.155 25.92 15.885 26.415 Z" fill="#fff" style="-webkit-tap-highlight-color: rgba(0, 0, 0, 0);"></path><path id="ludo-svg-node-iy4xtju3" d="M 17.73 31.68 L 15.03 35.370000000000005 L 20.97 35.82 L 23.669999999999998 32.985 Q 25.02 31.634999999999998 26.415 32.985 L 29.294999999999998 35.91 L 35.91 35.46 Q 35.91 33.165 36.1125 29.9925 Q 36.315 26.82 36.225 25.11 Q 36.135 23.355 35.887499999999996 21.2625 Q 35.64 19.17 35.144999999999996 17.64 Q 34.245 14.625 32.58 12.420000000000002 Q 31.59 11.340000000000003 30.7575 10.485 Q 29.924999999999997 9.630000000000003 28.665 8.64 Q 27.18 8.009999999999998 25.897499999999997 7.515000000000001 Q 24.615 7.020000000000003 23.13 6.93 Q 20.384999999999998 6.615000000000002 18.495 7.335000000000001 Q 17.009999999999998 6.795000000000002 16.627499999999998 6.164999999999999 Q 16.245 5.535000000000004 16.02 4.859999999999999 Q 16.02 6.795000000000002 15.03 8.009999999999998 Q 14.535 8.594999999999999 13.657499999999999 8.842500000000001 Q 12.78 9.090000000000003 12.24 9.719999999999999 Q 11.655 10.395000000000003 11.0925 11.4525 Q 10.53 12.509999999999998 10.26 13.185000000000002 Q 10.125 13.950000000000003 10.709999999999999 13.927500000000002 Q 11.295 13.905000000000001 10.799999999999999 15.255000000000003 Q 10.305 16.650000000000002 8.5275 19.8225 Q 6.75 22.995 6.255 24.345000000000002 Q 5.715 25.740000000000002 6.0525 25.695 Q 6.39 25.650000000000002 6.39 26.055 Q 6.39 26.46 6.1875 26.7975 Q 5.984999999999999 27.135 6.39 27.585 Q 6.795 28.17 7.875 29.1825 Q 8.955 30.195 9.54 30.509999999999998 Q 10.08 30.825000000000003 10.215 30.802500000000002 Q 10.35 30.78 11.025 30.375 Q 11.565 30.105 12.825 29.025 Q 14.084999999999999 27.945 14.49 27.36 Q 14.985 26.73 14.5575 26.4375 Q 14.129999999999999 26.145 14.399999999999999 25.650000000000002 Q 14.67 25.11 15.524999999999999 24.2775 Q 16.38 23.445 16.875 23.04 Q 17.415 22.635 17.7975 22.657500000000002 Q 18.18 22.68 18.585 22.41 Q 18.99 22.14 19.349999999999998 22.0275 Q 19.71 21.915 20.115 21.42 Q 20.43 20.970000000000002 20.9025 20.0025 Q 21.375 19.035 21.645 18.27 Q 21.779999999999998 17.64 21.982499999999998 17.0775 Q 22.185 16.515 21.96 16.02 Q 21.599999999999998 15.48 20.474999999999998 14.850000000000001 Q 19.349999999999998 14.220000000000002 19.485 13.950000000000003 Q 19.529999999999998 13.725000000000001 20.745 13.725000000000001 Q 21.96 13.725000000000001 22.724999999999998 14.265 Q 23.265 14.805 23.985 16.02 Q 24.705 17.235 24.974999999999998 18.18 Q 25.74 20.43 25.334999999999997 21.96 Q 24.974999999999998 23.580000000000002 23.669999999999998 25.11 Q 22.77 26.505 21.555 27.63 Q 20.34 28.755 19.125 29.97 Q 18.134999999999998 30.96 17.73 31.68 Z" fill="#fff" style="-webkit-tap-highlight-color: rgba(0, 0, 0, 0);"></path><path id="ludo-svg-node-iy4xtju4" d="M 14.174999999999999 37.665 Q 13.905 38.61 13.725 39.78 Q 13.545 40.95 13.95 41.76 L 37.305 41.76 L 36.135 37.755 L 29.294999999999998 38.205 L 26.415 41.085 Q 25.02 42.3 23.669999999999998 41.085 L 20.88 38.07 L 14.174999999999999 37.665 Z" fill="#fff" style="-webkit-tap-highlight-color: rgba(0, 0, 0, 0);"></path><path id="ludo-svg-node-iy4xtju5" d="M 25.11 34.605000000000004 L 22.724999999999998 36.99 L 25.11 39.465 L 27.494999999999997 36.99 L 25.11 34.605000000000004 Z" fill="#fff" style="-webkit-tap-highlight-color: rgba(0, 0, 0, 0);"></path><path id="ludo-svg-node-iy4xtju6" d="M 14.399999999999999 14.715 Q 14.85 14.895 15.1425 14.940000000000001 Q 15.434999999999999 14.985 15.344999999999999 15.48 Q 15.344999999999999 15.66 14.962499999999999 15.7725 Q 14.58 15.885000000000002 14.264999999999999 16.02 Q 13.95 16.200000000000003 13.522499999999999 16.335 Q 13.094999999999999 16.470000000000002 12.959999999999999 16.560000000000002 Q 12.195 16.785 11.879999999999999 16.425 Q 11.7 16.245 11.7 15.57 Q 11.745 15.345000000000002 12.0375 14.985 Q 12.33 14.625 12.645 14.625 Q 13.86 14.625 14.399999999999999 14.715 Z" fill="#fff" style="-webkit-tap-highlight-color: rgba(0, 0, 0, 0);"></path><path id="ludo-svg-node-iy4xtju7" d="M 15.885 26.415 Q 15.615 26.91 16.02 27.315 Q 16.425 27.72 15.885 28.35 Q 15.389999999999999 29.07 14.0625 30.285 Q 12.735 31.5 11.79 31.905 Q 10.26 32.805 8.64 32.04 Q 7.83 31.634999999999998 6.6375 30.465 Q 5.444999999999999 29.295 4.995 28.575 Q 4.455 27.855 4.59 27.36 Q 4.725 26.865000000000002 4.635 26.19 Q 4.635 25.650000000000002 4.365 25.4025 Q 4.095 25.155 4.635 23.67 Q 5.175 22.32 6.93 19.215 Q 8.685 16.11 9.18 14.625 Q 9.674999999999999 13.275000000000002 9.022499999999999 13.387500000000003 Q 8.37 13.5 8.64 12.780000000000001 Q 8.91 11.969999999999999 9.629999999999999 10.597500000000004 Q 10.35 9.225000000000001 10.934999999999999 8.550000000000004 Q 11.565 7.920000000000002 12.2625 8.032499999999999 Q 12.959999999999999 8.145000000000003 13.5 7.2450000000000045 Q 13.995 6.390000000000001 14.4675 4.590000000000003 Q 14.94 2.789999999999999 15.479999999999999 1.3049999999999997 Q 16.155 2.700000000000003 16.919999999999998 3.960000000000001 Q 17.685 5.219999999999999 18.495 5.535000000000004 Q 20.52 4.770000000000003 23.355 5.175000000000004 Q 27.404999999999998 5.715000000000003 29.34 6.772500000000001 Q 31.275 7.829999999999998 33.975 11.160000000000004 Q 35.01 12.465000000000003 35.64 13.927500000000002 Q 36.269999999999996 15.39 36.765 17.1 Q 37.26 18.810000000000002 37.5525 21.015 Q 37.845 23.220000000000002 37.98 24.975 Q 37.98 26.865000000000002 37.8675 28.462500000000002 Q 37.754999999999995 30.060000000000002 37.845 31.68 Q 37.845 33.3 37.845 34.3125 Q 37.845 35.325 38.205 36.99 Q 38.43 38.385 39.105 40.095 Q 39.78 41.805 40.365 43.47 L 12.105 43.47 Q 11.52 42.3 11.7 40.905 Q 11.7 40.005 11.924999999999999 38.7 Q 12.15 37.395 12.645 36.225 Q 13.049999999999999 35.19 13.725 34.2225 Q 14.399999999999999 33.255 15.165 32.355000000000004 Q 16.605 30.105 17.865 28.755 Q 18.945 27.54 20.1825 26.505 Q 21.419999999999998 25.470000000000002 22.5 24.12 Q 23.445 22.635 23.669999999999998 21.51 Q 23.805 20.835 23.6475 19.642500000000002 Q 23.49 18.45 23.265 18.495 Q 23.085 18.585 22.544999999999998 20.16 Q 22.005 21.735 21.509999999999998 22.275000000000002 Q 21.015 23.04 20.4525 23.3325 Q 19.89 23.625 19.485 23.895 Q 18.945 24.165 18.6525 24.165 Q 18.36 24.165 17.955 24.435000000000002 Q 17.46 24.795 16.8075 25.3575 Q 16.155 25.92 15.885 26.415 M 17.73 31.68 L 15.03 35.370000000000005 L 20.97 35.82 L 23.669999999999998 32.985 Q 25.02 31.634999999999998 26.415 32.985 L 29.294999999999998 35.91 L 35.91 35.46 Q 35.91 33.165 36.1125 29.9925 Q 36.315 26.82 36.225 25.11 Q 36.135 23.355 35.887499999999996 21.2625 Q 35.64 19.17 35.144999999999996 17.64 Q 34.245 14.625 32.58 12.420000000000002 Q 31.59 11.340000000000003 30.7575 10.485 Q 29.924999999999997 9.630000000000003 28.665 8.64 Q 27.18 8.009999999999998 25.897499999999997 7.515000000000001 Q 24.615 7.020000000000003 23.13 6.93 Q 20.384999999999998 6.615000000000002 18.495 7.335000000000001 Q 17.009999999999998 6.795000000000002 16.627499999999998 6.164999999999999 Q 16.245 5.535000000000004 16.02 4.859999999999999 Q 16.02 6.795000000000002 15.03 8.009999999999998 Q 14.535 8.594999999999999 13.657499999999999 8.842500000000001 Q 12.78 9.090000000000003 12.24 9.719999999999999 Q 11.655 10.395000000000003 11.0925 11.4525 Q 10.53 12.509999999999998 10.26 13.185000000000002 Q 10.125 13.950000000000003 10.709999999999999 13.927500000000002 Q 11.295 13.905000000000001 10.799999999999999 15.255000000000003 Q 10.305 16.650000000000002 8.5275 19.8225 Q 6.75 22.995 6.255 24.345000000000002 Q 5.715 25.740000000000002 6.0525 25.695 Q 6.39 25.650000000000002 6.39 26.055 Q 6.39 26.46 6.1875 26.7975 Q 5.984999999999999 27.135 6.39 27.585 Q 6.795 28.17 7.875 29.1825 Q 8.955 30.195 9.54 30.509999999999998 Q 10.08 30.825000000000003 10.215 30.802500000000002 Q 10.35 30.78 11.025 30.375 Q 11.565 30.105 12.825 29.025 Q 14.084999999999999 27.945 14.49 27.36 Q 14.985 26.73 14.5575 26.4375 Q 14.129999999999999 26.145 14.399999999999999 25.650000000000002 Q 14.67 25.11 15.524999999999999 24.2775 Q 16.38 23.445 16.875 23.04 Q 17.415 22.635 17.7975 22.657500000000002 Q 18.18 22.68 18.585 22.41 Q 18.99 22.14 19.349999999999998 22.0275 Q 19.71 21.915 20.115 21.42 Q 20.43 20.970000000000002 20.9025 20.0025 Q 21.375 19.035 21.645 18.27 Q 21.779999999999998 17.64 21.982499999999998 17.0775 Q 22.185 16.515 21.96 16.02 Q 21.599999999999998 15.48 20.474999999999998 14.850000000000001 Q 19.349999999999998 14.220000000000002 19.485 13.950000000000003 Q 19.529999999999998 13.725000000000001 20.745 13.725000000000001 Q 21.96 13.725000000000001 22.724999999999998 14.265 Q 23.265 14.805 23.985 16.02 Q 24.705 17.235 24.974999999999998 18.18 Q 25.74 20.43 25.334999999999997 21.96 Q 24.974999999999998 23.580000000000002 23.669999999999998 25.11 Q 22.77 26.505 21.555 27.63 Q 20.34 28.755 19.125 29.97 Q 18.134999999999998 30.96 17.73 31.68 M 14.174999999999999 37.665 Q 13.905 38.61 13.725 39.78 Q 13.545 40.95 13.95 41.76 L 37.305 41.76 L 36.135 37.755 L 29.294999999999998 38.205 L 26.415 41.085 Q 25.02 42.3 23.669999999999998 41.085 L 20.88 38.07 L 14.174999999999999 37.665 M 25.11 34.605000000000004 L 22.724999999999998 36.99 L 25.11 39.465 L 27.494999999999997 36.99 L 25.11 34.605000000000004 M 14.399999999999999 14.715 Q 14.85 14.895 15.1425 14.940000000000001 Q 15.434999999999999 14.985 15.344999999999999 15.48 Q 15.344999999999999 15.66 14.962499999999999 15.7725 Q 14.58 15.885000000000002 14.264999999999999 16.02 Q 13.95 16.200000000000003 13.522499999999999 16.335 Q 13.094999999999999 16.470000000000002 12.959999999999999 16.560000000000002 Q 12.195 16.785 11.879999999999999 16.425 Q 11.7 16.245 11.7 15.57 Q 11.745 15.345000000000002 12.0375 14.985 Q 12.33 14.625 12.645 14.625 Q 13.86 14.625 14.399999999999999 14.715 M 7.154999999999999 24.75 Q 7.56 24.75 8.1 24.885 Q 8.64 25.02 8.775 25.29 Q 8.775 25.650000000000002 8.19 26.302500000000002 Q 7.6049999999999995 26.955000000000002 7.335 26.82 Q 7.335 26.685000000000002 7.425 26.415 Q 7.515 26.145 7.47 25.875 Q 7.47 25.2 7.154999999999999 24.75 Z Z" style="-webkit-tap-highlight-color: rgba(0, 0, 0, 0);"></path><path id="ludo-svg-node-iy4xtjrp" d="M 15.885 26.415 Q 15.615 26.91 16.02 27.315 Q 16.425 27.72 15.885 28.35 Q 15.389999999999999 29.07 14.0625 30.285 Q 12.735 31.5 11.79 31.905 Q 10.26 32.805 8.64 32.04 Q 7.83 31.634999999999998 6.6375 30.465 Q 5.444999999999999 29.295 4.995 28.575 Q 4.455 27.855 4.59 27.36 Q 4.725 26.865000000000002 4.635 26.19 Q 4.635 25.650000000000002 4.365 25.4025 Q 4.095 25.155 4.635 23.67 Q 5.175 22.32 6.93 19.215 Q 8.685 16.11 9.18 14.625 Q 9.674999999999999 13.275000000000002 9.022499999999999 13.387500000000003 Q 8.37 13.5 8.64 12.780000000000001 Q 8.91 11.969999999999999 9.629999999999999 10.597500000000004 Q 10.35 9.225000000000001 10.934999999999999 8.550000000000004 Q 11.565 7.920000000000002 12.2625 8.032499999999999 Q 12.959999999999999 8.145000000000003 13.5 7.2450000000000045 Q 13.995 6.390000000000001 14.4675 4.590000000000003 Q 14.94 2.789999999999999 15.479999999999999 1.3049999999999997 Q 16.155 2.700000000000003 16.919999999999998 3.960000000000001 Q 17.685 5.219999999999999 18.495 5.535000000000004 Q 20.52 4.770000000000003 23.355 5.175000000000004 Q 27.404999999999998 5.715000000000003 29.34 6.772500000000001 Q 31.275 7.829999999999998 33.975 11.160000000000004 Q 35.01 12.465000000000003 35.64 13.927500000000002 Q 36.269999999999996 15.39 36.765 17.1 Q 37.26 18.810000000000002 37.5525 21.015 Q 37.845 23.220000000000002 37.98 24.975 Q 37.98 26.865000000000002 37.8675 28.462500000000002 Q 37.754999999999995 30.060000000000002 37.845 31.68 Q 37.845 33.3 37.845 34.3125 Q 37.845 35.325 38.205 36.99 Q 38.43 38.385 39.105 40.095 Q 39.78 41.805 40.365 43.47 L 12.105 43.47 Q 11.52 42.3 11.7 40.905 Q 11.7 40.005 11.924999999999999 38.7 Q 12.15 37.395 12.645 36.225 Q 13.049999999999999 35.19 13.725 34.2225 Q 14.399999999999999 33.255 15.165 32.355000000000004 Q 16.605 30.105 17.865 28.755 Q 18.945 27.54 20.1825 26.505 Q 21.419999999999998 25.470000000000002 22.5 24.12 Q 23.445 22.635 23.669999999999998 21.51 Q 23.805 20.835 23.6475 19.642500000000002 Q 23.49 18.45 23.265 18.495 Q 23.085 18.585 22.544999999999998 20.16 Q 22.005 21.735 21.509999999999998 22.275000000000002 Q 21.015 23.04 20.4525 23.3325 Q 19.89 23.625 19.485 23.895 Q 18.945 24.165 18.6525 24.165 Q 18.36 24.165 17.955 24.435000000000002 Q 17.46 24.795 16.8075 25.3575 Q 16.155 25.92 15.885 26.415 M 17.73 31.68 L 15.03 35.370000000000005 L 20.97 35.82 L 23.669999999999998 32.985 Q 25.02 31.634999999999998 26.415 32.985 L 29.294999999999998 35.91 L 35.91 35.46 Q 35.91 33.165 36.1125 29.9925 Q 36.315 26.82 36.225 25.11 Q 36.135 23.355 35.887499999999996 21.2625 Q 35.64 19.17 35.144999999999996 17.64 Q 34.245 14.625 32.58 12.420000000000002 Q 31.59 11.340000000000003 30.7575 10.485 Q 29.924999999999997 9.630000000000003 28.665 8.64 Q 27.18 8.009999999999998 25.897499999999997 7.515000000000001 Q 24.615 7.020000000000003 23.13 6.93 Q 20.384999999999998 6.615000000000002 18.495 7.335000000000001 Q 17.009999999999998 6.795000000000002 16.627499999999998 6.164999999999999 Q 16.245 5.535000000000004 16.02 4.859999999999999 Q 16.02 6.795000000000002 15.03 8.009999999999998 Q 14.535 8.594999999999999 13.657499999999999 8.842500000000001 Q 12.78 9.090000000000003 12.24 9.719999999999999 Q 11.655 10.395000000000003 11.0925 11.4525 Q 10.53 12.509999999999998 10.26 13.185000000000002 Q 10.125 13.950000000000003 10.709999999999999 13.927500000000002 Q 11.295 13.905000000000001 10.799999999999999 15.255000000000003 Q 10.305 16.650000000000002 8.5275 19.8225 Q 6.75 22.995 6.255 24.345000000000002 Q 5.715 25.740000000000002 6.0525 25.695 Q 6.39 25.650000000000002 6.39 26.055 Q 6.39 26.46 6.1875 26.7975 Q 5.984999999999999 27.135 6.39 27.585 Q 6.795 28.17 7.875 29.1825 Q 8.955 30.195 9.54 30.509999999999998 Q 10.08 30.825000000000003 10.215 30.802500000000002 Q 10.35 30.78 11.025 30.375 Q 11.565 30.105 12.825 29.025 Q 14.084999999999999 27.945 14.49 27.36 Q 14.985 26.73 14.5575 26.4375 Q 14.129999999999999 26.145 14.399999999999999 25.650000000000002 Q 14.67 25.11 15.524999999999999 24.2775 Q 16.38 23.445 16.875 23.04 Q 17.415 22.635 17.7975 22.657500000000002 Q 18.18 22.68 18.585 22.41 Q 18.99 22.14 19.349999999999998 22.0275 Q 19.71 21.915 20.115 21.42 Q 20.43 20.970000000000002 20.9025 20.0025 Q 21.375 19.035 21.645 18.27 Q 21.779999999999998 17.64 21.982499999999998 17.0775 Q 22.185 16.515 21.96 16.02 Q 21.599999999999998 15.48 20.474999999999998 14.850000000000001 Q 19.349999999999998 14.220000000000002 19.485 13.950000000000003 Q 19.529999999999998 13.725000000000001 20.745 13.725000000000001 Q 21.96 13.725000000000001 22.724999999999998 14.265 Q 23.265 14.805 23.985 16.02 Q 24.705 17.235 24.974999999999998 18.18 Q 25.74 20.43 25.334999999999997 21.96 Q 24.974999999999998 23.580000000000002 23.669999999999998 25.11 Q 22.77 26.505 21.555 27.63 Q 20.34 28.755 19.125 29.97 Q 18.134999999999998 30.96 17.73 31.68 M 14.174999999999999 37.665 Q 13.905 38.61 13.725 39.78 Q 13.545 40.95 13.95 41.76 L 37.305 41.76 L 36.135 37.755 L 29.294999999999998 38.205 L 26.415 41.085 Q 25.02 42.3 23.669999999999998 41.085 L 20.88 38.07 L 14.174999999999999 37.665 M 25.11 34.605000000000004 L 22.724999999999998 36.99 L 25.11 39.465 L 27.494999999999997 36.99 L 25.11 34.605000000000004 M 14.399999999999999 14.715 Q 14.85 14.895 15.1425 14.940000000000001 Q 15.434999999999999 14.985 15.344999999999999 15.48 Q 15.344999999999999 15.66 14.962499999999999 15.7725 Q 14.58 15.885000000000002 14.264999999999999 16.02 Q 13.95 16.200000000000003 13.522499999999999 16.335 Q 13.094999999999999 16.470000000000002 12.959999999999999 16.560000000000002 Q 12.195 16.785 11.879999999999999 16.425 Q 11.7 16.245 11.7 15.57 Q 11.745 15.345000000000002 12.0375 14.985 Q 12.33 14.625 12.645 14.625 Q 13.86 14.625 14.399999999999999 14.715 M 7.154999999999999 24.75 Q 7.56 24.75 8.1 24.885 Q 8.64 25.02 8.775 25.29 Q 8.775 25.650000000000002 8.19 26.302500000000002 Q 7.6049999999999995 26.955000000000002 7.335 26.82 Q 7.335 26.685000000000002 7.425 26.415 Q 7.515 26.145 7.47 25.875 Q 7.47 25.2 7.154999999999999 24.75 Z Z" fill-rule="even-odd" style="-webkit-tap-highlight-color: rgba(0, 0, 0, 0); fill: rgb(0, 0, 0); stroke-width: 0;"></path></g></svg>