<svg xmlns="http://www.w3.org/2000/svg" version="1.1" id="ludo-svg-node-iy4wkpwh" width="45" height="45" viewBox="0 0 45 45" style="-webkit-tap-highlight-color: rgba(0, 0, 0, 0); width: 45px; height: 45px;">
    <g id="ludo-svg-node-iy4wkpwi" style="-webkit-tap-highlight-color: rgba(0, 0, 0, 0);">
        <ellipse style="fill:#FFF" cx="22" cy="18" rx="4" ry="6"></ellipse>

        <path id="ludo-svg-node-iy4wkpy3"
              d="M 22.5 38.86962890625 L 33.24462890625 38.86962890625 L 32.98095703125 37.265625 L 22.5 37.265625 L 12.01904296875 37.265625 L 11.75537109375 38.86962890625 L 22.5 38.86962890625 Z"
              fill="#FFF" style="-webkit-tap-highlight-color: rgba(0, 0, 0, 0);"></path>
        <path id="ludo-svg-node-iy4wkpy4"
              d="M 22.5 18.6328125 Q 21.95068359375 17.314453125 21.1376953125 16.19384765625 Q 21.81884765625 15.13916015625 22.5 14.765625 Q 23.1591796875 15.13916015625 23.8623046875 16.19384765625 Q 23.02734375 17.314453125 22.5 18.6328125 Z"
              fill="#FFF" style="-webkit-tap-highlight-color: rgba(0, 0, 0, 0);"></path>
        <path id="ludo-svg-node-iy4wkpy5"
              d="M 20.36865234375 28.6083984375 Q 16.98486328125 28.85009765625 13.7109375 29.8828125 Q 11.00830078125 27.509765625 9.31640625 25.191650390625 Q 7.62451171875 22.87353515625 7.62451171875 20.76416015625 Q 7.62451171875 18.80859375 9.239501953125 17.2705078125 Q 10.8544921875 15.732421875 12.50244140625 15.732421875 Q 13.974609375 15.732421875 15.457763671875 17.105712890625 Q 16.94091796875 18.47900390625 17.7099609375 19.97314453125 Q 18.369140625 21.15966796875 19.35791015625 23.818359375 Q 20.3466796875 26.47705078125 20.36865234375 28.6083984375 Z"
              fill="#FFF" style="-webkit-tap-highlight-color: rgba(0, 0, 0, 0);"></path>
        <path id="ludo-svg-node-iy4wkpy6"
              d="M 12.67822265625 33.37646484375 L 12.10693359375 36.80419921875 L 15.29296875 34.95849609375 L 12.67822265625 33.37646484375 Z"
              fill="#FFF" style="-webkit-tap-highlight-color: rgba(0, 0, 0, 0);"></path>
        <path id="ludo-svg-node-iy4wkpy7"
              d="M 22.5 13.447265625 Q 21.46728515625 13.447265625 19.51171875 16.10595703125 Q 18.83056640625 15.31494140625 18.4130859375 14.8974609375 Q 20.45654296875 11.8212890625 22.5 11.8212890625 Q 24.521484375 11.8212890625 26.5869140625 14.8974609375 Q 26.1474609375 15.31494140625 25.48828125 16.10595703125 Q 23.5107421875 13.447265625 22.5 13.447265625 Z"
              fill="#FFF" style="-webkit-tap-highlight-color: rgba(0, 0, 0, 0);"></path>
        <path id="ludo-svg-node-iy4wkpy8"
              d="M 22.5 30.47607421875 Q 22.47802734375 27.70751953125 21.5771484375 24.598388671875 Q 20.67626953125 21.4892578125 19.7314453125 19.62158203125 Q 19.5556640625 19.31396484375 19.423828125 19.0283203125 Q 19.2919921875 18.74267578125 19.16015625 18.52294921875 Q 18.544921875 17.578125 18.10546875 17.0068359375 Q 16.98486328125 15.62255859375 15.46875 14.69970703125 Q 13.95263671875 13.77685546875 12.5244140625 13.77685546875 Q 10.26123046875 13.77685546875 7.9541015625 15.8203125 Q 5.64697265625 17.86376953125 5.64697265625 20.85205078125 Q 5.64697265625 23.48876953125 7.822265625 26.444091796875 Q 9.99755859375 29.3994140625 13.29345703125 32.14599609375 Q 17.7099609375 30.52001953125 22.5 30.47607421875 Z"
              fill="#FFF" style="-webkit-tap-highlight-color: rgba(0, 0, 0, 0);"></path>
        <path id="ludo-svg-node-iy4wkpy9"
              d="M 22.5 40.49560546875 L 9.84375 40.49560546875 L 11.18408203125 32.4755859375 Q 4.04296875 26.3232421875 4.02099609375 20.72021484375 Q 3.9990234375 17.2265625 6.767578125 14.688720703125 Q 9.5361328125 12.15087890625 12.63427734375 12.15087890625 Q 14.34814453125 12.15087890625 16.116943359375 13.18359375 Q 17.8857421875 14.21630859375 19.248046875 15.79833984375 Q 20.58837890625 17.42431640625 21.412353515625 19.412841796875 Q 22.236328125 21.4013671875 22.5 22.7197265625 Q 22.763671875 21.4013671875 23.57666015625 19.412841796875 Q 24.3896484375 17.42431640625 25.751953125 15.79833984375 Q 27.09228515625 14.21630859375 28.8720703125 13.18359375 Q 30.65185546875 12.15087890625 32.36572265625 12.15087890625 Q 35.44189453125 12.15087890625 38.21044921875 14.688720703125 Q 40.97900390625 17.2265625 40.97900390625 20.72021484375 Q 40.93505859375 26.3232421875 33.81591796875 32.4755859375 L 35.15625 40.49560546875 L 22.5 40.49560546875 Z"
              fill="#FFF" style="-webkit-tap-highlight-color: rgba(0, 0, 0, 0);"></path>
        <path id="ludo-svg-node-iy4wkpya"
              d="M 24.63134765625 28.6083984375 Q 24.63134765625 26.47705078125 25.6201171875 23.818359375 Q 26.60888671875 21.15966796875 27.2900390625 19.97314453125 Q 28.037109375 18.47900390625 29.520263671875 17.105712890625 Q 31.00341796875 15.732421875 32.49755859375 15.732421875 Q 34.12353515625 15.732421875 35.738525390625 17.2705078125 Q 37.353515625 18.80859375 37.37548828125 20.76416015625 Q 37.37548828125 22.87353515625 35.68359375 25.191650390625 Q 33.99169921875 27.509765625 31.2890625 29.8828125 Q 27.9931640625 28.85009765625 24.63134765625 28.6083984375 Z"
              fill="#FFF" style="-webkit-tap-highlight-color: rgba(0, 0, 0, 0);"></path>
        <path id="ludo-svg-node-iy4wkpyb"
              d="M 32.32177734375 33.37646484375 L 29.70703125 34.95849609375 L 32.89306640625 36.80419921875 L 32.32177734375 33.37646484375 Z"
              fill="#FFF" style="-webkit-tap-highlight-color: rgba(0, 0, 0, 0);"></path>
        <path id="ludo-svg-node-iy4wkpyc"
              d="M 22.5 30.47607421875 Q 27.26806640625 30.52001953125 31.70654296875 32.14599609375 Q 35.00244140625 29.3994140625 37.177734375 26.444091796875 Q 39.35302734375 23.48876953125 39.35302734375 20.85205078125 Q 39.35302734375 17.86376953125 37.034912109375 15.8203125 Q 34.716796875 13.77685546875 32.4755859375 13.77685546875 Q 31.025390625 13.77685546875 29.50927734375 14.69970703125 Q 27.9931640625 15.62255859375 26.89453125 17.0068359375 Q 26.43310546875 17.578125 25.83984375 18.52294921875 Q 25.7080078125 18.74267578125 25.565185546875 19.0283203125 Q 25.42236328125 19.31396484375 25.2685546875 19.62158203125 Q 24.3017578125 21.4892578125 23.40087890625 24.598388671875 Q 22.5 27.70751953125 22.5 30.47607421875 Z"
              fill="#FFF" style="-webkit-tap-highlight-color: rgba(0, 0, 0, 0);"></path>
        <path id="ludo-svg-node-iy4wkpyd"
              d="M 19.44580078125 33.9697265625 L 22.5 35.859375 L 25.55419921875 34.013671875 L 22.5 32.1240234375 L 19.44580078125 33.9697265625 Z"
              fill="#FFF" style="-webkit-tap-highlight-color: rgba(0, 0, 0, 0);"></path>
        <path id="ludo-svg-node-iy4wkpye"
              d="M 22.5 38.86962890625 L 33.24462890625 38.86962890625 L 32.98095703125 37.265625 L 22.5 37.265625 L 12.01904296875 37.265625 L 11.75537109375 38.86962890625 L 22.5 38.86962890625 M 22.5 18.6328125 Q 21.95068359375 17.314453125 21.1376953125 16.19384765625 Q 21.81884765625 15.13916015625 22.5 14.765625 Q 23.1591796875 15.13916015625 23.8623046875 16.19384765625 Q 23.02734375 17.314453125 22.5 18.6328125 M 20.36865234375 28.6083984375 Q 16.98486328125 28.85009765625 13.7109375 29.8828125 Q 11.00830078125 27.509765625 9.31640625 25.191650390625 Q 7.62451171875 22.87353515625 7.62451171875 20.76416015625 Q 7.62451171875 18.80859375 9.239501953125 17.2705078125 Q 10.8544921875 15.732421875 12.50244140625 15.732421875 Q 13.974609375 15.732421875 15.457763671875 17.105712890625 Q 16.94091796875 18.47900390625 17.7099609375 19.97314453125 Q 18.369140625 21.15966796875 19.35791015625 23.818359375 Q 20.3466796875 26.47705078125 20.36865234375 28.6083984375 M 12.67822265625 33.37646484375 L 12.10693359375 36.80419921875 L 15.29296875 34.95849609375 L 12.67822265625 33.37646484375 M 22.5 13.447265625 Q 21.46728515625 13.447265625 19.51171875 16.10595703125 Q 18.83056640625 15.31494140625 18.4130859375 14.8974609375 Q 20.45654296875 11.8212890625 22.5 11.8212890625 Q 24.521484375 11.8212890625 26.5869140625 14.8974609375 Q 26.1474609375 15.31494140625 25.48828125 16.10595703125 Q 23.5107421875 13.447265625 22.5 13.447265625 M 22.5 30.47607421875 Q 22.47802734375 27.70751953125 21.5771484375 24.598388671875 Q 20.67626953125 21.4892578125 19.7314453125 19.62158203125 Q 19.5556640625 19.31396484375 19.423828125 19.0283203125 Q 19.2919921875 18.74267578125 19.16015625 18.52294921875 Q 18.544921875 17.578125 18.10546875 17.0068359375 Q 16.98486328125 15.62255859375 15.46875 14.69970703125 Q 13.95263671875 13.77685546875 12.5244140625 13.77685546875 Q 10.26123046875 13.77685546875 7.9541015625 15.8203125 Q 5.64697265625 17.86376953125 5.64697265625 20.85205078125 Q 5.64697265625 23.48876953125 7.822265625 26.444091796875 Q 9.99755859375 29.3994140625 13.29345703125 32.14599609375 Q 17.7099609375 30.52001953125 22.5 30.47607421875 M 22.5 40.49560546875 L 9.84375 40.49560546875 L 11.18408203125 32.4755859375 Q 4.04296875 26.3232421875 4.02099609375 20.72021484375 Q 3.9990234375 17.2265625 6.767578125 14.688720703125 Q 9.5361328125 12.15087890625 12.63427734375 12.15087890625 Q 14.34814453125 12.15087890625 16.116943359375 13.18359375 Q 17.8857421875 14.21630859375 19.248046875 15.79833984375 Q 20.58837890625 17.42431640625 21.412353515625 19.412841796875 Q 22.236328125 21.4013671875 22.5 22.7197265625 Q 22.763671875 21.4013671875 23.57666015625 19.412841796875 Q 24.3896484375 17.42431640625 25.751953125 15.79833984375 Q 27.09228515625 14.21630859375 28.8720703125 13.18359375 Q 30.65185546875 12.15087890625 32.36572265625 12.15087890625 Q 35.44189453125 12.15087890625 38.21044921875 14.688720703125 Q 40.97900390625 17.2265625 40.97900390625 20.72021484375 Q 40.93505859375 26.3232421875 33.81591796875 32.4755859375 L 35.15625 40.49560546875 L 22.5 40.49560546875 M 24.63134765625 28.6083984375 Q 24.63134765625 26.47705078125 25.6201171875 23.818359375 Q 26.60888671875 21.15966796875 27.2900390625 19.97314453125 Q 28.037109375 18.47900390625 29.520263671875 17.105712890625 Q 31.00341796875 15.732421875 32.49755859375 15.732421875 Q 34.12353515625 15.732421875 35.738525390625 17.2705078125 Q 37.353515625 18.80859375 37.37548828125 20.76416015625 Q 37.37548828125 22.87353515625 35.68359375 25.191650390625 Q 33.99169921875 27.509765625 31.2890625 29.8828125 Q 27.9931640625 28.85009765625 24.63134765625 28.6083984375 M 32.32177734375 33.37646484375 L 29.70703125 34.95849609375 L 32.89306640625 36.80419921875 L 32.32177734375 33.37646484375 M 22.5 30.47607421875 Q 27.26806640625 30.52001953125 31.70654296875 32.14599609375 Q 35.00244140625 29.3994140625 37.177734375 26.444091796875 Q 39.35302734375 23.48876953125 39.35302734375 20.85205078125 Q 39.35302734375 17.86376953125 37.034912109375 15.8203125 Q 34.716796875 13.77685546875 32.4755859375 13.77685546875 Q 31.025390625 13.77685546875 29.50927734375 14.69970703125 Q 27.9931640625 15.62255859375 26.89453125 17.0068359375 Q 26.43310546875 17.578125 25.83984375 18.52294921875 Q 25.7080078125 18.74267578125 25.565185546875 19.0283203125 Q 25.42236328125 19.31396484375 25.2685546875 19.62158203125 Q 24.3017578125 21.4892578125 23.40087890625 24.598388671875 Q 22.5 27.70751953125 22.5 30.47607421875 M 19.44580078125 33.9697265625 L 22.5 35.859375 L 25.55419921875 34.013671875 L 22.5 32.1240234375 L 19.44580078125 33.9697265625 M 21.46728515625 6.5478515625 L 21.46728515625 4.46044921875 L 23.53271484375 4.46044921875 L 23.53271484375 6.5478515625 L 25.8837890625 6.5478515625 L 25.8837890625 8.63525390625 L 23.53271484375 8.63525390625 L 23.53271484375 11.9970703125 Q 22.47802734375 11.6455078125 21.46728515625 11.9970703125 L 21.46728515625 8.63525390625 L 19.1162109375 8.63525390625 L 19.1162109375 6.5478515625 L 21.46728515625 6.5478515625 Z Z"
              style="-webkit-tap-highlight-color: rgba(0, 0, 0, 0);"></path>
        <path id="ludo-svg-node-iy4wkpwj"
              d="M 22.5 38.86962890625 L 33.24462890625 38.86962890625 L 32.98095703125 37.265625 L 22.5 37.265625 L 12.01904296875 37.265625 L 11.75537109375 38.86962890625 L 22.5 38.86962890625 M 22.5 18.6328125 Q 21.95068359375 17.314453125 21.1376953125 16.19384765625 Q 21.81884765625 15.13916015625 22.5 14.765625 Q 23.1591796875 15.13916015625 23.8623046875 16.19384765625 Q 23.02734375 17.314453125 22.5 18.6328125 M 20.36865234375 28.6083984375 Q 16.98486328125 28.85009765625 13.7109375 29.8828125 Q 11.00830078125 27.509765625 9.31640625 25.191650390625 Q 7.62451171875 22.87353515625 7.62451171875 20.76416015625 Q 7.62451171875 18.80859375 9.239501953125 17.2705078125 Q 10.8544921875 15.732421875 12.50244140625 15.732421875 Q 13.974609375 15.732421875 15.457763671875 17.105712890625 Q 16.94091796875 18.47900390625 17.7099609375 19.97314453125 Q 18.369140625 21.15966796875 19.35791015625 23.818359375 Q 20.3466796875 26.47705078125 20.36865234375 28.6083984375 M 12.67822265625 33.37646484375 L 12.10693359375 36.80419921875 L 15.29296875 34.95849609375 L 12.67822265625 33.37646484375 M 22.5 13.447265625 Q 21.46728515625 13.447265625 19.51171875 16.10595703125 Q 18.83056640625 15.31494140625 18.4130859375 14.8974609375 Q 20.45654296875 11.8212890625 22.5 11.8212890625 Q 24.521484375 11.8212890625 26.5869140625 14.8974609375 Q 26.1474609375 15.31494140625 25.48828125 16.10595703125 Q 23.5107421875 13.447265625 22.5 13.447265625 M 22.5 30.47607421875 Q 22.47802734375 27.70751953125 21.5771484375 24.598388671875 Q 20.67626953125 21.4892578125 19.7314453125 19.62158203125 Q 19.5556640625 19.31396484375 19.423828125 19.0283203125 Q 19.2919921875 18.74267578125 19.16015625 18.52294921875 Q 18.544921875 17.578125 18.10546875 17.0068359375 Q 16.98486328125 15.62255859375 15.46875 14.69970703125 Q 13.95263671875 13.77685546875 12.5244140625 13.77685546875 Q 10.26123046875 13.77685546875 7.9541015625 15.8203125 Q 5.64697265625 17.86376953125 5.64697265625 20.85205078125 Q 5.64697265625 23.48876953125 7.822265625 26.444091796875 Q 9.99755859375 29.3994140625 13.29345703125 32.14599609375 Q 17.7099609375 30.52001953125 22.5 30.47607421875 M 22.5 40.49560546875 L 9.84375 40.49560546875 L 11.18408203125 32.4755859375 Q 4.04296875 26.3232421875 4.02099609375 20.72021484375 Q 3.9990234375 17.2265625 6.767578125 14.688720703125 Q 9.5361328125 12.15087890625 12.63427734375 12.15087890625 Q 14.34814453125 12.15087890625 16.116943359375 13.18359375 Q 17.8857421875 14.21630859375 19.248046875 15.79833984375 Q 20.58837890625 17.42431640625 21.412353515625 19.412841796875 Q 22.236328125 21.4013671875 22.5 22.7197265625 Q 22.763671875 21.4013671875 23.57666015625 19.412841796875 Q 24.3896484375 17.42431640625 25.751953125 15.79833984375 Q 27.09228515625 14.21630859375 28.8720703125 13.18359375 Q 30.65185546875 12.15087890625 32.36572265625 12.15087890625 Q 35.44189453125 12.15087890625 38.21044921875 14.688720703125 Q 40.97900390625 17.2265625 40.97900390625 20.72021484375 Q 40.93505859375 26.3232421875 33.81591796875 32.4755859375 L 35.15625 40.49560546875 L 22.5 40.49560546875 M 24.63134765625 28.6083984375 Q 24.63134765625 26.47705078125 25.6201171875 23.818359375 Q 26.60888671875 21.15966796875 27.2900390625 19.97314453125 Q 28.037109375 18.47900390625 29.520263671875 17.105712890625 Q 31.00341796875 15.732421875 32.49755859375 15.732421875 Q 34.12353515625 15.732421875 35.738525390625 17.2705078125 Q 37.353515625 18.80859375 37.37548828125 20.76416015625 Q 37.37548828125 22.87353515625 35.68359375 25.191650390625 Q 33.99169921875 27.509765625 31.2890625 29.8828125 Q 27.9931640625 28.85009765625 24.63134765625 28.6083984375 M 32.32177734375 33.37646484375 L 29.70703125 34.95849609375 L 32.89306640625 36.80419921875 L 32.32177734375 33.37646484375 M 22.5 30.47607421875 Q 27.26806640625 30.52001953125 31.70654296875 32.14599609375 Q 35.00244140625 29.3994140625 37.177734375 26.444091796875 Q 39.35302734375 23.48876953125 39.35302734375 20.85205078125 Q 39.35302734375 17.86376953125 37.034912109375 15.8203125 Q 34.716796875 13.77685546875 32.4755859375 13.77685546875 Q 31.025390625 13.77685546875 29.50927734375 14.69970703125 Q 27.9931640625 15.62255859375 26.89453125 17.0068359375 Q 26.43310546875 17.578125 25.83984375 18.52294921875 Q 25.7080078125 18.74267578125 25.565185546875 19.0283203125 Q 25.42236328125 19.31396484375 25.2685546875 19.62158203125 Q 24.3017578125 21.4892578125 23.40087890625 24.598388671875 Q 22.5 27.70751953125 22.5 30.47607421875 M 19.44580078125 33.9697265625 L 22.5 35.859375 L 25.55419921875 34.013671875 L 22.5 32.1240234375 L 19.44580078125 33.9697265625 M 21.46728515625 6.5478515625 L 21.46728515625 4.46044921875 L 23.53271484375 4.46044921875 L 23.53271484375 6.5478515625 L 25.8837890625 6.5478515625 L 25.8837890625 8.63525390625 L 23.53271484375 8.63525390625 L 23.53271484375 11.9970703125 Q 22.47802734375 11.6455078125 21.46728515625 11.9970703125 L 21.46728515625 8.63525390625 L 19.1162109375 8.63525390625 L 19.1162109375 6.5478515625 L 21.46728515625 6.5478515625 Z Z"
              fill-rule="even-odd"
              style="-webkit-tap-highlight-color: rgba(0, 0, 0, 0); fill: rgb(0, 0, 0); stroke-width: 0;"></path>
    </g>
</svg>