<svg xmlns="http://www.w3.org/2000/svg" version="1.1" id="ludo-svg-node-iy51mzkw" width="45" height="45" viewBox="0 0 45 45" style="-webkit-tap-highlight-color: rgba(0, 0, 0, 0); width: 45px; height: 45px;"><g id="ludo-svg-node-iy51mzkx" style="-webkit-tap-highlight-color: rgba(0, 0, 0, 0);"><path id="ludo-svg-node-iy51mzn6" d="M 35.211181640625 10.96435546875 L 35.211181640625 6.74560546875 L 32.244873046875 6.74560546875 L 32.244873046875 9.7119140625 L 25.433349609375 9.7119140625 L 25.433349609375 6.74560546875 L 22.467041015625 6.74560546875 L 22.467041015625 9.7119140625 L 15.677490234375 9.7119140625 L 15.677490234375 6.74560546875 L 12.711181640625 6.74560546875 L 12.711181640625 10.96435546875 L 16.842041015625 14.2822265625 L 31.102294921875 14.2822265625 L 35.211181640625 10.96435546875 Z" fill="#fff" style="-webkit-tap-highlight-color: rgba(0, 0, 0, 0);"></path><path id="ludo-svg-node-iy51mzn7" d="M 30.333251953125 15.7763671875 L 17.589111328125 15.7763671875 L 17.589111328125 26.279296875 L 30.333251953125 26.279296875 L 30.333251953125 15.7763671875 Z" fill="#fff" style="-webkit-tap-highlight-color: rgba(0, 0, 0, 0);"></path><path id="ludo-svg-node-iy51mzn8" d="M 34.068603515625 30.5419921875 L 31.256103515625 27.7734375 L 16.666259765625 27.7734375 L 13.853759765625 30.5419921875 L 13.853759765625 34.51904296875 L 34.068603515625 34.51904296875 L 34.068603515625 30.5419921875 Z" fill="#fff" style="-webkit-tap-highlight-color: rgba(0, 0, 0, 0);"></path><path id="ludo-svg-node-iy51mzn9" d="M 36.683349609375 35.9912109375 L 11.217041015625 35.9912109375 L 11.217041015625 38.2763671875 L 36.683349609375 38.2763671875 L 36.683349609375 35.9912109375 Z" fill="#fff" style="-webkit-tap-highlight-color: rgba(0, 0, 0, 0);"></path><path id="ludo-svg-node-iy51mzna" d="M 35.211181640625 10.96435546875 L 35.211181640625 6.74560546875 L 32.244873046875 6.74560546875 L 32.244873046875 9.7119140625 L 25.433349609375 9.7119140625 L 25.433349609375 6.74560546875 L 22.467041015625 6.74560546875 L 22.467041015625 9.7119140625 L 15.677490234375 9.7119140625 L 15.677490234375 6.74560546875 L 12.711181640625 6.74560546875 L 12.711181640625 10.96435546875 L 16.842041015625 14.2822265625 L 31.102294921875 14.2822265625 L 35.211181640625 10.96435546875 M 30.333251953125 15.7763671875 L 17.589111328125 15.7763671875 L 17.589111328125 26.279296875 L 30.333251953125 26.279296875 L 30.333251953125 15.7763671875 M 34.068603515625 30.5419921875 L 31.256103515625 27.7734375 L 16.666259765625 27.7734375 L 13.853759765625 30.5419921875 L 13.853759765625 34.51904296875 L 34.068603515625 34.51904296875 L 34.068603515625 30.5419921875 M 36.683349609375 35.9912109375 L 11.217041015625 35.9912109375 L 11.217041015625 38.2763671875 L 36.683349609375 38.2763671875 L 36.683349609375 35.9912109375 M 26.927490234375 8.3056640625 L 30.662841796875 8.3056640625 L 30.662841796875 5.25146484375 L 36.771240234375 5.25146484375 L 36.727294921875 11.9970703125 L 31.849365234375 15.7763671875 L 31.849365234375 26.279296875 L 35.584716796875 29.99267578125 L 35.584716796875 34.51904296875 L 38.243408203125 34.4970703125 L 38.243408203125 39.74853515625 L 9.744873046875 39.74853515625 L 9.744873046875 34.4970703125 L 12.315673828125 34.51904296875 L 12.315673828125 29.99267578125 L 16.072998046875 26.279296875 L 16.072998046875 15.7763671875 L 11.217041015625 11.9970703125 L 11.217041015625 5.25146484375 L 17.237548828125 5.25146484375 L 17.237548828125 8.3056640625 L 20.994873046875 8.3056640625 L 20.994873046875 5.25146484375 L 26.927490234375 5.25146484375 L 26.927490234375 8.3056640625 Z Z" style="-webkit-tap-highlight-color: rgba(0, 0, 0, 0);"></path><path id="ludo-svg-node-iy51mzky" d="M 35.211181640625 10.96435546875 L 35.211181640625 6.74560546875 L 32.244873046875 6.74560546875 L 32.244873046875 9.7119140625 L 25.433349609375 9.7119140625 L 25.433349609375 6.74560546875 L 22.467041015625 6.74560546875 L 22.467041015625 9.7119140625 L 15.677490234375 9.7119140625 L 15.677490234375 6.74560546875 L 12.711181640625 6.74560546875 L 12.711181640625 10.96435546875 L 16.842041015625 14.2822265625 L 31.102294921875 14.2822265625 L 35.211181640625 10.96435546875 M 30.333251953125 15.7763671875 L 17.589111328125 15.7763671875 L 17.589111328125 26.279296875 L 30.333251953125 26.279296875 L 30.333251953125 15.7763671875 M 34.068603515625 30.5419921875 L 31.256103515625 27.7734375 L 16.666259765625 27.7734375 L 13.853759765625 30.5419921875 L 13.853759765625 34.51904296875 L 34.068603515625 34.51904296875 L 34.068603515625 30.5419921875 M 36.683349609375 35.9912109375 L 11.217041015625 35.9912109375 L 11.217041015625 38.2763671875 L 36.683349609375 38.2763671875 L 36.683349609375 35.9912109375 M 26.927490234375 8.3056640625 L 30.662841796875 8.3056640625 L 30.662841796875 5.25146484375 L 36.771240234375 5.25146484375 L 36.727294921875 11.9970703125 L 31.849365234375 15.7763671875 L 31.849365234375 26.279296875 L 35.584716796875 29.99267578125 L 35.584716796875 34.51904296875 L 38.243408203125 34.4970703125 L 38.243408203125 39.74853515625 L 9.744873046875 39.74853515625 L 9.744873046875 34.4970703125 L 12.315673828125 34.51904296875 L 12.315673828125 29.99267578125 L 16.072998046875 26.279296875 L 16.072998046875 15.7763671875 L 11.217041015625 11.9970703125 L 11.217041015625 5.25146484375 L 17.237548828125 5.25146484375 L 17.237548828125 8.3056640625 L 20.994873046875 8.3056640625 L 20.994873046875 5.25146484375 L 26.927490234375 5.25146484375 L 26.927490234375 8.3056640625 Z Z" fill-rule="even-odd" style="-webkit-tap-highlight-color: rgba(0, 0, 0, 0); fill: rgb(0, 0, 0); stroke-width: 0;"></path></g></svg>