<svg xmlns="http://www.w3.org/2000/svg" version="1.1" id="ludo-svg-node-iy51mzmg" width="45" height="45" viewBox="0 0 45 45" style="-webkit-tap-highlight-color: rgba(0, 0, 0, 0); width: 45px; height: 45px;"><g id="ludo-svg-node-iy51mzmh" style="-webkit-tap-highlight-color: rgba(0, 0, 0, 0);"><path id="ludo-svg-node-iy51mzol" d="M 35.15625 28.76220703125 L 37.177734375 24.89501953125 Q 36.05712890625 25.3125 34.98046875 25.3125 Q 32.0361328125 25.3125 30.2783203125 22.8955078125 Q 28.9599609375 24.01611328125 27.333984375 24.01611328125 Q 25.2685546875 24.01611328125 23.97216796875 22.34619140625 Q 22.60986328125 23.88427734375 20.6103515625 23.88427734375 Q 19.00634765625 23.88427734375 17.7099609375 22.82958984375 Q 15.8203125 25.1806640625 12.94189453125 25.1806640625 Q 11.8212890625 25.1806640625 10.74462890625 24.76318359375 L 12.85400390625 28.76220703125 Q 17.02880859375 27.66357421875 24.06005859375 27.66357421875 Q 30.95947265625 27.66357421875 35.15625 28.76220703125 Z" fill="#000" style="-webkit-tap-highlight-color: rgba(0, 0, 0, 0);"></path><path id="ludo-svg-node-iy51mzom" d="M 13.16162109375 30.43212890625 L 13.42529296875 32.27783203125 L 12.76611328125 34.73876953125 Q 16.89697265625 33.5302734375 23.994140625 33.5302734375 Q 31.0693359375 33.5302734375 35.17822265625 34.716796875 L 34.541015625 32.2998046875 L 34.8046875 30.41015625 Q 30.673828125 29.3994140625 24.06005859375 29.3994140625 Q 17.38037109375 29.3994140625 13.16162109375 30.43212890625 Z" fill="#000" style="-webkit-tap-highlight-color: rgba(0, 0, 0, 0);"></path><path id="ludo-svg-node-iy51mzon" d="M 23.97216796875 8.15185546875 Q 22.7197265625 8.15185546875 21.851806640625 7.27294921875 Q 20.98388671875 6.39404296875 20.98388671875 5.1416015625 Q 20.98388671875 3.9111328125 21.851806640625 3.0322265625 Q 22.7197265625 2.1533203125 23.97216796875 2.1533203125 Q 25.20263671875 2.1533203125 26.092529296875 3.0322265625 Q 26.982421875 3.9111328125 26.982421875 5.1416015625 Q 26.982421875 6.39404296875 26.092529296875 7.27294921875 Q 25.20263671875 8.15185546875 23.97216796875 8.15185546875 Z" fill="#000" style="-webkit-tap-highlight-color: rgba(0, 0, 0, 0);"></path><path id="ludo-svg-node-iy51mzoo" d="M 23.97216796875 6.591796875 Q 25.4443359375 6.591796875 25.4443359375 5.1416015625 Q 25.4443359375 3.69140625 23.97216796875 3.69140625 Q 22.52197265625 3.69140625 22.52197265625 5.1416015625 Q 22.52197265625 6.591796875 23.97216796875 6.591796875 Z" fill="#000" style="-webkit-tap-highlight-color: rgba(0, 0, 0, 0);"></path><path id="ludo-svg-node-iy51mzop" d="M 25.86181640625 22.17041015625 L 23.994140625 11.40380859375 L 22.12646484375 22.03857421875 Q 22.1923828125 21.97265625 22.2802734375 21.9287109375 Q 22.3681640625 21.884765625 22.43408203125 21.81884765625 Q 22.939453125 20.80810546875 23.97216796875 20.80810546875 Q 25.07080078125 20.80810546875 25.42236328125 21.796875 Q 25.6201171875 22.0166015625 25.86181640625 22.17041015625 Z" fill="#000" style="-webkit-tap-highlight-color: rgba(0, 0, 0, 0);"></path><path id="ludo-svg-node-iy51mzoq" d="M 31.9482421875 22.587890625 L 31.9482421875 12.41455078125 L 28.32275390625 22.3681640625 Q 28.6962890625 22.25830078125 29.02587890625 21.99462890625 Q 29.4873046875 21.42333984375 30.234375 21.42333984375 Q 31.0693359375 21.42333984375 31.61865234375 22.1923828125 Q 31.6845703125 22.30224609375 31.7724609375 22.401123046875 Q 31.8603515625 22.5 31.9482421875 22.587890625 Z" fill="#000" style="-webkit-tap-highlight-color: rgba(0, 0, 0, 0);"></path><path id="ludo-svg-node-iy51mzor" d="M 19.599609375 22.2802734375 L 15.99609375 12.41455078125 L 15.99609375 22.43408203125 Q 16.0400390625 22.39013671875 16.083984375 22.34619140625 Q 16.1279296875 22.30224609375 16.19384765625 22.236328125 Q 16.63330078125 21.3134765625 17.64404296875 21.3134765625 Q 18.45703125 21.3134765625 19.00634765625 21.99462890625 Q 19.2041015625 22.1044921875 19.599609375 22.2802734375 Z" fill="#000" style="-webkit-tap-highlight-color: rgba(0, 0, 0, 0);"></path><path id="ludo-svg-node-iy51mzos" d="M 14.0185546875 23.48876953125 L 9.29443359375 15.35888671875 L 10.5029296875 22.763671875 Q 11.71142578125 23.642578125 12.94189453125 23.642578125 Q 13.51318359375 23.642578125 14.0185546875 23.48876953125 Z" fill="#000" style="-webkit-tap-highlight-color: rgba(0, 0, 0, 0);"></path><path id="ludo-svg-node-iy51mzot" d="M 33.85986328125 23.5986328125 Q 34.34326171875 23.7744140625 34.98046875 23.7744140625 Q 36.298828125 23.7744140625 37.4853515625 22.91748046875 L 38.69384765625 15.31494140625 L 33.85986328125 23.5986328125 Z" fill="#000" style="-webkit-tap-highlight-color: rgba(0, 0, 0, 0);"></path><path id="ludo-svg-node-iy51mzou" d="M 37.50732421875 37.55126953125 Q 36.4306640625 38.49609375 32.67333984375 39.122314453125 Q 28.916015625 39.74853515625 24.01611328125 39.74853515625 Q 19.0283203125 39.74853515625 15.2490234375 39.100341796875 Q 11.4697265625 38.4521484375 10.48095703125 37.46337890625 L 11.865234375 32.18994140625 L 11.25 28.71826171875 L 9.31640625 25.37841796875 L 7.44873046875 11.71142578125 L 8.525390625 11.27197265625 L 14.5458984375 21.4453125 L 14.677734375 9.3603515625 L 16.19384765625 9.0966796875 L 20.76416015625 21.2255859375 L 23.22509765625 8.173828125 L 24.7412109375 8.173828125 L 27.2021484375 21.181640625 L 31.75048828125 9.0966796875 L 33.2666015625 9.3603515625 L 33.3984375 21.4453125 L 39.44091796875 11.25 L 40.4736328125 11.75537109375 L 38.671875 25.33447265625 L 36.6943359375 28.6962890625 L 36.0791015625 32.2119140625 L 37.50732421875 37.55126953125 Z" fill="#000" style="-webkit-tap-highlight-color: rgba(0, 0, 0, 0);"></path><path id="ludo-svg-node-iy51mzov" d="M 35.7275390625 36.76025390625 Q 31.640625 35.068359375 24.06005859375 35.068359375 Q 16.23779296875 35.068359375 12.2607421875 36.80419921875 Q 13.974609375 37.46337890625 17.0947265625 37.880859375 Q 20.21484375 38.29833984375 23.994140625 38.29833984375 Q 31.9921875 38.29833984375 35.7275390625 36.76025390625 Z" fill="#000" style="-webkit-tap-highlight-color: rgba(0, 0, 0, 0);"></path><path id="ludo-svg-node-iy51mzow" d="M 14.74365234375 9.25048828125 Q 13.4912109375 9.25048828125 12.6123046875 8.382568359375 Q 11.7333984375 7.5146484375 11.7333984375 6.26220703125 Q 11.7333984375 5.03173828125 12.6123046875 4.141845703125 Q 13.4912109375 3.251953125 14.74365234375 3.251953125 Q 15.97412109375 3.251953125 16.85302734375 4.141845703125 Q 17.73193359375 5.03173828125 17.73193359375 6.26220703125 Q 17.73193359375 7.5146484375 16.85302734375 8.382568359375 Q 15.97412109375 9.25048828125 14.74365234375 9.25048828125 Z" fill="#000" style="-webkit-tap-highlight-color: rgba(0, 0, 0, 0);"></path><path id="ludo-svg-node-iy51mzox" d="M 14.74365234375 7.71240234375 Q 16.19384765625 7.71240234375 16.19384765625 6.26220703125 Q 16.19384765625 4.7900390625 14.74365234375 4.7900390625 Q 13.271484375 4.7900390625 13.271484375 6.26220703125 Q 13.271484375 7.71240234375 14.74365234375 7.71240234375 Z" fill="#000" style="-webkit-tap-highlight-color: rgba(0, 0, 0, 0);"></path><path id="ludo-svg-node-iy51mzoy" d="M 33.22265625 7.71240234375 Q 34.6728515625 7.71240234375 34.6728515625 6.26220703125 Q 34.6728515625 4.7900390625 33.22265625 4.7900390625 Q 31.75048828125 4.7900390625 31.75048828125 6.26220703125 Q 31.75048828125 7.71240234375 33.22265625 7.71240234375 Z" fill="#000" style="-webkit-tap-highlight-color: rgba(0, 0, 0, 0);"></path><path id="ludo-svg-node-iy51mzoz" d="M 33.22265625 9.25048828125 Q 31.97021484375 9.25048828125 31.09130859375 8.382568359375 Q 30.21240234375 7.5146484375 30.21240234375 6.26220703125 Q 30.21240234375 5.03173828125 31.09130859375 4.141845703125 Q 31.97021484375 3.251953125 33.22265625 3.251953125 Q 34.453125 3.251953125 35.33203125 4.141845703125 Q 36.2109375 5.03173828125 36.2109375 6.26220703125 Q 36.2109375 7.5146484375 35.33203125 8.382568359375 Q 34.453125 9.25048828125 33.22265625 9.25048828125 Z" fill="#000" style="-webkit-tap-highlight-color: rgba(0, 0, 0, 0);"></path><path id="ludo-svg-node-iy51mzp0" d="M 6.65771484375 11.66748046875 Q 5.4052734375 11.66748046875 4.537353515625 10.78857421875 Q 3.66943359375 9.90966796875 3.66943359375 8.6572265625 Q 3.66943359375 7.4267578125 4.537353515625 6.5478515625 Q 5.4052734375 5.6689453125 6.65771484375 5.6689453125 Q 7.91015625 5.6689453125 8.7890625 6.5478515625 Q 9.66796875 7.4267578125 9.66796875 8.6572265625 Q 9.66796875 9.90966796875 8.7890625 10.78857421875 Q 7.91015625 11.66748046875 6.65771484375 11.66748046875 Z" fill="#000" style="-webkit-tap-highlight-color: rgba(0, 0, 0, 0);"></path><path id="ludo-svg-node-iy51mzp1" d="M 6.65771484375 10.12939453125 Q 8.1298828125 10.12939453125 8.1298828125 8.6572265625 Q 8.1298828125 7.20703125 6.65771484375 7.20703125 Q 5.20751953125 7.20703125 5.20751953125 8.6572265625 Q 5.20751953125 10.12939453125 6.65771484375 10.12939453125 Z" fill="#000" style="-webkit-tap-highlight-color: rgba(0, 0, 0, 0);"></path><path id="ludo-svg-node-iy51mzp2" d="M 41.33056640625 10.12939453125 Q 42.78076171875 10.12939453125 42.78076171875 8.6572265625 Q 42.78076171875 7.20703125 41.33056640625 7.20703125 Q 39.8583984375 7.20703125 39.8583984375 8.6572265625 Q 39.8583984375 10.12939453125 41.33056640625 10.12939453125 Z" fill="#000" style="-webkit-tap-highlight-color: rgba(0, 0, 0, 0);"></path><path id="ludo-svg-node-iy51mzp3" d="M 35.15625 28.76220703125 L 37.177734375 24.89501953125 Q 36.05712890625 25.3125 34.98046875 25.3125 Q 32.0361328125 25.3125 30.2783203125 22.8955078125 Q 28.9599609375 24.01611328125 27.333984375 24.01611328125 Q 25.2685546875 24.01611328125 23.97216796875 22.34619140625 Q 22.60986328125 23.88427734375 20.6103515625 23.88427734375 Q 19.00634765625 23.88427734375 17.7099609375 22.82958984375 Q 15.8203125 25.1806640625 12.94189453125 25.1806640625 Q 11.8212890625 25.1806640625 10.74462890625 24.76318359375 L 12.85400390625 28.76220703125 Q 17.02880859375 27.66357421875 24.06005859375 27.66357421875 Q 30.95947265625 27.66357421875 35.15625 28.76220703125 M 13.16162109375 30.43212890625 L 13.42529296875 32.27783203125 L 12.76611328125 34.73876953125 Q 16.89697265625 33.5302734375 23.994140625 33.5302734375 Q 31.0693359375 33.5302734375 35.17822265625 34.716796875 L 34.541015625 32.2998046875 L 34.8046875 30.41015625 Q 30.673828125 29.3994140625 24.06005859375 29.3994140625 Q 17.38037109375 29.3994140625 13.16162109375 30.43212890625 M 23.97216796875 8.15185546875 Q 22.7197265625 8.15185546875 21.851806640625 7.27294921875 Q 20.98388671875 6.39404296875 20.98388671875 5.1416015625 Q 20.98388671875 3.9111328125 21.851806640625 3.0322265625 Q 22.7197265625 2.1533203125 23.97216796875 2.1533203125 Q 25.20263671875 2.1533203125 26.092529296875 3.0322265625 Q 26.982421875 3.9111328125 26.982421875 5.1416015625 Q 26.982421875 6.39404296875 26.092529296875 7.27294921875 Q 25.20263671875 8.15185546875 23.97216796875 8.15185546875 M 23.97216796875 6.591796875 Q 25.4443359375 6.591796875 25.4443359375 5.1416015625 Q 25.4443359375 3.69140625 23.97216796875 3.69140625 Q 22.52197265625 3.69140625 22.52197265625 5.1416015625 Q 22.52197265625 6.591796875 23.97216796875 6.591796875 M 25.86181640625 22.17041015625 L 23.994140625 11.40380859375 L 22.12646484375 22.03857421875 Q 22.1923828125 21.97265625 22.2802734375 21.9287109375 Q 22.3681640625 21.884765625 22.43408203125 21.81884765625 Q 22.939453125 20.80810546875 23.97216796875 20.80810546875 Q 25.07080078125 20.80810546875 25.42236328125 21.796875 Q 25.6201171875 22.0166015625 25.86181640625 22.17041015625 M 31.9482421875 22.587890625 L 31.9482421875 12.41455078125 L 28.32275390625 22.3681640625 Q 28.6962890625 22.25830078125 29.02587890625 21.99462890625 Q 29.4873046875 21.42333984375 30.234375 21.42333984375 Q 31.0693359375 21.42333984375 31.61865234375 22.1923828125 Q 31.6845703125 22.30224609375 31.7724609375 22.401123046875 Q 31.8603515625 22.5 31.9482421875 22.587890625 M 19.599609375 22.2802734375 L 15.99609375 12.41455078125 L 15.99609375 22.43408203125 Q 16.0400390625 22.39013671875 16.083984375 22.34619140625 Q 16.1279296875 22.30224609375 16.19384765625 22.236328125 Q 16.63330078125 21.3134765625 17.64404296875 21.3134765625 Q 18.45703125 21.3134765625 19.00634765625 21.99462890625 Q 19.2041015625 22.1044921875 19.599609375 22.2802734375 M 14.0185546875 23.48876953125 L 9.29443359375 15.35888671875 L 10.5029296875 22.763671875 Q 11.71142578125 23.642578125 12.94189453125 23.642578125 Q 13.51318359375 23.642578125 14.0185546875 23.48876953125 M 33.85986328125 23.5986328125 Q 34.34326171875 23.7744140625 34.98046875 23.7744140625 Q 36.298828125 23.7744140625 37.4853515625 22.91748046875 L 38.69384765625 15.31494140625 L 33.85986328125 23.5986328125 M 37.50732421875 37.55126953125 Q 36.4306640625 38.49609375 32.67333984375 39.122314453125 Q 28.916015625 39.74853515625 24.01611328125 39.74853515625 Q 19.0283203125 39.74853515625 15.2490234375 39.100341796875 Q 11.4697265625 38.4521484375 10.48095703125 37.46337890625 L 11.865234375 32.18994140625 L 11.25 28.71826171875 L 9.31640625 25.37841796875 L 7.44873046875 11.71142578125 L 8.525390625 11.27197265625 L 14.5458984375 21.4453125 L 14.677734375 9.3603515625 L 16.19384765625 9.0966796875 L 20.76416015625 21.2255859375 L 23.22509765625 8.173828125 L 24.7412109375 8.173828125 L 27.2021484375 21.181640625 L 31.75048828125 9.0966796875 L 33.2666015625 9.3603515625 L 33.3984375 21.4453125 L 39.44091796875 11.25 L 40.4736328125 11.75537109375 L 38.671875 25.33447265625 L 36.6943359375 28.6962890625 L 36.0791015625 32.2119140625 L 37.50732421875 37.55126953125 M 35.7275390625 36.76025390625 Q 31.640625 35.068359375 24.06005859375 35.068359375 Q 16.23779296875 35.068359375 12.2607421875 36.80419921875 Q 13.974609375 37.46337890625 17.0947265625 37.880859375 Q 20.21484375 38.29833984375 23.994140625 38.29833984375 Q 31.9921875 38.29833984375 35.7275390625 36.76025390625 M 14.74365234375 9.25048828125 Q 13.4912109375 9.25048828125 12.6123046875 8.382568359375 Q 11.7333984375 7.5146484375 11.7333984375 6.26220703125 Q 11.7333984375 5.03173828125 12.6123046875 4.141845703125 Q 13.4912109375 3.251953125 14.74365234375 3.251953125 Q 15.97412109375 3.251953125 16.85302734375 4.141845703125 Q 17.73193359375 5.03173828125 17.73193359375 6.26220703125 Q 17.73193359375 7.5146484375 16.85302734375 8.382568359375 Q 15.97412109375 9.25048828125 14.74365234375 9.25048828125 M 14.74365234375 7.71240234375 Q 16.19384765625 7.71240234375 16.19384765625 6.26220703125 Q 16.19384765625 4.7900390625 14.74365234375 4.7900390625 Q 13.271484375 4.7900390625 13.271484375 6.26220703125 Q 13.271484375 7.71240234375 14.74365234375 7.71240234375 M 33.22265625 7.71240234375 Q 34.6728515625 7.71240234375 34.6728515625 6.26220703125 Q 34.6728515625 4.7900390625 33.22265625 4.7900390625 Q 31.75048828125 4.7900390625 31.75048828125 6.26220703125 Q 31.75048828125 7.71240234375 33.22265625 7.71240234375 M 33.22265625 9.25048828125 Q 31.97021484375 9.25048828125 31.09130859375 8.382568359375 Q 30.21240234375 7.5146484375 30.21240234375 6.26220703125 Q 30.21240234375 5.03173828125 31.09130859375 4.141845703125 Q 31.97021484375 3.251953125 33.22265625 3.251953125 Q 34.453125 3.251953125 35.33203125 4.141845703125 Q 36.2109375 5.03173828125 36.2109375 6.26220703125 Q 36.2109375 7.5146484375 35.33203125 8.382568359375 Q 34.453125 9.25048828125 33.22265625 9.25048828125 M 6.65771484375 11.66748046875 Q 5.4052734375 11.66748046875 4.537353515625 10.78857421875 Q 3.66943359375 9.90966796875 3.66943359375 8.6572265625 Q 3.66943359375 7.4267578125 4.537353515625 6.5478515625 Q 5.4052734375 5.6689453125 6.65771484375 5.6689453125 Q 7.91015625 5.6689453125 8.7890625 6.5478515625 Q 9.66796875 7.4267578125 9.66796875 8.6572265625 Q 9.66796875 9.90966796875 8.7890625 10.78857421875 Q 7.91015625 11.66748046875 6.65771484375 11.66748046875 M 6.65771484375 10.12939453125 Q 8.1298828125 10.12939453125 8.1298828125 8.6572265625 Q 8.1298828125 7.20703125 6.65771484375 7.20703125 Q 5.20751953125 7.20703125 5.20751953125 8.6572265625 Q 5.20751953125 10.12939453125 6.65771484375 10.12939453125 M 41.33056640625 10.12939453125 Q 42.78076171875 10.12939453125 42.78076171875 8.6572265625 Q 42.78076171875 7.20703125 41.33056640625 7.20703125 Q 39.8583984375 7.20703125 39.8583984375 8.6572265625 Q 39.8583984375 10.12939453125 41.33056640625 10.12939453125 M 41.33056640625 11.66748046875 Q 40.078125 11.66748046875 39.19921875 10.78857421875 Q 38.3203125 9.90966796875 38.3203125 8.6572265625 Q 38.3203125 7.4267578125 39.19921875 6.5478515625 Q 40.078125 5.6689453125 41.33056640625 5.6689453125 Q 42.56103515625 5.6689453125 43.43994140625 6.5478515625 Q 44.31884765625 7.4267578125 44.31884765625 8.6572265625 Q 44.31884765625 9.90966796875 43.43994140625 10.78857421875 Q 42.56103515625 11.66748046875 41.33056640625 11.66748046875 Z Z" style="-webkit-tap-highlight-color: rgba(0, 0, 0, 0);"></path><path id="ludo-svg-node-iy51mzmi" d="M 35.15625 28.76220703125 L 37.177734375 24.89501953125 Q 36.05712890625 25.3125 34.98046875 25.3125 Q 32.0361328125 25.3125 30.2783203125 22.8955078125 Q 28.9599609375 24.01611328125 27.333984375 24.01611328125 Q 25.2685546875 24.01611328125 23.97216796875 22.34619140625 Q 22.60986328125 23.88427734375 20.6103515625 23.88427734375 Q 19.00634765625 23.88427734375 17.7099609375 22.82958984375 Q 15.8203125 25.1806640625 12.94189453125 25.1806640625 Q 11.8212890625 25.1806640625 10.74462890625 24.76318359375 L 12.85400390625 28.76220703125 Q 17.02880859375 27.66357421875 24.06005859375 27.66357421875 Q 30.95947265625 27.66357421875 35.15625 28.76220703125 M 13.16162109375 30.43212890625 L 13.42529296875 32.27783203125 L 12.76611328125 34.73876953125 Q 16.89697265625 33.5302734375 23.994140625 33.5302734375 Q 31.0693359375 33.5302734375 35.17822265625 34.716796875 L 34.541015625 32.2998046875 L 34.8046875 30.41015625 Q 30.673828125 29.3994140625 24.06005859375 29.3994140625 Q 17.38037109375 29.3994140625 13.16162109375 30.43212890625 M 23.97216796875 8.15185546875 Q 22.7197265625 8.15185546875 21.851806640625 7.27294921875 Q 20.98388671875 6.39404296875 20.98388671875 5.1416015625 Q 20.98388671875 3.9111328125 21.851806640625 3.0322265625 Q 22.7197265625 2.1533203125 23.97216796875 2.1533203125 Q 25.20263671875 2.1533203125 26.092529296875 3.0322265625 Q 26.982421875 3.9111328125 26.982421875 5.1416015625 Q 26.982421875 6.39404296875 26.092529296875 7.27294921875 Q 25.20263671875 8.15185546875 23.97216796875 8.15185546875 M 23.97216796875 6.591796875 Q 25.4443359375 6.591796875 25.4443359375 5.1416015625 Q 25.4443359375 3.69140625 23.97216796875 3.69140625 Q 22.52197265625 3.69140625 22.52197265625 5.1416015625 Q 22.52197265625 6.591796875 23.97216796875 6.591796875 M 25.86181640625 22.17041015625 L 23.994140625 11.40380859375 L 22.12646484375 22.03857421875 Q 22.1923828125 21.97265625 22.2802734375 21.9287109375 Q 22.3681640625 21.884765625 22.43408203125 21.81884765625 Q 22.939453125 20.80810546875 23.97216796875 20.80810546875 Q 25.07080078125 20.80810546875 25.42236328125 21.796875 Q 25.6201171875 22.0166015625 25.86181640625 22.17041015625 M 31.9482421875 22.587890625 L 31.9482421875 12.41455078125 L 28.32275390625 22.3681640625 Q 28.6962890625 22.25830078125 29.02587890625 21.99462890625 Q 29.4873046875 21.42333984375 30.234375 21.42333984375 Q 31.0693359375 21.42333984375 31.61865234375 22.1923828125 Q 31.6845703125 22.30224609375 31.7724609375 22.401123046875 Q 31.8603515625 22.5 31.9482421875 22.587890625 M 19.599609375 22.2802734375 L 15.99609375 12.41455078125 L 15.99609375 22.43408203125 Q 16.0400390625 22.39013671875 16.083984375 22.34619140625 Q 16.1279296875 22.30224609375 16.19384765625 22.236328125 Q 16.63330078125 21.3134765625 17.64404296875 21.3134765625 Q 18.45703125 21.3134765625 19.00634765625 21.99462890625 Q 19.2041015625 22.1044921875 19.599609375 22.2802734375 M 14.0185546875 23.48876953125 L 9.29443359375 15.35888671875 L 10.5029296875 22.763671875 Q 11.71142578125 23.642578125 12.94189453125 23.642578125 Q 13.51318359375 23.642578125 14.0185546875 23.48876953125 M 33.85986328125 23.5986328125 Q 34.34326171875 23.7744140625 34.98046875 23.7744140625 Q 36.298828125 23.7744140625 37.4853515625 22.91748046875 L 38.69384765625 15.31494140625 L 33.85986328125 23.5986328125 M 37.50732421875 37.55126953125 Q 36.4306640625 38.49609375 32.67333984375 39.122314453125 Q 28.916015625 39.74853515625 24.01611328125 39.74853515625 Q 19.0283203125 39.74853515625 15.2490234375 39.100341796875 Q 11.4697265625 38.4521484375 10.48095703125 37.46337890625 L 11.865234375 32.18994140625 L 11.25 28.71826171875 L 9.31640625 25.37841796875 L 7.44873046875 11.71142578125 L 8.525390625 11.27197265625 L 14.5458984375 21.4453125 L 14.677734375 9.3603515625 L 16.19384765625 9.0966796875 L 20.76416015625 21.2255859375 L 23.22509765625 8.173828125 L 24.7412109375 8.173828125 L 27.2021484375 21.181640625 L 31.75048828125 9.0966796875 L 33.2666015625 9.3603515625 L 33.3984375 21.4453125 L 39.44091796875 11.25 L 40.4736328125 11.75537109375 L 38.671875 25.33447265625 L 36.6943359375 28.6962890625 L 36.0791015625 32.2119140625 L 37.50732421875 37.55126953125 M 35.7275390625 36.76025390625 Q 31.640625 35.068359375 24.06005859375 35.068359375 Q 16.23779296875 35.068359375 12.2607421875 36.80419921875 Q 13.974609375 37.46337890625 17.0947265625 37.880859375 Q 20.21484375 38.29833984375 23.994140625 38.29833984375 Q 31.9921875 38.29833984375 35.7275390625 36.76025390625 M 14.74365234375 9.25048828125 Q 13.4912109375 9.25048828125 12.6123046875 8.382568359375 Q 11.7333984375 7.5146484375 11.7333984375 6.26220703125 Q 11.7333984375 5.03173828125 12.6123046875 4.141845703125 Q 13.4912109375 3.251953125 14.74365234375 3.251953125 Q 15.97412109375 3.251953125 16.85302734375 4.141845703125 Q 17.73193359375 5.03173828125 17.73193359375 6.26220703125 Q 17.73193359375 7.5146484375 16.85302734375 8.382568359375 Q 15.97412109375 9.25048828125 14.74365234375 9.25048828125 M 14.74365234375 7.71240234375 Q 16.19384765625 7.71240234375 16.19384765625 6.26220703125 Q 16.19384765625 4.7900390625 14.74365234375 4.7900390625 Q 13.271484375 4.7900390625 13.271484375 6.26220703125 Q 13.271484375 7.71240234375 14.74365234375 7.71240234375 M 33.22265625 7.71240234375 Q 34.6728515625 7.71240234375 34.6728515625 6.26220703125 Q 34.6728515625 4.7900390625 33.22265625 4.7900390625 Q 31.75048828125 4.7900390625 31.75048828125 6.26220703125 Q 31.75048828125 7.71240234375 33.22265625 7.71240234375 M 33.22265625 9.25048828125 Q 31.97021484375 9.25048828125 31.09130859375 8.382568359375 Q 30.21240234375 7.5146484375 30.21240234375 6.26220703125 Q 30.21240234375 5.03173828125 31.09130859375 4.141845703125 Q 31.97021484375 3.251953125 33.22265625 3.251953125 Q 34.453125 3.251953125 35.33203125 4.141845703125 Q 36.2109375 5.03173828125 36.2109375 6.26220703125 Q 36.2109375 7.5146484375 35.33203125 8.382568359375 Q 34.453125 9.25048828125 33.22265625 9.25048828125 M 6.65771484375 11.66748046875 Q 5.4052734375 11.66748046875 4.537353515625 10.78857421875 Q 3.66943359375 9.90966796875 3.66943359375 8.6572265625 Q 3.66943359375 7.4267578125 4.537353515625 6.5478515625 Q 5.4052734375 5.6689453125 6.65771484375 5.6689453125 Q 7.91015625 5.6689453125 8.7890625 6.5478515625 Q 9.66796875 7.4267578125 9.66796875 8.6572265625 Q 9.66796875 9.90966796875 8.7890625 10.78857421875 Q 7.91015625 11.66748046875 6.65771484375 11.66748046875 M 6.65771484375 10.12939453125 Q 8.1298828125 10.12939453125 8.1298828125 8.6572265625 Q 8.1298828125 7.20703125 6.65771484375 7.20703125 Q 5.20751953125 7.20703125 5.20751953125 8.6572265625 Q 5.20751953125 10.12939453125 6.65771484375 10.12939453125 M 41.33056640625 10.12939453125 Q 42.78076171875 10.12939453125 42.78076171875 8.6572265625 Q 42.78076171875 7.20703125 41.33056640625 7.20703125 Q 39.8583984375 7.20703125 39.8583984375 8.6572265625 Q 39.8583984375 10.12939453125 41.33056640625 10.12939453125 M 41.33056640625 11.66748046875 Q 40.078125 11.66748046875 39.19921875 10.78857421875 Q 38.3203125 9.90966796875 38.3203125 8.6572265625 Q 38.3203125 7.4267578125 39.19921875 6.5478515625 Q 40.078125 5.6689453125 41.33056640625 5.6689453125 Q 42.56103515625 5.6689453125 43.43994140625 6.5478515625 Q 44.31884765625 7.4267578125 44.31884765625 8.6572265625 Q 44.31884765625 9.90966796875 43.43994140625 10.78857421875 Q 42.56103515625 11.66748046875 41.33056640625 11.66748046875 Z Z" fill-rule="even-odd" style="-webkit-tap-highlight-color: rgba(0, 0, 0, 0); fill: rgb(255, 255, 255); stroke-width: 0;"></path></g></svg>