<svg xmlns="http://www.w3.org/2000/svg" version="1.1" id="ludo-svg-node-iy519ip6" width="45" height="45" viewBox="0 0 45 45" viewBox="0 0 45 45" style="-webkit-tap-highlight-color: rgba(0, 0, 0, 0); width: 45px; height: 45px;"><g id="ludo-svg-node-iy519ip7" style="-webkit-tap-highlight-color: rgba(0, 0, 0, 0);"><path id="ludo-svg-node-iy519irs" d="M 8.9208984375 37.6171875 Q 8.9208984375 38.60595703125 9.0087890625 39.5947265625 L 35.9912109375 39.5947265625 Q 36.123046875 38.60595703125 36.14501953125 37.6171875 Q 36.14501953125 35.5078125 35.6396484375 33.59619140625 Q 35.13427734375 31.6845703125 34.398193359375 30.16845703125 Q 33.662109375 28.65234375 32.89306640625 27.6416015625 Q 32.1240234375 26.630859375 31.5087890625 26.103515625 Q 30.25634765625 24.93896484375 28.992919921875 24.2138671875 Q 27.7294921875 23.48876953125 26.54296875 23.40087890625 Q 28.740234375 22.67578125 29.674072265625 21.280517578125 Q 30.60791015625 19.88525390625 30.60791015625 17.0947265625 Q 30.60791015625 14.8095703125 28.740234375 13.095703125 Q 26.87255859375 11.3818359375 24.3017578125 11.25 Q 25.55419921875 10.9423828125 26.114501953125 9.744873046875 Q 26.6748046875 8.54736328125 26.6748046875 7.09716796875 Q 26.630859375 5.47119140625 25.3564453125 4.537353515625 Q 24.08203125 3.603515625 22.5 3.603515625 Q 20.91796875 3.603515625 19.6435546875 4.54833984375 Q 18.369140625 5.4931640625 18.3251953125 7.09716796875 Q 18.3251953125 8.54736328125 18.885498046875 9.73388671875 Q 19.44580078125 10.92041015625 20.6982421875 11.25 Q 18.12744140625 11.3818359375 16.259765625 13.095703125 Q 14.39208984375 14.8095703125 14.39208984375 17.0947265625 Q 14.39208984375 19.88525390625 15.31494140625 21.280517578125 Q 16.23779296875 22.67578125 18.45703125 23.40087890625 Q 17.29248046875 23.48876953125 16.029052734375 24.202880859375 Q 14.765625 24.9169921875 13.4912109375 26.103515625 Q 12.89794921875 26.60888671875 12.117919921875 27.652587890625 Q 11.337890625 28.6962890625 10.601806640625 30.1904296875 Q 9.86572265625 31.6845703125 9.393310546875 33.59619140625 Q 8.9208984375 35.5078125 8.9208984375 37.6171875 Z Z" style="-webkit-tap-highlight-color: rgba(0, 0, 0, 0);"></path><path id="ludo-svg-node-iy519ip8" d="M 8.9208984375 37.6171875 Q 8.9208984375 38.60595703125 9.0087890625 39.5947265625 L 35.9912109375 39.5947265625 Q 36.123046875 38.60595703125 36.14501953125 37.6171875 Q 36.14501953125 35.5078125 35.6396484375 33.59619140625 Q 35.13427734375 31.6845703125 34.398193359375 30.16845703125 Q 33.662109375 28.65234375 32.89306640625 27.6416015625 Q 32.1240234375 26.630859375 31.5087890625 26.103515625 Q 30.25634765625 24.93896484375 28.992919921875 24.2138671875 Q 27.7294921875 23.48876953125 26.54296875 23.40087890625 Q 28.740234375 22.67578125 29.674072265625 21.280517578125 Q 30.60791015625 19.88525390625 30.60791015625 17.0947265625 Q 30.60791015625 14.8095703125 28.740234375 13.095703125 Q 26.87255859375 11.3818359375 24.3017578125 11.25 Q 25.55419921875 10.9423828125 26.114501953125 9.744873046875 Q 26.6748046875 8.54736328125 26.6748046875 7.09716796875 Q 26.630859375 5.47119140625 25.3564453125 4.537353515625 Q 24.08203125 3.603515625 22.5 3.603515625 Q 20.91796875 3.603515625 19.6435546875 4.54833984375 Q 18.369140625 5.4931640625 18.3251953125 7.09716796875 Q 18.3251953125 8.54736328125 18.885498046875 9.73388671875 Q 19.44580078125 10.92041015625 20.6982421875 11.25 Q 18.12744140625 11.3818359375 16.259765625 13.095703125 Q 14.39208984375 14.8095703125 14.39208984375 17.0947265625 Q 14.39208984375 19.88525390625 15.31494140625 21.280517578125 Q 16.23779296875 22.67578125 18.45703125 23.40087890625 Q 17.29248046875 23.48876953125 16.029052734375 24.202880859375 Q 14.765625 24.9169921875 13.4912109375 26.103515625 Q 12.89794921875 26.60888671875 12.117919921875 27.652587890625 Q 11.337890625 28.6962890625 10.601806640625 30.1904296875 Q 9.86572265625 31.6845703125 9.393310546875 33.59619140625 Q 8.9208984375 35.5078125 8.9208984375 37.6171875 Z Z" fill-rule="even-odd" style="-webkit-tap-highlight-color: rgba(0, 0, 0, 0); fill: rgb(0, 0, 0); stroke-width: 0;"></path></g></svg>