<svg xmlns="http://www.w3.org/2000/svg" version="1.1" id="ludo-svg-node-iy519io2" width="45" height="45" viewBox="0 0 45 45" viewBox="0 0 45 45" style="-webkit-tap-highlight-color: rgba(0, 0, 0, 0); width: 45px; height: 45px;"><g id="ludo-svg-node-iy519io3" style="-webkit-tap-highlight-color: rgba(0, 0, 0, 0);"><path id="ludo-svg-node-iy519iqh" d="M 4.04296875 18.896484375 Q 4.04296875 19.79736328125 4.339599609375 20.63232421875 Q 4.63623046875 21.46728515625 5.6689453125 23.115234375 Q 7.3388671875 25.0048828125 8.074951171875 26.158447265625 Q 8.81103515625 27.31201171875 9.3603515625 28.89404296875 Q 10.04150390625 30.60791015625 10.4150390625 32.0361328125 Q 10.78857421875 33.46435546875 10.78857421875 34.60693359375 Q 10.78857421875 35.419921875 10.810546875 36.046142578125 Q 10.83251953125 36.67236328125 10.986328125 37.6611328125 Q 11.97509765625 37.9248046875 13.634033203125 38.265380859375 Q 15.29296875 38.60595703125 17.138671875 38.946533203125 Q 18.984375 39.287109375 20.7421875 39.48486328125 Q 22.5 39.6826171875 23.70849609375 39.6826171875 Q 25.0927734375 39.638671875 26.927490234375 39.44091796875 Q 28.76220703125 39.2431640625 30.531005859375 38.924560546875 Q 32.2998046875 38.60595703125 33.92578125 38.265380859375 Q 35.5517578125 37.9248046875 36.45263671875 37.6611328125 Q 36.54052734375 36.71630859375 36.5625 36.068115234375 Q 36.58447265625 35.419921875 36.58447265625 34.60693359375 Q 36.58447265625 33.486328125 36.968994140625 32.05810546875 Q 37.353515625 30.6298828125 38.0126953125 28.89404296875 Q 38.60595703125 27.31201171875 39.375 26.158447265625 Q 40.14404296875 25.0048828125 41.748046875 23.115234375 Q 42.56103515625 21.77490234375 42.923583984375 20.830078125 Q 43.2861328125 19.88525390625 43.2861328125 18.896484375 Q 43.2861328125 17.81982421875 42.7587890625 16.32568359375 Q 41.55029296875 14.56787109375 40.1220703125 13.941650390625 Q 38.69384765625 13.3154296875 36.49658203125 13.271484375 Q 34.38720703125 13.3154296875 31.7724609375 14.754638671875 Q 29.15771484375 16.19384765625 26.4990234375 18.9404296875 Q 26.71875 17.40234375 26.861572265625 16.19384765625 Q 27.00439453125 14.9853515625 27.00439453125 13.99658203125 Q 27.00439453125 13.0517578125 26.817626953125 12.1728515625 Q 26.630859375 11.2939453125 26.2353515625 10.61279296875 Q 25.83984375 10.01953125 25.411376953125 9.7119140625 Q 24.98291015625 9.404296875 24.2578125 9.3603515625 L 24.2578125 7.22900390625 L 26.630859375 7.22900390625 L 26.630859375 6.15234375 L 24.2578125 6.15234375 L 24.2578125 3.603515625 L 23.18115234375 3.603515625 L 23.18115234375 6.15234375 L 20.830078125 6.15234375 L 20.830078125 7.22900390625 L 23.18115234375 7.22900390625 L 23.18115234375 9.3603515625 Q 22.4560546875 9.404296875 22.027587890625 9.7119140625 Q 21.59912109375 10.01953125 21.20361328125 10.61279296875 Q 20.80810546875 11.25 20.621337890625 12.12890625 Q 20.4345703125 13.0078125 20.4345703125 13.99658203125 Q 20.4345703125 16.19384765625 20.91796875 18.9404296875 Q 18.25927734375 16.19384765625 15.655517578125 14.754638671875 Q 13.0517578125 13.3154296875 10.8984375 13.271484375 Q 9.77783203125 13.271484375 8.624267578125 13.568115234375 Q 7.470703125 13.86474609375 6.4599609375 14.468994140625 Q 5.44921875 15.0732421875 4.76806640625 16.19384765625 Q 4.0869140625 17.314453125 4.04296875 18.896484375 Z" fill="#fff" style="-webkit-tap-highlight-color: rgba(0, 0, 0, 0);"></path><path id="ludo-svg-node-iy519iqi" d="M 5.16357421875 18.896484375 Q 5.20751953125 17.4462890625 5.91064453125 16.5234375 Q 6.61376953125 15.6005859375 7.55859375 15.150146484375 Q 8.50341796875 14.69970703125 9.3603515625 14.5458984375 Q 10.21728515625 14.39208984375 10.8984375 14.34814453125 Q 12.19482421875 14.39208984375 14.21630859375 15.35888671875 Q 16.23779296875 16.32568359375 19.53369140625 18.896484375 Q 19.62158203125 19.0283203125 20.19287109375 19.75341796875 Q 21.09375 20.9619140625 21.6650390625 21.8408203125 Q 22.236328125 22.7197265625 22.6318359375 23.75244140625 Q 22.7197265625 24.2578125 22.8515625 25.64208984375 Q 22.939453125 26.71875 22.939453125 26.7626953125 Q 20.41259765625 26.982421875 17.490234375 27.301025390625 Q 14.56787109375 27.61962890625 10.48095703125 28.1689453125 Q 9.931640625 26.87255859375 9.107666015625 25.587158203125 Q 8.28369140625 24.3017578125 6.65771484375 22.32421875 Q 5.712890625 20.93994140625 5.460205078125 20.2587890625 Q 5.20751953125 19.57763671875 5.16357421875 18.896484375 Z" fill="#fff" style="-webkit-tap-highlight-color: rgba(0, 0, 0, 0);"></path><path id="ludo-svg-node-iy519iqj" d="M 10.78857421875 29.24560546875 Q 12.67822265625 28.98193359375 14.5458984375 28.751220703125 Q 16.41357421875 28.5205078125 18.424072265625 28.30078125 Q 20.4345703125 28.0810546875 21.68701171875 27.960205078125 Q 22.939453125 27.83935546875 23.70849609375 27.83935546875 Q 24.3896484375 27.83935546875 25.718994140625 27.960205078125 Q 27.04833984375 28.0810546875 29.00390625 28.30078125 Q 30.95947265625 28.5205078125 32.783203125 28.751220703125 Q 34.60693359375 28.98193359375 36.58447265625 29.24560546875 L 35.7275390625 32.98095703125 Q 32.255859375 32.431640625 28.861083984375 32.10205078125 Q 25.46630859375 31.7724609375 23.70849609375 31.7724609375 Q 21.95068359375 31.7724609375 18.555908203125 32.10205078125 Q 15.1611328125 32.431640625 11.689453125 32.98095703125 L 10.78857421875 29.24560546875 Z" fill="#fff" style="-webkit-tap-highlight-color: rgba(0, 0, 0, 0);"></path><path id="ludo-svg-node-iy519iqk" d="M 11.79931640625 34.0576171875 Q 15.27099609375 33.50830078125 18.61083984375 33.1787109375 Q 21.95068359375 32.84912109375 23.70849609375 32.84912109375 Q 25.51025390625 32.89306640625 28.927001953125 33.233642578125 Q 32.34375 33.57421875 35.5517578125 34.0576171875 L 35.5517578125 36.2548828125 Q 32.45361328125 35.66162109375 29.168701171875 35.3759765625 Q 25.8837890625 35.09033203125 23.70849609375 35.09033203125 Q 21.59912109375 35.09033203125 18.270263671875 35.386962890625 Q 14.94140625 35.68359375 11.84326171875 36.2548828125 L 11.79931640625 34.0576171875 Z" fill="#fff" style="-webkit-tap-highlight-color: rgba(0, 0, 0, 0);"></path><path id="ludo-svg-node-iy519iql" d="M 12.45849609375 37.11181640625 Q 15.0732421875 36.71630859375 18.314208984375 36.463623046875 Q 21.55517578125 36.2109375 23.70849609375 36.1669921875 Q 26.2353515625 36.2109375 29.2236328125 36.441650390625 Q 32.2119140625 36.67236328125 34.95849609375 37.11181640625 Q 33.7060546875 37.37548828125 32.332763671875 37.628173828125 Q 30.95947265625 37.880859375 29.388427734375 38.111572265625 Q 27.8173828125 38.34228515625 26.3232421875 38.47412109375 Q 24.8291015625 38.60595703125 23.70849609375 38.60595703125 Q 22.6318359375 38.60595703125 21.126708984375 38.47412109375 Q 19.62158203125 38.34228515625 18.138427734375 38.133544921875 Q 16.6552734375 37.9248046875 15.13916015625 37.650146484375 Q 13.623046875 37.37548828125 12.45849609375 37.11181640625 Z" fill="#fff" style="-webkit-tap-highlight-color: rgba(0, 0, 0, 0);"></path><path id="ludo-svg-node-iy519iqm" d="M 21.51123046875 13.99658203125 L 21.51123046875 13.7548828125 L 21.51123046875 13.359375 Q 21.51123046875 12.32666015625 21.851806640625 11.4697265625 Q 22.1923828125 10.61279296875 23.18115234375 10.34912109375 Q 23.26904296875 10.34912109375 23.40087890625 10.30517578125 Q 23.57666015625 10.26123046875 23.70849609375 10.26123046875 Q 23.79638671875 10.26123046875 23.994140625 10.30517578125 Q 24.169921875 10.34912109375 24.2578125 10.34912109375 Q 25.29052734375 10.65673828125 25.609130859375 11.57958984375 Q 25.927734375 12.50244140625 25.927734375 13.99658203125 Q 25.927734375 14.94140625 25.784912109375 16.083984375 Q 25.64208984375 17.2265625 25.37841796875 18.9404296875 Q 25.24658203125 19.57763671875 24.6533203125 21.0498046875 Q 23.97216796875 22.763671875 23.70849609375 23.75244140625 Q 23.44482421875 22.67578125 22.7197265625 20.91796875 Q 22.12646484375 19.4677734375 21.99462890625 18.9404296875 Q 21.95068359375 18.6767578125 21.90673828125 18.17138671875 Q 21.51123046875 15.3369140625 21.51123046875 13.99658203125 Z" fill="#fff" style="-webkit-tap-highlight-color: rgba(0, 0, 0, 0);"></path><path id="ludo-svg-node-iy519iqn" d="M 4.04296875 18.896484375 Q 4.04296875 19.79736328125 4.339599609375 20.63232421875 Q 4.63623046875 21.46728515625 5.6689453125 23.115234375 Q 7.3388671875 25.0048828125 8.074951171875 26.158447265625 Q 8.81103515625 27.31201171875 9.3603515625 28.89404296875 Q 10.04150390625 30.60791015625 10.4150390625 32.0361328125 Q 10.78857421875 33.46435546875 10.78857421875 34.60693359375 Q 10.78857421875 35.419921875 10.810546875 36.046142578125 Q 10.83251953125 36.67236328125 10.986328125 37.6611328125 Q 11.97509765625 37.9248046875 13.634033203125 38.265380859375 Q 15.29296875 38.60595703125 17.138671875 38.946533203125 Q 18.984375 39.287109375 20.7421875 39.48486328125 Q 22.5 39.6826171875 23.70849609375 39.6826171875 Q 25.0927734375 39.638671875 26.927490234375 39.44091796875 Q 28.76220703125 39.2431640625 30.531005859375 38.924560546875 Q 32.2998046875 38.60595703125 33.92578125 38.265380859375 Q 35.5517578125 37.9248046875 36.45263671875 37.6611328125 Q 36.54052734375 36.71630859375 36.5625 36.068115234375 Q 36.58447265625 35.419921875 36.58447265625 34.60693359375 Q 36.58447265625 33.486328125 36.968994140625 32.05810546875 Q 37.353515625 30.6298828125 38.0126953125 28.89404296875 Q 38.60595703125 27.31201171875 39.375 26.158447265625 Q 40.14404296875 25.0048828125 41.748046875 23.115234375 Q 42.56103515625 21.77490234375 42.923583984375 20.830078125 Q 43.2861328125 19.88525390625 43.2861328125 18.896484375 Q 43.2861328125 17.81982421875 42.7587890625 16.32568359375 Q 41.55029296875 14.56787109375 40.1220703125 13.941650390625 Q 38.69384765625 13.3154296875 36.49658203125 13.271484375 Q 34.38720703125 13.3154296875 31.7724609375 14.754638671875 Q 29.15771484375 16.19384765625 26.4990234375 18.9404296875 Q 26.71875 17.40234375 26.861572265625 16.19384765625 Q 27.00439453125 14.9853515625 27.00439453125 13.99658203125 Q 27.00439453125 13.0517578125 26.817626953125 12.1728515625 Q 26.630859375 11.2939453125 26.2353515625 10.61279296875 Q 25.83984375 10.01953125 25.411376953125 9.7119140625 Q 24.98291015625 9.404296875 24.2578125 9.3603515625 L 24.2578125 7.22900390625 L 26.630859375 7.22900390625 L 26.630859375 6.15234375 L 24.2578125 6.15234375 L 24.2578125 3.603515625 L 23.18115234375 3.603515625 L 23.18115234375 6.15234375 L 20.830078125 6.15234375 L 20.830078125 7.22900390625 L 23.18115234375 7.22900390625 L 23.18115234375 9.3603515625 Q 22.4560546875 9.404296875 22.027587890625 9.7119140625 Q 21.59912109375 10.01953125 21.20361328125 10.61279296875 Q 20.80810546875 11.25 20.621337890625 12.12890625 Q 20.4345703125 13.0078125 20.4345703125 13.99658203125 Q 20.4345703125 16.19384765625 20.91796875 18.9404296875 Q 18.25927734375 16.19384765625 15.655517578125 14.754638671875 Q 13.0517578125 13.3154296875 10.8984375 13.271484375 Q 9.77783203125 13.271484375 8.624267578125 13.568115234375 Q 7.470703125 13.86474609375 6.4599609375 14.468994140625 Q 5.44921875 15.0732421875 4.76806640625 16.19384765625 Q 4.0869140625 17.314453125 4.04296875 18.896484375 M 5.16357421875 18.896484375 Q 5.20751953125 17.4462890625 5.91064453125 16.5234375 Q 6.61376953125 15.6005859375 7.55859375 15.150146484375 Q 8.50341796875 14.69970703125 9.3603515625 14.5458984375 Q 10.21728515625 14.39208984375 10.8984375 14.34814453125 Q 12.19482421875 14.39208984375 14.21630859375 15.35888671875 Q 16.23779296875 16.32568359375 19.53369140625 18.896484375 Q 19.62158203125 19.0283203125 20.19287109375 19.75341796875 Q 21.09375 20.9619140625 21.6650390625 21.8408203125 Q 22.236328125 22.7197265625 22.6318359375 23.75244140625 Q 22.7197265625 24.2578125 22.8515625 25.64208984375 Q 22.939453125 26.71875 22.939453125 26.7626953125 Q 20.41259765625 26.982421875 17.490234375 27.301025390625 Q 14.56787109375 27.61962890625 10.48095703125 28.1689453125 Q 9.931640625 26.87255859375 9.107666015625 25.587158203125 Q 8.28369140625 24.3017578125 6.65771484375 22.32421875 Q 5.712890625 20.93994140625 5.460205078125 20.2587890625 Q 5.20751953125 19.57763671875 5.16357421875 18.896484375 M 10.78857421875 29.24560546875 Q 12.67822265625 28.98193359375 14.5458984375 28.751220703125 Q 16.41357421875 28.5205078125 18.424072265625 28.30078125 Q 20.4345703125 28.0810546875 21.68701171875 27.960205078125 Q 22.939453125 27.83935546875 23.70849609375 27.83935546875 Q 24.3896484375 27.83935546875 25.718994140625 27.960205078125 Q 27.04833984375 28.0810546875 29.00390625 28.30078125 Q 30.95947265625 28.5205078125 32.783203125 28.751220703125 Q 34.60693359375 28.98193359375 36.58447265625 29.24560546875 L 35.7275390625 32.98095703125 Q 32.255859375 32.431640625 28.861083984375 32.10205078125 Q 25.46630859375 31.7724609375 23.70849609375 31.7724609375 Q 21.95068359375 31.7724609375 18.555908203125 32.10205078125 Q 15.1611328125 32.431640625 11.689453125 32.98095703125 L 10.78857421875 29.24560546875 M 11.79931640625 34.0576171875 Q 15.27099609375 33.50830078125 18.61083984375 33.1787109375 Q 21.95068359375 32.84912109375 23.70849609375 32.84912109375 Q 25.51025390625 32.89306640625 28.927001953125 33.233642578125 Q 32.34375 33.57421875 35.5517578125 34.0576171875 L 35.5517578125 36.2548828125 Q 32.45361328125 35.66162109375 29.168701171875 35.3759765625 Q 25.8837890625 35.09033203125 23.70849609375 35.09033203125 Q 21.59912109375 35.09033203125 18.270263671875 35.386962890625 Q 14.94140625 35.68359375 11.84326171875 36.2548828125 L 11.79931640625 34.0576171875 M 12.45849609375 37.11181640625 Q 15.0732421875 36.71630859375 18.314208984375 36.463623046875 Q 21.55517578125 36.2109375 23.70849609375 36.1669921875 Q 26.2353515625 36.2109375 29.2236328125 36.441650390625 Q 32.2119140625 36.67236328125 34.95849609375 37.11181640625 Q 33.7060546875 37.37548828125 32.332763671875 37.628173828125 Q 30.95947265625 37.880859375 29.388427734375 38.111572265625 Q 27.8173828125 38.34228515625 26.3232421875 38.47412109375 Q 24.8291015625 38.60595703125 23.70849609375 38.60595703125 Q 22.6318359375 38.60595703125 21.126708984375 38.47412109375 Q 19.62158203125 38.34228515625 18.138427734375 38.133544921875 Q 16.6552734375 37.9248046875 15.13916015625 37.650146484375 Q 13.623046875 37.37548828125 12.45849609375 37.11181640625 M 21.51123046875 13.99658203125 L 21.51123046875 13.7548828125 L 21.51123046875 13.359375 Q 21.51123046875 12.32666015625 21.851806640625 11.4697265625 Q 22.1923828125 10.61279296875 23.18115234375 10.34912109375 Q 23.26904296875 10.34912109375 23.40087890625 10.30517578125 Q 23.57666015625 10.26123046875 23.70849609375 10.26123046875 Q 23.79638671875 10.26123046875 23.994140625 10.30517578125 Q 24.169921875 10.34912109375 24.2578125 10.34912109375 Q 25.29052734375 10.65673828125 25.609130859375 11.57958984375 Q 25.927734375 12.50244140625 25.927734375 13.99658203125 Q 25.927734375 14.94140625 25.784912109375 16.083984375 Q 25.64208984375 17.2265625 25.37841796875 18.9404296875 Q 25.24658203125 19.57763671875 24.6533203125 21.0498046875 Q 23.97216796875 22.763671875 23.70849609375 23.75244140625 Q 23.44482421875 22.67578125 22.7197265625 20.91796875 Q 22.12646484375 19.4677734375 21.99462890625 18.9404296875 Q 21.95068359375 18.6767578125 21.90673828125 18.17138671875 Q 21.51123046875 15.3369140625 21.51123046875 13.99658203125 M 24.43359375 26.7626953125 Q 24.521484375 25.94970703125 24.609375 25.11474609375 Q 24.697265625 24.2578125 24.78515625 23.75244140625 Q 25.1806640625 22.67578125 25.77392578125 21.796875 Q 26.3671875 20.91796875 27.31201171875 19.66552734375 Q 27.53173828125 19.35791015625 27.861328125 18.896484375 Q 31.09130859375 16.32568359375 33.134765625 15.35888671875 Q 35.17822265625 14.39208984375 36.49658203125 14.34814453125 L 36.80419921875 14.34814453125 Q 38.1884765625 14.39208984375 39.385986328125 14.798583984375 Q 40.58349609375 15.205078125 41.66015625 16.69921875 Q 42.0556640625 17.95166015625 42.07763671875 18.80859375 Q 42.07763671875 19.62158203125 41.759033203125 20.423583984375 Q 41.4404296875 21.2255859375 40.75927734375 22.32421875 Q 39.17724609375 24.3017578125 38.331298828125 25.576171875 Q 37.4853515625 26.8505859375 36.93603515625 28.1689453125 Q 32.80517578125 27.61962890625 29.90478515625 27.301025390625 Q 27.00439453125 26.982421875 24.43359375 26.7626953125 Z Z" style="-webkit-tap-highlight-color: rgba(0, 0, 0, 0);"></path><path id="ludo-svg-node-iy519io4" d="M 4.04296875 18.896484375 Q 4.04296875 19.79736328125 4.339599609375 20.63232421875 Q 4.63623046875 21.46728515625 5.6689453125 23.115234375 Q 7.3388671875 25.0048828125 8.074951171875 26.158447265625 Q 8.81103515625 27.31201171875 9.3603515625 28.89404296875 Q 10.04150390625 30.60791015625 10.4150390625 32.0361328125 Q 10.78857421875 33.46435546875 10.78857421875 34.60693359375 Q 10.78857421875 35.419921875 10.810546875 36.046142578125 Q 10.83251953125 36.67236328125 10.986328125 37.6611328125 Q 11.97509765625 37.9248046875 13.634033203125 38.265380859375 Q 15.29296875 38.60595703125 17.138671875 38.946533203125 Q 18.984375 39.287109375 20.7421875 39.48486328125 Q 22.5 39.6826171875 23.70849609375 39.6826171875 Q 25.0927734375 39.638671875 26.927490234375 39.44091796875 Q 28.76220703125 39.2431640625 30.531005859375 38.924560546875 Q 32.2998046875 38.60595703125 33.92578125 38.265380859375 Q 35.5517578125 37.9248046875 36.45263671875 37.6611328125 Q 36.54052734375 36.71630859375 36.5625 36.068115234375 Q 36.58447265625 35.419921875 36.58447265625 34.60693359375 Q 36.58447265625 33.486328125 36.968994140625 32.05810546875 Q 37.353515625 30.6298828125 38.0126953125 28.89404296875 Q 38.60595703125 27.31201171875 39.375 26.158447265625 Q 40.14404296875 25.0048828125 41.748046875 23.115234375 Q 42.56103515625 21.77490234375 42.923583984375 20.830078125 Q 43.2861328125 19.88525390625 43.2861328125 18.896484375 Q 43.2861328125 17.81982421875 42.7587890625 16.32568359375 Q 41.55029296875 14.56787109375 40.1220703125 13.941650390625 Q 38.69384765625 13.3154296875 36.49658203125 13.271484375 Q 34.38720703125 13.3154296875 31.7724609375 14.754638671875 Q 29.15771484375 16.19384765625 26.4990234375 18.9404296875 Q 26.71875 17.40234375 26.861572265625 16.19384765625 Q 27.00439453125 14.9853515625 27.00439453125 13.99658203125 Q 27.00439453125 13.0517578125 26.817626953125 12.1728515625 Q 26.630859375 11.2939453125 26.2353515625 10.61279296875 Q 25.83984375 10.01953125 25.411376953125 9.7119140625 Q 24.98291015625 9.404296875 24.2578125 9.3603515625 L 24.2578125 7.22900390625 L 26.630859375 7.22900390625 L 26.630859375 6.15234375 L 24.2578125 6.15234375 L 24.2578125 3.603515625 L 23.18115234375 3.603515625 L 23.18115234375 6.15234375 L 20.830078125 6.15234375 L 20.830078125 7.22900390625 L 23.18115234375 7.22900390625 L 23.18115234375 9.3603515625 Q 22.4560546875 9.404296875 22.027587890625 9.7119140625 Q 21.59912109375 10.01953125 21.20361328125 10.61279296875 Q 20.80810546875 11.25 20.621337890625 12.12890625 Q 20.4345703125 13.0078125 20.4345703125 13.99658203125 Q 20.4345703125 16.19384765625 20.91796875 18.9404296875 Q 18.25927734375 16.19384765625 15.655517578125 14.754638671875 Q 13.0517578125 13.3154296875 10.8984375 13.271484375 Q 9.77783203125 13.271484375 8.624267578125 13.568115234375 Q 7.470703125 13.86474609375 6.4599609375 14.468994140625 Q 5.44921875 15.0732421875 4.76806640625 16.19384765625 Q 4.0869140625 17.314453125 4.04296875 18.896484375 M 5.16357421875 18.896484375 Q 5.20751953125 17.4462890625 5.91064453125 16.5234375 Q 6.61376953125 15.6005859375 7.55859375 15.150146484375 Q 8.50341796875 14.69970703125 9.3603515625 14.5458984375 Q 10.21728515625 14.39208984375 10.8984375 14.34814453125 Q 12.19482421875 14.39208984375 14.21630859375 15.35888671875 Q 16.23779296875 16.32568359375 19.53369140625 18.896484375 Q 19.62158203125 19.0283203125 20.19287109375 19.75341796875 Q 21.09375 20.9619140625 21.6650390625 21.8408203125 Q 22.236328125 22.7197265625 22.6318359375 23.75244140625 Q 22.7197265625 24.2578125 22.8515625 25.64208984375 Q 22.939453125 26.71875 22.939453125 26.7626953125 Q 20.41259765625 26.982421875 17.490234375 27.301025390625 Q 14.56787109375 27.61962890625 10.48095703125 28.1689453125 Q 9.931640625 26.87255859375 9.107666015625 25.587158203125 Q 8.28369140625 24.3017578125 6.65771484375 22.32421875 Q 5.712890625 20.93994140625 5.460205078125 20.2587890625 Q 5.20751953125 19.57763671875 5.16357421875 18.896484375 M 10.78857421875 29.24560546875 Q 12.67822265625 28.98193359375 14.5458984375 28.751220703125 Q 16.41357421875 28.5205078125 18.424072265625 28.30078125 Q 20.4345703125 28.0810546875 21.68701171875 27.960205078125 Q 22.939453125 27.83935546875 23.70849609375 27.83935546875 Q 24.3896484375 27.83935546875 25.718994140625 27.960205078125 Q 27.04833984375 28.0810546875 29.00390625 28.30078125 Q 30.95947265625 28.5205078125 32.783203125 28.751220703125 Q 34.60693359375 28.98193359375 36.58447265625 29.24560546875 L 35.7275390625 32.98095703125 Q 32.255859375 32.431640625 28.861083984375 32.10205078125 Q 25.46630859375 31.7724609375 23.70849609375 31.7724609375 Q 21.95068359375 31.7724609375 18.555908203125 32.10205078125 Q 15.1611328125 32.431640625 11.689453125 32.98095703125 L 10.78857421875 29.24560546875 M 11.79931640625 34.0576171875 Q 15.27099609375 33.50830078125 18.61083984375 33.1787109375 Q 21.95068359375 32.84912109375 23.70849609375 32.84912109375 Q 25.51025390625 32.89306640625 28.927001953125 33.233642578125 Q 32.34375 33.57421875 35.5517578125 34.0576171875 L 35.5517578125 36.2548828125 Q 32.45361328125 35.66162109375 29.168701171875 35.3759765625 Q 25.8837890625 35.09033203125 23.70849609375 35.09033203125 Q 21.59912109375 35.09033203125 18.270263671875 35.386962890625 Q 14.94140625 35.68359375 11.84326171875 36.2548828125 L 11.79931640625 34.0576171875 M 12.45849609375 37.11181640625 Q 15.0732421875 36.71630859375 18.314208984375 36.463623046875 Q 21.55517578125 36.2109375 23.70849609375 36.1669921875 Q 26.2353515625 36.2109375 29.2236328125 36.441650390625 Q 32.2119140625 36.67236328125 34.95849609375 37.11181640625 Q 33.7060546875 37.37548828125 32.332763671875 37.628173828125 Q 30.95947265625 37.880859375 29.388427734375 38.111572265625 Q 27.8173828125 38.34228515625 26.3232421875 38.47412109375 Q 24.8291015625 38.60595703125 23.70849609375 38.60595703125 Q 22.6318359375 38.60595703125 21.126708984375 38.47412109375 Q 19.62158203125 38.34228515625 18.138427734375 38.133544921875 Q 16.6552734375 37.9248046875 15.13916015625 37.650146484375 Q 13.623046875 37.37548828125 12.45849609375 37.11181640625 M 21.51123046875 13.99658203125 L 21.51123046875 13.7548828125 L 21.51123046875 13.359375 Q 21.51123046875 12.32666015625 21.851806640625 11.4697265625 Q 22.1923828125 10.61279296875 23.18115234375 10.34912109375 Q 23.26904296875 10.34912109375 23.40087890625 10.30517578125 Q 23.57666015625 10.26123046875 23.70849609375 10.26123046875 Q 23.79638671875 10.26123046875 23.994140625 10.30517578125 Q 24.169921875 10.34912109375 24.2578125 10.34912109375 Q 25.29052734375 10.65673828125 25.609130859375 11.57958984375 Q 25.927734375 12.50244140625 25.927734375 13.99658203125 Q 25.927734375 14.94140625 25.784912109375 16.083984375 Q 25.64208984375 17.2265625 25.37841796875 18.9404296875 Q 25.24658203125 19.57763671875 24.6533203125 21.0498046875 Q 23.97216796875 22.763671875 23.70849609375 23.75244140625 Q 23.44482421875 22.67578125 22.7197265625 20.91796875 Q 22.12646484375 19.4677734375 21.99462890625 18.9404296875 Q 21.95068359375 18.6767578125 21.90673828125 18.17138671875 Q 21.51123046875 15.3369140625 21.51123046875 13.99658203125 M 24.43359375 26.7626953125 Q 24.521484375 25.94970703125 24.609375 25.11474609375 Q 24.697265625 24.2578125 24.78515625 23.75244140625 Q 25.1806640625 22.67578125 25.77392578125 21.796875 Q 26.3671875 20.91796875 27.31201171875 19.66552734375 Q 27.53173828125 19.35791015625 27.861328125 18.896484375 Q 31.09130859375 16.32568359375 33.134765625 15.35888671875 Q 35.17822265625 14.39208984375 36.49658203125 14.34814453125 L 36.80419921875 14.34814453125 Q 38.1884765625 14.39208984375 39.385986328125 14.798583984375 Q 40.58349609375 15.205078125 41.66015625 16.69921875 Q 42.0556640625 17.95166015625 42.07763671875 18.80859375 Q 42.07763671875 19.62158203125 41.759033203125 20.423583984375 Q 41.4404296875 21.2255859375 40.75927734375 22.32421875 Q 39.17724609375 24.3017578125 38.331298828125 25.576171875 Q 37.4853515625 26.8505859375 36.93603515625 28.1689453125 Q 32.80517578125 27.61962890625 29.90478515625 27.301025390625 Q 27.00439453125 26.982421875 24.43359375 26.7626953125 Z Z" fill-rule="even-odd" style="-webkit-tap-highlight-color: rgba(0, 0, 0, 0); fill: rgb(0, 0, 0); stroke-width: 0;"></path></g></svg>