<svg xmlns="http://www.w3.org/2000/svg" version="1.1" id="ludo-svg-node-iy4wkpw1" width="45" height="45" viewBox="0 0 45 45" viewBox="0 0 45 45" style="-webkit-tap-highlight-color: rgba(0, 0, 0, 0); width: 45px; height: 45px;"><g id="ludo-svg-node-iy4wkpw2" style="-webkit-tap-highlight-color: rgba(0, 0, 0, 0);"><path id="ludo-svg-node-iy4wkpxu" d="M 22.5 40.49560546875 L 8.41552734375 40.49560546875 L 9.052734375 34.69482421875 L 12.54638671875 32.10205078125 L 13.64501953125 17.6220703125 L 10.37109375 15.27099609375 L 9.99755859375 7.7783203125 L 16.34765625 7.7783203125 L 16.34765625 11.00830078125 L 19.35791015625 11.00830078125 L 19.35791015625 7.7783203125 L 22.5 7.7783203125 L 25.64208984375 7.7783203125 L 25.64208984375 11.00830078125 L 28.65234375 11.00830078125 L 28.65234375 7.7783203125 L 35.00244140625 7.7783203125 L 34.62890625 15.27099609375 L 31.35498046875 17.6220703125 L 32.45361328125 32.10205078125 L 35.947265625 34.69482421875 L 36.58447265625 40.49560546875 L 22.5 40.49560546875 Z" fill="#FFF" style="-webkit-tap-highlight-color: rgba(0, 0, 0, 0);"></path><path id="ludo-svg-node-iy4wkpxv" d="M 22.5 18.7646484375 L 29.81689453125 18.7646484375 L 29.68505859375 16.8310546875 L 22.5 16.8310546875 L 15.31494140625 16.8310546875 L 15.18310546875 18.7646484375 L 22.5 18.7646484375 Z" fill="#FFF" style="-webkit-tap-highlight-color: rgba(0, 0, 0, 0);"></path><path id="ludo-svg-node-iy4wkpxw" d="M 22.5 40.49560546875 L 8.41552734375 40.49560546875 L 9.052734375 34.69482421875 L 12.54638671875 32.10205078125 L 13.64501953125 17.6220703125 L 10.37109375 15.27099609375 L 9.99755859375 7.7783203125 L 16.34765625 7.7783203125 L 16.34765625 11.00830078125 L 19.35791015625 11.00830078125 L 19.35791015625 7.7783203125 L 22.5 7.7783203125 L 25.64208984375 7.7783203125 L 25.64208984375 11.00830078125 L 28.65234375 11.00830078125 L 28.65234375 7.7783203125 L 35.00244140625 7.7783203125 L 34.62890625 15.27099609375 L 31.35498046875 17.6220703125 L 32.45361328125 32.10205078125 L 35.947265625 34.69482421875 L 36.58447265625 40.49560546875 L 22.5 40.49560546875 M 22.5 18.7646484375 L 29.81689453125 18.7646484375 L 29.68505859375 16.8310546875 L 22.5 16.8310546875 L 15.31494140625 16.8310546875 L 15.18310546875 18.7646484375 L 22.5 18.7646484375 M 22.5 32.98095703125 L 30.87158203125 32.98095703125 L 30.73974609375 31.0693359375 L 22.5 31.0693359375 L 14.26025390625 31.0693359375 L 14.12841796875 32.98095703125 L 22.5 32.98095703125 Z Z" style="-webkit-tap-highlight-color: rgba(0, 0, 0, 0);"></path><path id="ludo-svg-node-iy4wkpw3" d="M 22.5 40.49560546875 L 8.41552734375 40.49560546875 L 9.052734375 34.69482421875 L 12.54638671875 32.10205078125 L 13.64501953125 17.6220703125 L 10.37109375 15.27099609375 L 9.99755859375 7.7783203125 L 16.34765625 7.7783203125 L 16.34765625 11.00830078125 L 19.35791015625 11.00830078125 L 19.35791015625 7.7783203125 L 22.5 7.7783203125 L 25.64208984375 7.7783203125 L 25.64208984375 11.00830078125 L 28.65234375 11.00830078125 L 28.65234375 7.7783203125 L 35.00244140625 7.7783203125 L 34.62890625 15.27099609375 L 31.35498046875 17.6220703125 L 32.45361328125 32.10205078125 L 35.947265625 34.69482421875 L 36.58447265625 40.49560546875 L 22.5 40.49560546875 M 22.5 18.7646484375 L 29.81689453125 18.7646484375 L 29.68505859375 16.8310546875 L 22.5 16.8310546875 L 15.31494140625 16.8310546875 L 15.18310546875 18.7646484375 L 22.5 18.7646484375 M 22.5 32.98095703125 L 30.87158203125 32.98095703125 L 30.73974609375 31.0693359375 L 22.5 31.0693359375 L 14.26025390625 31.0693359375 L 14.12841796875 32.98095703125 L 22.5 32.98095703125 Z Z" fill-rule="even-odd" style="-webkit-tap-highlight-color: rgba(0, 0, 0, 0); fill: rgb(0, 0, 0); stroke-width: 0;"></path></g></svg>