<svg xmlns="http://www.w3.org/2000/svg" version="1.1" id="ludo-svg-node-iy4wkpv5" width="45" height="45" viewBox="0 0 45 45" style="-webkit-tap-highlight-color: rgba(0, 0, 0, 0); width: 45px; height: 45px;">
    <g id="ludo-svg-node-iy4wkpv6" style="-webkit-tap-highlight-color: rgba(0, 0, 0, 0);">
        <ellipse style="fill:#FFFFFF" cx="22" cy="18" rx="4" ry="6"></ellipse>
        <path id="ludo-svg-node-iy4wkpxc"
              d="M 21.46728515625 6.5478515625 L 21.46728515625 4.46044921875 L 23.53271484375 4.46044921875 L 23.53271484375 6.5478515625 L 25.8837890625 6.5478515625 L 25.8837890625 8.63525390625 L 23.53271484375 8.63525390625 L 23.53271484375 11.9970703125 Q 22.47802734375 11.6455078125 21.46728515625 11.9970703125 L 21.46728515625 8.63525390625 L 19.1162109375 8.63525390625 L 19.1162109375 6.5478515625 L 21.46728515625 6.5478515625 Z"
              fill="#FFFFFF" style="-webkit-tap-highlight-color: rgba(0, 0, 0, 0);"></path>
        <path id="ludo-svg-node-iy4wkpxd"
              d="M 22.5 13.447265625 Q 21.46728515625 13.447265625 19.51171875 16.10595703125 Q 18.83056640625 15.31494140625 18.4130859375 14.8974609375 Q 20.45654296875 11.8212890625 22.5 11.8212890625 Q 24.521484375 11.8212890625 26.5869140625 14.8974609375 Q 26.1474609375 15.31494140625 25.48828125 16.10595703125 Q 23.5107421875 13.447265625 22.5 13.447265625 Z"
              fill="#FFFFFF" style="-webkit-tap-highlight-color: rgba(0, 0, 0, 0);"></path>
        <path id="ludo-svg-node-iy4wkpxe"
              d="M 12.67822265625 33.37646484375 L 12.10693359375 36.80419921875 L 15.29296875 34.95849609375 L 12.67822265625 33.37646484375 Z"
              fill="#FFFFFF" style="-webkit-tap-highlight-color: rgba(0, 0, 0, 0);"></path>
        <path id="ludo-svg-node-iy4wkpxf"
              d="M 21.68701171875 28.85009765625 Q 21.6650390625 25.6201171875 20.885009765625 22.818603515625 Q 20.10498046875 20.01708984375 19.1162109375 18.56689453125 Q 18.12744140625 16.63330078125 16.226806640625 15.205078125 Q 14.326171875 13.77685546875 12.5244140625 13.77685546875 Q 10.26123046875 13.77685546875 7.9541015625 15.8203125 Q 5.64697265625 17.86376953125 5.64697265625 20.85205078125 Q 5.64697265625 23.2470703125 7.547607421875 26.03759765625 Q 9.4482421875 28.828125 11.9970703125 30.9375 Q 16.6552734375 29.00390625 21.68701171875 28.85009765625 Z"
              fill="#FFFFFF" style="-webkit-tap-highlight-color: rgba(0, 0, 0, 0);"></path>
        <path id="ludo-svg-node-iy4wkpxg"
              d="M 22.5 40.49560546875 L 9.84375 40.49560546875 L 11.18408203125 32.4755859375 Q 4.04296875 26.3232421875 4.02099609375 20.72021484375 Q 3.9990234375 17.2265625 6.767578125 14.688720703125 Q 9.5361328125 12.15087890625 12.63427734375 12.15087890625 Q 14.34814453125 12.15087890625 16.116943359375 13.18359375 Q 17.8857421875 14.21630859375 19.248046875 15.79833984375 Q 20.58837890625 17.42431640625 21.412353515625 19.412841796875 Q 22.236328125 21.4013671875 22.5 22.7197265625 Q 22.763671875 21.4013671875 23.57666015625 19.412841796875 Q 24.3896484375 17.42431640625 25.751953125 15.79833984375 Q 27.09228515625 14.21630859375 28.8720703125 13.18359375 Q 30.65185546875 12.15087890625 32.36572265625 12.15087890625 Q 35.44189453125 12.15087890625 38.21044921875 14.688720703125 Q 40.97900390625 17.2265625 40.97900390625 20.72021484375 Q 40.93505859375 26.3232421875 33.81591796875 32.4755859375 L 35.15625 40.49560546875 L 22.5 40.49560546875 Z"
              fill="#FFFFFF" style="-webkit-tap-highlight-color: rgba(0, 0, 0, 0);"></path>
        <path id="ludo-svg-node-iy4wkpxh"
              d="M 22.5 38.86962890625 L 33.24462890625 38.86962890625 L 32.14599609375 32.32177734375 Q 27.39990234375 30.47607421875 22.5 30.47607421875 Q 17.60009765625 30.47607421875 12.85400390625 32.32177734375 L 11.75537109375 38.86962890625 L 22.5 38.86962890625 Z"
              fill="#FFFFFF" style="-webkit-tap-highlight-color: rgba(0, 0, 0, 0);"></path>
        <path id="ludo-svg-node-iy4wkpxi"
              d="M 32.32177734375 33.37646484375 L 32.89306640625 36.80419921875 L 29.70703125 34.95849609375 L 32.32177734375 33.37646484375 Z"
              fill="#FFFFFF" style="-webkit-tap-highlight-color: rgba(0, 0, 0, 0);"></path>
        <path id="ludo-svg-node-iy4wkpxj"
              d="M 23.31298828125 28.85009765625 Q 28.3447265625 29.00390625 33.0029296875 30.9375 Q 35.52978515625 28.828125 37.44140625 26.03759765625 Q 39.35302734375 23.2470703125 39.35302734375 20.85205078125 Q 39.35302734375 17.86376953125 37.034912109375 15.8203125 Q 34.716796875 13.77685546875 32.4755859375 13.77685546875 Q 30.65185546875 13.77685546875 28.751220703125 15.205078125 Q 26.8505859375 16.63330078125 25.8837890625 18.56689453125 Q 24.873046875 20.01708984375 24.093017578125 22.818603515625 Q 23.31298828125 25.6201171875 23.31298828125 28.85009765625 Z"
              fill="#FFFFFF" style="-webkit-tap-highlight-color: rgba(0, 0, 0, 0);"></path>
        <path id="ludo-svg-node-iy4wkpxk"
              d="M 21.46728515625 6.5478515625 L 21.46728515625 4.46044921875 L 23.53271484375 4.46044921875 L 23.53271484375 6.5478515625 L 25.8837890625 6.5478515625 L 25.8837890625 8.63525390625 L 23.53271484375 8.63525390625 L 23.53271484375 11.9970703125 Q 22.47802734375 11.6455078125 21.46728515625 11.9970703125 L 21.46728515625 8.63525390625 L 19.1162109375 8.63525390625 L 19.1162109375 6.5478515625 L 21.46728515625 6.5478515625 M 22.5 13.447265625 Q 21.46728515625 13.447265625 19.51171875 16.10595703125 Q 18.83056640625 15.31494140625 18.4130859375 14.8974609375 Q 20.45654296875 11.8212890625 22.5 11.8212890625 Q 24.521484375 11.8212890625 26.5869140625 14.8974609375 Q 26.1474609375 15.31494140625 25.48828125 16.10595703125 Q 23.5107421875 13.447265625 22.5 13.447265625 M 12.67822265625 33.37646484375 L 12.10693359375 36.80419921875 L 15.29296875 34.95849609375 L 12.67822265625 33.37646484375 M 21.68701171875 28.85009765625 Q 21.6650390625 25.6201171875 20.885009765625 22.818603515625 Q 20.10498046875 20.01708984375 19.1162109375 18.56689453125 Q 18.12744140625 16.63330078125 16.226806640625 15.205078125 Q 14.326171875 13.77685546875 12.5244140625 13.77685546875 Q 10.26123046875 13.77685546875 7.9541015625 15.8203125 Q 5.64697265625 17.86376953125 5.64697265625 20.85205078125 Q 5.64697265625 23.2470703125 7.547607421875 26.03759765625 Q 9.4482421875 28.828125 11.9970703125 30.9375 Q 16.6552734375 29.00390625 21.68701171875 28.85009765625 M 22.5 40.49560546875 L 9.84375 40.49560546875 L 11.18408203125 32.4755859375 Q 4.04296875 26.3232421875 4.02099609375 20.72021484375 Q 3.9990234375 17.2265625 6.767578125 14.688720703125 Q 9.5361328125 12.15087890625 12.63427734375 12.15087890625 Q 14.34814453125 12.15087890625 16.116943359375 13.18359375 Q 17.8857421875 14.21630859375 19.248046875 15.79833984375 Q 20.58837890625 17.42431640625 21.412353515625 19.412841796875 Q 22.236328125 21.4013671875 22.5 22.7197265625 Q 22.763671875 21.4013671875 23.57666015625 19.412841796875 Q 24.3896484375 17.42431640625 25.751953125 15.79833984375 Q 27.09228515625 14.21630859375 28.8720703125 13.18359375 Q 30.65185546875 12.15087890625 32.36572265625 12.15087890625 Q 35.44189453125 12.15087890625 38.21044921875 14.688720703125 Q 40.97900390625 17.2265625 40.97900390625 20.72021484375 Q 40.93505859375 26.3232421875 33.81591796875 32.4755859375 L 35.15625 40.49560546875 L 22.5 40.49560546875 M 22.5 38.86962890625 L 33.24462890625 38.86962890625 L 32.14599609375 32.32177734375 Q 27.39990234375 30.47607421875 22.5 30.47607421875 Q 17.60009765625 30.47607421875 12.85400390625 32.32177734375 L 11.75537109375 38.86962890625 L 22.5 38.86962890625 M 32.32177734375 33.37646484375 L 32.89306640625 36.80419921875 L 29.70703125 34.95849609375 L 32.32177734375 33.37646484375 M 23.31298828125 28.85009765625 Q 28.3447265625 29.00390625 33.0029296875 30.9375 Q 35.52978515625 28.828125 37.44140625 26.03759765625 Q 39.35302734375 23.2470703125 39.35302734375 20.85205078125 Q 39.35302734375 17.86376953125 37.034912109375 15.8203125 Q 34.716796875 13.77685546875 32.4755859375 13.77685546875 Q 30.65185546875 13.77685546875 28.751220703125 15.205078125 Q 26.8505859375 16.63330078125 25.8837890625 18.56689453125 Q 24.873046875 20.01708984375 24.093017578125 22.818603515625 Q 23.31298828125 25.6201171875 23.31298828125 28.85009765625 M 19.44580078125 33.9697265625 L 22.5439453125 32.1240234375 L 25.55419921875 34.013671875 L 22.4560546875 35.859375 L 19.44580078125 33.9697265625 Z Z"
              style="-webkit-tap-highlight-color: rgba(0, 0, 0, 0);"></path>
        <path id="ludo-svg-node-iy4wkpv7"
              d="M 21.46728515625 6.5478515625 L 21.46728515625 4.46044921875 L 23.53271484375 4.46044921875 L 23.53271484375 6.5478515625 L 25.8837890625 6.5478515625 L 25.8837890625 8.63525390625 L 23.53271484375 8.63525390625 L 23.53271484375 11.9970703125 Q 22.47802734375 11.6455078125 21.46728515625 11.9970703125 L 21.46728515625 8.63525390625 L 19.1162109375 8.63525390625 L 19.1162109375 6.5478515625 L 21.46728515625 6.5478515625 M 22.5 13.447265625 Q 21.46728515625 13.447265625 19.51171875 16.10595703125 Q 18.83056640625 15.31494140625 18.4130859375 14.8974609375 Q 20.45654296875 11.8212890625 22.5 11.8212890625 Q 24.521484375 11.8212890625 26.5869140625 14.8974609375 Q 26.1474609375 15.31494140625 25.48828125 16.10595703125 Q 23.5107421875 13.447265625 22.5 13.447265625 M 12.67822265625 33.37646484375 L 12.10693359375 36.80419921875 L 15.29296875 34.95849609375 L 12.67822265625 33.37646484375 M 21.68701171875 28.85009765625 Q 21.6650390625 25.6201171875 20.885009765625 22.818603515625 Q 20.10498046875 20.01708984375 19.1162109375 18.56689453125 Q 18.12744140625 16.63330078125 16.226806640625 15.205078125 Q 14.326171875 13.77685546875 12.5244140625 13.77685546875 Q 10.26123046875 13.77685546875 7.9541015625 15.8203125 Q 5.64697265625 17.86376953125 5.64697265625 20.85205078125 Q 5.64697265625 23.2470703125 7.547607421875 26.03759765625 Q 9.4482421875 28.828125 11.9970703125 30.9375 Q 16.6552734375 29.00390625 21.68701171875 28.85009765625 M 22.5 40.49560546875 L 9.84375 40.49560546875 L 11.18408203125 32.4755859375 Q 4.04296875 26.3232421875 4.02099609375 20.72021484375 Q 3.9990234375 17.2265625 6.767578125 14.688720703125 Q 9.5361328125 12.15087890625 12.63427734375 12.15087890625 Q 14.34814453125 12.15087890625 16.116943359375 13.18359375 Q 17.8857421875 14.21630859375 19.248046875 15.79833984375 Q 20.58837890625 17.42431640625 21.412353515625 19.412841796875 Q 22.236328125 21.4013671875 22.5 22.7197265625 Q 22.763671875 21.4013671875 23.57666015625 19.412841796875 Q 24.3896484375 17.42431640625 25.751953125 15.79833984375 Q 27.09228515625 14.21630859375 28.8720703125 13.18359375 Q 30.65185546875 12.15087890625 32.36572265625 12.15087890625 Q 35.44189453125 12.15087890625 38.21044921875 14.688720703125 Q 40.97900390625 17.2265625 40.97900390625 20.72021484375 Q 40.93505859375 26.3232421875 33.81591796875 32.4755859375 L 35.15625 40.49560546875 L 22.5 40.49560546875 M 22.5 38.86962890625 L 33.24462890625 38.86962890625 L 32.14599609375 32.32177734375 Q 27.39990234375 30.47607421875 22.5 30.47607421875 Q 17.60009765625 30.47607421875 12.85400390625 32.32177734375 L 11.75537109375 38.86962890625 L 22.5 38.86962890625 M 32.32177734375 33.37646484375 L 32.89306640625 36.80419921875 L 29.70703125 34.95849609375 L 32.32177734375 33.37646484375 M 23.31298828125 28.85009765625 Q 28.3447265625 29.00390625 33.0029296875 30.9375 Q 35.52978515625 28.828125 37.44140625 26.03759765625 Q 39.35302734375 23.2470703125 39.35302734375 20.85205078125 Q 39.35302734375 17.86376953125 37.034912109375 15.8203125 Q 34.716796875 13.77685546875 32.4755859375 13.77685546875 Q 30.65185546875 13.77685546875 28.751220703125 15.205078125 Q 26.8505859375 16.63330078125 25.8837890625 18.56689453125 Q 24.873046875 20.01708984375 24.093017578125 22.818603515625 Q 23.31298828125 25.6201171875 23.31298828125 28.85009765625 M 19.44580078125 33.9697265625 L 22.5439453125 32.1240234375 L 25.55419921875 34.013671875 L 22.4560546875 35.859375 L 19.44580078125 33.9697265625 Z Z"
              fill-rule="even-odd"
              style="-webkit-tap-highlight-color: rgba(0, 0, 0, 0); fill: rgb(0, 0, 0); stroke-width: 0;"></path>
    </g>
</svg>