<svg xmlns="http://www.w3.org/2000/svg" version="1.1" id="ludo-svg-node-iy519iqa" width="45" height="45" viewBox="0 0 45 45" style="-webkit-tap-highlight-color: rgba(0, 0, 0, 0); width: 45px; height: 45px;"><g id="ludo-svg-node-iy519iqb" style="-webkit-tap-highlight-color: rgba(0, 0, 0, 0);"><path id="ludo-svg-node-iy519isk" d="M 4.04296875 39.1552734375 L 6.74560546875 41.8359375 Q 8.94287109375 39.90234375 11.25 39.5947265625 Q 13.1396484375 39.287109375 15.0732421875 39.100341796875 Q 17.0068359375 38.91357421875 19.79736328125 38.69384765625 Q 20.6103515625 38.47412109375 21.148681640625 38.199462890625 Q 21.68701171875 37.9248046875 22.5 37.353515625 Q 23.31298828125 37.94677734375 23.851318359375 38.21044921875 Q 24.3896484375 38.47412109375 25.20263671875 38.69384765625 Q 27.9931640625 38.91357421875 29.9267578125 39.100341796875 Q 31.8603515625 39.287109375 33.75 39.5947265625 Q 36.03515625 39.90234375 38.25439453125 41.8359375 L 40.95703125 39.1552734375 Q 39.70458984375 37.99072265625 37.825927734375 37.078857421875 Q 35.947265625 36.1669921875 33.75 35.9912109375 Q 32.71728515625 35.859375 30.05859375 35.6396484375 Q 28.30078125 35.5078125 27.0703125 35.364990234375 Q 25.83984375 35.22216796875 25.20263671875 35.09033203125 Q 24.3017578125 34.69482421875 23.70849609375 33.7060546875 L 21.33544921875 33.7060546875 Q 21.02783203125 34.25537109375 20.665283203125 34.541015625 Q 20.302734375 34.82666015625 19.79736328125 35.09033203125 Q 19.1162109375 35.22216796875 18.12744140625 35.343017578125 Q 17.138671875 35.4638671875 14.94140625 35.6396484375 Q 12.28271484375 35.859375 11.25 35.9912109375 Q 9.052734375 36.1669921875 7.174072265625 37.078857421875 Q 5.29541015625 37.99072265625 4.04296875 39.1552734375 Z" fill="#fff" style="-webkit-tap-highlight-color: rgba(0, 0, 0, 0);"></path><path id="ludo-svg-node-iy519isl" d="M 11.93115234375 20.19287109375 Q 11.93115234375 21.77490234375 12.81005859375 23.323974609375 Q 13.68896484375 24.873046875 15.75439453125 26.103515625 L 14.39208984375 31.48681640625 Q 16.50146484375 32.51953125 18.1494140625 33.046875 Q 19.79736328125 33.57421875 21.33544921875 33.7060546875 Q 21.73095703125 33.75 22.5 33.75 Q 23.31298828125 33.75 23.70849609375 33.7060546875 Q 25.29052734375 33.57421875 26.905517578125 33.046875 Q 28.5205078125 32.51953125 30.60791015625 31.48681640625 L 29.24560546875 26.103515625 Q 31.31103515625 24.89501953125 32.2119140625 23.35693359375 Q 33.11279296875 21.81884765625 33.11279296875 20.19287109375 Q 33.11279296875 19.2919921875 32.84912109375 18.43505859375 Q 32.1240234375 17.2705078125 31.04736328125 16.19384765625 Q 29.970703125 15.1171875 28.3447265625 13.7548828125 Q 27.35595703125 12.94189453125 27.00439453125 12.59033203125 L 22.5 8.0859375 L 17.99560546875 12.59033203125 Q 17.64404296875 12.94189453125 16.6552734375 13.7548828125 Q 15.029296875 15.09521484375 13.95263671875 16.182861328125 Q 12.8759765625 17.2705078125 12.15087890625 18.43505859375 Q 11.93115234375 19.2919921875 11.93115234375 20.19287109375 Z" fill="#fff" style="-webkit-tap-highlight-color: rgba(0, 0, 0, 0);"></path><path id="ludo-svg-node-iy519ism" d="M 15.49072265625 29.794921875 Q 18.193359375 28.2568359375 22.5 28.2568359375 Q 26.82861328125 28.2568359375 29.50927734375 29.794921875 L 28.67431640625 31.17919921875 Q 26.47705078125 30.1025390625 22.5 30.1025390625 Q 18.544921875 30.1025390625 16.32568359375 31.17919921875 L 15.49072265625 29.794921875 Z" fill="#fff" style="-webkit-tap-highlight-color: rgba(0, 0, 0, 0);"></path><path id="ludo-svg-node-iy519isn" d="M 16.36962890625 24.78515625 Q 17.578125 24.23583984375 19.434814453125 23.994140625 Q 21.29150390625 23.75244140625 22.5 23.75244140625 Q 23.70849609375 23.75244140625 25.55419921875 24.005126953125 Q 27.39990234375 24.2578125 28.63037109375 24.78515625 L 27.7294921875 26.4990234375 Q 26.52099609375 26.1474609375 25.02685546875 25.960693359375 Q 23.53271484375 25.77392578125 22.5 25.77392578125 Q 21.46728515625 25.77392578125 19.984130859375 25.960693359375 Q 18.5009765625 26.1474609375 17.2705078125 26.4990234375 L 16.36962890625 24.78515625 Z" fill="#fff" style="-webkit-tap-highlight-color: rgba(0, 0, 0, 0);"></path><path id="ludo-svg-node-iy519iso" d="M 19.1162109375 18.6767578125 L 19.1162109375 16.41357421875 L 21.37939453125 16.41357421875 L 21.37939453125 14.17236328125 L 23.62060546875 14.17236328125 L 23.62060546875 16.41357421875 L 25.8837890625 16.41357421875 L 25.8837890625 18.6767578125 L 23.62060546875 18.6767578125 L 23.62060546875 20.91796875 L 21.37939453125 20.91796875 L 21.37939453125 18.6767578125 L 19.1162109375 18.6767578125 Z" fill="#fff" style="-webkit-tap-highlight-color: rgba(0, 0, 0, 0);"></path><path id="ludo-svg-node-iy519isp" d="M 4.04296875 39.1552734375 L 6.74560546875 41.8359375 Q 8.94287109375 39.90234375 11.25 39.5947265625 Q 13.1396484375 39.287109375 15.0732421875 39.100341796875 Q 17.0068359375 38.91357421875 19.79736328125 38.69384765625 Q 20.6103515625 38.47412109375 21.148681640625 38.199462890625 Q 21.68701171875 37.9248046875 22.5 37.353515625 Q 23.31298828125 37.94677734375 23.851318359375 38.21044921875 Q 24.3896484375 38.47412109375 25.20263671875 38.69384765625 Q 27.9931640625 38.91357421875 29.9267578125 39.100341796875 Q 31.8603515625 39.287109375 33.75 39.5947265625 Q 36.03515625 39.90234375 38.25439453125 41.8359375 L 40.95703125 39.1552734375 Q 39.70458984375 37.99072265625 37.825927734375 37.078857421875 Q 35.947265625 36.1669921875 33.75 35.9912109375 Q 32.71728515625 35.859375 30.05859375 35.6396484375 Q 28.30078125 35.5078125 27.0703125 35.364990234375 Q 25.83984375 35.22216796875 25.20263671875 35.09033203125 Q 24.3017578125 34.69482421875 23.70849609375 33.7060546875 L 21.33544921875 33.7060546875 Q 21.02783203125 34.25537109375 20.665283203125 34.541015625 Q 20.302734375 34.82666015625 19.79736328125 35.09033203125 Q 19.1162109375 35.22216796875 18.12744140625 35.343017578125 Q 17.138671875 35.4638671875 14.94140625 35.6396484375 Q 12.28271484375 35.859375 11.25 35.9912109375 Q 9.052734375 36.1669921875 7.174072265625 37.078857421875 Q 5.29541015625 37.99072265625 4.04296875 39.1552734375 M 11.93115234375 20.19287109375 Q 11.93115234375 21.77490234375 12.81005859375 23.323974609375 Q 13.68896484375 24.873046875 15.75439453125 26.103515625 L 14.39208984375 31.48681640625 Q 16.50146484375 32.51953125 18.1494140625 33.046875 Q 19.79736328125 33.57421875 21.33544921875 33.7060546875 Q 21.73095703125 33.75 22.5 33.75 Q 23.31298828125 33.75 23.70849609375 33.7060546875 Q 25.29052734375 33.57421875 26.905517578125 33.046875 Q 28.5205078125 32.51953125 30.60791015625 31.48681640625 L 29.24560546875 26.103515625 Q 31.31103515625 24.89501953125 32.2119140625 23.35693359375 Q 33.11279296875 21.81884765625 33.11279296875 20.19287109375 Q 33.11279296875 19.2919921875 32.84912109375 18.43505859375 Q 32.1240234375 17.2705078125 31.04736328125 16.19384765625 Q 29.970703125 15.1171875 28.3447265625 13.7548828125 Q 27.35595703125 12.94189453125 27.00439453125 12.59033203125 L 22.5 8.0859375 L 17.99560546875 12.59033203125 Q 17.64404296875 12.94189453125 16.6552734375 13.7548828125 Q 15.029296875 15.09521484375 13.95263671875 16.182861328125 Q 12.8759765625 17.2705078125 12.15087890625 18.43505859375 Q 11.93115234375 19.2919921875 11.93115234375 20.19287109375 M 15.49072265625 29.794921875 Q 18.193359375 28.2568359375 22.5 28.2568359375 Q 26.82861328125 28.2568359375 29.50927734375 29.794921875 L 28.67431640625 31.17919921875 Q 26.47705078125 30.1025390625 22.5 30.1025390625 Q 18.544921875 30.1025390625 16.32568359375 31.17919921875 L 15.49072265625 29.794921875 M 16.36962890625 24.78515625 Q 17.578125 24.23583984375 19.434814453125 23.994140625 Q 21.29150390625 23.75244140625 22.5 23.75244140625 Q 23.70849609375 23.75244140625 25.55419921875 24.005126953125 Q 27.39990234375 24.2578125 28.63037109375 24.78515625 L 27.7294921875 26.4990234375 Q 26.52099609375 26.1474609375 25.02685546875 25.960693359375 Q 23.53271484375 25.77392578125 22.5 25.77392578125 Q 21.46728515625 25.77392578125 19.984130859375 25.960693359375 Q 18.5009765625 26.1474609375 17.2705078125 26.4990234375 L 16.36962890625 24.78515625 M 19.1162109375 18.6767578125 L 19.1162109375 16.41357421875 L 21.37939453125 16.41357421875 L 21.37939453125 14.17236328125 L 23.62060546875 14.17236328125 L 23.62060546875 16.41357421875 L 25.8837890625 16.41357421875 L 25.8837890625 18.6767578125 L 23.62060546875 18.6767578125 L 23.62060546875 20.91796875 L 21.37939453125 20.91796875 L 21.37939453125 18.6767578125 L 19.1162109375 18.6767578125 M 20.2587890625 5.8447265625 Q 20.2587890625 6.70166015625 20.950927734375 7.393798828125 Q 21.64306640625 8.0859375 22.5 8.0859375 Q 23.35693359375 8.0859375 24.049072265625 7.393798828125 Q 24.7412109375 6.70166015625 24.7412109375 5.8447265625 Q 24.7412109375 4.98779296875 24.049072265625 4.295654296875 Q 23.35693359375 3.603515625 22.5 3.603515625 Q 21.64306640625 3.603515625 20.950927734375 4.295654296875 Q 20.2587890625 4.98779296875 20.2587890625 5.8447265625 Z Z" style="-webkit-tap-highlight-color: rgba(0, 0, 0, 0);"></path><path id="ludo-svg-node-iy519iqc" d="M 4.04296875 39.1552734375 L 6.74560546875 41.8359375 Q 8.94287109375 39.90234375 11.25 39.5947265625 Q 13.1396484375 39.287109375 15.0732421875 39.100341796875 Q 17.0068359375 38.91357421875 19.79736328125 38.69384765625 Q 20.6103515625 38.47412109375 21.148681640625 38.199462890625 Q 21.68701171875 37.9248046875 22.5 37.353515625 Q 23.31298828125 37.94677734375 23.851318359375 38.21044921875 Q 24.3896484375 38.47412109375 25.20263671875 38.69384765625 Q 27.9931640625 38.91357421875 29.9267578125 39.100341796875 Q 31.8603515625 39.287109375 33.75 39.5947265625 Q 36.03515625 39.90234375 38.25439453125 41.8359375 L 40.95703125 39.1552734375 Q 39.70458984375 37.99072265625 37.825927734375 37.078857421875 Q 35.947265625 36.1669921875 33.75 35.9912109375 Q 32.71728515625 35.859375 30.05859375 35.6396484375 Q 28.30078125 35.5078125 27.0703125 35.364990234375 Q 25.83984375 35.22216796875 25.20263671875 35.09033203125 Q 24.3017578125 34.69482421875 23.70849609375 33.7060546875 L 21.33544921875 33.7060546875 Q 21.02783203125 34.25537109375 20.665283203125 34.541015625 Q 20.302734375 34.82666015625 19.79736328125 35.09033203125 Q 19.1162109375 35.22216796875 18.12744140625 35.343017578125 Q 17.138671875 35.4638671875 14.94140625 35.6396484375 Q 12.28271484375 35.859375 11.25 35.9912109375 Q 9.052734375 36.1669921875 7.174072265625 37.078857421875 Q 5.29541015625 37.99072265625 4.04296875 39.1552734375 M 11.93115234375 20.19287109375 Q 11.93115234375 21.77490234375 12.81005859375 23.323974609375 Q 13.68896484375 24.873046875 15.75439453125 26.103515625 L 14.39208984375 31.48681640625 Q 16.50146484375 32.51953125 18.1494140625 33.046875 Q 19.79736328125 33.57421875 21.33544921875 33.7060546875 Q 21.73095703125 33.75 22.5 33.75 Q 23.31298828125 33.75 23.70849609375 33.7060546875 Q 25.29052734375 33.57421875 26.905517578125 33.046875 Q 28.5205078125 32.51953125 30.60791015625 31.48681640625 L 29.24560546875 26.103515625 Q 31.31103515625 24.89501953125 32.2119140625 23.35693359375 Q 33.11279296875 21.81884765625 33.11279296875 20.19287109375 Q 33.11279296875 19.2919921875 32.84912109375 18.43505859375 Q 32.1240234375 17.2705078125 31.04736328125 16.19384765625 Q 29.970703125 15.1171875 28.3447265625 13.7548828125 Q 27.35595703125 12.94189453125 27.00439453125 12.59033203125 L 22.5 8.0859375 L 17.99560546875 12.59033203125 Q 17.64404296875 12.94189453125 16.6552734375 13.7548828125 Q 15.029296875 15.09521484375 13.95263671875 16.182861328125 Q 12.8759765625 17.2705078125 12.15087890625 18.43505859375 Q 11.93115234375 19.2919921875 11.93115234375 20.19287109375 M 15.49072265625 29.794921875 Q 18.193359375 28.2568359375 22.5 28.2568359375 Q 26.82861328125 28.2568359375 29.50927734375 29.794921875 L 28.67431640625 31.17919921875 Q 26.47705078125 30.1025390625 22.5 30.1025390625 Q 18.544921875 30.1025390625 16.32568359375 31.17919921875 L 15.49072265625 29.794921875 M 16.36962890625 24.78515625 Q 17.578125 24.23583984375 19.434814453125 23.994140625 Q 21.29150390625 23.75244140625 22.5 23.75244140625 Q 23.70849609375 23.75244140625 25.55419921875 24.005126953125 Q 27.39990234375 24.2578125 28.63037109375 24.78515625 L 27.7294921875 26.4990234375 Q 26.52099609375 26.1474609375 25.02685546875 25.960693359375 Q 23.53271484375 25.77392578125 22.5 25.77392578125 Q 21.46728515625 25.77392578125 19.984130859375 25.960693359375 Q 18.5009765625 26.1474609375 17.2705078125 26.4990234375 L 16.36962890625 24.78515625 M 19.1162109375 18.6767578125 L 19.1162109375 16.41357421875 L 21.37939453125 16.41357421875 L 21.37939453125 14.17236328125 L 23.62060546875 14.17236328125 L 23.62060546875 16.41357421875 L 25.8837890625 16.41357421875 L 25.8837890625 18.6767578125 L 23.62060546875 18.6767578125 L 23.62060546875 20.91796875 L 21.37939453125 20.91796875 L 21.37939453125 18.6767578125 L 19.1162109375 18.6767578125 M 20.2587890625 5.8447265625 Q 20.2587890625 6.70166015625 20.950927734375 7.393798828125 Q 21.64306640625 8.0859375 22.5 8.0859375 Q 23.35693359375 8.0859375 24.049072265625 7.393798828125 Q 24.7412109375 6.70166015625 24.7412109375 5.8447265625 Q 24.7412109375 4.98779296875 24.049072265625 4.295654296875 Q 23.35693359375 3.603515625 22.5 3.603515625 Q 21.64306640625 3.603515625 20.950927734375 4.295654296875 Q 20.2587890625 4.98779296875 20.2587890625 5.8447265625 Z Z" fill-rule="even-odd" style="-webkit-tap-highlight-color: rgba(0, 0, 0, 0); fill: rgb(0, 0, 0); stroke-width: 0;"></path></g></svg>