<svg xmlns="http://www.w3.org/2000/svg" version="1.1" id="ludo-svg-node-iy4wkpu1" width="45" height="45" viewBox="0 0 45 45" style="-webkit-tap-highlight-color: rgba(0, 0, 0, 0); width: 45px; height: 45px;"><g id="ludo-svg-node-iy4wkpu2" style="-webkit-tap-highlight-color: rgba(0, 0, 0, 0);"><path id="ludo-svg-node-iy4wkpwm" d="M 11.42578125 38.86962890625 L 33.57421875 38.86962890625 Q 33.75 36.73828125 30.673828125 34.87060546875 Q 27.7734375 32.6513671875 26.356201171875 29.608154296875 Q 24.93896484375 26.56494140625 24.609375 22.82958984375 L 20.390625 22.82958984375 Q 20.06103515625 26.56494140625 18.643798828125 29.608154296875 Q 17.2265625 32.6513671875 14.326171875 34.87060546875 Q 11.22802734375 36.73828125 11.42578125 38.86962890625 Z" fill="#e5e0bf" style="-webkit-tap-highlight-color: rgba(0, 0, 0, 0);"></path><path id="ludo-svg-node-iy4wkpwn" d="M 22.5 40.49560546875 L 9.7998046875 40.49560546875 L 9.7998046875 38.86962890625 Q 9.7119140625 37.11181640625 10.711669921875 35.859375 Q 11.71142578125 34.60693359375 13.46923828125 33.486328125 Q 16.0400390625 31.48681640625 17.237548828125 28.707275390625 Q 18.43505859375 25.927734375 18.96240234375 22.82958984375 L 12.65625 22.82958984375 L 18.896484375 17.578125 Q 17.0068359375 15.9521484375 17.0068359375 13.447265625 Q 17.0068359375 11.18408203125 18.61083984375 9.55810546875 Q 20.21484375 7.93212890625 22.5 7.93212890625 Q 24.76318359375 7.93212890625 26.378173828125 9.55810546875 Q 27.9931640625 11.18408203125 27.9931640625 13.447265625 Q 27.9931640625 15.9521484375 26.103515625 17.578125 L 32.34375 22.82958984375 L 26.03759765625 22.82958984375 Q 26.54296875 25.927734375 27.75146484375 28.707275390625 Q 28.9599609375 31.48681640625 31.53076171875 33.486328125 Q 33.2666015625 34.60693359375 34.266357421875 35.859375 Q 35.26611328125 37.11181640625 35.2001953125 38.86962890625 L 35.2001953125 40.49560546875 L 22.5 40.49560546875 Z" fill="#e5e0bf" style="-webkit-tap-highlight-color: rgba(0, 0, 0, 0);"></path><path id="ludo-svg-node-iy4wkpwo" d="M 11.42578125 38.86962890625 L 33.57421875 38.86962890625 Q 33.75 36.73828125 30.673828125 34.87060546875 Q 27.7734375 32.6513671875 26.356201171875 29.608154296875 Q 24.93896484375 26.56494140625 24.609375 22.82958984375 L 20.390625 22.82958984375 Q 20.06103515625 26.56494140625 18.643798828125 29.608154296875 Q 17.2265625 32.6513671875 14.326171875 34.87060546875 Q 11.22802734375 36.73828125 11.42578125 38.86962890625 M 22.5 40.49560546875 L 9.7998046875 40.49560546875 L 9.7998046875 38.86962890625 Q 9.7119140625 37.11181640625 10.711669921875 35.859375 Q 11.71142578125 34.60693359375 13.46923828125 33.486328125 Q 16.0400390625 31.48681640625 17.237548828125 28.707275390625 Q 18.43505859375 25.927734375 18.96240234375 22.82958984375 L 12.65625 22.82958984375 L 18.896484375 17.578125 Q 17.0068359375 15.9521484375 17.0068359375 13.447265625 Q 17.0068359375 11.18408203125 18.61083984375 9.55810546875 Q 20.21484375 7.93212890625 22.5 7.93212890625 Q 24.76318359375 7.93212890625 26.378173828125 9.55810546875 Q 27.9931640625 11.18408203125 27.9931640625 13.447265625 Q 27.9931640625 15.9521484375 26.103515625 17.578125 L 32.34375 22.82958984375 L 26.03759765625 22.82958984375 Q 26.54296875 25.927734375 27.75146484375 28.707275390625 Q 28.9599609375 31.48681640625 31.53076171875 33.486328125 Q 33.2666015625 34.60693359375 34.266357421875 35.859375 Q 35.26611328125 37.11181640625 35.2001953125 38.86962890625 L 35.2001953125 40.49560546875 L 22.5 40.49560546875 M 16.611328125 21.4013671875 L 28.388671875 21.4013671875 L 23.44482421875 17.20458984375 Q 26.38916015625 16.5234375 26.38916015625 13.447265625 Q 26.38916015625 11.77734375 25.235595703125 10.667724609375 Q 24.08203125 9.55810546875 22.5 9.55810546875 Q 20.89599609375 9.55810546875 19.75341796875 10.667724609375 Q 18.61083984375 11.77734375 18.61083984375 13.447265625 Q 18.61083984375 16.5234375 21.55517578125 17.20458984375 L 16.611328125 21.4013671875 Z Z" style="-webkit-tap-highlight-color: rgba(0, 0, 0, 0);"></path><path id="ludo-svg-node-iy4wkpu3" d="M 11.42578125 38.86962890625 L 33.57421875 38.86962890625 Q 33.75 36.73828125 30.673828125 34.87060546875 Q 27.7734375 32.6513671875 26.356201171875 29.608154296875 Q 24.93896484375 26.56494140625 24.609375 22.82958984375 L 20.390625 22.82958984375 Q 20.06103515625 26.56494140625 18.643798828125 29.608154296875 Q 17.2265625 32.6513671875 14.326171875 34.87060546875 Q 11.22802734375 36.73828125 11.42578125 38.86962890625 M 22.5 40.49560546875 L 9.7998046875 40.49560546875 L 9.7998046875 38.86962890625 Q 9.7119140625 37.11181640625 10.711669921875 35.859375 Q 11.71142578125 34.60693359375 13.46923828125 33.486328125 Q 16.0400390625 31.48681640625 17.237548828125 28.707275390625 Q 18.43505859375 25.927734375 18.96240234375 22.82958984375 L 12.65625 22.82958984375 L 18.896484375 17.578125 Q 17.0068359375 15.9521484375 17.0068359375 13.447265625 Q 17.0068359375 11.18408203125 18.61083984375 9.55810546875 Q 20.21484375 7.93212890625 22.5 7.93212890625 Q 24.76318359375 7.93212890625 26.378173828125 9.55810546875 Q 27.9931640625 11.18408203125 27.9931640625 13.447265625 Q 27.9931640625 15.9521484375 26.103515625 17.578125 L 32.34375 22.82958984375 L 26.03759765625 22.82958984375 Q 26.54296875 25.927734375 27.75146484375 28.707275390625 Q 28.9599609375 31.48681640625 31.53076171875 33.486328125 Q 33.2666015625 34.60693359375 34.266357421875 35.859375 Q 35.26611328125 37.11181640625 35.2001953125 38.86962890625 L 35.2001953125 40.49560546875 L 22.5 40.49560546875 M 16.611328125 21.4013671875 L 28.388671875 21.4013671875 L 23.44482421875 17.20458984375 Q 26.38916015625 16.5234375 26.38916015625 13.447265625 Q 26.38916015625 11.77734375 25.235595703125 10.667724609375 Q 24.08203125 9.55810546875 22.5 9.55810546875 Q 20.89599609375 9.55810546875 19.75341796875 10.667724609375 Q 18.61083984375 11.77734375 18.61083984375 13.447265625 Q 18.61083984375 16.5234375 21.55517578125 17.20458984375 L 16.611328125 21.4013671875 Z Z" fill-rule="even-odd" style="-webkit-tap-highlight-color: rgba(0, 0, 0, 0); fill: rgb(0, 0, 0); stroke-width: 0;"></path></g></svg>