<svg xmlns="http://www.w3.org/2000/svg" version="1.1" id="ludo-svg-node-iy4wkpu9" width="45" height="45" viewBox="0 0 45 45" style="-webkit-tap-highlight-color: rgba(0, 0, 0, 0); width: 45px; height: 45px;">
    <g id="ludo-svg-node-iy4wkpua" style="-webkit-tap-highlight-color: rgba(0, 0, 0, 0);">

        <path id="ludo-svg-node-iy4wkpvn"
              d="M 16.875 29.99267578125 Q 16.76513671875 30.849609375 16.3037109375 31.79443359375 L 28.6962890625 31.79443359375 Q 28.30078125 31.00341796875 28.125 29.99267578125 L 16.875 29.99267578125 M 27.75146484375 28.388671875 L 28.76220703125 26.78466796875 Q 25.64208984375 25.7080078125 22.5 25.751953125 Q 19.3359375 25.7080078125 16.23779296875 26.78466796875 L 17.24853515625 28.388671875 Q 19.84130859375 27.509765625 22.5 27.5537109375 Q 25.13671875 27.509765625 27.75146484375 28.388671875 M 18.25927734375 33.37646484375 L 13.7109375 33.37646484375 Q 15.18310546875 30.82763671875 15.29296875 28.3447265625 Q 12.7880859375 25.72998046875 11.7333984375 23.433837890625 Q 10.6787109375 21.1376953125 11.6015625 18.52294921875 Q 12.32666015625 16.41357421875 14.1943359375 14.359130859375 Q 16.06201171875 12.3046875 21.0498046875 8.94287109375 Q 20.67626953125 8.701171875 20.0390625 8.15185546875 Q 19.40185546875 7.6025390625 19.40185546875 6.416015625 Q 19.40185546875 5.1416015625 20.302734375 4.306640625 Q 21.20361328125 3.4716796875 22.5 3.4716796875 Q 23.7744140625 3.4716796875 24.686279296875 4.306640625 Q 25.59814453125 5.1416015625 25.59814453125 6.416015625 Q 25.59814453125 7.6025390625 24.949951171875 8.15185546875 Q 24.3017578125 8.701171875 23.9501953125 8.94287109375 Q 28.916015625 12.3046875 30.78369140625 14.359130859375 Q 32.6513671875 16.41357421875 33.3984375 18.52294921875 Q 34.3212890625 21.1376953125 33.2666015625 23.433837890625 Q 32.2119140625 25.72998046875 29.70703125 28.3447265625 Q 29.794921875 30.82763671875 31.2890625 33.37646484375 L 26.74072265625 33.37646484375 Q 26.69677734375 33.28857421875 26.96044921875 33.72802734375 Q 27.685546875 34.892578125 28.49853515625 35.04638671875 Q 29.3115234375 35.2001953125 30.4541015625 35.2001953125 L 35.947265625 35.2001953125 Q 37.6171875 35.2001953125 39.056396484375 36.5625 Q 40.49560546875 37.9248046875 40.49560546875 40.49560546875 L 29.619140625 40.49560546875 Q 26.91650390625 40.49560546875 24.708251953125 38.638916015625 Q 22.5 36.7822265625 22.5 34.27734375 Q 22.5 36.7822265625 20.28076171875 38.638916015625 Q 18.0615234375 40.49560546875 15.380859375 40.49560546875 L 4.50439453125 40.49560546875 Q 4.50439453125 37.9248046875 5.9326171875 36.5625 Q 7.36083984375 35.2001953125 9.052734375 35.2001953125 L 14.5458984375 35.2001953125 Q 15.66650390625 35.2001953125 16.4794921875 35.04638671875 Q 17.29248046875 34.892578125 18.03955078125 33.72802734375 Q 18.30322265625 33.28857421875 18.25927734375 33.37646484375 M 21.46728515625 17.9736328125 L 19.3798828125 17.9736328125 L 19.3798828125 19.92919921875 L 21.46728515625 19.92919921875 L 21.46728515625 23.5546875 L 23.53271484375 23.5546875 L 23.53271484375 19.92919921875 L 25.6201171875 19.92919921875 L 25.6201171875 17.9736328125 L 23.53271484375 17.9736328125 L 23.53271484375 15.6884765625 L 21.46728515625 15.6884765625 L 21.46728515625 17.9736328125 Z Z"
              fill-rule="even-odd"
              style="-webkit-tap-highlight-color: rgba(0, 0, 0, 0); fill: #FFFFFF; stroke-width: 0;"></path>

        <path id="ludo-svg-node-iy4wkpwp"
              d="M 22.5 7.822265625 Q 23.9501953125 7.822265625 23.90625 6.3720703125 Q 23.92822265625 5.16357421875 22.5 5.16357421875 Q 21.0498046875 5.16357421875 21.09375 6.3720703125 Q 21.02783203125 7.822265625 22.5 7.822265625 Z"
              fill="#FFFFFF" style="-webkit-tap-highlight-color: rgba(0, 0, 0, 0);"></path>
        <path id="ludo-svg-node-iy4wkpwq"
              d="M 22.5 34.27734375 Q 22.5 36.7822265625 20.28076171875 38.638916015625 Q 18.0615234375 40.49560546875 15.380859375 40.49560546875 L 4.50439453125 40.49560546875 Q 4.50439453125 37.9248046875 5.9326171875 36.5625 Q 7.36083984375 35.2001953125 9.052734375 35.2001953125 L 14.5458984375 35.2001953125 Q 15.66650390625 35.2001953125 16.4794921875 35.04638671875 Q 17.29248046875 34.892578125 18.03955078125 33.72802734375 Q 18.30322265625 33.28857421875 18.25927734375 33.37646484375 L 19.92919921875 33.37646484375 Q 19.775390625 33.837890625 19.86328125 33.662109375 Q 18.87451171875 35.96923828125 17.46826171875 36.397705078125 Q 16.06201171875 36.826171875 14.26025390625 36.826171875 L 8.98681640625 36.826171875 Q 7.84423828125 36.826171875 7.09716796875 37.705078125 Q 6.35009765625 38.583984375 6.35009765625 38.86962890625 L 15.66650390625 38.86962890625 Q 17.11669921875 38.86962890625 19.149169921875 37.44140625 Q 21.181640625 36.01318359375 21.20361328125 33.37646484375 L 13.7109375 33.37646484375 Q 15.18310546875 30.82763671875 15.29296875 28.3447265625 Q 12.7880859375 25.72998046875 11.7333984375 23.433837890625 Q 10.6787109375 21.1376953125 11.6015625 18.52294921875 Q 12.32666015625 16.41357421875 14.1943359375 14.359130859375 Q 16.06201171875 12.3046875 21.0498046875 8.94287109375 Q 20.67626953125 8.701171875 20.0390625 8.15185546875 Q 19.40185546875 7.6025390625 19.40185546875 6.416015625 Q 19.40185546875 5.1416015625 20.302734375 4.306640625 Q 21.20361328125 3.4716796875 22.5 3.4716796875 Q 23.7744140625 3.4716796875 24.686279296875 4.306640625 Q 25.59814453125 5.1416015625 25.59814453125 6.416015625 Q 25.59814453125 7.6025390625 24.949951171875 8.15185546875 Q 24.3017578125 8.701171875 23.9501953125 8.94287109375 Q 28.916015625 12.3046875 30.78369140625 14.359130859375 Q 32.6513671875 16.41357421875 33.3984375 18.52294921875 Q 34.3212890625 21.1376953125 33.2666015625 23.433837890625 Q 32.2119140625 25.72998046875 29.70703125 28.3447265625 Q 29.794921875 30.82763671875 31.2890625 33.37646484375 L 23.79638671875 33.37646484375 Q 23.79638671875 36.01318359375 25.83984375 37.44140625 Q 27.88330078125 38.86962890625 29.33349609375 38.86962890625 L 38.64990234375 38.86962890625 Q 38.64990234375 38.583984375 37.891845703125 37.705078125 Q 37.1337890625 36.826171875 36.01318359375 36.826171875 L 30.73974609375 36.826171875 Q 28.916015625 36.826171875 27.520751953125 36.397705078125 Q 26.12548828125 35.96923828125 25.13671875 33.662109375 Q 25.224609375 33.837890625 25.07080078125 33.37646484375 L 26.74072265625 33.37646484375 Q 26.69677734375 33.28857421875 26.96044921875 33.72802734375 Q 27.685546875 34.892578125 28.49853515625 35.04638671875 Q 29.3115234375 35.2001953125 30.4541015625 35.2001953125 L 35.947265625 35.2001953125 Q 37.6171875 35.2001953125 39.056396484375 36.5625 Q 40.49560546875 37.9248046875 40.49560546875 40.49560546875 L 29.619140625 40.49560546875 Q 26.91650390625 40.49560546875 24.708251953125 38.638916015625 Q 22.5 36.7822265625 22.5 34.27734375 Z"
              fill="#FFFFFF" style="-webkit-tap-highlight-color: rgba(0, 0, 0, 0);"></path>
        <path id="ludo-svg-node-iy4wkpwr"
              d="M 22.5 31.7724609375 L 28.71826171875 31.7724609375 Q 28.10302734375 29.9267578125 28.0810546875 28.388671875 Q 25.4443359375 27.48779296875 22.5 27.5537109375 Q 19.53369140625 27.48779296875 16.9189453125 28.388671875 Q 16.875 29.9267578125 16.28173828125 31.7724609375 L 22.5 31.7724609375 Z"
              fill="#FFFFFF" style="-webkit-tap-highlight-color: rgba(0, 0, 0, 0);"></path>
        <path id="ludo-svg-node-iy4wkpws"
              d="M 22.5 25.90576171875 Q 25.99365234375 25.8837890625 28.76220703125 26.82861328125 Q 32.9150390625 22.87353515625 31.88232421875 19.22607421875 Q 30.56396484375 14.9853515625 22.5 9.755859375 Q 14.4140625 14.9853515625 13.11767578125 19.22607421875 Q 12.06298828125 22.87353515625 16.23779296875 26.82861328125 Q 18.984375 25.8837890625 22.5 25.90576171875 Z"
              fill="#FFFFFF" style="-webkit-tap-highlight-color: rgba(0, 0, 0, 0);"></path>
        <path id="ludo-svg-node-iy4wkpwt"
              d="M 22.5 7.822265625 Q 23.9501953125 7.822265625 23.90625 6.3720703125 Q 23.92822265625 5.16357421875 22.5 5.16357421875 Q 21.0498046875 5.16357421875 21.09375 6.3720703125 Q 21.02783203125 7.822265625 22.5 7.822265625 M 22.5 34.27734375 Q 22.5 36.7822265625 20.28076171875 38.638916015625 Q 18.0615234375 40.49560546875 15.380859375 40.49560546875 L 4.50439453125 40.49560546875 Q 4.50439453125 37.9248046875 5.9326171875 36.5625 Q 7.36083984375 35.2001953125 9.052734375 35.2001953125 L 14.5458984375 35.2001953125 Q 15.66650390625 35.2001953125 16.4794921875 35.04638671875 Q 17.29248046875 34.892578125 18.03955078125 33.72802734375 Q 18.30322265625 33.28857421875 18.25927734375 33.37646484375 L 19.92919921875 33.37646484375 Q 19.775390625 33.837890625 19.86328125 33.662109375 Q 18.87451171875 35.96923828125 17.46826171875 36.397705078125 Q 16.06201171875 36.826171875 14.26025390625 36.826171875 L 8.98681640625 36.826171875 Q 7.84423828125 36.826171875 7.09716796875 37.705078125 Q 6.35009765625 38.583984375 6.35009765625 38.86962890625 L 15.66650390625 38.86962890625 Q 17.11669921875 38.86962890625 19.149169921875 37.44140625 Q 21.181640625 36.01318359375 21.20361328125 33.37646484375 L 13.7109375 33.37646484375 Q 15.18310546875 30.82763671875 15.29296875 28.3447265625 Q 12.7880859375 25.72998046875 11.7333984375 23.433837890625 Q 10.6787109375 21.1376953125 11.6015625 18.52294921875 Q 12.32666015625 16.41357421875 14.1943359375 14.359130859375 Q 16.06201171875 12.3046875 21.0498046875 8.94287109375 Q 20.67626953125 8.701171875 20.0390625 8.15185546875 Q 19.40185546875 7.6025390625 19.40185546875 6.416015625 Q 19.40185546875 5.1416015625 20.302734375 4.306640625 Q 21.20361328125 3.4716796875 22.5 3.4716796875 Q 23.7744140625 3.4716796875 24.686279296875 4.306640625 Q 25.59814453125 5.1416015625 25.59814453125 6.416015625 Q 25.59814453125 7.6025390625 24.949951171875 8.15185546875 Q 24.3017578125 8.701171875 23.9501953125 8.94287109375 Q 28.916015625 12.3046875 30.78369140625 14.359130859375 Q 32.6513671875 16.41357421875 33.3984375 18.52294921875 Q 34.3212890625 21.1376953125 33.2666015625 23.433837890625 Q 32.2119140625 25.72998046875 29.70703125 28.3447265625 Q 29.794921875 30.82763671875 31.2890625 33.37646484375 L 23.79638671875 33.37646484375 Q 23.79638671875 36.01318359375 25.83984375 37.44140625 Q 27.88330078125 38.86962890625 29.33349609375 38.86962890625 L 38.64990234375 38.86962890625 Q 38.64990234375 38.583984375 37.891845703125 37.705078125 Q 37.1337890625 36.826171875 36.01318359375 36.826171875 L 30.73974609375 36.826171875 Q 28.916015625 36.826171875 27.520751953125 36.397705078125 Q 26.12548828125 35.96923828125 25.13671875 33.662109375 Q 25.224609375 33.837890625 25.07080078125 33.37646484375 L 26.74072265625 33.37646484375 Q 26.69677734375 33.28857421875 26.96044921875 33.72802734375 Q 27.685546875 34.892578125 28.49853515625 35.04638671875 Q 29.3115234375 35.2001953125 30.4541015625 35.2001953125 L 35.947265625 35.2001953125 Q 37.6171875 35.2001953125 39.056396484375 36.5625 Q 40.49560546875 37.9248046875 40.49560546875 40.49560546875 L 29.619140625 40.49560546875 Q 26.91650390625 40.49560546875 24.708251953125 38.638916015625 Q 22.5 36.7822265625 22.5 34.27734375 M 22.5 31.7724609375 L 28.71826171875 31.7724609375 Q 28.10302734375 29.9267578125 28.0810546875 28.388671875 Q 25.4443359375 27.48779296875 22.5 27.5537109375 Q 19.53369140625 27.48779296875 16.9189453125 28.388671875 Q 16.875 29.9267578125 16.28173828125 31.7724609375 L 22.5 31.7724609375 M 22.5 25.90576171875 Q 25.99365234375 25.8837890625 28.76220703125 26.82861328125 Q 32.9150390625 22.87353515625 31.88232421875 19.22607421875 Q 30.56396484375 14.9853515625 22.5 9.755859375 Q 14.4140625 14.9853515625 13.11767578125 19.22607421875 Q 12.06298828125 22.87353515625 16.23779296875 26.82861328125 Q 18.984375 25.8837890625 22.5 25.90576171875 M 21.46728515625 17.9736328125 L 21.46728515625 15.6884765625 L 23.53271484375 15.6884765625 L 23.53271484375 17.9736328125 L 25.6201171875 17.9736328125 L 25.6201171875 19.92919921875 L 23.53271484375 19.92919921875 L 23.53271484375 23.5546875 L 21.46728515625 23.5546875 L 21.46728515625 19.92919921875 L 19.3798828125 19.92919921875 L 19.3798828125 17.9736328125 L 21.46728515625 17.9736328125 Z Z"
              style="-webkit-tap-highlight-color: rgba(0, 0, 0, 0);"></path>
        <path id="ludo-svg-node-iy4wkpub"
              d="M 22.5 7.822265625 Q 23.9501953125 7.822265625 23.90625 6.3720703125 Q 23.92822265625 5.16357421875 22.5 5.16357421875 Q 21.0498046875 5.16357421875 21.09375 6.3720703125 Q 21.02783203125 7.822265625 22.5 7.822265625 M 22.5 34.27734375 Q 22.5 36.7822265625 20.28076171875 38.638916015625 Q 18.0615234375 40.49560546875 15.380859375 40.49560546875 L 4.50439453125 40.49560546875 Q 4.50439453125 37.9248046875 5.9326171875 36.5625 Q 7.36083984375 35.2001953125 9.052734375 35.2001953125 L 14.5458984375 35.2001953125 Q 15.66650390625 35.2001953125 16.4794921875 35.04638671875 Q 17.29248046875 34.892578125 18.03955078125 33.72802734375 Q 18.30322265625 33.28857421875 18.25927734375 33.37646484375 L 19.92919921875 33.37646484375 Q 19.775390625 33.837890625 19.86328125 33.662109375 Q 18.87451171875 35.96923828125 17.46826171875 36.397705078125 Q 16.06201171875 36.826171875 14.26025390625 36.826171875 L 8.98681640625 36.826171875 Q 7.84423828125 36.826171875 7.09716796875 37.705078125 Q 6.35009765625 38.583984375 6.35009765625 38.86962890625 L 15.66650390625 38.86962890625 Q 17.11669921875 38.86962890625 19.149169921875 37.44140625 Q 21.181640625 36.01318359375 21.20361328125 33.37646484375 L 13.7109375 33.37646484375 Q 15.18310546875 30.82763671875 15.29296875 28.3447265625 Q 12.7880859375 25.72998046875 11.7333984375 23.433837890625 Q 10.6787109375 21.1376953125 11.6015625 18.52294921875 Q 12.32666015625 16.41357421875 14.1943359375 14.359130859375 Q 16.06201171875 12.3046875 21.0498046875 8.94287109375 Q 20.67626953125 8.701171875 20.0390625 8.15185546875 Q 19.40185546875 7.6025390625 19.40185546875 6.416015625 Q 19.40185546875 5.1416015625 20.302734375 4.306640625 Q 21.20361328125 3.4716796875 22.5 3.4716796875 Q 23.7744140625 3.4716796875 24.686279296875 4.306640625 Q 25.59814453125 5.1416015625 25.59814453125 6.416015625 Q 25.59814453125 7.6025390625 24.949951171875 8.15185546875 Q 24.3017578125 8.701171875 23.9501953125 8.94287109375 Q 28.916015625 12.3046875 30.78369140625 14.359130859375 Q 32.6513671875 16.41357421875 33.3984375 18.52294921875 Q 34.3212890625 21.1376953125 33.2666015625 23.433837890625 Q 32.2119140625 25.72998046875 29.70703125 28.3447265625 Q 29.794921875 30.82763671875 31.2890625 33.37646484375 L 23.79638671875 33.37646484375 Q 23.79638671875 36.01318359375 25.83984375 37.44140625 Q 27.88330078125 38.86962890625 29.33349609375 38.86962890625 L 38.64990234375 38.86962890625 Q 38.64990234375 38.583984375 37.891845703125 37.705078125 Q 37.1337890625 36.826171875 36.01318359375 36.826171875 L 30.73974609375 36.826171875 Q 28.916015625 36.826171875 27.520751953125 36.397705078125 Q 26.12548828125 35.96923828125 25.13671875 33.662109375 Q 25.224609375 33.837890625 25.07080078125 33.37646484375 L 26.74072265625 33.37646484375 Q 26.69677734375 33.28857421875 26.96044921875 33.72802734375 Q 27.685546875 34.892578125 28.49853515625 35.04638671875 Q 29.3115234375 35.2001953125 30.4541015625 35.2001953125 L 35.947265625 35.2001953125 Q 37.6171875 35.2001953125 39.056396484375 36.5625 Q 40.49560546875 37.9248046875 40.49560546875 40.49560546875 L 29.619140625 40.49560546875 Q 26.91650390625 40.49560546875 24.708251953125 38.638916015625 Q 22.5 36.7822265625 22.5 34.27734375 M 22.5 31.7724609375 L 28.71826171875 31.7724609375 Q 28.10302734375 29.9267578125 28.0810546875 28.388671875 Q 25.4443359375 27.48779296875 22.5 27.5537109375 Q 19.53369140625 27.48779296875 16.9189453125 28.388671875 Q 16.875 29.9267578125 16.28173828125 31.7724609375 L 22.5 31.7724609375 M 22.5 25.90576171875 Q 25.99365234375 25.8837890625 28.76220703125 26.82861328125 Q 32.9150390625 22.87353515625 31.88232421875 19.22607421875 Q 30.56396484375 14.9853515625 22.5 9.755859375 Q 14.4140625 14.9853515625 13.11767578125 19.22607421875 Q 12.06298828125 22.87353515625 16.23779296875 26.82861328125 Q 18.984375 25.8837890625 22.5 25.90576171875 M 21.46728515625 17.9736328125 L 21.46728515625 15.6884765625 L 23.53271484375 15.6884765625 L 23.53271484375 17.9736328125 L 25.6201171875 17.9736328125 L 25.6201171875 19.92919921875 L 23.53271484375 19.92919921875 L 23.53271484375 23.5546875 L 21.46728515625 23.5546875 L 21.46728515625 19.92919921875 L 19.3798828125 19.92919921875 L 19.3798828125 17.9736328125 L 21.46728515625 17.9736328125 Z Z"
              fill-rule="even-odd"
              style="-webkit-tap-highlight-color: rgba(0, 0, 0, 0); fill: rgb(0, 0, 0); stroke-width: 0;"></path>
    </g>
</svg>