<svg xmlns="http://www.w3.org/2000/svg" version="1.1" id="ludo-svg-node-iy519ipu" width="45" height="45" viewBox="0 0 45 45" style="-webkit-tap-highlight-color: rgba(0, 0, 0, 0); width: 45px; height: 45px;"><g id="ludo-svg-node-iy519ipv" style="-webkit-tap-highlight-color: rgba(0, 0, 0, 0);"><path id="ludo-svg-node-iy519is5" d="M 7.8662109375 39.5947265625 L 22.5 39.5947265625 L 37.1337890625 39.5947265625 L 37.1337890625 36.2109375 L 34.87060546875 36.2109375 L 34.87060546875 32.3876953125 L 31.04736328125 28.3447265625 L 31.04736328125 14.853515625 L 35.5517578125 11.4697265625 L 35.5517578125 5.4052734375 L 30.3662109375 5.4052734375 L 30.3662109375 8.0859375 L 25.64208984375 8.0859375 L 25.64208984375 5.4052734375 L 19.35791015625 5.4052734375 L 19.35791015625 8.0859375 L 14.6337890625 8.0859375 L 14.6337890625 5.4052734375 L 9.4482421875 5.4052734375 L 9.4482421875 11.4697265625 L 13.95263671875 14.853515625 L 13.95263671875 28.3447265625 L 10.12939453125 32.3876953125 L 10.12939453125 36.2109375 L 7.8662109375 36.2109375 L 7.8662109375 39.5947265625 Z" fill="#fff" style="-webkit-tap-highlight-color: rgba(0, 0, 0, 0);"></path><path id="ludo-svg-node-iy519is6" d="M 10.810546875 10.34912109375 L 34.189453125 10.34912109375 L 31.5087890625 12.37060546875 L 22.5 12.37060546875 L 13.4912109375 12.37060546875 L 10.810546875 10.34912109375 Z" fill="#fff" style="-webkit-tap-highlight-color: rgba(0, 0, 0, 0);"></path><path id="ludo-svg-node-iy519is7" d="M 11.4697265625 37.265625 L 11.4697265625 35.22216796875 L 22.5 35.22216796875 L 33.5302734375 35.22216796875 L 33.5302734375 37.265625 L 22.5 37.265625 L 11.4697265625 37.265625 Z" fill="#fff" style="-webkit-tap-highlight-color: rgba(0, 0, 0, 0);"></path><path id="ludo-svg-node-iy519is8" d="M 11.4697265625 33.37646484375 L 13.359375 31.35498046875 L 22.5 31.35498046875 L 31.640625 31.35498046875 L 33.5302734375 33.37646484375 L 22.5 33.37646484375 L 11.4697265625 33.37646484375 Z" fill="#fff" style="-webkit-tap-highlight-color: rgba(0, 0, 0, 0);"></path><path id="ludo-svg-node-iy519is9" d="M 15.29296875 29.33349609375 L 15.29296875 27.31201171875 L 29.70703125 27.31201171875 L 29.70703125 29.33349609375 L 22.5 29.33349609375 L 15.29296875 29.33349609375 Z" fill="#fff" style="-webkit-tap-highlight-color: rgba(0, 0, 0, 0);"></path><path id="ludo-svg-node-iy519isa" d="M 7.8662109375 39.5947265625 L 22.5 39.5947265625 L 37.1337890625 39.5947265625 L 37.1337890625 36.2109375 L 34.87060546875 36.2109375 L 34.87060546875 32.3876953125 L 31.04736328125 28.3447265625 L 31.04736328125 14.853515625 L 35.5517578125 11.4697265625 L 35.5517578125 5.4052734375 L 30.3662109375 5.4052734375 L 30.3662109375 8.0859375 L 25.64208984375 8.0859375 L 25.64208984375 5.4052734375 L 19.35791015625 5.4052734375 L 19.35791015625 8.0859375 L 14.6337890625 8.0859375 L 14.6337890625 5.4052734375 L 9.4482421875 5.4052734375 L 9.4482421875 11.4697265625 L 13.95263671875 14.853515625 L 13.95263671875 28.3447265625 L 10.12939453125 32.3876953125 L 10.12939453125 36.2109375 L 7.8662109375 36.2109375 L 7.8662109375 39.5947265625 M 10.810546875 10.34912109375 L 34.189453125 10.34912109375 L 31.5087890625 12.37060546875 L 22.5 12.37060546875 L 13.4912109375 12.37060546875 L 10.810546875 10.34912109375 M 11.4697265625 37.265625 L 11.4697265625 35.22216796875 L 22.5 35.22216796875 L 33.5302734375 35.22216796875 L 33.5302734375 37.265625 L 22.5 37.265625 L 11.4697265625 37.265625 M 11.4697265625 33.37646484375 L 13.359375 31.35498046875 L 22.5 31.35498046875 L 31.640625 31.35498046875 L 33.5302734375 33.37646484375 L 22.5 33.37646484375 L 11.4697265625 33.37646484375 M 15.29296875 29.33349609375 L 15.29296875 27.31201171875 L 29.70703125 27.31201171875 L 29.70703125 29.33349609375 L 22.5 29.33349609375 L 15.29296875 29.33349609375 M 15.29296875 15.97412109375 L 15.29296875 13.95263671875 L 22.5 13.95263671875 L 29.70703125 13.95263671875 L 29.70703125 15.97412109375 L 15.29296875 15.97412109375 Z Z" style="-webkit-tap-highlight-color: rgba(0, 0, 0, 0);"></path><path id="ludo-svg-node-iy519ipw" d="M 7.8662109375 39.5947265625 L 22.5 39.5947265625 L 37.1337890625 39.5947265625 L 37.1337890625 36.2109375 L 34.87060546875 36.2109375 L 34.87060546875 32.3876953125 L 31.04736328125 28.3447265625 L 31.04736328125 14.853515625 L 35.5517578125 11.4697265625 L 35.5517578125 5.4052734375 L 30.3662109375 5.4052734375 L 30.3662109375 8.0859375 L 25.64208984375 8.0859375 L 25.64208984375 5.4052734375 L 19.35791015625 5.4052734375 L 19.35791015625 8.0859375 L 14.6337890625 8.0859375 L 14.6337890625 5.4052734375 L 9.4482421875 5.4052734375 L 9.4482421875 11.4697265625 L 13.95263671875 14.853515625 L 13.95263671875 28.3447265625 L 10.12939453125 32.3876953125 L 10.12939453125 36.2109375 L 7.8662109375 36.2109375 L 7.8662109375 39.5947265625 M 10.810546875 10.34912109375 L 34.189453125 10.34912109375 L 31.5087890625 12.37060546875 L 22.5 12.37060546875 L 13.4912109375 12.37060546875 L 10.810546875 10.34912109375 M 11.4697265625 37.265625 L 11.4697265625 35.22216796875 L 22.5 35.22216796875 L 33.5302734375 35.22216796875 L 33.5302734375 37.265625 L 22.5 37.265625 L 11.4697265625 37.265625 M 11.4697265625 33.37646484375 L 13.359375 31.35498046875 L 22.5 31.35498046875 L 31.640625 31.35498046875 L 33.5302734375 33.37646484375 L 22.5 33.37646484375 L 11.4697265625 33.37646484375 M 15.29296875 29.33349609375 L 15.29296875 27.31201171875 L 29.70703125 27.31201171875 L 29.70703125 29.33349609375 L 22.5 29.33349609375 L 15.29296875 29.33349609375 M 15.29296875 15.97412109375 L 15.29296875 13.95263671875 L 22.5 13.95263671875 L 29.70703125 13.95263671875 L 29.70703125 15.97412109375 L 15.29296875 15.97412109375 Z Z" fill-rule="even-odd" style="-webkit-tap-highlight-color: rgba(0, 0, 0, 0); fill: rgb(0, 0, 0); stroke-width: 0;"></path></g></svg>