<svg xmlns="http://www.w3.org/2000/svg" version="1.1" id="ludo-svg-node-iy51mzls" width="45" height="45" viewBox="0 0 45 45" style="-webkit-tap-highlight-color: rgba(0, 0, 0, 0); width: 45px; height: 45px;"><g id="ludo-svg-node-iy51mzlt" style="-webkit-tap-highlight-color: rgba(0, 0, 0, 0);"><path id="ludo-svg-node-iy51mzo5" d="M 24.78515625 33.1787109375 Q 24.78515625 34.62890625 25.4443359375 35.6396484375 Q 26.103515625 36.650390625 26.87255859375 37.24365234375 Q 28.0810546875 38.12255859375 30.41015625 38.12255859375 Q 30.9814453125 38.12255859375 32.6513671875 37.880859375 Q 34.013671875 37.6611328125 34.8486328125 37.562255859375 Q 35.68359375 37.46337890625 35.9912109375 37.3974609375 Q 36.73828125 37.265625 37.72705078125 37.44140625 Q 38.07861328125 37.529296875 38.507080078125 37.606201171875 Q 38.935546875 37.68310546875 39.22119140625 37.94677734375 L 40.27587890625 36.23291015625 Q 39.375 35.771484375 38.38623046875 35.595703125 Q 36.80419921875 35.31005859375 35.44189453125 35.4638671875 Q 35.068359375 35.5078125 34.464111328125 35.68359375 Q 33.85986328125 35.859375 32.8271484375 36.01318359375 Q 30.60791015625 36.36474609375 30.47607421875 36.36474609375 Q 29.619140625 36.36474609375 28.98193359375 36.134033203125 Q 28.3447265625 35.9033203125 27.83935546875 35.66162109375 Q 26.6748046875 35.1123046875 25.48828125 33.1787109375 L 24.78515625 33.1787109375 Z" fill="#000" style="-webkit-tap-highlight-color: rgba(0, 0, 0, 0);"></path><path id="ludo-svg-node-iy51mzo6" d="M 27.1142578125 33.22265625 Q 27.4658203125 33.90380859375 28.01513671875 34.2333984375 Q 28.564453125 34.56298828125 28.828125 34.69482421875 Q 29.28955078125 34.95849609375 30.60791015625 34.95849609375 Q 31.79443359375 34.78271484375 32.991943359375 34.60693359375 Q 34.189453125 34.43115234375 35.39794921875 34.25537109375 Q 35.9912109375 34.3212890625 36.595458984375 34.288330078125 Q 37.19970703125 34.25537109375 37.8369140625 34.3212890625 Q 39.26513671875 34.453125 40.5615234375 35.04638671875 Q 41.46240234375 35.4638671875 41.98974609375 36.03515625 L 39.83642578125 39.52880859375 Q 39.44091796875 39.13330078125 38.726806640625 38.91357421875 Q 38.0126953125 38.69384765625 37.5732421875 38.69384765625 Q 37.28759765625 38.69384765625 36.990966796875 38.64990234375 Q 36.6943359375 38.60595703125 36.3427734375 38.64990234375 L 30.16845703125 39.52880859375 Q 27.61962890625 39.83642578125 25.86181640625 38.3642578125 Q 25.13671875 37.77099609375 24.708251953125 37.33154296875 Q 24.27978515625 36.89208984375 23.994140625 35.6396484375 Q 23.6865234375 36.89208984375 23.2470703125 37.37548828125 Q 22.8076171875 37.85888671875 22.08251953125 38.38623046875 Q 21.29150390625 38.95751953125 20.21484375 39.3310546875 Q 19.13818359375 39.70458984375 17.81982421875 39.52880859375 L 11.6455078125 38.64990234375 Q 11.27197265625 38.60595703125 10.975341796875 38.64990234375 Q 10.6787109375 38.69384765625 10.4150390625 38.69384765625 Q 9.95361328125 38.69384765625 9.239501953125 38.91357421875 Q 8.525390625 39.13330078125 8.1298828125 39.52880859375 L 5.99853515625 36.03515625 Q 6.50390625 35.4638671875 7.4267578125 35.04638671875 Q 8.701171875 34.453125 10.1513671875 34.3212890625 Q 10.7666015625 34.25537109375 11.370849609375 34.288330078125 Q 11.97509765625 34.3212890625 12.59033203125 34.25537109375 Q 13.77685546875 34.43115234375 14.9853515625 34.60693359375 Q 16.19384765625 34.78271484375 17.38037109375 34.95849609375 Q 18.69873046875 34.95849609375 19.16015625 34.69482421875 Q 19.40185546875 34.56298828125 19.962158203125 34.2333984375 Q 20.5224609375 33.90380859375 20.8740234375 33.22265625 Q 19.35791015625 33.0908203125 17.874755859375 32.750244140625 Q 16.3916015625 32.40966796875 15.31494140625 32.05810546875 L 17.95166015625 26.38916015625 Q 15.97412109375 25.400390625 15.194091796875 24.796142578125 Q 14.4140625 24.19189453125 13.9306640625 23.40087890625 Q 13.271484375 22.39013671875 13.095703125 21.4453125 Q 12.919921875 20.50048828125 12.94189453125 19.75341796875 Q 12.9638671875 18.43505859375 13.656005859375 16.842041015625 Q 14.34814453125 15.2490234375 16.28173828125 13.99658203125 Q 17.90771484375 12.94189453125 19.412841796875 11.8212890625 Q 20.91796875 10.70068359375 22.412109375 9.1845703125 Q 20.54443359375 8.37158203125 20.54443359375 6.5478515625 Q 20.54443359375 5.3173828125 21.544189453125 4.4384765625 Q 22.5439453125 3.5595703125 23.994140625 3.5595703125 Q 25.400390625 3.5595703125 26.422119140625 4.4384765625 Q 27.44384765625 5.3173828125 27.44384765625 6.5478515625 Q 27.44384765625 8.37158203125 25.55419921875 9.1845703125 Q 27.04833984375 10.70068359375 28.553466796875 11.8212890625 Q 30.05859375 12.94189453125 31.70654296875 13.99658203125 Q 33.6181640625 15.2490234375 34.310302734375 16.842041015625 Q 35.00244140625 18.43505859375 35.04638671875 19.75341796875 Q 35.04638671875 20.50048828125 34.859619140625 21.4453125 Q 34.6728515625 22.39013671875 34.0576171875 23.40087890625 Q 33.55224609375 24.19189453125 32.772216796875 24.796142578125 Q 31.9921875 25.400390625 30.03662109375 26.38916015625 L 32.67333984375 32.05810546875 Q 31.552734375 32.40966796875 30.08056640625 32.750244140625 Q 28.6083984375 33.0908203125 27.1142578125 33.22265625 Z" fill="#000" style="-webkit-tap-highlight-color: rgba(0, 0, 0, 0);"></path><path id="ludo-svg-node-iy51mzo7" d="M 23.22509765625 33.1787109375 L 22.52197265625 33.1787109375 Q 21.3134765625 35.09033203125 20.14892578125 35.66162109375 Q 19.62158203125 35.9033203125 18.984375 36.134033203125 Q 18.34716796875 36.36474609375 17.51220703125 36.36474609375 Q 17.3583984375 36.36474609375 15.1611328125 36.01318359375 Q 14.1064453125 35.859375 13.4912109375 35.68359375 Q 12.8759765625 35.5078125 12.54638671875 35.4638671875 Q 11.162109375 35.31005859375 9.60205078125 35.595703125 Q 8.59130859375 35.771484375 7.71240234375 36.23291015625 L 8.76708984375 37.94677734375 Q 9.03076171875 37.68310546875 9.459228515625 37.606201171875 Q 9.8876953125 37.529296875 10.26123046875 37.44140625 Q 11.22802734375 37.265625 11.9970703125 37.3974609375 Q 12.28271484375 37.46337890625 13.11767578125 37.562255859375 Q 13.95263671875 37.6611328125 15.3369140625 37.880859375 Q 16.98486328125 38.12255859375 17.578125 38.12255859375 Q 19.88525390625 38.12255859375 21.11572265625 37.24365234375 Q 21.86279296875 36.650390625 22.5439453125 35.6396484375 Q 23.22509765625 34.62890625 23.22509765625 33.1787109375 Z" fill="#000" style="-webkit-tap-highlight-color: rgba(0, 0, 0, 0);"></path><path id="ludo-svg-node-iy51mzo8" d="M 23.13720703125 19.3359375 L 21.11572265625 19.31396484375 Q 20.302734375 19.31396484375 20.302734375 18.5009765625 L 20.302734375 18.5009765625 Q 20.302734375 17.68798828125 21.11572265625 17.68798828125 L 23.13720703125 17.68798828125 L 23.13720703125 15.6005859375 Q 23.13720703125 14.765625 23.994140625 14.765625 L 23.994140625 14.765625 Q 24.85107421875 14.765625 24.85107421875 15.6005859375 L 24.85107421875 17.68798828125 L 26.91650390625 17.68798828125 Q 27.7294921875 17.68798828125 27.7294921875 18.5009765625 L 27.7294921875 18.5009765625 Q 27.7294921875 19.31396484375 26.91650390625 19.31396484375 L 24.85107421875 19.3359375 L 24.85107421875 21.3134765625 Q 24.85107421875 22.17041015625 23.994140625 22.17041015625 L 23.994140625 22.17041015625 Q 23.13720703125 22.17041015625 23.13720703125 21.3134765625 L 23.13720703125 19.3359375 Z" fill="#000" style="-webkit-tap-highlight-color: rgba(0, 0, 0, 0);"></path><path id="ludo-svg-node-iy51mzo9" d="M 23.994140625 8.0419921875 Q 25.7080078125 8.0419921875 25.7080078125 6.5478515625 Q 25.7080078125 5.0537109375 23.994140625 5.0537109375 Q 22.25830078125 5.0537109375 22.25830078125 6.5478515625 Q 22.25830078125 8.0419921875 23.994140625 8.0419921875 Z" fill="#000" style="-webkit-tap-highlight-color: rgba(0, 0, 0, 0);"></path><path id="ludo-svg-node-iy51mzoa" d="M 30.498046875 31.11328125 L 28.49853515625 26.69677734375 Q 26.25732421875 26.38916015625 23.994140625 26.38916015625 Q 21.6650390625 26.38916015625 19.48974609375 26.69677734375 L 17.4462890625 31.11328125 Q 18.96240234375 31.44287109375 20.599365234375 31.70654296875 Q 22.236328125 31.97021484375 23.994140625 31.97021484375 Q 25.7080078125 31.97021484375 27.35595703125 31.70654296875 Q 29.00390625 31.44287109375 30.498046875 31.11328125 Z" fill="#000" style="-webkit-tap-highlight-color: rgba(0, 0, 0, 0);"></path><path id="ludo-svg-node-iy51mzob" d="M 24.78515625 33.1787109375 Q 24.78515625 34.62890625 25.4443359375 35.6396484375 Q 26.103515625 36.650390625 26.87255859375 37.24365234375 Q 28.0810546875 38.12255859375 30.41015625 38.12255859375 Q 30.9814453125 38.12255859375 32.6513671875 37.880859375 Q 34.013671875 37.6611328125 34.8486328125 37.562255859375 Q 35.68359375 37.46337890625 35.9912109375 37.3974609375 Q 36.73828125 37.265625 37.72705078125 37.44140625 Q 38.07861328125 37.529296875 38.507080078125 37.606201171875 Q 38.935546875 37.68310546875 39.22119140625 37.94677734375 L 40.27587890625 36.23291015625 Q 39.375 35.771484375 38.38623046875 35.595703125 Q 36.80419921875 35.31005859375 35.44189453125 35.4638671875 Q 35.068359375 35.5078125 34.464111328125 35.68359375 Q 33.85986328125 35.859375 32.8271484375 36.01318359375 Q 30.60791015625 36.36474609375 30.47607421875 36.36474609375 Q 29.619140625 36.36474609375 28.98193359375 36.134033203125 Q 28.3447265625 35.9033203125 27.83935546875 35.66162109375 Q 26.6748046875 35.1123046875 25.48828125 33.1787109375 L 24.78515625 33.1787109375 M 27.1142578125 33.22265625 Q 27.4658203125 33.90380859375 28.01513671875 34.2333984375 Q 28.564453125 34.56298828125 28.828125 34.69482421875 Q 29.28955078125 34.95849609375 30.60791015625 34.95849609375 Q 31.79443359375 34.78271484375 32.991943359375 34.60693359375 Q 34.189453125 34.43115234375 35.39794921875 34.25537109375 Q 35.9912109375 34.3212890625 36.595458984375 34.288330078125 Q 37.19970703125 34.25537109375 37.8369140625 34.3212890625 Q 39.26513671875 34.453125 40.5615234375 35.04638671875 Q 41.46240234375 35.4638671875 41.98974609375 36.03515625 L 39.83642578125 39.52880859375 Q 39.44091796875 39.13330078125 38.726806640625 38.91357421875 Q 38.0126953125 38.69384765625 37.5732421875 38.69384765625 Q 37.28759765625 38.69384765625 36.990966796875 38.64990234375 Q 36.6943359375 38.60595703125 36.3427734375 38.64990234375 L 30.16845703125 39.52880859375 Q 27.61962890625 39.83642578125 25.86181640625 38.3642578125 Q 25.13671875 37.77099609375 24.708251953125 37.33154296875 Q 24.27978515625 36.89208984375 23.994140625 35.6396484375 Q 23.6865234375 36.89208984375 23.2470703125 37.37548828125 Q 22.8076171875 37.85888671875 22.08251953125 38.38623046875 Q 21.29150390625 38.95751953125 20.21484375 39.3310546875 Q 19.13818359375 39.70458984375 17.81982421875 39.52880859375 L 11.6455078125 38.64990234375 Q 11.27197265625 38.60595703125 10.975341796875 38.64990234375 Q 10.6787109375 38.69384765625 10.4150390625 38.69384765625 Q 9.95361328125 38.69384765625 9.239501953125 38.91357421875 Q 8.525390625 39.13330078125 8.1298828125 39.52880859375 L 5.99853515625 36.03515625 Q 6.50390625 35.4638671875 7.4267578125 35.04638671875 Q 8.701171875 34.453125 10.1513671875 34.3212890625 Q 10.7666015625 34.25537109375 11.370849609375 34.288330078125 Q 11.97509765625 34.3212890625 12.59033203125 34.25537109375 Q 13.77685546875 34.43115234375 14.9853515625 34.60693359375 Q 16.19384765625 34.78271484375 17.38037109375 34.95849609375 Q 18.69873046875 34.95849609375 19.16015625 34.69482421875 Q 19.40185546875 34.56298828125 19.962158203125 34.2333984375 Q 20.5224609375 33.90380859375 20.8740234375 33.22265625 Q 19.35791015625 33.0908203125 17.874755859375 32.750244140625 Q 16.3916015625 32.40966796875 15.31494140625 32.05810546875 L 17.95166015625 26.38916015625 Q 15.97412109375 25.400390625 15.194091796875 24.796142578125 Q 14.4140625 24.19189453125 13.9306640625 23.40087890625 Q 13.271484375 22.39013671875 13.095703125 21.4453125 Q 12.919921875 20.50048828125 12.94189453125 19.75341796875 Q 12.9638671875 18.43505859375 13.656005859375 16.842041015625 Q 14.34814453125 15.2490234375 16.28173828125 13.99658203125 Q 17.90771484375 12.94189453125 19.412841796875 11.8212890625 Q 20.91796875 10.70068359375 22.412109375 9.1845703125 Q 20.54443359375 8.37158203125 20.54443359375 6.5478515625 Q 20.54443359375 5.3173828125 21.544189453125 4.4384765625 Q 22.5439453125 3.5595703125 23.994140625 3.5595703125 Q 25.400390625 3.5595703125 26.422119140625 4.4384765625 Q 27.44384765625 5.3173828125 27.44384765625 6.5478515625 Q 27.44384765625 8.37158203125 25.55419921875 9.1845703125 Q 27.04833984375 10.70068359375 28.553466796875 11.8212890625 Q 30.05859375 12.94189453125 31.70654296875 13.99658203125 Q 33.6181640625 15.2490234375 34.310302734375 16.842041015625 Q 35.00244140625 18.43505859375 35.04638671875 19.75341796875 Q 35.04638671875 20.50048828125 34.859619140625 21.4453125 Q 34.6728515625 22.39013671875 34.0576171875 23.40087890625 Q 33.55224609375 24.19189453125 32.772216796875 24.796142578125 Q 31.9921875 25.400390625 30.03662109375 26.38916015625 L 32.67333984375 32.05810546875 Q 31.552734375 32.40966796875 30.08056640625 32.750244140625 Q 28.6083984375 33.0908203125 27.1142578125 33.22265625 M 23.22509765625 33.1787109375 L 22.52197265625 33.1787109375 Q 21.3134765625 35.09033203125 20.14892578125 35.66162109375 Q 19.62158203125 35.9033203125 18.984375 36.134033203125 Q 18.34716796875 36.36474609375 17.51220703125 36.36474609375 Q 17.3583984375 36.36474609375 15.1611328125 36.01318359375 Q 14.1064453125 35.859375 13.4912109375 35.68359375 Q 12.8759765625 35.5078125 12.54638671875 35.4638671875 Q 11.162109375 35.31005859375 9.60205078125 35.595703125 Q 8.59130859375 35.771484375 7.71240234375 36.23291015625 L 8.76708984375 37.94677734375 Q 9.03076171875 37.68310546875 9.459228515625 37.606201171875 Q 9.8876953125 37.529296875 10.26123046875 37.44140625 Q 11.22802734375 37.265625 11.9970703125 37.3974609375 Q 12.28271484375 37.46337890625 13.11767578125 37.562255859375 Q 13.95263671875 37.6611328125 15.3369140625 37.880859375 Q 16.98486328125 38.12255859375 17.578125 38.12255859375 Q 19.88525390625 38.12255859375 21.11572265625 37.24365234375 Q 21.86279296875 36.650390625 22.5439453125 35.6396484375 Q 23.22509765625 34.62890625 23.22509765625 33.1787109375 M 23.13720703125 19.3359375 L 21.11572265625 19.31396484375 Q 20.302734375 19.31396484375 20.302734375 18.5009765625 L 20.302734375 18.5009765625 Q 20.302734375 17.68798828125 21.11572265625 17.68798828125 L 23.13720703125 17.68798828125 L 23.13720703125 15.6005859375 Q 23.13720703125 14.765625 23.994140625 14.765625 L 23.994140625 14.765625 Q 24.85107421875 14.765625 24.85107421875 15.6005859375 L 24.85107421875 17.68798828125 L 26.91650390625 17.68798828125 Q 27.7294921875 17.68798828125 27.7294921875 18.5009765625 L 27.7294921875 18.5009765625 Q 27.7294921875 19.31396484375 26.91650390625 19.31396484375 L 24.85107421875 19.3359375 L 24.85107421875 21.3134765625 Q 24.85107421875 22.17041015625 23.994140625 22.17041015625 L 23.994140625 22.17041015625 Q 23.13720703125 22.17041015625 23.13720703125 21.3134765625 L 23.13720703125 19.3359375 M 23.994140625 8.0419921875 Q 25.7080078125 8.0419921875 25.7080078125 6.5478515625 Q 25.7080078125 5.0537109375 23.994140625 5.0537109375 Q 22.25830078125 5.0537109375 22.25830078125 6.5478515625 Q 22.25830078125 8.0419921875 23.994140625 8.0419921875 M 30.498046875 31.11328125 L 28.49853515625 26.69677734375 Q 26.25732421875 26.38916015625 23.994140625 26.38916015625 Q 21.6650390625 26.38916015625 19.48974609375 26.69677734375 L 17.4462890625 31.11328125 Q 18.96240234375 31.44287109375 20.599365234375 31.70654296875 Q 22.236328125 31.97021484375 23.994140625 31.97021484375 Q 25.7080078125 31.97021484375 27.35595703125 31.70654296875 Q 29.00390625 31.44287109375 30.498046875 31.11328125 M 23.994140625 24.89501953125 Q 26.34521484375 24.89501953125 28.71826171875 25.20263671875 Q 31.2451171875 24.43359375 32.32177734375 22.8076171875 Q 33.2666015625 21.4453125 33.2666015625 19.70947265625 Q 33.2666015625 18.720703125 32.6953125 17.490234375 Q 32.1240234375 16.259765625 30.8056640625 15.29296875 Q 29.28955078125 14.21630859375 27.509765625 12.919921875 Q 25.72998046875 11.62353515625 23.994140625 9.90966796875 Q 22.21435546875 11.62353515625 20.4345703125 12.919921875 Q 18.65478515625 14.21630859375 17.1826171875 15.29296875 Q 15.8642578125 16.259765625 15.281982421875 17.490234375 Q 14.69970703125 18.720703125 14.69970703125 19.70947265625 Q 14.69970703125 21.4013671875 15.64453125 22.8076171875 Q 16.7431640625 24.45556640625 19.27001953125 25.20263671875 Q 21.5771484375 24.89501953125 23.994140625 24.89501953125 Z Z" style="-webkit-tap-highlight-color: rgba(0, 0, 0, 0);"></path><path id="ludo-svg-node-iy51mzlu" d="M 24.78515625 33.1787109375 Q 24.78515625 34.62890625 25.4443359375 35.6396484375 Q 26.103515625 36.650390625 26.87255859375 37.24365234375 Q 28.0810546875 38.12255859375 30.41015625 38.12255859375 Q 30.9814453125 38.12255859375 32.6513671875 37.880859375 Q 34.013671875 37.6611328125 34.8486328125 37.562255859375 Q 35.68359375 37.46337890625 35.9912109375 37.3974609375 Q 36.73828125 37.265625 37.72705078125 37.44140625 Q 38.07861328125 37.529296875 38.507080078125 37.606201171875 Q 38.935546875 37.68310546875 39.22119140625 37.94677734375 L 40.27587890625 36.23291015625 Q 39.375 35.771484375 38.38623046875 35.595703125 Q 36.80419921875 35.31005859375 35.44189453125 35.4638671875 Q 35.068359375 35.5078125 34.464111328125 35.68359375 Q 33.85986328125 35.859375 32.8271484375 36.01318359375 Q 30.60791015625 36.36474609375 30.47607421875 36.36474609375 Q 29.619140625 36.36474609375 28.98193359375 36.134033203125 Q 28.3447265625 35.9033203125 27.83935546875 35.66162109375 Q 26.6748046875 35.1123046875 25.48828125 33.1787109375 L 24.78515625 33.1787109375 M 27.1142578125 33.22265625 Q 27.4658203125 33.90380859375 28.01513671875 34.2333984375 Q 28.564453125 34.56298828125 28.828125 34.69482421875 Q 29.28955078125 34.95849609375 30.60791015625 34.95849609375 Q 31.79443359375 34.78271484375 32.991943359375 34.60693359375 Q 34.189453125 34.43115234375 35.39794921875 34.25537109375 Q 35.9912109375 34.3212890625 36.595458984375 34.288330078125 Q 37.19970703125 34.25537109375 37.8369140625 34.3212890625 Q 39.26513671875 34.453125 40.5615234375 35.04638671875 Q 41.46240234375 35.4638671875 41.98974609375 36.03515625 L 39.83642578125 39.52880859375 Q 39.44091796875 39.13330078125 38.726806640625 38.91357421875 Q 38.0126953125 38.69384765625 37.5732421875 38.69384765625 Q 37.28759765625 38.69384765625 36.990966796875 38.64990234375 Q 36.6943359375 38.60595703125 36.3427734375 38.64990234375 L 30.16845703125 39.52880859375 Q 27.61962890625 39.83642578125 25.86181640625 38.3642578125 Q 25.13671875 37.77099609375 24.708251953125 37.33154296875 Q 24.27978515625 36.89208984375 23.994140625 35.6396484375 Q 23.6865234375 36.89208984375 23.2470703125 37.37548828125 Q 22.8076171875 37.85888671875 22.08251953125 38.38623046875 Q 21.29150390625 38.95751953125 20.21484375 39.3310546875 Q 19.13818359375 39.70458984375 17.81982421875 39.52880859375 L 11.6455078125 38.64990234375 Q 11.27197265625 38.60595703125 10.975341796875 38.64990234375 Q 10.6787109375 38.69384765625 10.4150390625 38.69384765625 Q 9.95361328125 38.69384765625 9.239501953125 38.91357421875 Q 8.525390625 39.13330078125 8.1298828125 39.52880859375 L 5.99853515625 36.03515625 Q 6.50390625 35.4638671875 7.4267578125 35.04638671875 Q 8.701171875 34.453125 10.1513671875 34.3212890625 Q 10.7666015625 34.25537109375 11.370849609375 34.288330078125 Q 11.97509765625 34.3212890625 12.59033203125 34.25537109375 Q 13.77685546875 34.43115234375 14.9853515625 34.60693359375 Q 16.19384765625 34.78271484375 17.38037109375 34.95849609375 Q 18.69873046875 34.95849609375 19.16015625 34.69482421875 Q 19.40185546875 34.56298828125 19.962158203125 34.2333984375 Q 20.5224609375 33.90380859375 20.8740234375 33.22265625 Q 19.35791015625 33.0908203125 17.874755859375 32.750244140625 Q 16.3916015625 32.40966796875 15.31494140625 32.05810546875 L 17.95166015625 26.38916015625 Q 15.97412109375 25.400390625 15.194091796875 24.796142578125 Q 14.4140625 24.19189453125 13.9306640625 23.40087890625 Q 13.271484375 22.39013671875 13.095703125 21.4453125 Q 12.919921875 20.50048828125 12.94189453125 19.75341796875 Q 12.9638671875 18.43505859375 13.656005859375 16.842041015625 Q 14.34814453125 15.2490234375 16.28173828125 13.99658203125 Q 17.90771484375 12.94189453125 19.412841796875 11.8212890625 Q 20.91796875 10.70068359375 22.412109375 9.1845703125 Q 20.54443359375 8.37158203125 20.54443359375 6.5478515625 Q 20.54443359375 5.3173828125 21.544189453125 4.4384765625 Q 22.5439453125 3.5595703125 23.994140625 3.5595703125 Q 25.400390625 3.5595703125 26.422119140625 4.4384765625 Q 27.44384765625 5.3173828125 27.44384765625 6.5478515625 Q 27.44384765625 8.37158203125 25.55419921875 9.1845703125 Q 27.04833984375 10.70068359375 28.553466796875 11.8212890625 Q 30.05859375 12.94189453125 31.70654296875 13.99658203125 Q 33.6181640625 15.2490234375 34.310302734375 16.842041015625 Q 35.00244140625 18.43505859375 35.04638671875 19.75341796875 Q 35.04638671875 20.50048828125 34.859619140625 21.4453125 Q 34.6728515625 22.39013671875 34.0576171875 23.40087890625 Q 33.55224609375 24.19189453125 32.772216796875 24.796142578125 Q 31.9921875 25.400390625 30.03662109375 26.38916015625 L 32.67333984375 32.05810546875 Q 31.552734375 32.40966796875 30.08056640625 32.750244140625 Q 28.6083984375 33.0908203125 27.1142578125 33.22265625 M 23.22509765625 33.1787109375 L 22.52197265625 33.1787109375 Q 21.3134765625 35.09033203125 20.14892578125 35.66162109375 Q 19.62158203125 35.9033203125 18.984375 36.134033203125 Q 18.34716796875 36.36474609375 17.51220703125 36.36474609375 Q 17.3583984375 36.36474609375 15.1611328125 36.01318359375 Q 14.1064453125 35.859375 13.4912109375 35.68359375 Q 12.8759765625 35.5078125 12.54638671875 35.4638671875 Q 11.162109375 35.31005859375 9.60205078125 35.595703125 Q 8.59130859375 35.771484375 7.71240234375 36.23291015625 L 8.76708984375 37.94677734375 Q 9.03076171875 37.68310546875 9.459228515625 37.606201171875 Q 9.8876953125 37.529296875 10.26123046875 37.44140625 Q 11.22802734375 37.265625 11.9970703125 37.3974609375 Q 12.28271484375 37.46337890625 13.11767578125 37.562255859375 Q 13.95263671875 37.6611328125 15.3369140625 37.880859375 Q 16.98486328125 38.12255859375 17.578125 38.12255859375 Q 19.88525390625 38.12255859375 21.11572265625 37.24365234375 Q 21.86279296875 36.650390625 22.5439453125 35.6396484375 Q 23.22509765625 34.62890625 23.22509765625 33.1787109375 M 23.13720703125 19.3359375 L 21.11572265625 19.31396484375 Q 20.302734375 19.31396484375 20.302734375 18.5009765625 L 20.302734375 18.5009765625 Q 20.302734375 17.68798828125 21.11572265625 17.68798828125 L 23.13720703125 17.68798828125 L 23.13720703125 15.6005859375 Q 23.13720703125 14.765625 23.994140625 14.765625 L 23.994140625 14.765625 Q 24.85107421875 14.765625 24.85107421875 15.6005859375 L 24.85107421875 17.68798828125 L 26.91650390625 17.68798828125 Q 27.7294921875 17.68798828125 27.7294921875 18.5009765625 L 27.7294921875 18.5009765625 Q 27.7294921875 19.31396484375 26.91650390625 19.31396484375 L 24.85107421875 19.3359375 L 24.85107421875 21.3134765625 Q 24.85107421875 22.17041015625 23.994140625 22.17041015625 L 23.994140625 22.17041015625 Q 23.13720703125 22.17041015625 23.13720703125 21.3134765625 L 23.13720703125 19.3359375 M 23.994140625 8.0419921875 Q 25.7080078125 8.0419921875 25.7080078125 6.5478515625 Q 25.7080078125 5.0537109375 23.994140625 5.0537109375 Q 22.25830078125 5.0537109375 22.25830078125 6.5478515625 Q 22.25830078125 8.0419921875 23.994140625 8.0419921875 M 30.498046875 31.11328125 L 28.49853515625 26.69677734375 Q 26.25732421875 26.38916015625 23.994140625 26.38916015625 Q 21.6650390625 26.38916015625 19.48974609375 26.69677734375 L 17.4462890625 31.11328125 Q 18.96240234375 31.44287109375 20.599365234375 31.70654296875 Q 22.236328125 31.97021484375 23.994140625 31.97021484375 Q 25.7080078125 31.97021484375 27.35595703125 31.70654296875 Q 29.00390625 31.44287109375 30.498046875 31.11328125 M 23.994140625 24.89501953125 Q 26.34521484375 24.89501953125 28.71826171875 25.20263671875 Q 31.2451171875 24.43359375 32.32177734375 22.8076171875 Q 33.2666015625 21.4453125 33.2666015625 19.70947265625 Q 33.2666015625 18.720703125 32.6953125 17.490234375 Q 32.1240234375 16.259765625 30.8056640625 15.29296875 Q 29.28955078125 14.21630859375 27.509765625 12.919921875 Q 25.72998046875 11.62353515625 23.994140625 9.90966796875 Q 22.21435546875 11.62353515625 20.4345703125 12.919921875 Q 18.65478515625 14.21630859375 17.1826171875 15.29296875 Q 15.8642578125 16.259765625 15.281982421875 17.490234375 Q 14.69970703125 18.720703125 14.69970703125 19.70947265625 Q 14.69970703125 21.4013671875 15.64453125 22.8076171875 Q 16.7431640625 24.45556640625 19.27001953125 25.20263671875 Q 21.5771484375 24.89501953125 23.994140625 24.89501953125 Z Z" fill-rule="even-odd" style="-webkit-tap-highlight-color: rgba(0, 0, 0, 0); fill: rgb(255, 255, 255); stroke-width: 0;"></path></g></svg>