<svg xmlns="http://www.w3.org/2000/svg" version="1.1" id="ludo-svg-node-iy4xtjsj" width="45" height="45" viewBox="0 0 45 45" style="-webkit-tap-highlight-color: rgba(0, 0, 0, 0); width: 45px; height: 45px;"><g id="ludo-svg-node-iy4xtjsk" style="-webkit-tap-highlight-color: rgba(0, 0, 0, 0);"><path id="ludo-svg-node-iy4xtjv1" d="M 18.945 22.68 Q 18.945 22.68 18.945 22.2975 Q 18.945 21.915 19.485 21.51 Q 19.8 21.375 20.79 20.25 Q 19.215 19.53 18.2025 18.067500000000003 Q 17.189999999999998 16.605 17.189999999999998 14.715 Q 17.189999999999998 12.195 19.0125 10.417500000000004 Q 20.835 8.64 23.265 8.64 Q 25.74 8.64 27.5175 10.417500000000004 Q 29.294999999999998 12.195 29.294999999999998 14.715 Q 29.294999999999998 16.605 28.2825 18.067500000000003 Q 27.27 19.53 25.74 20.25 Q 26.685 21.375 27.044999999999998 21.51 Q 27.494999999999997 21.915 27.494999999999997 22.68 Q 27.494999999999997 23.445 27.044999999999998 23.895 L 26.505 24.435000000000002 Q 27.314999999999998 26.415 28.035 28.305 Q 28.755 30.195 29.43 31.68 Q 29.97 33.03 30.9375 33.435 Q 31.904999999999998 33.84 31.904999999999998 33.84 Q 31.904999999999998 33.84 33.839999999999996 35.01 Q 35.775 36.18 36.135 37.125 Q 36.449999999999996 38.025 36.5625 39.7125 Q 36.675 41.4 36.765 43.29 L 9.855 43.29 Q 9.855 41.4 9.945 39.7125 Q 10.035 38.025 10.395 37.125 Q 10.665 36.18 12.645 35.01 Q 14.625 33.84 14.625 33.84 Q 14.625 33.84 15.57 33.435 Q 16.515 33.03 17.099999999999998 31.68 Q 17.73 30.195 18.495 28.305 Q 19.259999999999998 26.415 20.025 24.435000000000002 L 19.485 23.895 Q 18.945 23.445 18.945 22.68 Z" fill="#fff" style="-webkit-tap-highlight-color: rgba(0, 0, 0, 0);"></path><path id="ludo-svg-node-iy4xtjv2" d="M 18.945 22.68 Q 18.945 22.68 18.945 22.2975 Q 18.945 21.915 19.485 21.51 Q 19.8 21.375 20.79 20.25 Q 19.215 19.53 18.2025 18.067500000000003 Q 17.189999999999998 16.605 17.189999999999998 14.715 Q 17.189999999999998 12.195 19.0125 10.417500000000004 Q 20.835 8.64 23.265 8.64 Q 25.74 8.64 27.5175 10.417500000000004 Q 29.294999999999998 12.195 29.294999999999998 14.715 Q 29.294999999999998 16.605 28.2825 18.067500000000003 Q 27.27 19.53 25.74 20.25 Q 26.685 21.375 27.044999999999998 21.51 Q 27.494999999999997 21.915 27.494999999999997 22.68 Q 27.494999999999997 23.445 27.044999999999998 23.895 L 26.505 24.435000000000002 Q 27.314999999999998 26.415 28.035 28.305 Q 28.755 30.195 29.43 31.68 Q 29.97 33.03 30.9375 33.435 Q 31.904999999999998 33.84 31.904999999999998 33.84 Q 31.904999999999998 33.84 33.839999999999996 35.01 Q 35.775 36.18 36.135 37.125 Q 36.449999999999996 38.025 36.5625 39.7125 Q 36.675 41.4 36.765 43.29 L 9.855 43.29 Q 9.855 41.4 9.945 39.7125 Q 10.035 38.025 10.395 37.125 Q 10.665 36.18 12.645 35.01 Q 14.625 33.84 14.625 33.84 Q 14.625 33.84 15.57 33.435 Q 16.515 33.03 17.099999999999998 31.68 Q 17.73 30.195 18.495 28.305 Q 19.259999999999998 26.415 20.025 24.435000000000002 L 19.485 23.895 Q 18.945 23.445 18.945 22.68 M 23.13 20.565 Q 21.24 22.59 21.105 22.725 Q 21.24 22.905 22.162499999999998 23.8275 Q 23.085 24.75 23.265 24.975 Q 23.4 24.75 24.322499999999998 23.8275 Q 25.244999999999997 22.905 25.515 22.725 Q 25.244999999999997 22.59 24.232499999999998 21.5775 Q 23.22 20.565 23.13 20.565 Z Z" style="-webkit-tap-highlight-color: rgba(0, 0, 0, 0);"></path><path id="ludo-svg-node-iy4xtjsl" d="M 18.945 22.68 Q 18.945 22.68 18.945 22.2975 Q 18.945 21.915 19.485 21.51 Q 19.8 21.375 20.79 20.25 Q 19.215 19.53 18.2025 18.067500000000003 Q 17.189999999999998 16.605 17.189999999999998 14.715 Q 17.189999999999998 12.195 19.0125 10.417500000000004 Q 20.835 8.64 23.265 8.64 Q 25.74 8.64 27.5175 10.417500000000004 Q 29.294999999999998 12.195 29.294999999999998 14.715 Q 29.294999999999998 16.605 28.2825 18.067500000000003 Q 27.27 19.53 25.74 20.25 Q 26.685 21.375 27.044999999999998 21.51 Q 27.494999999999997 21.915 27.494999999999997 22.68 Q 27.494999999999997 23.445 27.044999999999998 23.895 L 26.505 24.435000000000002 Q 27.314999999999998 26.415 28.035 28.305 Q 28.755 30.195 29.43 31.68 Q 29.97 33.03 30.9375 33.435 Q 31.904999999999998 33.84 31.904999999999998 33.84 Q 31.904999999999998 33.84 33.839999999999996 35.01 Q 35.775 36.18 36.135 37.125 Q 36.449999999999996 38.025 36.5625 39.7125 Q 36.675 41.4 36.765 43.29 L 9.855 43.29 Q 9.855 41.4 9.945 39.7125 Q 10.035 38.025 10.395 37.125 Q 10.665 36.18 12.645 35.01 Q 14.625 33.84 14.625 33.84 Q 14.625 33.84 15.57 33.435 Q 16.515 33.03 17.099999999999998 31.68 Q 17.73 30.195 18.495 28.305 Q 19.259999999999998 26.415 20.025 24.435000000000002 L 19.485 23.895 Q 18.945 23.445 18.945 22.68 M 23.13 20.565 Q 21.24 22.59 21.105 22.725 Q 21.24 22.905 22.162499999999998 23.8275 Q 23.085 24.75 23.265 24.975 Q 23.4 24.75 24.322499999999998 23.8275 Q 25.244999999999997 22.905 25.515 22.725 Q 25.244999999999997 22.59 24.232499999999998 21.5775 Q 23.22 20.565 23.13 20.565 Z Z" fill-rule="even-odd" style="-webkit-tap-highlight-color: rgba(0, 0, 0, 0); fill: rgb(0, 0, 0); stroke-width: 0;"></path></g></svg>